%TF.GenerationSoftware,KiCad,Pcbnew,10.0.0*%
%TF.CreationDate,2026-08-22T21:27:56-05:00*%
%TF.ProjectId,2027Payload,32303237-5061-4796-9c6f-61642e6b6963,rev?*%
%TF.SameCoordinates,PXac9d740PY90f5600*%
%TF.FileFunction,Legend,Bot*%
%TF.FilePolarity,Positive*%
%FSLAX46Y46*%
G04 Gerber Fmt 4.6, Leading zero omitted, Abs format (unit mm)*
G04 Created by KiCad (PCBNEW 10.0.0) date 2026-08-22 21:27:56*
%MOMM*%
%LPD*%
G01*
G04 APERTURE LIST*
%ADD10C,0.100000*%
G04 APERTURE END LIST*
D10*
X50943734Y87332343D02*
X50896115Y87379962D01*
X50896115Y87379962D02*
X50800877Y87427581D01*
X50800877Y87427581D02*
X50562782Y87427581D01*
X50562782Y87427581D02*
X50467544Y87379962D01*
X50467544Y87379962D02*
X50419925Y87332343D01*
X50419925Y87332343D02*
X50372306Y87237105D01*
X50372306Y87237105D02*
X50372306Y87141867D01*
X50372306Y87141867D02*
X50419925Y86999010D01*
X50419925Y86999010D02*
X50991353Y86427581D01*
X50991353Y86427581D02*
X50372306Y86427581D01*
X49753258Y87427581D02*
X49658020Y87427581D01*
X49658020Y87427581D02*
X49562782Y87379962D01*
X49562782Y87379962D02*
X49515163Y87332343D01*
X49515163Y87332343D02*
X49467544Y87237105D01*
X49467544Y87237105D02*
X49419925Y87046629D01*
X49419925Y87046629D02*
X49419925Y86808534D01*
X49419925Y86808534D02*
X49467544Y86618058D01*
X49467544Y86618058D02*
X49515163Y86522820D01*
X49515163Y86522820D02*
X49562782Y86475200D01*
X49562782Y86475200D02*
X49658020Y86427581D01*
X49658020Y86427581D02*
X49753258Y86427581D01*
X49753258Y86427581D02*
X49848496Y86475200D01*
X49848496Y86475200D02*
X49896115Y86522820D01*
X49896115Y86522820D02*
X49943734Y86618058D01*
X49943734Y86618058D02*
X49991353Y86808534D01*
X49991353Y86808534D02*
X49991353Y87046629D01*
X49991353Y87046629D02*
X49943734Y87237105D01*
X49943734Y87237105D02*
X49896115Y87332343D01*
X49896115Y87332343D02*
X49848496Y87379962D01*
X49848496Y87379962D02*
X49753258Y87427581D01*
X49038972Y87332343D02*
X48991353Y87379962D01*
X48991353Y87379962D02*
X48896115Y87427581D01*
X48896115Y87427581D02*
X48658020Y87427581D01*
X48658020Y87427581D02*
X48562782Y87379962D01*
X48562782Y87379962D02*
X48515163Y87332343D01*
X48515163Y87332343D02*
X48467544Y87237105D01*
X48467544Y87237105D02*
X48467544Y87141867D01*
X48467544Y87141867D02*
X48515163Y86999010D01*
X48515163Y86999010D02*
X49086591Y86427581D01*
X49086591Y86427581D02*
X48467544Y86427581D01*
X47610401Y87427581D02*
X47800877Y87427581D01*
X47800877Y87427581D02*
X47896115Y87379962D01*
X47896115Y87379962D02*
X47943734Y87332343D01*
X47943734Y87332343D02*
X48038972Y87189486D01*
X48038972Y87189486D02*
X48086591Y86999010D01*
X48086591Y86999010D02*
X48086591Y86618058D01*
X48086591Y86618058D02*
X48038972Y86522820D01*
X48038972Y86522820D02*
X47991353Y86475200D01*
X47991353Y86475200D02*
X47896115Y86427581D01*
X47896115Y86427581D02*
X47705639Y86427581D01*
X47705639Y86427581D02*
X47610401Y86475200D01*
X47610401Y86475200D02*
X47562782Y86522820D01*
X47562782Y86522820D02*
X47515163Y86618058D01*
X47515163Y86618058D02*
X47515163Y86856153D01*
X47515163Y86856153D02*
X47562782Y86951391D01*
X47562782Y86951391D02*
X47610401Y86999010D01*
X47610401Y86999010D02*
X47705639Y87046629D01*
X47705639Y87046629D02*
X47896115Y87046629D01*
X47896115Y87046629D02*
X47991353Y86999010D01*
X47991353Y86999010D02*
X48038972Y86951391D01*
X48038972Y86951391D02*
X48086591Y86856153D01*
X54362782Y88751391D02*
X54219925Y88703772D01*
X54219925Y88703772D02*
X54172306Y88656153D01*
X54172306Y88656153D02*
X54124687Y88560915D01*
X54124687Y88560915D02*
X54124687Y88418058D01*
X54124687Y88418058D02*
X54172306Y88322820D01*
X54172306Y88322820D02*
X54219925Y88275200D01*
X54219925Y88275200D02*
X54315163Y88227581D01*
X54315163Y88227581D02*
X54696115Y88227581D01*
X54696115Y88227581D02*
X54696115Y89227581D01*
X54696115Y89227581D02*
X54362782Y89227581D01*
X54362782Y89227581D02*
X54267544Y89179962D01*
X54267544Y89179962D02*
X54219925Y89132343D01*
X54219925Y89132343D02*
X54172306Y89037105D01*
X54172306Y89037105D02*
X54172306Y88941867D01*
X54172306Y88941867D02*
X54219925Y88846629D01*
X54219925Y88846629D02*
X54267544Y88799010D01*
X54267544Y88799010D02*
X54362782Y88751391D01*
X54362782Y88751391D02*
X54696115Y88751391D01*
X53124687Y88227581D02*
X53458020Y88703772D01*
X53696115Y88227581D02*
X53696115Y89227581D01*
X53696115Y89227581D02*
X53315163Y89227581D01*
X53315163Y89227581D02*
X53219925Y89179962D01*
X53219925Y89179962D02*
X53172306Y89132343D01*
X53172306Y89132343D02*
X53124687Y89037105D01*
X53124687Y89037105D02*
X53124687Y88894248D01*
X53124687Y88894248D02*
X53172306Y88799010D01*
X53172306Y88799010D02*
X53219925Y88751391D01*
X53219925Y88751391D02*
X53315163Y88703772D01*
X53315163Y88703772D02*
X53696115Y88703772D01*
X52696115Y88227581D02*
X52696115Y89227581D01*
X51648497Y88322820D02*
X51696116Y88275200D01*
X51696116Y88275200D02*
X51838973Y88227581D01*
X51838973Y88227581D02*
X51934211Y88227581D01*
X51934211Y88227581D02*
X52077068Y88275200D01*
X52077068Y88275200D02*
X52172306Y88370439D01*
X52172306Y88370439D02*
X52219925Y88465677D01*
X52219925Y88465677D02*
X52267544Y88656153D01*
X52267544Y88656153D02*
X52267544Y88799010D01*
X52267544Y88799010D02*
X52219925Y88989486D01*
X52219925Y88989486D02*
X52172306Y89084724D01*
X52172306Y89084724D02*
X52077068Y89179962D01*
X52077068Y89179962D02*
X51934211Y89227581D01*
X51934211Y89227581D02*
X51838973Y89227581D01*
X51838973Y89227581D02*
X51696116Y89179962D01*
X51696116Y89179962D02*
X51648497Y89132343D01*
X51219925Y88751391D02*
X50886592Y88751391D01*
X50743735Y88227581D02*
X51219925Y88227581D01*
X51219925Y88227581D02*
X51219925Y89227581D01*
X51219925Y89227581D02*
X50743735Y89227581D01*
X49553258Y88227581D02*
X49553258Y89227581D01*
X49553258Y89227581D02*
X49219925Y88513296D01*
X49219925Y88513296D02*
X48886592Y89227581D01*
X48886592Y89227581D02*
X48886592Y88227581D01*
X47838973Y88322820D02*
X47886592Y88275200D01*
X47886592Y88275200D02*
X48029449Y88227581D01*
X48029449Y88227581D02*
X48124687Y88227581D01*
X48124687Y88227581D02*
X48267544Y88275200D01*
X48267544Y88275200D02*
X48362782Y88370439D01*
X48362782Y88370439D02*
X48410401Y88465677D01*
X48410401Y88465677D02*
X48458020Y88656153D01*
X48458020Y88656153D02*
X48458020Y88799010D01*
X48458020Y88799010D02*
X48410401Y88989486D01*
X48410401Y88989486D02*
X48362782Y89084724D01*
X48362782Y89084724D02*
X48267544Y89179962D01*
X48267544Y89179962D02*
X48124687Y89227581D01*
X48124687Y89227581D02*
X48029449Y89227581D01*
X48029449Y89227581D02*
X47886592Y89179962D01*
X47886592Y89179962D02*
X47838973Y89132343D01*
X47410401Y88227581D02*
X47410401Y89227581D01*
X47410401Y89227581D02*
X46838973Y88227581D01*
X46838973Y88227581D02*
X46838973Y89227581D01*
X46362782Y88751391D02*
X46029449Y88751391D01*
X45886592Y88227581D02*
X46362782Y88227581D01*
X46362782Y88227581D02*
X46362782Y89227581D01*
X46362782Y89227581D02*
X45886592Y89227581D01*
X44981830Y88227581D02*
X45458020Y88227581D01*
X45458020Y88227581D02*
X45458020Y89227581D01*
X44648496Y88751391D02*
X44315163Y88751391D01*
X44172306Y88227581D02*
X44648496Y88227581D01*
X44648496Y88227581D02*
X44648496Y89227581D01*
X44648496Y89227581D02*
X44172306Y89227581D01*
X43553258Y88703772D02*
X43553258Y88227581D01*
X43886591Y89227581D02*
X43553258Y88703772D01*
X43553258Y88703772D02*
X43219925Y89227581D01*
M02*
