%TF.GenerationSoftware,KiCad,Pcbnew,10.0.0*%
%TF.CreationDate,2026-09-01T15:40:54-05:00*%
%TF.ProjectId,2027Payload,32303237-5061-4796-9c6f-61642e6b6963,rev?*%
%TF.SameCoordinates,PXac9d740PY90f5600*%
%TF.FileFunction,Copper,L3,Inr*%
%TF.FilePolarity,Positive*%
%FSLAX46Y46*%
G04 Gerber Fmt 4.6, Leading zero omitted, Abs format (unit mm)*
G04 Created by KiCad (PCBNEW 10.0.0) date 2026-09-01 15:40:54*
%MOMM*%
%LPD*%
G01*
G04 APERTURE LIST*
G04 Aperture macros list*
%AMRoundRect*
0 Rectangle with rounded corners*
0 $1 Rounding radius*
0 $2 $3 $4 $5 $6 $7 $8 $9 X,Y pos of 4 corners*
0 Add a 4 corners polygon primitive as box body*
4,1,4,$2,$3,$4,$5,$6,$7,$8,$9,$2,$3,0*
0 Add four circle primitives for the rounded corners*
1,1,$1+$1,$2,$3*
1,1,$1+$1,$4,$5*
1,1,$1+$1,$6,$7*
1,1,$1+$1,$8,$9*
0 Add four rect primitives between the rounded corners*
20,1,$1+$1,$2,$3,$4,$5,0*
20,1,$1+$1,$4,$5,$6,$7,0*
20,1,$1+$1,$6,$7,$8,$9,0*
20,1,$1+$1,$8,$9,$2,$3,0*%
G04 Aperture macros list end*
%TA.AperFunction,ComponentPad*%
%ADD10C,0.450000*%
%TD*%
%TA.AperFunction,ComponentPad*%
%ADD11R,1.700000X1.700000*%
%TD*%
%TA.AperFunction,ComponentPad*%
%ADD12C,1.700000*%
%TD*%
%TA.AperFunction,ComponentPad*%
%ADD13C,0.400000*%
%TD*%
%TA.AperFunction,ComponentPad*%
%ADD14RoundRect,0.250000X0.625000X-0.350000X0.625000X0.350000X-0.625000X0.350000X-0.625000X-0.350000X0*%
%TD*%
%TA.AperFunction,ComponentPad*%
%ADD15O,1.750000X1.200000*%
%TD*%
%TA.AperFunction,ViaPad*%
%ADD16C,0.700000*%
%TD*%
%TA.AperFunction,ViaPad*%
%ADD17C,0.900000*%
%TD*%
%TA.AperFunction,ViaPad*%
%ADD18C,0.600000*%
%TD*%
G04 APERTURE END LIST*
D10*
%TO.N,GND*%
%TO.C,U9*%
X13975000Y79885000D03*
X13400000Y78935000D03*
X13400000Y80835000D03*
X12825000Y79885000D03*
%TD*%
D11*
%TO.N,Net-(J5-Pin_1)*%
%TO.C,J5*%
X1800000Y23620000D03*
D12*
%TO.N,+5V*%
X1800000Y26160000D03*
%TO.N,GND*%
X1800000Y28700000D03*
%TD*%
D13*
%TO.N,GND*%
%TO.C,U1*%
X27350000Y81980000D03*
X27350000Y80580000D03*
X28050000Y82680000D03*
X28050000Y81280000D03*
X28050000Y79880000D03*
X28750000Y81980000D03*
X28750000Y80580000D03*
X29450000Y82680000D03*
X29450000Y81280000D03*
X29450000Y79880000D03*
X30150000Y81980000D03*
X30150000Y80580000D03*
%TD*%
D11*
%TO.N,Net-(J12-Pin_1)*%
%TO.C,J12*%
X42045000Y2045000D03*
D12*
%TO.N,+5V*%
X44585000Y2045000D03*
%TO.N,GND*%
X47125000Y2045000D03*
%TD*%
D11*
%TO.N,Net-(J3-Pin_1)*%
%TO.C,J3*%
X1800000Y41700000D03*
D12*
%TO.N,+5V*%
X1800000Y44240000D03*
%TO.N,GND*%
X1800000Y46780000D03*
%TD*%
D11*
%TO.N,Net-(J4-Pin_1)*%
%TO.C,J4*%
X1800000Y32620000D03*
D12*
%TO.N,+5V*%
X1800000Y35160000D03*
%TO.N,GND*%
X1800000Y37700000D03*
%TD*%
D14*
%TO.N,IO17*%
%TO.C,J11*%
X53050000Y39900000D03*
D15*
%TO.N,IO18*%
X53050000Y41900000D03*
%TO.N,GND*%
X53050000Y43900000D03*
%TD*%
D11*
%TO.N,GND*%
%TO.C,J10*%
X54260000Y77140000D03*
D12*
%TO.N,IO38*%
X56800000Y77140000D03*
%TO.N,IO39*%
X54260000Y74600000D03*
%TO.N,IO40*%
X56800000Y74600000D03*
%TO.N,IO41*%
X54260000Y72060000D03*
%TO.N,+3.3V*%
X56800000Y72060000D03*
%TD*%
D13*
%TO.N,GND*%
%TO.C,U3*%
X46600000Y33450000D03*
X46600000Y32350000D03*
%TD*%
D14*
%TO.N,5V_SW*%
%TO.C,J8*%
X53050000Y28500000D03*
D15*
X53050000Y30500000D03*
%TO.N,GND*%
X53050000Y32500000D03*
X53050000Y34500000D03*
%TD*%
D16*
%TO.N,Net-(U2-MODE)*%
X26800000Y24600000D03*
%TO.N,IO5*%
X26000000Y78400000D03*
%TO.N,IO8*%
X24000000Y68750000D03*
X15250000Y63750000D03*
%TO.N,IO9*%
X16250000Y59750000D03*
X27500000Y60000000D03*
%TO.N,IO5*%
X24250000Y56750000D03*
D17*
%TO.N,+3.3V*%
X23750000Y66750000D03*
X30250000Y63250000D03*
X16000000Y62500000D03*
X25750000Y56750000D03*
%TO.N,GND*%
X21750000Y57000000D03*
D16*
%TO.N,+3.3V*%
X20250000Y57000000D03*
D17*
X21500000Y65250000D03*
%TO.N,GND*%
X19250000Y64750000D03*
X17750000Y64750000D03*
X41225000Y26325000D03*
D16*
X37250000Y89000000D03*
D17*
X53000000Y11570000D03*
X45000000Y26600000D03*
X41225000Y18012500D03*
X7250000Y63500000D03*
X55755000Y7480000D03*
D16*
X32400000Y18000000D03*
D17*
X29250000Y14750000D03*
D16*
X6500000Y66200000D03*
D17*
X24000000Y21000000D03*
X27500000Y53500000D03*
X41225000Y16350000D03*
X9840000Y67780000D03*
D16*
X3490000Y80570000D03*
X2480000Y80570000D03*
D17*
X33280000Y50280000D03*
X45750000Y64500000D03*
D16*
X7500000Y66200000D03*
X9090000Y79710000D03*
D17*
X43200000Y40200000D03*
X53000000Y8860000D03*
D16*
X23250000Y89000000D03*
D17*
X35200000Y7000000D03*
X49200000Y38800000D03*
X53000000Y10215000D03*
X4600000Y84000000D03*
X12200000Y82300000D03*
X30000000Y26500000D03*
X20400000Y34800000D03*
X14300000Y88200000D03*
X23600000Y27800000D03*
X29500000Y56500000D03*
X41225000Y24662500D03*
D16*
X35400000Y17800000D03*
D17*
X41225000Y19675000D03*
X43150000Y89000000D03*
D16*
X48350000Y81550000D03*
D17*
X48500000Y56000000D03*
X46000000Y38800000D03*
X20400000Y36600000D03*
X10750000Y21780000D03*
D16*
X2470000Y66200000D03*
D17*
X41500000Y89050000D03*
D16*
X48350000Y82750000D03*
D17*
X54400000Y7480000D03*
X19600000Y88900000D03*
X33750000Y53250000D03*
X17900000Y88900000D03*
X11540000Y67700000D03*
X48500000Y63500000D03*
D16*
X3480000Y66200000D03*
D17*
X33440000Y51880000D03*
D16*
X15250000Y73750000D03*
D17*
X12800000Y3500000D03*
X41225000Y21337500D03*
X42000000Y35200000D03*
D16*
X36800000Y21200000D03*
D17*
X7250000Y55000000D03*
X47600000Y38800000D03*
X9410000Y3320000D03*
X43400000Y35200000D03*
X41225000Y23000000D03*
D16*
X6510000Y80570000D03*
D17*
X57110000Y7480000D03*
X48800000Y27200000D03*
X12510000Y83430000D03*
D16*
X7510000Y80570000D03*
D17*
X12800000Y1800000D03*
%TO.N,+3.3V*%
X28000000Y50500000D03*
X33000000Y55000000D03*
D16*
X6200000Y87600000D03*
D17*
X47250000Y64200000D03*
X25570000Y13950000D03*
X7250000Y62000000D03*
D16*
X16000000Y88600000D03*
X22800000Y87700000D03*
D17*
X7500000Y53500000D03*
D16*
%TO.N,IO4*%
X25150000Y84230000D03*
%TO.N,IO9*%
X2500000Y53000000D03*
D17*
X7250000Y59750000D03*
%TO.N,IO8*%
X24000000Y74250000D03*
%TO.N,EN*%
X41400000Y74600000D03*
X36900000Y78900000D03*
D16*
%TO.N,+5V*%
X7270000Y82380000D03*
X4695000Y44775000D03*
D17*
X42000000Y28600000D03*
D16*
X45600000Y34800000D03*
D17*
X27750000Y18100000D03*
X43600000Y29800000D03*
X42000000Y29800000D03*
X6500000Y36250000D03*
X24250000Y25000000D03*
X6500000Y34750000D03*
X42000000Y31000000D03*
X43600000Y31000000D03*
D16*
%TO.N,VBUS*%
X10200000Y73900000D03*
X10700000Y76400000D03*
X4900000Y73900000D03*
D18*
%TO.N,Net-(U2-MODE)*%
X31600000Y20800000D03*
D16*
%TO.N,Net-(U2-BP5)*%
X27600000Y23000000D03*
X32600000Y16800000D03*
%TO.N,5V_LOGIC*%
X9600000Y83040000D03*
X9100000Y80700000D03*
D17*
%TO.N,IO15*%
X6250000Y23250000D03*
X19500000Y78250000D03*
D16*
%TO.N,IO1*%
X45650000Y86870000D03*
D17*
X43200000Y26400000D03*
%TO.N,IO14*%
X32750000Y68750000D03*
X40250000Y6500000D03*
%TO.N,IO6*%
X18480000Y81350000D03*
X6000000Y41250000D03*
%TO.N,IO7*%
X19000000Y79500000D03*
X6500000Y31750000D03*
D16*
%TO.N,IO17*%
X40770000Y56200000D03*
X32840000Y75070000D03*
%TO.N,IO18*%
X27330000Y76270000D03*
X42050000Y57000000D03*
%TO.N,IO39*%
X48300000Y78400000D03*
X49100000Y76400000D03*
%TO.N,IO41*%
X41900000Y80810000D03*
X43400000Y76800000D03*
%TD*%
%TA.AperFunction,Conductor*%
%TO.N,+3.3V*%
G36*
X19283933Y89679815D02*
G01*
X19329688Y89627011D01*
X19339632Y89557853D01*
X19310607Y89494297D01*
X19285785Y89472398D01*
X19185331Y89405277D01*
X19185327Y89405274D01*
X19094726Y89314673D01*
X19094723Y89314669D01*
X19023538Y89208134D01*
X19023533Y89208125D01*
X18974499Y89089745D01*
X18974497Y89089739D01*
X18949500Y88964072D01*
X18949500Y88964069D01*
X18949500Y88835931D01*
X18949500Y88835929D01*
X18949499Y88835929D01*
X18974497Y88710262D01*
X18974499Y88710256D01*
X19023533Y88591876D01*
X19023538Y88591867D01*
X19094723Y88485332D01*
X19094726Y88485328D01*
X19185327Y88394727D01*
X19185331Y88394724D01*
X19291866Y88323539D01*
X19291872Y88323536D01*
X19291873Y88323535D01*
X19410256Y88274499D01*
X19410260Y88274499D01*
X19410261Y88274498D01*
X19535928Y88249500D01*
X19535931Y88249500D01*
X19664071Y88249500D01*
X19748615Y88266318D01*
X19789744Y88274499D01*
X19908127Y88323535D01*
X20014669Y88394724D01*
X20105276Y88485331D01*
X20176465Y88591873D01*
X20225501Y88710256D01*
X20245394Y88810262D01*
X20250500Y88835929D01*
X20250500Y88964072D01*
X20225502Y89089739D01*
X20225501Y89089740D01*
X20225501Y89089744D01*
X20176465Y89208127D01*
X20176464Y89208128D01*
X20176461Y89208134D01*
X20105276Y89314669D01*
X20105273Y89314673D01*
X20014672Y89405274D01*
X20014668Y89405277D01*
X19914215Y89472398D01*
X19869410Y89526010D01*
X19860703Y89595335D01*
X19890858Y89658363D01*
X19950301Y89695082D01*
X19983106Y89699500D01*
X22897796Y89699500D01*
X22964835Y89679815D01*
X23010590Y89627011D01*
X23020534Y89557853D01*
X22991509Y89494297D01*
X22959796Y89468113D01*
X22911988Y89440512D01*
X22911982Y89440507D01*
X22809493Y89338018D01*
X22809488Y89338012D01*
X22737017Y89212489D01*
X22737016Y89212485D01*
X22699500Y89072475D01*
X22699500Y88927525D01*
X22737016Y88787515D01*
X22737017Y88787512D01*
X22809488Y88661989D01*
X22809490Y88661987D01*
X22809491Y88661985D01*
X22911985Y88559491D01*
X22911986Y88559490D01*
X22911988Y88559489D01*
X23037511Y88487018D01*
X23037512Y88487018D01*
X23037515Y88487016D01*
X23177525Y88449500D01*
X23177528Y88449500D01*
X23322472Y88449500D01*
X23322475Y88449500D01*
X23462485Y88487016D01*
X23588015Y88559491D01*
X23690509Y88661985D01*
X23762984Y88787515D01*
X23800500Y88927525D01*
X23800500Y89072475D01*
X23762984Y89212485D01*
X23747245Y89239745D01*
X23690511Y89338012D01*
X23690506Y89338018D01*
X23588017Y89440507D01*
X23588011Y89440512D01*
X23540204Y89468113D01*
X23491988Y89518680D01*
X23478766Y89587288D01*
X23504734Y89652152D01*
X23561648Y89692680D01*
X23602204Y89699500D01*
X36897796Y89699500D01*
X36964835Y89679815D01*
X37010590Y89627011D01*
X37020534Y89557853D01*
X36991509Y89494297D01*
X36959796Y89468113D01*
X36911988Y89440512D01*
X36911982Y89440507D01*
X36809493Y89338018D01*
X36809488Y89338012D01*
X36737017Y89212489D01*
X36737016Y89212485D01*
X36699500Y89072475D01*
X36699500Y88927525D01*
X36737016Y88787515D01*
X36737017Y88787512D01*
X36809488Y88661989D01*
X36809490Y88661987D01*
X36809491Y88661985D01*
X36911985Y88559491D01*
X36911986Y88559490D01*
X36911988Y88559489D01*
X37037511Y88487018D01*
X37037512Y88487018D01*
X37037515Y88487016D01*
X37177525Y88449500D01*
X37177528Y88449500D01*
X37322472Y88449500D01*
X37322475Y88449500D01*
X37462485Y88487016D01*
X37588015Y88559491D01*
X37690509Y88661985D01*
X37762984Y88787515D01*
X37800500Y88927525D01*
X37800500Y89072475D01*
X37762984Y89212485D01*
X37747245Y89239745D01*
X37690511Y89338012D01*
X37690506Y89338018D01*
X37588017Y89440507D01*
X37588011Y89440512D01*
X37540204Y89468113D01*
X37491988Y89518680D01*
X37478766Y89587288D01*
X37504734Y89652152D01*
X37561648Y89692680D01*
X37602204Y89699500D01*
X40930192Y89699500D01*
X40997231Y89679815D01*
X41042986Y89627011D01*
X41052930Y89557853D01*
X41023905Y89494297D01*
X41017873Y89487819D01*
X40994726Y89464673D01*
X40994723Y89464669D01*
X40923538Y89358134D01*
X40923533Y89358125D01*
X40874499Y89239745D01*
X40874497Y89239739D01*
X40849500Y89114072D01*
X40849500Y89114069D01*
X40849500Y88985931D01*
X40849500Y88985929D01*
X40849499Y88985929D01*
X40874497Y88860262D01*
X40874499Y88860256D01*
X40923533Y88741876D01*
X40923538Y88741867D01*
X40994723Y88635332D01*
X40994726Y88635328D01*
X41085327Y88544727D01*
X41085331Y88544724D01*
X41191866Y88473539D01*
X41191872Y88473536D01*
X41191873Y88473535D01*
X41310256Y88424499D01*
X41310260Y88424499D01*
X41310261Y88424498D01*
X41435928Y88399500D01*
X41435931Y88399500D01*
X41564071Y88399500D01*
X41648615Y88416318D01*
X41689744Y88424499D01*
X41808127Y88473535D01*
X41914669Y88544724D01*
X42005276Y88635331D01*
X42076465Y88741873D01*
X42125501Y88860256D01*
X42140554Y88935931D01*
X42150500Y88985929D01*
X42150500Y89114072D01*
X42125502Y89239739D01*
X42125501Y89239740D01*
X42125501Y89239744D01*
X42076465Y89358127D01*
X42076464Y89358128D01*
X42076461Y89358134D01*
X42005276Y89464669D01*
X42005273Y89464673D01*
X41982127Y89487819D01*
X41948642Y89549142D01*
X41953626Y89618834D01*
X41995498Y89674767D01*
X42060962Y89699184D01*
X42069808Y89699500D01*
X42630192Y89699500D01*
X42697231Y89679815D01*
X42742986Y89627011D01*
X42752930Y89557853D01*
X42723905Y89494297D01*
X42717873Y89487819D01*
X42644726Y89414673D01*
X42644723Y89414669D01*
X42573538Y89308134D01*
X42573533Y89308125D01*
X42524499Y89189745D01*
X42524497Y89189739D01*
X42499500Y89064072D01*
X42499500Y89064069D01*
X42499500Y88935931D01*
X42499500Y88935929D01*
X42499499Y88935929D01*
X42524497Y88810262D01*
X42524499Y88810256D01*
X42573533Y88691876D01*
X42573538Y88691867D01*
X42644723Y88585332D01*
X42644726Y88585328D01*
X42735327Y88494727D01*
X42735331Y88494724D01*
X42841866Y88423539D01*
X42841872Y88423536D01*
X42841873Y88423535D01*
X42960256Y88374499D01*
X42960260Y88374499D01*
X42960261Y88374498D01*
X43085928Y88349500D01*
X43085931Y88349500D01*
X43214071Y88349500D01*
X43298615Y88366318D01*
X43339744Y88374499D01*
X43458127Y88423535D01*
X43564669Y88494724D01*
X43655276Y88585331D01*
X43726465Y88691873D01*
X43775501Y88810256D01*
X43798828Y88927525D01*
X43800500Y88935929D01*
X43800500Y89064072D01*
X43775502Y89189739D01*
X43775501Y89189740D01*
X43775501Y89189744D01*
X43726465Y89308127D01*
X43726464Y89308128D01*
X43726461Y89308134D01*
X43655276Y89414669D01*
X43655273Y89414673D01*
X43582127Y89487819D01*
X43548642Y89549142D01*
X43553626Y89618834D01*
X43595498Y89674767D01*
X43660962Y89699184D01*
X43669808Y89699500D01*
X59376000Y89699500D01*
X59443039Y89679815D01*
X59488794Y89627011D01*
X59500000Y89575500D01*
X59500000Y49124000D01*
X59480315Y49056961D01*
X59427511Y49011206D01*
X59376000Y49000000D01*
X824000Y49000000D01*
X756961Y49019685D01*
X711206Y49072489D01*
X700000Y49124000D01*
X700000Y50215929D01*
X32629499Y50215929D01*
X32654497Y50090262D01*
X32654499Y50090256D01*
X32703533Y49971876D01*
X32703538Y49971867D01*
X32774723Y49865332D01*
X32774726Y49865328D01*
X32865327Y49774727D01*
X32865331Y49774724D01*
X32971866Y49703539D01*
X32971872Y49703536D01*
X32971873Y49703535D01*
X33090256Y49654499D01*
X33090260Y49654499D01*
X33090261Y49654498D01*
X33215928Y49629500D01*
X33215931Y49629500D01*
X33344071Y49629500D01*
X33428615Y49646318D01*
X33469744Y49654499D01*
X33588127Y49703535D01*
X33694669Y49774724D01*
X33785276Y49865331D01*
X33856465Y49971873D01*
X33905501Y50090256D01*
X33930500Y50215931D01*
X33930500Y50344069D01*
X33930500Y50344072D01*
X33905502Y50469739D01*
X33905501Y50469740D01*
X33905501Y50469744D01*
X33856465Y50588127D01*
X33856464Y50588128D01*
X33856461Y50588134D01*
X33785276Y50694669D01*
X33785273Y50694673D01*
X33694672Y50785274D01*
X33694668Y50785277D01*
X33588133Y50856462D01*
X33588124Y50856467D01*
X33469744Y50905501D01*
X33469738Y50905503D01*
X33344071Y50930500D01*
X33344069Y50930500D01*
X33215931Y50930500D01*
X33215929Y50930500D01*
X33090261Y50905503D01*
X33090255Y50905501D01*
X32971875Y50856467D01*
X32971866Y50856462D01*
X32865331Y50785277D01*
X32865327Y50785274D01*
X32774726Y50694673D01*
X32774723Y50694669D01*
X32703538Y50588134D01*
X32703533Y50588125D01*
X32654499Y50469745D01*
X32654497Y50469739D01*
X32629500Y50344072D01*
X32629500Y50344069D01*
X32629500Y50215931D01*
X32629500Y50215929D01*
X32629499Y50215929D01*
X700000Y50215929D01*
X700000Y51815929D01*
X32789499Y51815929D01*
X32814497Y51690262D01*
X32814499Y51690256D01*
X32863533Y51571876D01*
X32863538Y51571867D01*
X32934723Y51465332D01*
X32934726Y51465328D01*
X33025327Y51374727D01*
X33025331Y51374724D01*
X33131866Y51303539D01*
X33131872Y51303536D01*
X33131873Y51303535D01*
X33250256Y51254499D01*
X33250260Y51254499D01*
X33250261Y51254498D01*
X33375928Y51229500D01*
X33375931Y51229500D01*
X33504071Y51229500D01*
X33588615Y51246318D01*
X33629744Y51254499D01*
X33748127Y51303535D01*
X33854669Y51374724D01*
X33945276Y51465331D01*
X34016465Y51571873D01*
X34065501Y51690256D01*
X34090500Y51815931D01*
X34090500Y51944069D01*
X34090500Y51944072D01*
X34065502Y52069739D01*
X34065501Y52069740D01*
X34065501Y52069744D01*
X34016465Y52188127D01*
X34016464Y52188128D01*
X34016461Y52188134D01*
X33945276Y52294669D01*
X33945273Y52294673D01*
X33854670Y52385276D01*
X33847203Y52390265D01*
X33802399Y52443878D01*
X33793693Y52513204D01*
X33823849Y52576230D01*
X33883293Y52612948D01*
X33891905Y52614983D01*
X33939744Y52624499D01*
X34058127Y52673535D01*
X34164669Y52744724D01*
X34255276Y52835331D01*
X34326465Y52941873D01*
X34375501Y53060256D01*
X34400500Y53185931D01*
X34400500Y53314069D01*
X34400500Y53314072D01*
X34375502Y53439739D01*
X34375501Y53439740D01*
X34375501Y53439744D01*
X34326465Y53558127D01*
X34326464Y53558128D01*
X34326461Y53558134D01*
X34255276Y53664669D01*
X34255273Y53664673D01*
X34164672Y53755274D01*
X34164668Y53755277D01*
X34058133Y53826462D01*
X34058124Y53826467D01*
X33939744Y53875501D01*
X33939738Y53875503D01*
X33814071Y53900500D01*
X33814069Y53900500D01*
X33685931Y53900500D01*
X33685929Y53900500D01*
X33560261Y53875503D01*
X33560255Y53875501D01*
X33441875Y53826467D01*
X33441866Y53826462D01*
X33335331Y53755277D01*
X33335327Y53755274D01*
X33244726Y53664673D01*
X33244723Y53664669D01*
X33173538Y53558134D01*
X33173533Y53558125D01*
X33124499Y53439745D01*
X33124497Y53439739D01*
X33099500Y53314072D01*
X33099500Y53314069D01*
X33099500Y53185931D01*
X33099500Y53185929D01*
X33099499Y53185929D01*
X33124497Y53060262D01*
X33124499Y53060256D01*
X33173533Y52941876D01*
X33173538Y52941867D01*
X33244723Y52835332D01*
X33244726Y52835328D01*
X33335327Y52744727D01*
X33335331Y52744724D01*
X33342794Y52739737D01*
X33387599Y52686125D01*
X33396306Y52616800D01*
X33366151Y52553772D01*
X33306708Y52517053D01*
X33298096Y52515018D01*
X33250260Y52505503D01*
X33250255Y52505501D01*
X33131875Y52456467D01*
X33131866Y52456462D01*
X33025331Y52385277D01*
X33025327Y52385274D01*
X32934726Y52294673D01*
X32934723Y52294669D01*
X32863538Y52188134D01*
X32863533Y52188125D01*
X32814499Y52069745D01*
X32814497Y52069739D01*
X32789500Y51944072D01*
X32789500Y51944069D01*
X32789500Y51815931D01*
X32789500Y51815929D01*
X32789499Y51815929D01*
X700000Y51815929D01*
X700000Y53072475D01*
X1949500Y53072475D01*
X1949500Y52927525D01*
X1987016Y52787515D01*
X1987017Y52787512D01*
X2059488Y52661989D01*
X2059490Y52661987D01*
X2059491Y52661985D01*
X2161985Y52559491D01*
X2161986Y52559490D01*
X2161988Y52559489D01*
X2287511Y52487018D01*
X2287512Y52487018D01*
X2287515Y52487016D01*
X2427525Y52449500D01*
X2427528Y52449500D01*
X2572472Y52449500D01*
X2572475Y52449500D01*
X2712485Y52487016D01*
X2838015Y52559491D01*
X2940509Y52661985D01*
X3012984Y52787515D01*
X3050500Y52927525D01*
X3050500Y53072475D01*
X3012984Y53212485D01*
X2956532Y53310262D01*
X2940511Y53338012D01*
X2940506Y53338018D01*
X2842595Y53435929D01*
X26849499Y53435929D01*
X26874497Y53310262D01*
X26874499Y53310256D01*
X26923533Y53191876D01*
X26923538Y53191867D01*
X26994723Y53085332D01*
X26994726Y53085328D01*
X27085327Y52994727D01*
X27085331Y52994724D01*
X27191866Y52923539D01*
X27191872Y52923536D01*
X27191873Y52923535D01*
X27310256Y52874499D01*
X27310260Y52874499D01*
X27310261Y52874498D01*
X27435928Y52849500D01*
X27435931Y52849500D01*
X27564071Y52849500D01*
X27648615Y52866318D01*
X27689744Y52874499D01*
X27808127Y52923535D01*
X27914669Y52994724D01*
X28005276Y53085331D01*
X28076465Y53191873D01*
X28125501Y53310256D01*
X28150500Y53435931D01*
X28150500Y53564069D01*
X28150500Y53564072D01*
X28125502Y53689739D01*
X28125501Y53689740D01*
X28125501Y53689744D01*
X28076465Y53808127D01*
X28076464Y53808128D01*
X28076461Y53808134D01*
X28005276Y53914669D01*
X28005273Y53914673D01*
X27914672Y54005274D01*
X27914668Y54005277D01*
X27808133Y54076462D01*
X27808124Y54076467D01*
X27689744Y54125501D01*
X27689738Y54125503D01*
X27564071Y54150500D01*
X27564069Y54150500D01*
X27435931Y54150500D01*
X27435929Y54150500D01*
X27310261Y54125503D01*
X27310255Y54125501D01*
X27191875Y54076467D01*
X27191866Y54076462D01*
X27085331Y54005277D01*
X27085327Y54005274D01*
X26994726Y53914673D01*
X26994723Y53914669D01*
X26923538Y53808134D01*
X26923533Y53808125D01*
X26874499Y53689745D01*
X26874497Y53689739D01*
X26849500Y53564072D01*
X26849500Y53564069D01*
X26849500Y53435931D01*
X26849500Y53435929D01*
X26849499Y53435929D01*
X2842595Y53435929D01*
X2838017Y53440507D01*
X2838015Y53440509D01*
X2712485Y53512984D01*
X2572475Y53550500D01*
X2427525Y53550500D01*
X2298993Y53516060D01*
X2287511Y53512983D01*
X2161988Y53440512D01*
X2161982Y53440507D01*
X2059493Y53338018D01*
X2059488Y53338012D01*
X1987017Y53212489D01*
X1987016Y53212485D01*
X1949500Y53072475D01*
X700000Y53072475D01*
X700000Y54935929D01*
X6599499Y54935929D01*
X6624497Y54810262D01*
X6624499Y54810256D01*
X6673533Y54691876D01*
X6673538Y54691867D01*
X6744723Y54585332D01*
X6744726Y54585328D01*
X6835327Y54494727D01*
X6835331Y54494724D01*
X6941866Y54423539D01*
X6941872Y54423536D01*
X6941873Y54423535D01*
X7060256Y54374499D01*
X7060260Y54374499D01*
X7060261Y54374498D01*
X7185928Y54349500D01*
X7185931Y54349500D01*
X7314071Y54349500D01*
X7398615Y54366318D01*
X7439744Y54374499D01*
X7558127Y54423535D01*
X7664669Y54494724D01*
X7755276Y54585331D01*
X7826465Y54691873D01*
X7875501Y54810256D01*
X7900500Y54935931D01*
X7900500Y55064069D01*
X7900500Y55064072D01*
X7875502Y55189739D01*
X7875501Y55189740D01*
X7875501Y55189744D01*
X7826465Y55308127D01*
X7826464Y55308128D01*
X7826461Y55308134D01*
X7755276Y55414669D01*
X7755273Y55414673D01*
X7664672Y55505274D01*
X7664668Y55505277D01*
X7558133Y55576462D01*
X7558124Y55576467D01*
X7439744Y55625501D01*
X7439738Y55625503D01*
X7314071Y55650500D01*
X7314069Y55650500D01*
X7185931Y55650500D01*
X7185929Y55650500D01*
X7060261Y55625503D01*
X7060255Y55625501D01*
X6941875Y55576467D01*
X6941866Y55576462D01*
X6835331Y55505277D01*
X6835327Y55505274D01*
X6744726Y55414673D01*
X6744723Y55414669D01*
X6673538Y55308134D01*
X6673533Y55308125D01*
X6624499Y55189745D01*
X6624497Y55189739D01*
X6599500Y55064072D01*
X6599500Y55064069D01*
X6599500Y54935931D01*
X6599500Y54935929D01*
X6599499Y54935929D01*
X700000Y54935929D01*
X700000Y56935929D01*
X21099499Y56935929D01*
X21124497Y56810262D01*
X21124499Y56810256D01*
X21173533Y56691876D01*
X21173538Y56691867D01*
X21244723Y56585332D01*
X21244726Y56585328D01*
X21335327Y56494727D01*
X21335331Y56494724D01*
X21441866Y56423539D01*
X21441872Y56423536D01*
X21441873Y56423535D01*
X21560256Y56374499D01*
X21560260Y56374499D01*
X21560261Y56374498D01*
X21685928Y56349500D01*
X21685931Y56349500D01*
X21814071Y56349500D01*
X21898615Y56366318D01*
X21939744Y56374499D01*
X22058127Y56423535D01*
X22164669Y56494724D01*
X22255276Y56585331D01*
X22326465Y56691873D01*
X22375501Y56810256D01*
X22377932Y56822475D01*
X23699500Y56822475D01*
X23699500Y56677525D01*
X23731128Y56559489D01*
X23737017Y56537512D01*
X23809488Y56411989D01*
X23809490Y56411987D01*
X23809491Y56411985D01*
X23911985Y56309491D01*
X23911986Y56309490D01*
X23911988Y56309489D01*
X24037511Y56237018D01*
X24037512Y56237018D01*
X24037515Y56237016D01*
X24177525Y56199500D01*
X24177528Y56199500D01*
X24322472Y56199500D01*
X24322475Y56199500D01*
X24462485Y56237016D01*
X24588015Y56309491D01*
X24690509Y56411985D01*
X24704333Y56435929D01*
X28849499Y56435929D01*
X28874497Y56310262D01*
X28874499Y56310256D01*
X28923533Y56191876D01*
X28923538Y56191867D01*
X28994723Y56085332D01*
X28994726Y56085328D01*
X29085327Y55994727D01*
X29085331Y55994724D01*
X29191866Y55923539D01*
X29191872Y55923536D01*
X29191873Y55923535D01*
X29310256Y55874499D01*
X29310260Y55874499D01*
X29310261Y55874498D01*
X29435928Y55849500D01*
X29435931Y55849500D01*
X29564071Y55849500D01*
X29648615Y55866318D01*
X29689744Y55874499D01*
X29808127Y55923535D01*
X29914669Y55994724D01*
X30005276Y56085331D01*
X30076465Y56191873D01*
X30109852Y56272475D01*
X40219500Y56272475D01*
X40219500Y56127525D01*
X40257016Y55987515D01*
X40257017Y55987512D01*
X40329488Y55861989D01*
X40329490Y55861987D01*
X40329491Y55861985D01*
X40431985Y55759491D01*
X40431986Y55759490D01*
X40431988Y55759489D01*
X40557511Y55687018D01*
X40557512Y55687018D01*
X40557515Y55687016D01*
X40697525Y55649500D01*
X40697528Y55649500D01*
X40842472Y55649500D01*
X40842475Y55649500D01*
X40982485Y55687016D01*
X41108015Y55759491D01*
X41210509Y55861985D01*
X41253201Y55935929D01*
X47849499Y55935929D01*
X47874497Y55810262D01*
X47874499Y55810256D01*
X47923533Y55691876D01*
X47923538Y55691867D01*
X47994723Y55585332D01*
X47994726Y55585328D01*
X48085327Y55494727D01*
X48085331Y55494724D01*
X48191866Y55423539D01*
X48191872Y55423536D01*
X48191873Y55423535D01*
X48310256Y55374499D01*
X48310260Y55374499D01*
X48310261Y55374498D01*
X48435928Y55349500D01*
X48435931Y55349500D01*
X48564071Y55349500D01*
X48648615Y55366318D01*
X48689744Y55374499D01*
X48808127Y55423535D01*
X48914669Y55494724D01*
X49005276Y55585331D01*
X49076465Y55691873D01*
X49125501Y55810256D01*
X49148034Y55923534D01*
X49150500Y55935929D01*
X49150500Y56064072D01*
X49125502Y56189739D01*
X49125501Y56189740D01*
X49125501Y56189744D01*
X49076465Y56308127D01*
X49076464Y56308128D01*
X49076461Y56308134D01*
X49005276Y56414669D01*
X49005273Y56414673D01*
X48914672Y56505274D01*
X48914668Y56505277D01*
X48808133Y56576462D01*
X48808124Y56576467D01*
X48689744Y56625501D01*
X48689738Y56625503D01*
X48564071Y56650500D01*
X48564069Y56650500D01*
X48435931Y56650500D01*
X48435929Y56650500D01*
X48310261Y56625503D01*
X48310255Y56625501D01*
X48191875Y56576467D01*
X48191866Y56576462D01*
X48085331Y56505277D01*
X48085327Y56505274D01*
X47994726Y56414673D01*
X47994723Y56414669D01*
X47923538Y56308134D01*
X47923533Y56308125D01*
X47874499Y56189745D01*
X47874497Y56189739D01*
X47849500Y56064072D01*
X47849500Y56064069D01*
X47849500Y55935931D01*
X47849500Y55935929D01*
X47849499Y55935929D01*
X41253201Y55935929D01*
X41282984Y55987515D01*
X41320500Y56127525D01*
X41320500Y56272475D01*
X41282984Y56412485D01*
X41276604Y56423535D01*
X41210511Y56538012D01*
X41210506Y56538018D01*
X41108017Y56640507D01*
X41108011Y56640512D01*
X40982488Y56712983D01*
X40982489Y56712983D01*
X40971006Y56716060D01*
X40842475Y56750500D01*
X40697525Y56750500D01*
X40568993Y56716060D01*
X40557511Y56712983D01*
X40431988Y56640512D01*
X40431982Y56640507D01*
X40329493Y56538018D01*
X40329488Y56538012D01*
X40257017Y56412489D01*
X40257016Y56412485D01*
X40219500Y56272475D01*
X30109852Y56272475D01*
X30125501Y56310256D01*
X30140446Y56385389D01*
X30150500Y56435929D01*
X30150500Y56564072D01*
X30125502Y56689739D01*
X30125501Y56689740D01*
X30125501Y56689744D01*
X30076465Y56808127D01*
X30076464Y56808128D01*
X30076461Y56808134D01*
X30005276Y56914669D01*
X30005273Y56914673D01*
X29914672Y57005274D01*
X29914668Y57005277D01*
X29814100Y57072475D01*
X41499500Y57072475D01*
X41499500Y56927525D01*
X41531491Y56808134D01*
X41537017Y56787512D01*
X41609488Y56661989D01*
X41609490Y56661987D01*
X41609491Y56661985D01*
X41711985Y56559491D01*
X41711986Y56559490D01*
X41711988Y56559489D01*
X41837511Y56487018D01*
X41837512Y56487018D01*
X41837515Y56487016D01*
X41977525Y56449500D01*
X41977528Y56449500D01*
X42122472Y56449500D01*
X42122475Y56449500D01*
X42262485Y56487016D01*
X42388015Y56559491D01*
X42490509Y56661985D01*
X42562984Y56787515D01*
X42600500Y56927525D01*
X42600500Y57072475D01*
X42562984Y57212485D01*
X42533828Y57262984D01*
X42490511Y57338012D01*
X42490506Y57338018D01*
X42388017Y57440507D01*
X42388011Y57440512D01*
X42262488Y57512983D01*
X42262489Y57512983D01*
X42251006Y57516060D01*
X42122475Y57550500D01*
X41977525Y57550500D01*
X41848993Y57516060D01*
X41837511Y57512983D01*
X41711988Y57440512D01*
X41711982Y57440507D01*
X41609493Y57338018D01*
X41609488Y57338012D01*
X41537017Y57212489D01*
X41537016Y57212485D01*
X41499500Y57072475D01*
X29814100Y57072475D01*
X29808133Y57076462D01*
X29808124Y57076467D01*
X29689744Y57125501D01*
X29689738Y57125503D01*
X29564071Y57150500D01*
X29564069Y57150500D01*
X29435931Y57150500D01*
X29435929Y57150500D01*
X29310261Y57125503D01*
X29310255Y57125501D01*
X29191875Y57076467D01*
X29191866Y57076462D01*
X29085331Y57005277D01*
X29085327Y57005274D01*
X28994726Y56914673D01*
X28994723Y56914669D01*
X28923538Y56808134D01*
X28923533Y56808125D01*
X28874499Y56689745D01*
X28874497Y56689739D01*
X28849500Y56564072D01*
X28849500Y56564069D01*
X28849500Y56435931D01*
X28849500Y56435929D01*
X28849499Y56435929D01*
X24704333Y56435929D01*
X24762984Y56537515D01*
X24800500Y56677525D01*
X24800500Y56822475D01*
X24762984Y56962485D01*
X24704334Y57064069D01*
X24690511Y57088012D01*
X24690506Y57088018D01*
X24588017Y57190507D01*
X24588011Y57190512D01*
X24462488Y57262983D01*
X24462489Y57262983D01*
X24451006Y57266060D01*
X24322475Y57300500D01*
X24177525Y57300500D01*
X24048993Y57266060D01*
X24037511Y57262983D01*
X23911988Y57190512D01*
X23911982Y57190507D01*
X23809493Y57088018D01*
X23809488Y57088012D01*
X23737017Y56962489D01*
X23737016Y56962485D01*
X23699500Y56822475D01*
X22377932Y56822475D01*
X22384361Y56854794D01*
X22400500Y56935929D01*
X22400500Y57064072D01*
X22375502Y57189739D01*
X22375501Y57189740D01*
X22375501Y57189744D01*
X22326465Y57308127D01*
X22326464Y57308128D01*
X22326461Y57308134D01*
X22255276Y57414669D01*
X22255273Y57414673D01*
X22164672Y57505274D01*
X22164668Y57505277D01*
X22058133Y57576462D01*
X22058124Y57576467D01*
X21939744Y57625501D01*
X21939738Y57625503D01*
X21814071Y57650500D01*
X21814069Y57650500D01*
X21685931Y57650500D01*
X21685929Y57650500D01*
X21560261Y57625503D01*
X21560255Y57625501D01*
X21441875Y57576467D01*
X21441866Y57576462D01*
X21335331Y57505277D01*
X21335327Y57505274D01*
X21244726Y57414673D01*
X21244723Y57414669D01*
X21173538Y57308134D01*
X21173533Y57308125D01*
X21124499Y57189745D01*
X21124497Y57189739D01*
X21099500Y57064072D01*
X21099500Y57064069D01*
X21099500Y56935931D01*
X21099500Y56935929D01*
X21099499Y56935929D01*
X700000Y56935929D01*
X700000Y59685929D01*
X6599499Y59685929D01*
X6624497Y59560262D01*
X6624499Y59560256D01*
X6673533Y59441876D01*
X6673538Y59441867D01*
X6744723Y59335332D01*
X6744726Y59335328D01*
X6835327Y59244727D01*
X6835331Y59244724D01*
X6941866Y59173539D01*
X6941872Y59173536D01*
X6941873Y59173535D01*
X7060256Y59124499D01*
X7060260Y59124499D01*
X7060261Y59124498D01*
X7185928Y59099500D01*
X7185931Y59099500D01*
X7314071Y59099500D01*
X7398615Y59116318D01*
X7439744Y59124499D01*
X7558127Y59173535D01*
X7664669Y59244724D01*
X7755276Y59335331D01*
X7826465Y59441873D01*
X7875501Y59560256D01*
X7883682Y59601385D01*
X7900500Y59685929D01*
X7900500Y59814072D01*
X7898828Y59822475D01*
X15699500Y59822475D01*
X15699500Y59677525D01*
X15731128Y59559489D01*
X15737017Y59537512D01*
X15809488Y59411989D01*
X15809490Y59411987D01*
X15809491Y59411985D01*
X15911985Y59309491D01*
X15911986Y59309490D01*
X15911988Y59309489D01*
X16037511Y59237018D01*
X16037512Y59237018D01*
X16037515Y59237016D01*
X16177525Y59199500D01*
X16177528Y59199500D01*
X16322472Y59199500D01*
X16322475Y59199500D01*
X16462485Y59237016D01*
X16588015Y59309491D01*
X16690509Y59411985D01*
X16762984Y59537515D01*
X16800500Y59677525D01*
X16800500Y59822475D01*
X16762984Y59962485D01*
X16699481Y60072475D01*
X26949500Y60072475D01*
X26949500Y59927525D01*
X26977649Y59822473D01*
X26987017Y59787512D01*
X27059488Y59661989D01*
X27059490Y59661987D01*
X27059491Y59661985D01*
X27161985Y59559491D01*
X27161986Y59559490D01*
X27161988Y59559489D01*
X27287511Y59487018D01*
X27287512Y59487018D01*
X27287515Y59487016D01*
X27427525Y59449500D01*
X27427528Y59449500D01*
X27572472Y59449500D01*
X27572475Y59449500D01*
X27712485Y59487016D01*
X27838015Y59559491D01*
X27940509Y59661985D01*
X28012984Y59787515D01*
X28050500Y59927525D01*
X28050500Y60072475D01*
X28012984Y60212485D01*
X27983828Y60262984D01*
X27940511Y60338012D01*
X27940506Y60338018D01*
X27838017Y60440507D01*
X27838011Y60440512D01*
X27712488Y60512983D01*
X27712489Y60512983D01*
X27701006Y60516060D01*
X27572475Y60550500D01*
X27427525Y60550500D01*
X27298993Y60516060D01*
X27287511Y60512983D01*
X27161988Y60440512D01*
X27161982Y60440507D01*
X27059493Y60338018D01*
X27059488Y60338012D01*
X26987017Y60212489D01*
X26987016Y60212485D01*
X26949500Y60072475D01*
X16699481Y60072475D01*
X16690509Y60088015D01*
X16588015Y60190509D01*
X16588013Y60190510D01*
X16588011Y60190512D01*
X16462488Y60262983D01*
X16462489Y60262983D01*
X16451006Y60266060D01*
X16322475Y60300500D01*
X16177525Y60300500D01*
X16048993Y60266060D01*
X16037511Y60262983D01*
X15911988Y60190512D01*
X15911982Y60190507D01*
X15809493Y60088018D01*
X15809488Y60088012D01*
X15737017Y59962489D01*
X15737016Y59962485D01*
X15699500Y59822475D01*
X7898828Y59822475D01*
X7875502Y59939739D01*
X7875501Y59939740D01*
X7875501Y59939744D01*
X7826465Y60058127D01*
X7826464Y60058128D01*
X7826461Y60058134D01*
X7755276Y60164669D01*
X7755273Y60164673D01*
X7664672Y60255274D01*
X7664668Y60255277D01*
X7558133Y60326462D01*
X7558124Y60326467D01*
X7439744Y60375501D01*
X7439738Y60375503D01*
X7314071Y60400500D01*
X7314069Y60400500D01*
X7185931Y60400500D01*
X7185929Y60400500D01*
X7060261Y60375503D01*
X7060255Y60375501D01*
X6941875Y60326467D01*
X6941866Y60326462D01*
X6835331Y60255277D01*
X6835327Y60255274D01*
X6744726Y60164673D01*
X6744723Y60164669D01*
X6673538Y60058134D01*
X6673533Y60058125D01*
X6624499Y59939745D01*
X6624497Y59939739D01*
X6599500Y59814072D01*
X6599500Y59814069D01*
X6599500Y59685931D01*
X6599500Y59685929D01*
X6599499Y59685929D01*
X700000Y59685929D01*
X700000Y63435929D01*
X6599499Y63435929D01*
X6624497Y63310262D01*
X6624499Y63310256D01*
X6673533Y63191876D01*
X6673538Y63191867D01*
X6744723Y63085332D01*
X6744726Y63085328D01*
X6835327Y62994727D01*
X6835331Y62994724D01*
X6941866Y62923539D01*
X6941872Y62923536D01*
X6941873Y62923535D01*
X7060256Y62874499D01*
X7060260Y62874499D01*
X7060261Y62874498D01*
X7185928Y62849500D01*
X7185931Y62849500D01*
X7314071Y62849500D01*
X7398615Y62866318D01*
X7439744Y62874499D01*
X7558127Y62923535D01*
X7664669Y62994724D01*
X7755276Y63085331D01*
X7826465Y63191873D01*
X7875501Y63310256D01*
X7883682Y63351385D01*
X7900500Y63435929D01*
X7900500Y63564072D01*
X7875502Y63689739D01*
X7875501Y63689740D01*
X7875501Y63689744D01*
X7826465Y63808127D01*
X7826461Y63808134D01*
X7816879Y63822475D01*
X14699500Y63822475D01*
X14699500Y63677525D01*
X14719669Y63602256D01*
X14737017Y63537512D01*
X14809488Y63411989D01*
X14809490Y63411987D01*
X14809491Y63411985D01*
X14911985Y63309491D01*
X14911986Y63309490D01*
X14911988Y63309489D01*
X15037511Y63237018D01*
X15037512Y63237018D01*
X15037515Y63237016D01*
X15177525Y63199500D01*
X15177528Y63199500D01*
X15322472Y63199500D01*
X15322475Y63199500D01*
X15462485Y63237016D01*
X15588015Y63309491D01*
X15690509Y63411985D01*
X15704333Y63435929D01*
X47849499Y63435929D01*
X47874497Y63310262D01*
X47874499Y63310256D01*
X47923533Y63191876D01*
X47923538Y63191867D01*
X47994723Y63085332D01*
X47994726Y63085328D01*
X48085327Y62994727D01*
X48085331Y62994724D01*
X48191866Y62923539D01*
X48191872Y62923536D01*
X48191873Y62923535D01*
X48310256Y62874499D01*
X48310260Y62874499D01*
X48310261Y62874498D01*
X48435928Y62849500D01*
X48435931Y62849500D01*
X48564071Y62849500D01*
X48648615Y62866318D01*
X48689744Y62874499D01*
X48808127Y62923535D01*
X48914669Y62994724D01*
X49005276Y63085331D01*
X49076465Y63191873D01*
X49125501Y63310256D01*
X49133682Y63351385D01*
X49150500Y63435929D01*
X49150500Y63564072D01*
X49125502Y63689739D01*
X49125501Y63689740D01*
X49125501Y63689744D01*
X49076465Y63808127D01*
X49076464Y63808128D01*
X49076461Y63808134D01*
X49005276Y63914669D01*
X49005273Y63914673D01*
X48914672Y64005274D01*
X48914668Y64005277D01*
X48808133Y64076462D01*
X48808124Y64076467D01*
X48689744Y64125501D01*
X48689738Y64125503D01*
X48564071Y64150500D01*
X48564069Y64150500D01*
X48435931Y64150500D01*
X48435929Y64150500D01*
X48310261Y64125503D01*
X48310255Y64125501D01*
X48191875Y64076467D01*
X48191866Y64076462D01*
X48085331Y64005277D01*
X48085327Y64005274D01*
X47994726Y63914673D01*
X47994723Y63914669D01*
X47923538Y63808134D01*
X47923533Y63808125D01*
X47874499Y63689745D01*
X47874497Y63689739D01*
X47849500Y63564072D01*
X47849500Y63564069D01*
X47849500Y63435931D01*
X47849500Y63435929D01*
X47849499Y63435929D01*
X15704333Y63435929D01*
X15762984Y63537515D01*
X15800500Y63677525D01*
X15800500Y63822475D01*
X15762984Y63962485D01*
X15697177Y64076465D01*
X15690511Y64088012D01*
X15690506Y64088018D01*
X15588017Y64190507D01*
X15588011Y64190512D01*
X15462488Y64262983D01*
X15462489Y64262983D01*
X15451006Y64266060D01*
X15322475Y64300500D01*
X15177525Y64300500D01*
X15048993Y64266060D01*
X15037511Y64262983D01*
X14911988Y64190512D01*
X14911982Y64190507D01*
X14809493Y64088018D01*
X14809488Y64088012D01*
X14737017Y63962489D01*
X14737016Y63962485D01*
X14699500Y63822475D01*
X7816879Y63822475D01*
X7755276Y63914669D01*
X7755273Y63914673D01*
X7664672Y64005274D01*
X7664668Y64005277D01*
X7558133Y64076462D01*
X7558124Y64076467D01*
X7439744Y64125501D01*
X7439738Y64125503D01*
X7314071Y64150500D01*
X7314069Y64150500D01*
X7185931Y64150500D01*
X7185929Y64150500D01*
X7060261Y64125503D01*
X7060255Y64125501D01*
X6941875Y64076467D01*
X6941866Y64076462D01*
X6835331Y64005277D01*
X6835327Y64005274D01*
X6744726Y63914673D01*
X6744723Y63914669D01*
X6673538Y63808134D01*
X6673533Y63808125D01*
X6624499Y63689745D01*
X6624497Y63689739D01*
X6599500Y63564072D01*
X6599500Y63564069D01*
X6599500Y63435931D01*
X6599500Y63435929D01*
X6599499Y63435929D01*
X700000Y63435929D01*
X700000Y64875273D01*
X719685Y64942312D01*
X772489Y64988067D01*
X824723Y64999271D01*
X16976227Y64904818D01*
X17043148Y64884742D01*
X17088594Y64831671D01*
X17099500Y64780820D01*
X17099500Y64685931D01*
X17099500Y64685929D01*
X17099499Y64685929D01*
X17124497Y64560262D01*
X17124499Y64560256D01*
X17173533Y64441876D01*
X17173538Y64441867D01*
X17244723Y64335332D01*
X17244726Y64335328D01*
X17335327Y64244727D01*
X17335331Y64244724D01*
X17441866Y64173539D01*
X17441872Y64173536D01*
X17441873Y64173535D01*
X17560256Y64124499D01*
X17560260Y64124499D01*
X17560261Y64124498D01*
X17685928Y64099500D01*
X17685931Y64099500D01*
X17814071Y64099500D01*
X17898615Y64116318D01*
X17939744Y64124499D01*
X18058127Y64173535D01*
X18164669Y64244724D01*
X18255276Y64335331D01*
X18326465Y64441873D01*
X18375501Y64560256D01*
X18378383Y64574743D01*
X18410768Y64636653D01*
X18471484Y64671228D01*
X18541253Y64667488D01*
X18597925Y64626621D01*
X18621617Y64574743D01*
X18624497Y64560262D01*
X18624499Y64560256D01*
X18673533Y64441876D01*
X18673538Y64441867D01*
X18744723Y64335332D01*
X18744726Y64335328D01*
X18835327Y64244727D01*
X18835331Y64244724D01*
X18941866Y64173539D01*
X18941872Y64173536D01*
X18941873Y64173535D01*
X19060256Y64124499D01*
X19060260Y64124499D01*
X19060261Y64124498D01*
X19185928Y64099500D01*
X19185931Y64099500D01*
X19314071Y64099500D01*
X19398615Y64116318D01*
X19439744Y64124499D01*
X19558127Y64173535D01*
X19664669Y64244724D01*
X19755276Y64335331D01*
X19822493Y64435929D01*
X45099499Y64435929D01*
X45124497Y64310262D01*
X45124499Y64310256D01*
X45173533Y64191876D01*
X45173538Y64191867D01*
X45244723Y64085332D01*
X45244726Y64085328D01*
X45335327Y63994727D01*
X45335331Y63994724D01*
X45441866Y63923539D01*
X45441872Y63923536D01*
X45441873Y63923535D01*
X45560256Y63874499D01*
X45560260Y63874499D01*
X45560261Y63874498D01*
X45685928Y63849500D01*
X45685931Y63849500D01*
X45814071Y63849500D01*
X45898615Y63866318D01*
X45939744Y63874499D01*
X46058127Y63923535D01*
X46164669Y63994724D01*
X46255276Y64085331D01*
X46326465Y64191873D01*
X46375501Y64310256D01*
X46400500Y64435931D01*
X46400500Y64564069D01*
X46400500Y64564072D01*
X46375502Y64689739D01*
X46375501Y64689740D01*
X46375501Y64689744D01*
X46326465Y64808127D01*
X46326464Y64808128D01*
X46326461Y64808134D01*
X46255276Y64914669D01*
X46255273Y64914673D01*
X46164672Y65005274D01*
X46164668Y65005277D01*
X46058133Y65076462D01*
X46058124Y65076467D01*
X45939744Y65125501D01*
X45939738Y65125503D01*
X45814071Y65150500D01*
X45814069Y65150500D01*
X45685931Y65150500D01*
X45685929Y65150500D01*
X45560261Y65125503D01*
X45560255Y65125501D01*
X45441875Y65076467D01*
X45441866Y65076462D01*
X45335331Y65005277D01*
X45335327Y65005274D01*
X45244726Y64914673D01*
X45244723Y64914669D01*
X45173538Y64808134D01*
X45173533Y64808125D01*
X45124499Y64689745D01*
X45124497Y64689739D01*
X45099500Y64564072D01*
X45099500Y64564069D01*
X45099500Y64435931D01*
X45099500Y64435929D01*
X45099499Y64435929D01*
X19822493Y64435929D01*
X19826465Y64441873D01*
X19875501Y64560256D01*
X19888703Y64626621D01*
X19900500Y64685929D01*
X19900500Y64814072D01*
X19875502Y64939739D01*
X19875501Y64939740D01*
X19875501Y64939744D01*
X19826465Y65058127D01*
X19826464Y65058128D01*
X19826461Y65058134D01*
X19755276Y65164669D01*
X19755273Y65164673D01*
X19664672Y65255274D01*
X19664668Y65255277D01*
X19558133Y65326462D01*
X19558124Y65326467D01*
X19439744Y65375501D01*
X19439738Y65375503D01*
X19314071Y65400500D01*
X19314069Y65400500D01*
X19185931Y65400500D01*
X19185929Y65400500D01*
X19060261Y65375503D01*
X19060255Y65375501D01*
X18941875Y65326467D01*
X18941866Y65326462D01*
X18835331Y65255277D01*
X18835327Y65255274D01*
X18744726Y65164673D01*
X18744723Y65164669D01*
X18673538Y65058134D01*
X18673533Y65058125D01*
X18624499Y64939745D01*
X18624497Y64939740D01*
X18621617Y64925257D01*
X18589231Y64863347D01*
X18528515Y64828773D01*
X18458746Y64832514D01*
X18402074Y64873381D01*
X18378383Y64925257D01*
X18375502Y64939740D01*
X18375501Y64939742D01*
X18375501Y64939744D01*
X18326465Y65058127D01*
X18326464Y65058128D01*
X18326461Y65058134D01*
X18255276Y65164669D01*
X18255273Y65164673D01*
X18164672Y65255274D01*
X18164668Y65255277D01*
X18058133Y65326462D01*
X18058124Y65326467D01*
X17939744Y65375501D01*
X17939741Y65375502D01*
X17899806Y65383446D01*
X17837896Y65415832D01*
X17803323Y65476549D01*
X17800000Y65505063D01*
X17800000Y68822475D01*
X23449500Y68822475D01*
X23449500Y68677525D01*
X23487016Y68537515D01*
X23487017Y68537512D01*
X23559488Y68411989D01*
X23559490Y68411987D01*
X23559491Y68411985D01*
X23661985Y68309491D01*
X23661986Y68309490D01*
X23661988Y68309489D01*
X23787511Y68237018D01*
X23787512Y68237018D01*
X23787515Y68237016D01*
X23927525Y68199500D01*
X23927528Y68199500D01*
X24072472Y68199500D01*
X24072475Y68199500D01*
X24212485Y68237016D01*
X24338015Y68309491D01*
X24440509Y68411985D01*
X24512984Y68537515D01*
X24550500Y68677525D01*
X24550500Y68685929D01*
X32099499Y68685929D01*
X32124497Y68560262D01*
X32124499Y68560256D01*
X32173533Y68441876D01*
X32173538Y68441867D01*
X32244723Y68335332D01*
X32244726Y68335328D01*
X32335327Y68244727D01*
X32335331Y68244724D01*
X32441866Y68173539D01*
X32441872Y68173536D01*
X32441873Y68173535D01*
X32560256Y68124499D01*
X32560260Y68124499D01*
X32560261Y68124498D01*
X32685928Y68099500D01*
X32685931Y68099500D01*
X32814071Y68099500D01*
X32898615Y68116318D01*
X32939744Y68124499D01*
X33058127Y68173535D01*
X33164669Y68244724D01*
X33255276Y68335331D01*
X33326465Y68441873D01*
X33375501Y68560256D01*
X33398828Y68677525D01*
X33400500Y68685929D01*
X33400500Y68814072D01*
X33375502Y68939739D01*
X33375501Y68939740D01*
X33375501Y68939744D01*
X33326465Y69058127D01*
X33326464Y69058128D01*
X33326461Y69058134D01*
X33255276Y69164669D01*
X33255273Y69164673D01*
X33164672Y69255274D01*
X33164668Y69255277D01*
X33058133Y69326462D01*
X33058124Y69326467D01*
X32939744Y69375501D01*
X32939738Y69375503D01*
X32814071Y69400500D01*
X32814069Y69400500D01*
X32685931Y69400500D01*
X32685929Y69400500D01*
X32560261Y69375503D01*
X32560255Y69375501D01*
X32441875Y69326467D01*
X32441866Y69326462D01*
X32335331Y69255277D01*
X32335327Y69255274D01*
X32244726Y69164673D01*
X32244723Y69164669D01*
X32173538Y69058134D01*
X32173533Y69058125D01*
X32124499Y68939745D01*
X32124497Y68939739D01*
X32099500Y68814072D01*
X32099500Y68814069D01*
X32099500Y68685931D01*
X32099500Y68685929D01*
X32099499Y68685929D01*
X24550500Y68685929D01*
X24550500Y68822475D01*
X24512984Y68962485D01*
X24440509Y69088015D01*
X24338015Y69190509D01*
X24338013Y69190510D01*
X24338011Y69190512D01*
X24212488Y69262983D01*
X24212489Y69262983D01*
X24201006Y69266060D01*
X24072475Y69300500D01*
X23927525Y69300500D01*
X23798993Y69266060D01*
X23787511Y69262983D01*
X23661988Y69190512D01*
X23661982Y69190507D01*
X23559493Y69088018D01*
X23559488Y69088012D01*
X23487017Y68962489D01*
X23487016Y68962485D01*
X23449500Y68822475D01*
X17800000Y68822475D01*
X17800000Y72163470D01*
X53209500Y72163470D01*
X53209500Y71956531D01*
X53249868Y71753588D01*
X53249870Y71753580D01*
X53329058Y71562404D01*
X53444024Y71390343D01*
X53590342Y71244025D01*
X53590345Y71244023D01*
X53762402Y71129059D01*
X53953580Y71049870D01*
X54125873Y71015599D01*
X54156530Y71009501D01*
X54156534Y71009500D01*
X54156535Y71009500D01*
X54363466Y71009500D01*
X54363467Y71009501D01*
X54566420Y71049870D01*
X54757598Y71129059D01*
X54929655Y71244023D01*
X55075977Y71390345D01*
X55190941Y71562402D01*
X55270130Y71753580D01*
X55310500Y71956535D01*
X55310500Y72163465D01*
X55270130Y72366420D01*
X55190941Y72557598D01*
X55075977Y72729655D01*
X55075975Y72729658D01*
X54929657Y72875976D01*
X54843626Y72933459D01*
X54757598Y72990941D01*
X54566420Y73070130D01*
X54566412Y73070132D01*
X54363469Y73110500D01*
X54363465Y73110500D01*
X54156535Y73110500D01*
X54156530Y73110500D01*
X53953587Y73070132D01*
X53953579Y73070130D01*
X53762403Y72990942D01*
X53590342Y72875976D01*
X53444024Y72729658D01*
X53329058Y72557597D01*
X53249870Y72366421D01*
X53249868Y72366413D01*
X53209500Y72163470D01*
X17800000Y72163470D01*
X17800000Y74185929D01*
X23349499Y74185929D01*
X23374497Y74060262D01*
X23374499Y74060256D01*
X23423533Y73941876D01*
X23423538Y73941867D01*
X23494723Y73835332D01*
X23494726Y73835328D01*
X23585327Y73744727D01*
X23585331Y73744724D01*
X23691866Y73673539D01*
X23691872Y73673536D01*
X23691873Y73673535D01*
X23810256Y73624499D01*
X23810260Y73624499D01*
X23810261Y73624498D01*
X23935928Y73599500D01*
X23935931Y73599500D01*
X24064071Y73599500D01*
X24148615Y73616318D01*
X24189744Y73624499D01*
X24308127Y73673535D01*
X24414669Y73744724D01*
X24505276Y73835331D01*
X24576465Y73941873D01*
X24625501Y74060256D01*
X24650500Y74185931D01*
X24650500Y74314069D01*
X24650500Y74314072D01*
X24625502Y74439739D01*
X24625501Y74439740D01*
X24625501Y74439744D01*
X24576925Y74557016D01*
X24576466Y74558125D01*
X24576461Y74558134D01*
X24505276Y74664669D01*
X24505273Y74664673D01*
X24414672Y74755274D01*
X24414668Y74755277D01*
X24308133Y74826462D01*
X24308124Y74826467D01*
X24189744Y74875501D01*
X24189738Y74875503D01*
X24064071Y74900500D01*
X24064069Y74900500D01*
X23935931Y74900500D01*
X23935929Y74900500D01*
X23810261Y74875503D01*
X23810255Y74875501D01*
X23691875Y74826467D01*
X23691866Y74826462D01*
X23585331Y74755277D01*
X23585327Y74755274D01*
X23494726Y74664673D01*
X23494723Y74664669D01*
X23423538Y74558134D01*
X23423533Y74558125D01*
X23374499Y74439745D01*
X23374497Y74439739D01*
X23349500Y74314072D01*
X23349500Y74314069D01*
X23349500Y74185931D01*
X23349500Y74185929D01*
X23349499Y74185929D01*
X17800000Y74185929D01*
X17800000Y75142475D01*
X32289500Y75142475D01*
X32289500Y74997525D01*
X32313455Y74908125D01*
X32327017Y74857512D01*
X32399488Y74731989D01*
X32399490Y74731987D01*
X32399491Y74731985D01*
X32501985Y74629491D01*
X32501986Y74629490D01*
X32501988Y74629489D01*
X32627511Y74557018D01*
X32627512Y74557018D01*
X32627515Y74557016D01*
X32767525Y74519500D01*
X32767528Y74519500D01*
X32912472Y74519500D01*
X32912475Y74519500D01*
X32973788Y74535929D01*
X40749499Y74535929D01*
X40774497Y74410262D01*
X40774499Y74410256D01*
X40823533Y74291876D01*
X40823538Y74291867D01*
X40894723Y74185332D01*
X40894726Y74185328D01*
X40985327Y74094727D01*
X40985331Y74094724D01*
X41091866Y74023539D01*
X41091872Y74023536D01*
X41091873Y74023535D01*
X41210256Y73974499D01*
X41210260Y73974499D01*
X41210261Y73974498D01*
X41335928Y73949500D01*
X41335931Y73949500D01*
X41464071Y73949500D01*
X41548615Y73966318D01*
X41589744Y73974499D01*
X41708127Y74023535D01*
X41814669Y74094724D01*
X41905276Y74185331D01*
X41976465Y74291873D01*
X42025501Y74410256D01*
X42042663Y74496534D01*
X42050500Y74535929D01*
X42050500Y74664070D01*
X42046264Y74685364D01*
X42046264Y74685365D01*
X42042663Y74703470D01*
X53209500Y74703470D01*
X53209500Y74496531D01*
X53249868Y74293588D01*
X53249870Y74293580D01*
X53329059Y74102402D01*
X53338672Y74088015D01*
X53444024Y73930343D01*
X53590342Y73784025D01*
X53590345Y73784023D01*
X53762402Y73669059D01*
X53953580Y73589870D01*
X54156530Y73549501D01*
X54156534Y73549500D01*
X54156535Y73549500D01*
X54363466Y73549500D01*
X54363467Y73549501D01*
X54566420Y73589870D01*
X54757598Y73669059D01*
X54929655Y73784023D01*
X55075977Y73930345D01*
X55190941Y74102402D01*
X55270130Y74293580D01*
X55310500Y74496535D01*
X55310500Y74703465D01*
X55310499Y74703470D01*
X55749500Y74703470D01*
X55749500Y74496531D01*
X55789868Y74293588D01*
X55789870Y74293580D01*
X55869059Y74102402D01*
X55878672Y74088015D01*
X55984024Y73930343D01*
X56130342Y73784025D01*
X56130345Y73784023D01*
X56302402Y73669059D01*
X56493580Y73589870D01*
X56696530Y73549501D01*
X56696534Y73549500D01*
X56696535Y73549500D01*
X56903466Y73549500D01*
X56903467Y73549501D01*
X57106420Y73589870D01*
X57297598Y73669059D01*
X57469655Y73784023D01*
X57615977Y73930345D01*
X57730941Y74102402D01*
X57810130Y74293580D01*
X57850500Y74496535D01*
X57850500Y74703465D01*
X57810130Y74906420D01*
X57730941Y75097598D01*
X57615977Y75269655D01*
X57615975Y75269658D01*
X57469657Y75415976D01*
X57328172Y75510512D01*
X57297598Y75530941D01*
X57106420Y75610130D01*
X57106412Y75610132D01*
X56903469Y75650500D01*
X56903465Y75650500D01*
X56696535Y75650500D01*
X56696530Y75650500D01*
X56493587Y75610132D01*
X56493579Y75610130D01*
X56302403Y75530942D01*
X56130342Y75415976D01*
X55984024Y75269658D01*
X55869058Y75097597D01*
X55789870Y74906421D01*
X55789868Y74906413D01*
X55749500Y74703470D01*
X55310499Y74703470D01*
X55270130Y74906420D01*
X55190941Y75097598D01*
X55075977Y75269655D01*
X55075975Y75269658D01*
X54929657Y75415976D01*
X54788172Y75510512D01*
X54757598Y75530941D01*
X54566420Y75610130D01*
X54566412Y75610132D01*
X54363469Y75650500D01*
X54363465Y75650500D01*
X54156535Y75650500D01*
X54156530Y75650500D01*
X53953587Y75610132D01*
X53953579Y75610130D01*
X53762403Y75530942D01*
X53590342Y75415976D01*
X53444024Y75269658D01*
X53329058Y75097597D01*
X53249870Y74906421D01*
X53249868Y74906413D01*
X53209500Y74703470D01*
X42042663Y74703470D01*
X42025502Y74789739D01*
X42025501Y74789740D01*
X42025501Y74789744D01*
X41976465Y74908127D01*
X41976464Y74908128D01*
X41976461Y74908134D01*
X41905276Y75014669D01*
X41905273Y75014673D01*
X41814672Y75105274D01*
X41814668Y75105277D01*
X41708133Y75176462D01*
X41708124Y75176467D01*
X41589744Y75225501D01*
X41589738Y75225503D01*
X41464071Y75250500D01*
X41464069Y75250500D01*
X41335931Y75250500D01*
X41335929Y75250500D01*
X41210261Y75225503D01*
X41210255Y75225501D01*
X41091875Y75176467D01*
X41091866Y75176462D01*
X40985331Y75105277D01*
X40985327Y75105274D01*
X40894726Y75014673D01*
X40894723Y75014669D01*
X40823538Y74908134D01*
X40823533Y74908125D01*
X40774499Y74789745D01*
X40774497Y74789739D01*
X40749500Y74664072D01*
X40749500Y74664070D01*
X40749500Y74664069D01*
X40749500Y74535931D01*
X40749500Y74535929D01*
X40749499Y74535929D01*
X32973788Y74535929D01*
X33052485Y74557016D01*
X33178015Y74629491D01*
X33280509Y74731985D01*
X33313854Y74789739D01*
X33352982Y74857512D01*
X33352981Y74857512D01*
X33352984Y74857515D01*
X33390500Y74997525D01*
X33390500Y75142475D01*
X33352984Y75282485D01*
X33280509Y75408015D01*
X33178015Y75510509D01*
X33178013Y75510510D01*
X33178011Y75510512D01*
X33052488Y75582983D01*
X33052489Y75582983D01*
X33041006Y75586060D01*
X32912475Y75620500D01*
X32767525Y75620500D01*
X32638993Y75586060D01*
X32627511Y75582983D01*
X32501988Y75510512D01*
X32501982Y75510507D01*
X32399493Y75408018D01*
X32399488Y75408012D01*
X32327017Y75282489D01*
X32327016Y75282485D01*
X32289500Y75142475D01*
X17800000Y75142475D01*
X17800000Y76342475D01*
X26779500Y76342475D01*
X26779500Y76197525D01*
X26808446Y76089500D01*
X26817017Y76057512D01*
X26889488Y75931989D01*
X26889490Y75931987D01*
X26889491Y75931985D01*
X26991985Y75829491D01*
X26991986Y75829490D01*
X26991988Y75829489D01*
X27117511Y75757018D01*
X27117512Y75757018D01*
X27117515Y75757016D01*
X27257525Y75719500D01*
X27257528Y75719500D01*
X27402472Y75719500D01*
X27402475Y75719500D01*
X27542485Y75757016D01*
X27668015Y75829491D01*
X27770509Y75931985D01*
X27842984Y76057515D01*
X27880500Y76197525D01*
X27880500Y76342475D01*
X27842984Y76482485D01*
X27782346Y76587512D01*
X27770511Y76608012D01*
X27770506Y76608018D01*
X27668017Y76710507D01*
X27668015Y76710509D01*
X27618816Y76738915D01*
X27559406Y76773215D01*
X27559405Y76773215D01*
X27542485Y76782984D01*
X27402475Y76820500D01*
X27257525Y76820500D01*
X27128993Y76786060D01*
X27117511Y76782983D01*
X26991988Y76710512D01*
X26991982Y76710507D01*
X26889493Y76608018D01*
X26889488Y76608012D01*
X26817017Y76482489D01*
X26817016Y76482485D01*
X26779500Y76342475D01*
X17800000Y76342475D01*
X17800000Y76872475D01*
X42849500Y76872475D01*
X42849500Y76727525D01*
X42881124Y76609505D01*
X42887017Y76587512D01*
X42959488Y76461989D01*
X42959490Y76461987D01*
X42959491Y76461985D01*
X43061985Y76359491D01*
X43061986Y76359490D01*
X43061988Y76359489D01*
X43187511Y76287018D01*
X43187512Y76287018D01*
X43187515Y76287016D01*
X43327525Y76249500D01*
X43327528Y76249500D01*
X43472472Y76249500D01*
X43472475Y76249500D01*
X43612485Y76287016D01*
X43738015Y76359491D01*
X43840509Y76461985D01*
X43846565Y76472475D01*
X48549500Y76472475D01*
X48549500Y76327525D01*
X48584333Y76197528D01*
X48587017Y76187512D01*
X48659488Y76061989D01*
X48659490Y76061987D01*
X48659491Y76061985D01*
X48761985Y75959491D01*
X48761986Y75959490D01*
X48761988Y75959489D01*
X48887511Y75887018D01*
X48887512Y75887018D01*
X48887515Y75887016D01*
X49027525Y75849500D01*
X49027528Y75849500D01*
X49172472Y75849500D01*
X49172475Y75849500D01*
X49312485Y75887016D01*
X49438015Y75959491D01*
X49540509Y76061985D01*
X49612984Y76187515D01*
X49650500Y76327525D01*
X49650500Y76472475D01*
X49612984Y76612485D01*
X49595711Y76642402D01*
X49540511Y76738012D01*
X49540506Y76738018D01*
X49438017Y76840507D01*
X49438011Y76840512D01*
X49312488Y76912983D01*
X49312489Y76912983D01*
X49301006Y76916060D01*
X49172475Y76950500D01*
X49027525Y76950500D01*
X48898993Y76916060D01*
X48887511Y76912983D01*
X48761988Y76840512D01*
X48761982Y76840507D01*
X48659493Y76738018D01*
X48659488Y76738012D01*
X48587017Y76612489D01*
X48585819Y76608018D01*
X48549500Y76472475D01*
X43846565Y76472475D01*
X43912984Y76587515D01*
X43950500Y76727525D01*
X43950500Y76872475D01*
X43912984Y77012485D01*
X43899099Y77036534D01*
X43840511Y77138012D01*
X43840506Y77138018D01*
X43738017Y77240507D01*
X43738011Y77240512D01*
X43612488Y77312983D01*
X43612489Y77312983D01*
X43601006Y77316060D01*
X43472475Y77350500D01*
X43327525Y77350500D01*
X43198993Y77316060D01*
X43187511Y77312983D01*
X43061988Y77240512D01*
X43061982Y77240507D01*
X42959493Y77138018D01*
X42959488Y77138012D01*
X42887017Y77012489D01*
X42887016Y77012485D01*
X42849500Y76872475D01*
X17800000Y76872475D01*
X17800000Y79435929D01*
X18349499Y79435929D01*
X18374497Y79310262D01*
X18374499Y79310256D01*
X18423533Y79191876D01*
X18423538Y79191867D01*
X18494723Y79085332D01*
X18494726Y79085328D01*
X18585327Y78994727D01*
X18585331Y78994724D01*
X18691866Y78923539D01*
X18691872Y78923536D01*
X18691873Y78923535D01*
X18810256Y78874499D01*
X18810260Y78874499D01*
X18810261Y78874498D01*
X18914825Y78853698D01*
X18976736Y78821313D01*
X19011310Y78760597D01*
X19007569Y78690827D01*
X18993735Y78663190D01*
X18923538Y78558134D01*
X18923533Y78558125D01*
X18874499Y78439745D01*
X18874497Y78439739D01*
X18849500Y78314072D01*
X18849500Y78314069D01*
X18849500Y78185931D01*
X18849500Y78185929D01*
X18849499Y78185929D01*
X18874497Y78060262D01*
X18874499Y78060256D01*
X18923533Y77941876D01*
X18923538Y77941867D01*
X18994723Y77835332D01*
X18994726Y77835328D01*
X19085327Y77744727D01*
X19085331Y77744724D01*
X19191866Y77673539D01*
X19191872Y77673536D01*
X19191873Y77673535D01*
X19310256Y77624499D01*
X19310260Y77624499D01*
X19310261Y77624498D01*
X19435928Y77599500D01*
X19435931Y77599500D01*
X19564071Y77599500D01*
X19648615Y77616318D01*
X19689744Y77624499D01*
X19808127Y77673535D01*
X19914669Y77744724D01*
X20005276Y77835331D01*
X20076465Y77941873D01*
X20125501Y78060256D01*
X20149095Y78178868D01*
X20150500Y78185929D01*
X20150500Y78314072D01*
X20125503Y78439735D01*
X20125502Y78439739D01*
X20125501Y78439744D01*
X20111943Y78472475D01*
X25449500Y78472475D01*
X25449500Y78327525D01*
X25463709Y78274498D01*
X25487017Y78187512D01*
X25559488Y78061989D01*
X25559490Y78061987D01*
X25559491Y78061985D01*
X25661985Y77959491D01*
X25661986Y77959490D01*
X25661988Y77959489D01*
X25787511Y77887018D01*
X25787512Y77887018D01*
X25787515Y77887016D01*
X25927525Y77849500D01*
X25927528Y77849500D01*
X26072472Y77849500D01*
X26072475Y77849500D01*
X26212485Y77887016D01*
X26338015Y77959491D01*
X26440509Y78061985D01*
X26512984Y78187515D01*
X26550500Y78327525D01*
X26550500Y78472475D01*
X26512984Y78612485D01*
X26483709Y78663190D01*
X26440511Y78738012D01*
X26440506Y78738018D01*
X26342595Y78835929D01*
X36249499Y78835929D01*
X36274497Y78710262D01*
X36274499Y78710256D01*
X36323533Y78591876D01*
X36323538Y78591867D01*
X36394723Y78485332D01*
X36394726Y78485328D01*
X36485327Y78394727D01*
X36485331Y78394724D01*
X36591866Y78323539D01*
X36591872Y78323536D01*
X36591873Y78323535D01*
X36710256Y78274499D01*
X36710260Y78274499D01*
X36710261Y78274498D01*
X36835928Y78249500D01*
X36835931Y78249500D01*
X36964071Y78249500D01*
X37048615Y78266318D01*
X37089744Y78274499D01*
X37208127Y78323535D01*
X37314669Y78394724D01*
X37392420Y78472475D01*
X47749500Y78472475D01*
X47749500Y78327525D01*
X47763709Y78274498D01*
X47787017Y78187512D01*
X47859488Y78061989D01*
X47859490Y78061987D01*
X47859491Y78061985D01*
X47961985Y77959491D01*
X47961986Y77959490D01*
X47961988Y77959489D01*
X48087511Y77887018D01*
X48087512Y77887018D01*
X48087515Y77887016D01*
X48227525Y77849500D01*
X48227528Y77849500D01*
X48372472Y77849500D01*
X48372475Y77849500D01*
X48512485Y77887016D01*
X48638015Y77959491D01*
X48688277Y78009753D01*
X53209500Y78009753D01*
X53209500Y76270248D01*
X53221131Y76211771D01*
X53221132Y76211770D01*
X53265447Y76145448D01*
X53331769Y76101133D01*
X53331770Y76101132D01*
X53390247Y76089501D01*
X53390250Y76089500D01*
X53390252Y76089500D01*
X55129750Y76089500D01*
X55129751Y76089501D01*
X55144568Y76092448D01*
X55188229Y76101132D01*
X55188229Y76101133D01*
X55188231Y76101133D01*
X55254552Y76145448D01*
X55298867Y76211769D01*
X55298867Y76211771D01*
X55298868Y76211771D01*
X55310499Y76270248D01*
X55310500Y76270250D01*
X55310500Y77243470D01*
X55749500Y77243470D01*
X55749500Y77036531D01*
X55789868Y76833588D01*
X55789870Y76833580D01*
X55829454Y76738015D01*
X55869059Y76642402D01*
X55892038Y76608012D01*
X55984024Y76470343D01*
X56130342Y76324025D01*
X56130345Y76324023D01*
X56302402Y76209059D01*
X56493580Y76129870D01*
X56638052Y76101133D01*
X56696530Y76089501D01*
X56696534Y76089500D01*
X56696535Y76089500D01*
X56903466Y76089500D01*
X56903467Y76089501D01*
X57106420Y76129870D01*
X57297598Y76209059D01*
X57469655Y76324023D01*
X57615977Y76470345D01*
X57730941Y76642402D01*
X57810130Y76833580D01*
X57850500Y77036535D01*
X57850500Y77243465D01*
X57810130Y77446420D01*
X57730941Y77637598D01*
X57615977Y77809655D01*
X57615975Y77809658D01*
X57469657Y77955976D01*
X57313580Y78060262D01*
X57297598Y78070941D01*
X57280935Y78077843D01*
X57106420Y78150130D01*
X57106412Y78150132D01*
X56903469Y78190500D01*
X56903465Y78190500D01*
X56696535Y78190500D01*
X56696530Y78190500D01*
X56493587Y78150132D01*
X56493579Y78150130D01*
X56302403Y78070942D01*
X56130342Y77955976D01*
X55984024Y77809658D01*
X55869058Y77637597D01*
X55789870Y77446421D01*
X55789868Y77446413D01*
X55749500Y77243470D01*
X55310500Y77243470D01*
X55310500Y78009751D01*
X55310499Y78009753D01*
X55298868Y78068230D01*
X55298867Y78068231D01*
X55254552Y78134553D01*
X55188230Y78178868D01*
X55188229Y78178869D01*
X55129752Y78190500D01*
X55129748Y78190500D01*
X53390252Y78190500D01*
X53390247Y78190500D01*
X53331770Y78178869D01*
X53331769Y78178868D01*
X53265447Y78134553D01*
X53221132Y78068231D01*
X53221131Y78068230D01*
X53209500Y78009753D01*
X48688277Y78009753D01*
X48740509Y78061985D01*
X48812984Y78187515D01*
X48850500Y78327525D01*
X48850500Y78472475D01*
X48812984Y78612485D01*
X48783709Y78663190D01*
X48740511Y78738012D01*
X48740506Y78738018D01*
X48638017Y78840507D01*
X48638011Y78840512D01*
X48512488Y78912983D01*
X48512489Y78912983D01*
X48473112Y78923534D01*
X48372475Y78950500D01*
X48227525Y78950500D01*
X48126888Y78923534D01*
X48087511Y78912983D01*
X47961988Y78840512D01*
X47961982Y78840507D01*
X47859493Y78738018D01*
X47859488Y78738012D01*
X47787017Y78612489D01*
X47787016Y78612485D01*
X47749500Y78472475D01*
X37392420Y78472475D01*
X37405276Y78485331D01*
X37432723Y78526410D01*
X37448148Y78549493D01*
X37476461Y78591867D01*
X37476461Y78591868D01*
X37476465Y78591873D01*
X37525501Y78710256D01*
X37537537Y78770763D01*
X37550500Y78835929D01*
X37550500Y78964072D01*
X37525502Y79089739D01*
X37525501Y79089740D01*
X37525501Y79089744D01*
X37476465Y79208127D01*
X37476464Y79208128D01*
X37476461Y79208134D01*
X37405276Y79314669D01*
X37405273Y79314673D01*
X37314672Y79405274D01*
X37314668Y79405277D01*
X37208133Y79476462D01*
X37208124Y79476467D01*
X37089744Y79525501D01*
X37089738Y79525503D01*
X36964071Y79550500D01*
X36964069Y79550500D01*
X36835931Y79550500D01*
X36835929Y79550500D01*
X36710261Y79525503D01*
X36710255Y79525501D01*
X36591875Y79476467D01*
X36591866Y79476462D01*
X36485331Y79405277D01*
X36485327Y79405274D01*
X36394726Y79314673D01*
X36394723Y79314669D01*
X36323538Y79208134D01*
X36323533Y79208125D01*
X36274499Y79089745D01*
X36274497Y79089739D01*
X36249500Y78964072D01*
X36249500Y78964069D01*
X36249500Y78835931D01*
X36249500Y78835929D01*
X36249499Y78835929D01*
X26342595Y78835929D01*
X26338017Y78840507D01*
X26338015Y78840509D01*
X26212485Y78912984D01*
X26072475Y78950500D01*
X25927525Y78950500D01*
X25826888Y78923534D01*
X25787511Y78912983D01*
X25661988Y78840512D01*
X25661982Y78840507D01*
X25559493Y78738018D01*
X25559488Y78738012D01*
X25487017Y78612489D01*
X25487016Y78612485D01*
X25449500Y78472475D01*
X20111943Y78472475D01*
X20076466Y78558125D01*
X20076461Y78558134D01*
X20005276Y78664669D01*
X20005273Y78664673D01*
X19914672Y78755274D01*
X19914668Y78755277D01*
X19808133Y78826462D01*
X19808124Y78826467D01*
X19689744Y78875501D01*
X19689739Y78875503D01*
X19585173Y78896303D01*
X19523263Y78928689D01*
X19488689Y78989405D01*
X19492430Y79059174D01*
X19506259Y79086803D01*
X19576465Y79191873D01*
X19625501Y79310256D01*
X19644402Y79405276D01*
X19650500Y79435929D01*
X19650500Y79564072D01*
X19625502Y79689739D01*
X19625501Y79689740D01*
X19625501Y79689744D01*
X19576465Y79808127D01*
X19576464Y79808128D01*
X19576461Y79808134D01*
X19505276Y79914669D01*
X19505273Y79914673D01*
X19414672Y80005274D01*
X19414668Y80005277D01*
X19308133Y80076462D01*
X19308124Y80076467D01*
X19189744Y80125501D01*
X19189738Y80125503D01*
X19064071Y80150500D01*
X19064069Y80150500D01*
X18935931Y80150500D01*
X18935929Y80150500D01*
X18810261Y80125503D01*
X18810255Y80125501D01*
X18691875Y80076467D01*
X18691866Y80076462D01*
X18585331Y80005277D01*
X18585327Y80005274D01*
X18494726Y79914673D01*
X18494723Y79914669D01*
X18423538Y79808134D01*
X18423533Y79808125D01*
X18374499Y79689745D01*
X18374497Y79689739D01*
X18349500Y79564072D01*
X18349500Y79564069D01*
X18349500Y79435931D01*
X18349500Y79435929D01*
X18349499Y79435929D01*
X17800000Y79435929D01*
X17800000Y80810692D01*
X17819685Y80877731D01*
X17872489Y80923486D01*
X17941647Y80933430D01*
X18005203Y80904405D01*
X18011681Y80898373D01*
X18065327Y80844727D01*
X18065331Y80844724D01*
X18171866Y80773539D01*
X18171872Y80773536D01*
X18171873Y80773535D01*
X18290256Y80724499D01*
X18290260Y80724499D01*
X18290261Y80724498D01*
X18415928Y80699500D01*
X18415931Y80699500D01*
X18544071Y80699500D01*
X18628615Y80716318D01*
X18669744Y80724499D01*
X18788127Y80773535D01*
X18894669Y80844724D01*
X18985276Y80935331D01*
X19056465Y81041873D01*
X19105501Y81160256D01*
X19123455Y81250512D01*
X19130500Y81285929D01*
X19130500Y81414072D01*
X19105502Y81539739D01*
X19105501Y81539740D01*
X19105501Y81539744D01*
X19060098Y81649356D01*
X19056466Y81658125D01*
X19056461Y81658134D01*
X18985276Y81764669D01*
X18985273Y81764673D01*
X18894672Y81855274D01*
X18894668Y81855277D01*
X18788133Y81926462D01*
X18788119Y81926469D01*
X18669748Y81975500D01*
X18669738Y81975503D01*
X18544071Y82000500D01*
X18544069Y82000500D01*
X18415931Y82000500D01*
X18415929Y82000500D01*
X18290261Y81975503D01*
X18290255Y81975501D01*
X18171875Y81926467D01*
X18171866Y81926462D01*
X18065331Y81855277D01*
X18065327Y81855274D01*
X18011681Y81801627D01*
X17950358Y81768142D01*
X17880666Y81773126D01*
X17824733Y81814998D01*
X17800316Y81880462D01*
X17800000Y81889308D01*
X17800000Y82032727D01*
X26949500Y82032727D01*
X26949500Y81927273D01*
X26976793Y81825413D01*
X27029520Y81734087D01*
X27104087Y81659520D01*
X27195413Y81606793D01*
X27297273Y81579500D01*
X27297275Y81579500D01*
X27402725Y81579500D01*
X27402727Y81579500D01*
X27504587Y81606793D01*
X27511254Y81610643D01*
X27579152Y81627117D01*
X27645179Y81604267D01*
X27688372Y81549347D01*
X27695016Y81479794D01*
X27680646Y81441262D01*
X27676795Y81434592D01*
X27676793Y81434587D01*
X27649500Y81332727D01*
X27649500Y81227273D01*
X27667456Y81160262D01*
X27676793Y81125414D01*
X27676795Y81125409D01*
X27680644Y81118742D01*
X27697115Y81050842D01*
X27674262Y80984815D01*
X27619340Y80941626D01*
X27549787Y80934985D01*
X27511258Y80949356D01*
X27504591Y80953205D01*
X27504589Y80953206D01*
X27504587Y80953207D01*
X27402727Y80980500D01*
X27297273Y80980500D01*
X27195413Y80953207D01*
X27195410Y80953206D01*
X27104085Y80900479D01*
X27029521Y80825915D01*
X26976794Y80734590D01*
X26976793Y80734587D01*
X26949500Y80632727D01*
X26949500Y80527273D01*
X26976793Y80425413D01*
X27029520Y80334087D01*
X27104087Y80259520D01*
X27195413Y80206793D01*
X27297273Y80179500D01*
X27297275Y80179500D01*
X27402725Y80179500D01*
X27402727Y80179500D01*
X27504587Y80206793D01*
X27511254Y80210643D01*
X27579152Y80227117D01*
X27645179Y80204267D01*
X27688372Y80149347D01*
X27695016Y80079794D01*
X27680646Y80041262D01*
X27676795Y80034592D01*
X27676793Y80034587D01*
X27649500Y79932727D01*
X27649500Y79827273D01*
X27676793Y79725413D01*
X27729520Y79634087D01*
X27804087Y79559520D01*
X27895413Y79506793D01*
X27997273Y79479500D01*
X27997275Y79479500D01*
X28102725Y79479500D01*
X28102727Y79479500D01*
X28204587Y79506793D01*
X28295913Y79559520D01*
X28370480Y79634087D01*
X28423207Y79725413D01*
X28450500Y79827273D01*
X28450500Y79932727D01*
X28423207Y80034587D01*
X28419355Y80041258D01*
X28402883Y80109156D01*
X28425735Y80175183D01*
X28480656Y80218374D01*
X28550209Y80225016D01*
X28588740Y80210646D01*
X28595413Y80206793D01*
X28697273Y80179500D01*
X28697275Y80179500D01*
X28802725Y80179500D01*
X28802727Y80179500D01*
X28904587Y80206793D01*
X28911254Y80210643D01*
X28979152Y80227117D01*
X29045179Y80204267D01*
X29088372Y80149347D01*
X29095016Y80079794D01*
X29080646Y80041262D01*
X29076795Y80034592D01*
X29076793Y80034587D01*
X29049500Y79932727D01*
X29049500Y79827273D01*
X29076793Y79725413D01*
X29129520Y79634087D01*
X29204087Y79559520D01*
X29295413Y79506793D01*
X29397273Y79479500D01*
X29397275Y79479500D01*
X29502725Y79479500D01*
X29502727Y79479500D01*
X29604587Y79506793D01*
X29695913Y79559520D01*
X29770480Y79634087D01*
X29823207Y79725413D01*
X29850500Y79827273D01*
X29850500Y79932727D01*
X29823207Y80034587D01*
X29819355Y80041258D01*
X29802883Y80109156D01*
X29825735Y80175183D01*
X29880656Y80218374D01*
X29950209Y80225016D01*
X29988740Y80210646D01*
X29995413Y80206793D01*
X30097273Y80179500D01*
X30097275Y80179500D01*
X30202725Y80179500D01*
X30202727Y80179500D01*
X30304587Y80206793D01*
X30395913Y80259520D01*
X30470480Y80334087D01*
X30523207Y80425413D01*
X30550500Y80527273D01*
X30550500Y80632727D01*
X30523207Y80734587D01*
X30470480Y80825913D01*
X30413918Y80882475D01*
X41349500Y80882475D01*
X41349500Y80737525D01*
X41378975Y80627525D01*
X41387017Y80597512D01*
X41459488Y80471989D01*
X41459490Y80471987D01*
X41459491Y80471985D01*
X41561985Y80369491D01*
X41561986Y80369490D01*
X41561988Y80369489D01*
X41687511Y80297018D01*
X41687512Y80297018D01*
X41687515Y80297016D01*
X41827525Y80259500D01*
X41827528Y80259500D01*
X41972472Y80259500D01*
X41972475Y80259500D01*
X42112485Y80297016D01*
X42238015Y80369491D01*
X42340509Y80471985D01*
X42412984Y80597515D01*
X42450500Y80737525D01*
X42450500Y80882475D01*
X42412984Y81022485D01*
X42404594Y81037016D01*
X42340511Y81148012D01*
X42340506Y81148018D01*
X42238017Y81250507D01*
X42238011Y81250512D01*
X42112488Y81322983D01*
X42112489Y81322983D01*
X42101006Y81326060D01*
X41972475Y81360500D01*
X41827525Y81360500D01*
X41698993Y81326060D01*
X41687511Y81322983D01*
X41561988Y81250512D01*
X41561982Y81250507D01*
X41459493Y81148018D01*
X41459488Y81148012D01*
X41387017Y81022489D01*
X41387016Y81022485D01*
X41349500Y80882475D01*
X30413918Y80882475D01*
X30395913Y80900480D01*
X30311257Y80949356D01*
X30304589Y80953206D01*
X30304588Y80953207D01*
X30304587Y80953207D01*
X30202727Y80980500D01*
X30097273Y80980500D01*
X29995413Y80953207D01*
X29995408Y80953205D01*
X29988738Y80949354D01*
X29920837Y80932885D01*
X29854811Y80955740D01*
X29811623Y81010663D01*
X29804985Y81080217D01*
X29819356Y81118744D01*
X29823207Y81125413D01*
X29850500Y81227273D01*
X29850500Y81332727D01*
X29823207Y81434587D01*
X29819355Y81441258D01*
X29802883Y81509156D01*
X29825735Y81575183D01*
X29880656Y81618374D01*
X29950209Y81625016D01*
X29988740Y81610646D01*
X29995413Y81606793D01*
X30097273Y81579500D01*
X30097275Y81579500D01*
X30202725Y81579500D01*
X30202727Y81579500D01*
X30304587Y81606793D01*
X30395913Y81659520D01*
X30470480Y81734087D01*
X30523207Y81825413D01*
X30550500Y81927273D01*
X30550500Y82032727D01*
X30523207Y82134587D01*
X30470480Y82225913D01*
X30395913Y82300480D01*
X30311257Y82349356D01*
X30304589Y82353206D01*
X30304588Y82353207D01*
X30304587Y82353207D01*
X30202727Y82380500D01*
X30097273Y82380500D01*
X29995413Y82353207D01*
X29995408Y82353205D01*
X29988738Y82349354D01*
X29920837Y82332885D01*
X29854811Y82355740D01*
X29811623Y82410663D01*
X29804985Y82480217D01*
X29819356Y82518744D01*
X29823207Y82525413D01*
X29850500Y82627273D01*
X29850500Y82732727D01*
X29826452Y82822475D01*
X47799500Y82822475D01*
X47799500Y82677525D01*
X47822287Y82592485D01*
X47837017Y82537512D01*
X47909488Y82411989D01*
X47909490Y82411987D01*
X47909491Y82411985D01*
X48011985Y82309491D01*
X48063929Y82279501D01*
X48102231Y82257387D01*
X48150446Y82206819D01*
X48163668Y82138212D01*
X48137700Y82073347D01*
X48102231Y82042613D01*
X48011985Y81990509D01*
X48011982Y81990507D01*
X47909493Y81888018D01*
X47909488Y81888012D01*
X47837017Y81762489D01*
X47837016Y81762485D01*
X47799500Y81622475D01*
X47799500Y81477525D01*
X47830857Y81360500D01*
X47837017Y81337512D01*
X47909488Y81211989D01*
X47909490Y81211987D01*
X47909491Y81211985D01*
X48011985Y81109491D01*
X48011986Y81109490D01*
X48011988Y81109489D01*
X48137511Y81037018D01*
X48137512Y81037018D01*
X48137515Y81037016D01*
X48277525Y80999500D01*
X48277528Y80999500D01*
X48422472Y80999500D01*
X48422475Y80999500D01*
X48562485Y81037016D01*
X48688015Y81109491D01*
X48790509Y81211985D01*
X48862984Y81337515D01*
X48900500Y81477525D01*
X48900500Y81622475D01*
X48862984Y81762485D01*
X48856840Y81773126D01*
X48790511Y81888012D01*
X48790506Y81888018D01*
X48688017Y81990507D01*
X48688015Y81990509D01*
X48614892Y82032727D01*
X48597769Y82042613D01*
X48549553Y82093180D01*
X48536331Y82161787D01*
X48562299Y82226652D01*
X48597769Y82257387D01*
X48636069Y82279500D01*
X48688015Y82309491D01*
X48790509Y82411985D01*
X48862984Y82537515D01*
X48900500Y82677525D01*
X48900500Y82822475D01*
X48862984Y82962485D01*
X48832473Y83015331D01*
X48790511Y83088012D01*
X48790506Y83088018D01*
X48688017Y83190507D01*
X48688011Y83190512D01*
X48562488Y83262983D01*
X48562489Y83262983D01*
X48551006Y83266060D01*
X48422475Y83300500D01*
X48277525Y83300500D01*
X48148993Y83266060D01*
X48137511Y83262983D01*
X48011988Y83190512D01*
X48011982Y83190507D01*
X47909493Y83088018D01*
X47909488Y83088012D01*
X47837017Y82962489D01*
X47837016Y82962485D01*
X47799500Y82822475D01*
X29826452Y82822475D01*
X29823207Y82834587D01*
X29770480Y82925913D01*
X29695913Y83000480D01*
X29604587Y83053207D01*
X29502727Y83080500D01*
X29397273Y83080500D01*
X29295413Y83053207D01*
X29295410Y83053206D01*
X29204085Y83000479D01*
X29129521Y82925915D01*
X29076794Y82834590D01*
X29076794Y82834589D01*
X29076793Y82834587D01*
X29049500Y82732727D01*
X29049500Y82627273D01*
X29076364Y82527016D01*
X29076793Y82525414D01*
X29076795Y82525409D01*
X29080644Y82518742D01*
X29097115Y82450842D01*
X29074262Y82384815D01*
X29019340Y82341626D01*
X28949787Y82334985D01*
X28911258Y82349356D01*
X28904591Y82353205D01*
X28904589Y82353206D01*
X28904587Y82353207D01*
X28802727Y82380500D01*
X28697273Y82380500D01*
X28595413Y82353207D01*
X28595408Y82353205D01*
X28588738Y82349354D01*
X28520837Y82332885D01*
X28454811Y82355740D01*
X28411623Y82410663D01*
X28404985Y82480217D01*
X28419356Y82518744D01*
X28423207Y82525413D01*
X28450500Y82627273D01*
X28450500Y82732727D01*
X28423207Y82834587D01*
X28370480Y82925913D01*
X28295913Y83000480D01*
X28204587Y83053207D01*
X28102727Y83080500D01*
X27997273Y83080500D01*
X27895413Y83053207D01*
X27895410Y83053206D01*
X27804085Y83000479D01*
X27729521Y82925915D01*
X27676794Y82834590D01*
X27676794Y82834589D01*
X27676793Y82834587D01*
X27649500Y82732727D01*
X27649500Y82627273D01*
X27676364Y82527016D01*
X27676793Y82525414D01*
X27676795Y82525409D01*
X27680644Y82518742D01*
X27697115Y82450842D01*
X27674262Y82384815D01*
X27619340Y82341626D01*
X27549787Y82334985D01*
X27511258Y82349356D01*
X27504591Y82353205D01*
X27504589Y82353206D01*
X27504587Y82353207D01*
X27402727Y82380500D01*
X27297273Y82380500D01*
X27195413Y82353207D01*
X27195410Y82353206D01*
X27104085Y82300479D01*
X27029521Y82225915D01*
X26976794Y82134590D01*
X26976793Y82134587D01*
X26949500Y82032727D01*
X17800000Y82032727D01*
X17800000Y84302475D01*
X24599500Y84302475D01*
X24599500Y84157525D01*
X24620139Y84080500D01*
X24637017Y84017512D01*
X24709488Y83891989D01*
X24709490Y83891987D01*
X24709491Y83891985D01*
X24811985Y83789491D01*
X24811986Y83789490D01*
X24811988Y83789489D01*
X24937511Y83717018D01*
X24937512Y83717018D01*
X24937515Y83717016D01*
X25077525Y83679500D01*
X25077528Y83679500D01*
X25222472Y83679500D01*
X25222475Y83679500D01*
X25362485Y83717016D01*
X25488015Y83789491D01*
X25590509Y83891985D01*
X25662984Y84017515D01*
X25700500Y84157525D01*
X25700500Y84302475D01*
X25662984Y84442485D01*
X25626731Y84505276D01*
X25590511Y84568012D01*
X25590506Y84568018D01*
X25488017Y84670507D01*
X25488011Y84670512D01*
X25362488Y84742983D01*
X25362489Y84742983D01*
X25351006Y84746060D01*
X25222475Y84780500D01*
X25077525Y84780500D01*
X24948993Y84746060D01*
X24937511Y84742983D01*
X24811988Y84670512D01*
X24811982Y84670507D01*
X24709493Y84568018D01*
X24709488Y84568012D01*
X24637017Y84442489D01*
X24637016Y84442485D01*
X24599500Y84302475D01*
X17800000Y84302475D01*
X17800000Y86942475D01*
X45099500Y86942475D01*
X45099500Y86797525D01*
X45127475Y86693123D01*
X45137017Y86657512D01*
X45209488Y86531989D01*
X45209490Y86531987D01*
X45209491Y86531985D01*
X45311985Y86429491D01*
X45311986Y86429490D01*
X45311988Y86429489D01*
X45437511Y86357018D01*
X45437512Y86357018D01*
X45437515Y86357016D01*
X45577525Y86319500D01*
X45577528Y86319500D01*
X45722472Y86319500D01*
X45722475Y86319500D01*
X45862485Y86357016D01*
X45988015Y86429491D01*
X46090509Y86531985D01*
X46162984Y86657515D01*
X46200500Y86797525D01*
X46200500Y86942475D01*
X46162984Y87082485D01*
X46162984Y87082486D01*
X46162982Y87082489D01*
X46151060Y87103139D01*
X55689500Y87103139D01*
X55689500Y86896862D01*
X55721769Y86693123D01*
X55721769Y86693120D01*
X55785510Y86496946D01*
X55879160Y86313148D01*
X56000407Y86146267D01*
X56146267Y86000407D01*
X56313148Y85879160D01*
X56496943Y85785512D01*
X56496945Y85785511D01*
X56693120Y85721770D01*
X56693121Y85721770D01*
X56693124Y85721769D01*
X56896861Y85689500D01*
X56896862Y85689500D01*
X57103138Y85689500D01*
X57103139Y85689500D01*
X57306876Y85721769D01*
X57306879Y85721770D01*
X57306880Y85721770D01*
X57503054Y85785511D01*
X57503054Y85785512D01*
X57503057Y85785512D01*
X57686852Y85879160D01*
X57853733Y86000407D01*
X57999593Y86146267D01*
X58120840Y86313148D01*
X58214488Y86496943D01*
X58278231Y86693124D01*
X58310500Y86896861D01*
X58310500Y87103139D01*
X58278231Y87306876D01*
X58278230Y87306880D01*
X58278230Y87306881D01*
X58214489Y87503055D01*
X58190824Y87549500D01*
X58120840Y87686852D01*
X57999593Y87853733D01*
X57853733Y87999593D01*
X57686852Y88120840D01*
X57657234Y88135931D01*
X57503054Y88214490D01*
X57306879Y88278231D01*
X57154073Y88302433D01*
X57103139Y88310500D01*
X56896861Y88310500D01*
X56828948Y88299744D01*
X56693122Y88278231D01*
X56693119Y88278231D01*
X56496945Y88214490D01*
X56313147Y88120840D01*
X56146265Y87999592D01*
X56000408Y87853735D01*
X55879160Y87686853D01*
X55785510Y87503055D01*
X55721769Y87306881D01*
X55721769Y87306878D01*
X55689500Y87103139D01*
X46151060Y87103139D01*
X46090511Y87208012D01*
X46090506Y87208018D01*
X45988017Y87310507D01*
X45988011Y87310512D01*
X45862488Y87382983D01*
X45862489Y87382983D01*
X45851006Y87386060D01*
X45722475Y87420500D01*
X45577525Y87420500D01*
X45448993Y87386060D01*
X45437511Y87382983D01*
X45311988Y87310512D01*
X45311982Y87310507D01*
X45209493Y87208018D01*
X45209488Y87208012D01*
X45137017Y87082489D01*
X45137016Y87082485D01*
X45099500Y86942475D01*
X17800000Y86942475D01*
X17800000Y88125500D01*
X17819685Y88192539D01*
X17872489Y88238294D01*
X17924000Y88249500D01*
X17964071Y88249500D01*
X18048615Y88266318D01*
X18089744Y88274499D01*
X18208127Y88323535D01*
X18314669Y88394724D01*
X18405276Y88485331D01*
X18476465Y88591873D01*
X18525501Y88710256D01*
X18545394Y88810262D01*
X18550500Y88835929D01*
X18550500Y88964072D01*
X18525502Y89089739D01*
X18525501Y89089740D01*
X18525501Y89089744D01*
X18476465Y89208127D01*
X18476464Y89208128D01*
X18476461Y89208134D01*
X18405276Y89314669D01*
X18405273Y89314673D01*
X18314672Y89405274D01*
X18314668Y89405277D01*
X18214215Y89472398D01*
X18169410Y89526010D01*
X18160703Y89595335D01*
X18190858Y89658363D01*
X18250301Y89695082D01*
X18283106Y89699500D01*
X19216894Y89699500D01*
X19283933Y89679815D01*
G37*
%TD.AperFunction*%
%TD*%
%TA.AperFunction,Conductor*%
%TO.N,+5V*%
G36*
X59642539Y45480315D02*
G01*
X59688294Y45427511D01*
X59699500Y45376000D01*
X59699500Y424500D01*
X59679815Y357461D01*
X59627011Y311706D01*
X59575500Y300500D01*
X27124000Y300500D01*
X27056961Y320185D01*
X27011206Y372989D01*
X27000000Y424500D01*
X27000000Y2914753D01*
X40994500Y2914753D01*
X40994500Y1175248D01*
X41006131Y1116771D01*
X41006132Y1116770D01*
X41050447Y1050448D01*
X41116769Y1006133D01*
X41116770Y1006132D01*
X41175247Y994501D01*
X41175250Y994500D01*
X41175252Y994500D01*
X42914750Y994500D01*
X42914751Y994501D01*
X42929568Y997448D01*
X42973229Y1006132D01*
X42973229Y1006133D01*
X42973231Y1006133D01*
X43039552Y1050448D01*
X43083867Y1116769D01*
X43083867Y1116771D01*
X43083868Y1116771D01*
X43095499Y1175248D01*
X43095500Y1175250D01*
X43095500Y2148470D01*
X46074500Y2148470D01*
X46074500Y1941531D01*
X46114868Y1738588D01*
X46114870Y1738580D01*
X46194058Y1547404D01*
X46309024Y1375343D01*
X46455342Y1229025D01*
X46455345Y1229023D01*
X46627402Y1114059D01*
X46818580Y1034870D01*
X46963052Y1006133D01*
X47021530Y994501D01*
X47021534Y994500D01*
X47021535Y994500D01*
X47228466Y994500D01*
X47228467Y994501D01*
X47431420Y1034870D01*
X47622598Y1114059D01*
X47794655Y1229023D01*
X47940977Y1375345D01*
X48055941Y1547402D01*
X48135130Y1738580D01*
X48175500Y1941535D01*
X48175500Y2148465D01*
X48135130Y2351420D01*
X48055941Y2542598D01*
X47940977Y2714655D01*
X47940975Y2714658D01*
X47794657Y2860976D01*
X47626655Y2973230D01*
X47622598Y2975941D01*
X47431420Y3055130D01*
X47431412Y3055132D01*
X47228469Y3095500D01*
X47228465Y3095500D01*
X47021535Y3095500D01*
X47021530Y3095500D01*
X46818587Y3055132D01*
X46818579Y3055130D01*
X46627403Y2975942D01*
X46455342Y2860976D01*
X46309024Y2714658D01*
X46194058Y2542597D01*
X46114870Y2351421D01*
X46114868Y2351413D01*
X46074500Y2148470D01*
X43095500Y2148470D01*
X43095500Y2914751D01*
X43095499Y2914753D01*
X43083868Y2973230D01*
X43083867Y2973231D01*
X43039552Y3039553D01*
X42973230Y3083868D01*
X42973229Y3083869D01*
X42914752Y3095500D01*
X42914748Y3095500D01*
X41175252Y3095500D01*
X41175247Y3095500D01*
X41116770Y3083869D01*
X41116769Y3083868D01*
X41050447Y3039553D01*
X41006132Y2973231D01*
X41006131Y2973230D01*
X40994500Y2914753D01*
X27000000Y2914753D01*
X27000000Y3103139D01*
X55689500Y3103139D01*
X55689500Y2896862D01*
X55721769Y2693123D01*
X55721769Y2693120D01*
X55785510Y2496946D01*
X55821913Y2425501D01*
X55879160Y2313148D01*
X56000407Y2146267D01*
X56146267Y2000407D01*
X56313148Y1879160D01*
X56496943Y1785512D01*
X56496945Y1785511D01*
X56693120Y1721770D01*
X56693121Y1721770D01*
X56693124Y1721769D01*
X56896861Y1689500D01*
X56896862Y1689500D01*
X57103138Y1689500D01*
X57103139Y1689500D01*
X57306876Y1721769D01*
X57306879Y1721770D01*
X57306880Y1721770D01*
X57503054Y1785511D01*
X57503054Y1785512D01*
X57503057Y1785512D01*
X57686852Y1879160D01*
X57853733Y2000407D01*
X57999593Y2146267D01*
X58120840Y2313148D01*
X58214488Y2496943D01*
X58278231Y2693124D01*
X58310500Y2896861D01*
X58310500Y3103139D01*
X58278231Y3306876D01*
X58278230Y3306880D01*
X58278230Y3306881D01*
X58214489Y3503055D01*
X58183401Y3564069D01*
X58120840Y3686852D01*
X57999593Y3853733D01*
X57853733Y3999593D01*
X57686852Y4120840D01*
X57628641Y4150500D01*
X57503054Y4214490D01*
X57306879Y4278231D01*
X57154073Y4302433D01*
X57103139Y4310500D01*
X56896861Y4310500D01*
X56828948Y4299744D01*
X56693122Y4278231D01*
X56693119Y4278231D01*
X56496945Y4214490D01*
X56313147Y4120840D01*
X56146265Y3999592D01*
X56000408Y3853735D01*
X55879160Y3686853D01*
X55785510Y3503055D01*
X55721769Y3306881D01*
X55721769Y3306878D01*
X55689500Y3103139D01*
X27000000Y3103139D01*
X27000000Y6935929D01*
X34549499Y6935929D01*
X34574497Y6810262D01*
X34574499Y6810256D01*
X34623533Y6691876D01*
X34623538Y6691867D01*
X34694723Y6585332D01*
X34694726Y6585328D01*
X34785327Y6494727D01*
X34785331Y6494724D01*
X34891866Y6423539D01*
X34891872Y6423536D01*
X34891873Y6423535D01*
X35010256Y6374499D01*
X35010260Y6374499D01*
X35010261Y6374498D01*
X35135928Y6349500D01*
X35135931Y6349500D01*
X35264071Y6349500D01*
X35348615Y6366318D01*
X35389744Y6374499D01*
X35508127Y6423535D01*
X35526676Y6435929D01*
X39599499Y6435929D01*
X39624497Y6310262D01*
X39624499Y6310256D01*
X39673533Y6191876D01*
X39673538Y6191867D01*
X39744723Y6085332D01*
X39744726Y6085328D01*
X39835327Y5994727D01*
X39835331Y5994724D01*
X39941866Y5923539D01*
X39941872Y5923536D01*
X39941873Y5923535D01*
X40060256Y5874499D01*
X40060260Y5874499D01*
X40060261Y5874498D01*
X40185928Y5849500D01*
X40185931Y5849500D01*
X40314071Y5849500D01*
X40398615Y5866318D01*
X40439744Y5874499D01*
X40558127Y5923535D01*
X40664669Y5994724D01*
X40755276Y6085331D01*
X40826465Y6191873D01*
X40875501Y6310256D01*
X40898034Y6423534D01*
X40900500Y6435929D01*
X40900500Y6564072D01*
X40875502Y6689739D01*
X40875501Y6689740D01*
X40875501Y6689744D01*
X40826465Y6808127D01*
X40826464Y6808128D01*
X40826461Y6808134D01*
X40755276Y6914669D01*
X40755273Y6914673D01*
X40664672Y7005274D01*
X40664668Y7005277D01*
X40558133Y7076462D01*
X40558124Y7076467D01*
X40439744Y7125501D01*
X40439738Y7125503D01*
X40314071Y7150500D01*
X40314069Y7150500D01*
X40185931Y7150500D01*
X40185929Y7150500D01*
X40060261Y7125503D01*
X40060255Y7125501D01*
X39941875Y7076467D01*
X39941866Y7076462D01*
X39835331Y7005277D01*
X39835327Y7005274D01*
X39744726Y6914673D01*
X39744723Y6914669D01*
X39673538Y6808134D01*
X39673533Y6808125D01*
X39624499Y6689745D01*
X39624497Y6689739D01*
X39599500Y6564072D01*
X39599500Y6564069D01*
X39599500Y6435931D01*
X39599500Y6435929D01*
X39599499Y6435929D01*
X35526676Y6435929D01*
X35614669Y6494724D01*
X35705276Y6585331D01*
X35721393Y6609452D01*
X35741172Y6639052D01*
X35741173Y6639054D01*
X35776458Y6691862D01*
X35776461Y6691867D01*
X35776465Y6691873D01*
X35825501Y6810256D01*
X35846271Y6914669D01*
X35850500Y6935929D01*
X35850500Y7064072D01*
X35825502Y7189739D01*
X35825501Y7189740D01*
X35825501Y7189744D01*
X35776465Y7308127D01*
X35776464Y7308128D01*
X35776461Y7308134D01*
X35705276Y7414669D01*
X35705273Y7414673D01*
X35704017Y7415929D01*
X53749499Y7415929D01*
X53774497Y7290262D01*
X53774499Y7290256D01*
X53823533Y7171876D01*
X53823538Y7171867D01*
X53894723Y7065332D01*
X53894726Y7065328D01*
X53985327Y6974727D01*
X53985331Y6974724D01*
X54091866Y6903539D01*
X54091872Y6903536D01*
X54091873Y6903535D01*
X54210256Y6854499D01*
X54210260Y6854499D01*
X54210261Y6854498D01*
X54335928Y6829500D01*
X54335931Y6829500D01*
X54464071Y6829500D01*
X54548615Y6846318D01*
X54589744Y6854499D01*
X54708127Y6903535D01*
X54814669Y6974724D01*
X54905276Y7065331D01*
X54974398Y7168779D01*
X55028010Y7213584D01*
X55097335Y7222291D01*
X55160362Y7192137D01*
X55180602Y7168779D01*
X55249723Y7065332D01*
X55249726Y7065328D01*
X55340327Y6974727D01*
X55340331Y6974724D01*
X55446866Y6903539D01*
X55446872Y6903536D01*
X55446873Y6903535D01*
X55565256Y6854499D01*
X55565260Y6854499D01*
X55565261Y6854498D01*
X55690928Y6829500D01*
X55690931Y6829500D01*
X55819071Y6829500D01*
X55903615Y6846318D01*
X55944744Y6854499D01*
X56063127Y6903535D01*
X56169669Y6974724D01*
X56260276Y7065331D01*
X56329398Y7168779D01*
X56383010Y7213584D01*
X56452335Y7222291D01*
X56515362Y7192137D01*
X56535602Y7168779D01*
X56604723Y7065332D01*
X56604726Y7065328D01*
X56695327Y6974727D01*
X56695331Y6974724D01*
X56801866Y6903539D01*
X56801872Y6903536D01*
X56801873Y6903535D01*
X56920256Y6854499D01*
X56920260Y6854499D01*
X56920261Y6854498D01*
X57045928Y6829500D01*
X57045931Y6829500D01*
X57174071Y6829500D01*
X57258615Y6846318D01*
X57299744Y6854499D01*
X57418127Y6903535D01*
X57524669Y6974724D01*
X57615276Y7065331D01*
X57686465Y7171873D01*
X57735501Y7290256D01*
X57760500Y7415931D01*
X57760500Y7544069D01*
X57760500Y7544072D01*
X57735502Y7669739D01*
X57735501Y7669740D01*
X57735501Y7669744D01*
X57686465Y7788127D01*
X57686464Y7788128D01*
X57686461Y7788134D01*
X57615276Y7894669D01*
X57615273Y7894673D01*
X57524672Y7985274D01*
X57524668Y7985277D01*
X57418133Y8056462D01*
X57418124Y8056467D01*
X57299744Y8105501D01*
X57299738Y8105503D01*
X57174071Y8130500D01*
X57174069Y8130500D01*
X57045931Y8130500D01*
X57045929Y8130500D01*
X56920261Y8105503D01*
X56920255Y8105501D01*
X56801875Y8056467D01*
X56801866Y8056462D01*
X56695331Y7985277D01*
X56695327Y7985274D01*
X56604726Y7894673D01*
X56604723Y7894669D01*
X56535602Y7791222D01*
X56481990Y7746417D01*
X56412665Y7737710D01*
X56349637Y7767865D01*
X56329398Y7791222D01*
X56260276Y7894669D01*
X56260273Y7894673D01*
X56169672Y7985274D01*
X56169668Y7985277D01*
X56063133Y8056462D01*
X56063124Y8056467D01*
X55944744Y8105501D01*
X55944738Y8105503D01*
X55819071Y8130500D01*
X55819069Y8130500D01*
X55690931Y8130500D01*
X55690929Y8130500D01*
X55565261Y8105503D01*
X55565255Y8105501D01*
X55446875Y8056467D01*
X55446866Y8056462D01*
X55340331Y7985277D01*
X55340327Y7985274D01*
X55249726Y7894673D01*
X55249723Y7894669D01*
X55180602Y7791222D01*
X55126990Y7746417D01*
X55057665Y7737710D01*
X54994637Y7767865D01*
X54974398Y7791222D01*
X54905276Y7894669D01*
X54905273Y7894673D01*
X54814672Y7985274D01*
X54814668Y7985277D01*
X54708133Y8056462D01*
X54708124Y8056467D01*
X54589744Y8105501D01*
X54589738Y8105503D01*
X54464071Y8130500D01*
X54464069Y8130500D01*
X54335931Y8130500D01*
X54335929Y8130500D01*
X54210261Y8105503D01*
X54210255Y8105501D01*
X54091875Y8056467D01*
X54091866Y8056462D01*
X53985331Y7985277D01*
X53985327Y7985274D01*
X53894726Y7894673D01*
X53894723Y7894669D01*
X53823538Y7788134D01*
X53823533Y7788125D01*
X53774499Y7669745D01*
X53774497Y7669739D01*
X53749500Y7544072D01*
X53749500Y7544069D01*
X53749500Y7415931D01*
X53749500Y7415929D01*
X53749499Y7415929D01*
X35704017Y7415929D01*
X35614672Y7505274D01*
X35614668Y7505277D01*
X35508133Y7576462D01*
X35508124Y7576467D01*
X35389744Y7625501D01*
X35389738Y7625503D01*
X35264071Y7650500D01*
X35264069Y7650500D01*
X35135931Y7650500D01*
X35135929Y7650500D01*
X35010261Y7625503D01*
X35010255Y7625501D01*
X34891875Y7576467D01*
X34891866Y7576462D01*
X34785331Y7505277D01*
X34785327Y7505274D01*
X34694726Y7414673D01*
X34694723Y7414669D01*
X34623538Y7308134D01*
X34623533Y7308125D01*
X34574499Y7189745D01*
X34574497Y7189739D01*
X34549500Y7064072D01*
X34549500Y7064069D01*
X34549500Y6935931D01*
X34549500Y6935929D01*
X34549499Y6935929D01*
X27000000Y6935929D01*
X27000000Y11505929D01*
X52349499Y11505929D01*
X52374497Y11380262D01*
X52374499Y11380256D01*
X52423533Y11261876D01*
X52423538Y11261867D01*
X52494723Y11155332D01*
X52494726Y11155328D01*
X52585327Y11064727D01*
X52585331Y11064724D01*
X52688778Y10995602D01*
X52733583Y10941990D01*
X52742290Y10872665D01*
X52712135Y10809637D01*
X52688778Y10789398D01*
X52585331Y10720277D01*
X52585327Y10720274D01*
X52494726Y10629673D01*
X52494723Y10629669D01*
X52423538Y10523134D01*
X52423533Y10523125D01*
X52374499Y10404745D01*
X52374497Y10404739D01*
X52349500Y10279072D01*
X52349500Y10279069D01*
X52349500Y10150931D01*
X52349500Y10150929D01*
X52349499Y10150929D01*
X52374497Y10025262D01*
X52374499Y10025256D01*
X52423533Y9906876D01*
X52423538Y9906867D01*
X52494723Y9800332D01*
X52494726Y9800328D01*
X52585327Y9709727D01*
X52585331Y9709724D01*
X52688778Y9640602D01*
X52733583Y9586990D01*
X52742290Y9517665D01*
X52712135Y9454637D01*
X52688778Y9434398D01*
X52585331Y9365277D01*
X52585327Y9365274D01*
X52494726Y9274673D01*
X52494723Y9274669D01*
X52423538Y9168134D01*
X52423533Y9168125D01*
X52374499Y9049745D01*
X52374497Y9049739D01*
X52349500Y8924072D01*
X52349500Y8924069D01*
X52349500Y8795931D01*
X52349500Y8795929D01*
X52349499Y8795929D01*
X52374497Y8670262D01*
X52374499Y8670256D01*
X52423533Y8551876D01*
X52423538Y8551867D01*
X52494723Y8445332D01*
X52494726Y8445328D01*
X52585327Y8354727D01*
X52585331Y8354724D01*
X52691866Y8283539D01*
X52691872Y8283536D01*
X52691873Y8283535D01*
X52810256Y8234499D01*
X52810260Y8234499D01*
X52810261Y8234498D01*
X52935928Y8209500D01*
X52935931Y8209500D01*
X53064071Y8209500D01*
X53148615Y8226318D01*
X53189744Y8234499D01*
X53308127Y8283535D01*
X53414669Y8354724D01*
X53505276Y8445331D01*
X53576465Y8551873D01*
X53625501Y8670256D01*
X53650500Y8795931D01*
X53650500Y8924069D01*
X53650500Y8924072D01*
X53625502Y9049739D01*
X53625501Y9049740D01*
X53625501Y9049744D01*
X53576465Y9168127D01*
X53576464Y9168128D01*
X53576461Y9168134D01*
X53505276Y9274669D01*
X53505273Y9274673D01*
X53414672Y9365274D01*
X53414668Y9365277D01*
X53311221Y9434398D01*
X53266416Y9488010D01*
X53257709Y9557335D01*
X53287863Y9620362D01*
X53311221Y9640602D01*
X53346252Y9664010D01*
X53414669Y9709724D01*
X53505276Y9800331D01*
X53576465Y9906873D01*
X53625501Y10025256D01*
X53650500Y10150931D01*
X53650500Y10279069D01*
X53650500Y10279072D01*
X53625502Y10404739D01*
X53625501Y10404740D01*
X53625501Y10404744D01*
X53576465Y10523127D01*
X53576464Y10523128D01*
X53576461Y10523134D01*
X53505276Y10629669D01*
X53505273Y10629673D01*
X53414672Y10720274D01*
X53414668Y10720277D01*
X53311221Y10789398D01*
X53266416Y10843010D01*
X53257709Y10912335D01*
X53287863Y10975362D01*
X53311221Y10995602D01*
X53346252Y11019010D01*
X53414669Y11064724D01*
X53505276Y11155331D01*
X53576465Y11261873D01*
X53625501Y11380256D01*
X53650500Y11505931D01*
X53650500Y11634069D01*
X53650500Y11634072D01*
X53625502Y11759739D01*
X53625501Y11759740D01*
X53625501Y11759744D01*
X53576465Y11878127D01*
X53576464Y11878128D01*
X53576461Y11878134D01*
X53505276Y11984669D01*
X53505273Y11984673D01*
X53414672Y12075274D01*
X53414668Y12075277D01*
X53308133Y12146462D01*
X53308124Y12146467D01*
X53189744Y12195501D01*
X53189738Y12195503D01*
X53064071Y12220500D01*
X53064069Y12220500D01*
X52935931Y12220500D01*
X52935929Y12220500D01*
X52810261Y12195503D01*
X52810255Y12195501D01*
X52691875Y12146467D01*
X52691866Y12146462D01*
X52585331Y12075277D01*
X52585327Y12075274D01*
X52494726Y11984673D01*
X52494723Y11984669D01*
X52423538Y11878134D01*
X52423533Y11878125D01*
X52374499Y11759745D01*
X52374497Y11759739D01*
X52349500Y11634072D01*
X52349500Y11634069D01*
X52349500Y11505931D01*
X52349500Y11505929D01*
X52349499Y11505929D01*
X27000000Y11505929D01*
X27000000Y14685929D01*
X28599499Y14685929D01*
X28624497Y14560262D01*
X28624499Y14560256D01*
X28673533Y14441876D01*
X28673538Y14441867D01*
X28744723Y14335332D01*
X28744726Y14335328D01*
X28835327Y14244727D01*
X28835331Y14244724D01*
X28941866Y14173539D01*
X28941872Y14173536D01*
X28941873Y14173535D01*
X29060256Y14124499D01*
X29060260Y14124499D01*
X29060261Y14124498D01*
X29185928Y14099500D01*
X29185931Y14099500D01*
X29314071Y14099500D01*
X29398615Y14116318D01*
X29439744Y14124499D01*
X29558127Y14173535D01*
X29664669Y14244724D01*
X29755276Y14335331D01*
X29826465Y14441873D01*
X29875501Y14560256D01*
X29900500Y14685931D01*
X29900500Y14814069D01*
X29900500Y14814072D01*
X29875502Y14939739D01*
X29875501Y14939740D01*
X29875501Y14939744D01*
X29826465Y15058127D01*
X29826464Y15058128D01*
X29826461Y15058134D01*
X29755276Y15164669D01*
X29755273Y15164673D01*
X29664672Y15255274D01*
X29664668Y15255277D01*
X29558133Y15326462D01*
X29558124Y15326467D01*
X29439744Y15375501D01*
X29439738Y15375503D01*
X29314071Y15400500D01*
X29314069Y15400500D01*
X29185931Y15400500D01*
X29185929Y15400500D01*
X29060261Y15375503D01*
X29060255Y15375501D01*
X28941875Y15326467D01*
X28941866Y15326462D01*
X28835331Y15255277D01*
X28835327Y15255274D01*
X28744726Y15164673D01*
X28744723Y15164669D01*
X28673538Y15058134D01*
X28673533Y15058125D01*
X28624499Y14939745D01*
X28624497Y14939739D01*
X28599500Y14814072D01*
X28599500Y14814069D01*
X28599500Y14685931D01*
X28599500Y14685929D01*
X28599499Y14685929D01*
X27000000Y14685929D01*
X27000000Y18072475D01*
X31849500Y18072475D01*
X31849500Y17927525D01*
X31877573Y17822756D01*
X31887017Y17787512D01*
X31959488Y17661989D01*
X31959490Y17661987D01*
X31959491Y17661985D01*
X32061985Y17559491D01*
X32061986Y17559490D01*
X32061988Y17559489D01*
X32187511Y17487018D01*
X32187512Y17487018D01*
X32187515Y17487016D01*
X32240839Y17472728D01*
X32300498Y17436364D01*
X32331027Y17373517D01*
X32322732Y17304142D01*
X32278247Y17250264D01*
X32270749Y17245570D01*
X32261991Y17240514D01*
X32261982Y17240507D01*
X32159493Y17138018D01*
X32159488Y17138012D01*
X32087017Y17012489D01*
X32087016Y17012485D01*
X32049500Y16872475D01*
X32049500Y16727525D01*
X32068096Y16658125D01*
X32087017Y16587512D01*
X32159488Y16461989D01*
X32159490Y16461987D01*
X32159491Y16461985D01*
X32261985Y16359491D01*
X32261986Y16359490D01*
X32261988Y16359489D01*
X32387511Y16287018D01*
X32387512Y16287018D01*
X32387515Y16287016D01*
X32527525Y16249500D01*
X32527528Y16249500D01*
X32672472Y16249500D01*
X32672475Y16249500D01*
X32808428Y16285929D01*
X40574499Y16285929D01*
X40599497Y16160262D01*
X40599499Y16160256D01*
X40648533Y16041876D01*
X40648538Y16041867D01*
X40719723Y15935332D01*
X40719726Y15935328D01*
X40810327Y15844727D01*
X40810331Y15844724D01*
X40916866Y15773539D01*
X40916872Y15773536D01*
X40916873Y15773535D01*
X41035256Y15724499D01*
X41035260Y15724499D01*
X41035261Y15724498D01*
X41160928Y15699500D01*
X41160931Y15699500D01*
X41289071Y15699500D01*
X41373615Y15716318D01*
X41414744Y15724499D01*
X41533127Y15773535D01*
X41639669Y15844724D01*
X41730276Y15935331D01*
X41801465Y16041873D01*
X41850501Y16160256D01*
X41875500Y16285931D01*
X41875500Y16414069D01*
X41875500Y16414072D01*
X41850502Y16539739D01*
X41850501Y16539740D01*
X41850501Y16539744D01*
X41801465Y16658127D01*
X41801464Y16658128D01*
X41801461Y16658134D01*
X41730276Y16764669D01*
X41730273Y16764673D01*
X41639672Y16855274D01*
X41639668Y16855277D01*
X41533133Y16926462D01*
X41533124Y16926467D01*
X41414744Y16975501D01*
X41414738Y16975503D01*
X41289071Y17000500D01*
X41289069Y17000500D01*
X41160931Y17000500D01*
X41160929Y17000500D01*
X41035261Y16975503D01*
X41035255Y16975501D01*
X40916875Y16926467D01*
X40916866Y16926462D01*
X40810331Y16855277D01*
X40810327Y16855274D01*
X40719726Y16764673D01*
X40719723Y16764669D01*
X40648538Y16658134D01*
X40648533Y16658125D01*
X40599499Y16539745D01*
X40599497Y16539739D01*
X40574500Y16414072D01*
X40574500Y16414069D01*
X40574500Y16285931D01*
X40574500Y16285929D01*
X40574499Y16285929D01*
X32808428Y16285929D01*
X32812485Y16287016D01*
X32938015Y16359491D01*
X33040509Y16461985D01*
X33047215Y16473601D01*
X33052159Y16482162D01*
X33112982Y16587512D01*
X33112981Y16587512D01*
X33112984Y16587515D01*
X33150500Y16727525D01*
X33150500Y16872475D01*
X33112984Y17012485D01*
X33040509Y17138015D01*
X32938015Y17240509D01*
X32938013Y17240510D01*
X32938011Y17240512D01*
X32812488Y17312983D01*
X32812489Y17312983D01*
X32801842Y17315836D01*
X32759160Y17327273D01*
X32699500Y17363638D01*
X32668972Y17426485D01*
X32677267Y17495860D01*
X32721753Y17549738D01*
X32729240Y17554425D01*
X32738015Y17559491D01*
X32840509Y17661985D01*
X32912984Y17787515D01*
X32935749Y17872475D01*
X34849500Y17872475D01*
X34849500Y17727525D01*
X34884252Y17597832D01*
X34887017Y17587512D01*
X34959488Y17461989D01*
X34959490Y17461987D01*
X34959491Y17461985D01*
X35061985Y17359491D01*
X35061986Y17359490D01*
X35061988Y17359489D01*
X35187511Y17287018D01*
X35187512Y17287018D01*
X35187515Y17287016D01*
X35327525Y17249500D01*
X35327528Y17249500D01*
X35472472Y17249500D01*
X35472475Y17249500D01*
X35612485Y17287016D01*
X35738015Y17359491D01*
X35840509Y17461985D01*
X35912984Y17587515D01*
X35950500Y17727525D01*
X35950500Y17872475D01*
X35930148Y17948429D01*
X40574499Y17948429D01*
X40599497Y17822762D01*
X40599499Y17822756D01*
X40648533Y17704376D01*
X40648538Y17704367D01*
X40719723Y17597832D01*
X40719726Y17597828D01*
X40810327Y17507227D01*
X40810331Y17507224D01*
X40916866Y17436039D01*
X40916872Y17436036D01*
X40916873Y17436035D01*
X41035256Y17386999D01*
X41035260Y17386999D01*
X41035261Y17386998D01*
X41160928Y17362000D01*
X41160931Y17362000D01*
X41289071Y17362000D01*
X41373615Y17378818D01*
X41414744Y17386999D01*
X41533127Y17436035D01*
X41639669Y17507224D01*
X41730276Y17597831D01*
X41801465Y17704373D01*
X41850501Y17822756D01*
X41868392Y17912697D01*
X41875500Y17948429D01*
X41875500Y18076572D01*
X41850502Y18202239D01*
X41850501Y18202240D01*
X41850501Y18202244D01*
X41801465Y18320627D01*
X41801464Y18320628D01*
X41801461Y18320634D01*
X41730276Y18427169D01*
X41730273Y18427173D01*
X41639672Y18517774D01*
X41639668Y18517777D01*
X41533133Y18588962D01*
X41533124Y18588967D01*
X41414744Y18638001D01*
X41414738Y18638003D01*
X41289071Y18663000D01*
X41289069Y18663000D01*
X41160931Y18663000D01*
X41160929Y18663000D01*
X41035261Y18638003D01*
X41035255Y18638001D01*
X40916875Y18588967D01*
X40916866Y18588962D01*
X40810331Y18517777D01*
X40810327Y18517774D01*
X40719726Y18427173D01*
X40719723Y18427169D01*
X40648538Y18320634D01*
X40648533Y18320625D01*
X40599499Y18202245D01*
X40599497Y18202239D01*
X40574500Y18076572D01*
X40574500Y18076569D01*
X40574500Y17948431D01*
X40574500Y17948429D01*
X40574499Y17948429D01*
X35930148Y17948429D01*
X35912984Y18012485D01*
X35840509Y18138015D01*
X35738015Y18240509D01*
X35738013Y18240510D01*
X35738011Y18240512D01*
X35612488Y18312983D01*
X35612489Y18312983D01*
X35601006Y18316060D01*
X35472475Y18350500D01*
X35327525Y18350500D01*
X35198993Y18316060D01*
X35187511Y18312983D01*
X35061988Y18240512D01*
X35061982Y18240507D01*
X34959493Y18138018D01*
X34959488Y18138012D01*
X34887017Y18012489D01*
X34887016Y18012485D01*
X34849500Y17872475D01*
X32935749Y17872475D01*
X32950500Y17927525D01*
X32950500Y18072475D01*
X32912984Y18212485D01*
X32896805Y18240507D01*
X32840511Y18338012D01*
X32840506Y18338018D01*
X32738017Y18440507D01*
X32738011Y18440512D01*
X32612488Y18512983D01*
X32612489Y18512983D01*
X32594597Y18517777D01*
X32472475Y18550500D01*
X32327525Y18550500D01*
X32205403Y18517777D01*
X32187511Y18512983D01*
X32061988Y18440512D01*
X32061982Y18440507D01*
X31959493Y18338018D01*
X31959488Y18338012D01*
X31887017Y18212489D01*
X31887016Y18212485D01*
X31849500Y18072475D01*
X27000000Y18072475D01*
X27000000Y19610929D01*
X40574499Y19610929D01*
X40599497Y19485262D01*
X40599499Y19485256D01*
X40648533Y19366876D01*
X40648538Y19366867D01*
X40719723Y19260332D01*
X40719726Y19260328D01*
X40810327Y19169727D01*
X40810331Y19169724D01*
X40916866Y19098539D01*
X40916872Y19098536D01*
X40916873Y19098535D01*
X41035256Y19049499D01*
X41035260Y19049499D01*
X41035261Y19049498D01*
X41160928Y19024500D01*
X41160931Y19024500D01*
X41289071Y19024500D01*
X41373615Y19041318D01*
X41414744Y19049499D01*
X41533127Y19098535D01*
X41639669Y19169724D01*
X41730276Y19260331D01*
X41801465Y19366873D01*
X41850501Y19485256D01*
X41875500Y19610931D01*
X41875500Y19739069D01*
X41875500Y19739072D01*
X41850502Y19864739D01*
X41850501Y19864740D01*
X41850501Y19864744D01*
X41801465Y19983127D01*
X41801464Y19983128D01*
X41801461Y19983134D01*
X41730276Y20089669D01*
X41730273Y20089673D01*
X41639672Y20180274D01*
X41639668Y20180277D01*
X41533133Y20251462D01*
X41533124Y20251467D01*
X41414744Y20300501D01*
X41414738Y20300503D01*
X41289071Y20325500D01*
X41289069Y20325500D01*
X41160931Y20325500D01*
X41160929Y20325500D01*
X41035261Y20300503D01*
X41035255Y20300501D01*
X40916875Y20251467D01*
X40916866Y20251462D01*
X40810331Y20180277D01*
X40810327Y20180274D01*
X40719726Y20089673D01*
X40719723Y20089669D01*
X40648538Y19983134D01*
X40648533Y19983125D01*
X40599499Y19864745D01*
X40599497Y19864739D01*
X40574500Y19739072D01*
X40574500Y19739069D01*
X40574500Y19610931D01*
X40574500Y19610929D01*
X40574499Y19610929D01*
X27000000Y19610929D01*
X27000000Y20865892D01*
X31099500Y20865892D01*
X31099500Y20734108D01*
X31116554Y20670461D01*
X31133608Y20606813D01*
X31146011Y20585331D01*
X31199500Y20492686D01*
X31292686Y20399500D01*
X31406814Y20333608D01*
X31534108Y20299500D01*
X31534110Y20299500D01*
X31665890Y20299500D01*
X31665892Y20299500D01*
X31793186Y20333608D01*
X31907314Y20399500D01*
X32000500Y20492686D01*
X32066392Y20606814D01*
X32100500Y20734108D01*
X32100500Y20865892D01*
X32066392Y20993186D01*
X32000500Y21107314D01*
X31907314Y21200500D01*
X31850250Y21233446D01*
X31793187Y21266392D01*
X31770484Y21272475D01*
X36249500Y21272475D01*
X36249500Y21127525D01*
X36287016Y20987515D01*
X36287017Y20987512D01*
X36359488Y20861989D01*
X36359490Y20861987D01*
X36359491Y20861985D01*
X36461985Y20759491D01*
X36461986Y20759490D01*
X36461988Y20759489D01*
X36587511Y20687018D01*
X36587512Y20687018D01*
X36587515Y20687016D01*
X36727525Y20649500D01*
X36727528Y20649500D01*
X36872472Y20649500D01*
X36872475Y20649500D01*
X37012485Y20687016D01*
X37138015Y20759491D01*
X37240509Y20861985D01*
X37312984Y20987515D01*
X37350500Y21127525D01*
X37350500Y21272475D01*
X37350244Y21273429D01*
X40574499Y21273429D01*
X40599497Y21147762D01*
X40599499Y21147756D01*
X40648533Y21029376D01*
X40648538Y21029367D01*
X40719723Y20922832D01*
X40719726Y20922828D01*
X40810327Y20832227D01*
X40810331Y20832224D01*
X40916866Y20761039D01*
X40916875Y20761034D01*
X40920605Y20759489D01*
X41035256Y20711999D01*
X41035260Y20711999D01*
X41035261Y20711998D01*
X41160928Y20687000D01*
X41160931Y20687000D01*
X41289071Y20687000D01*
X41373615Y20703818D01*
X41414744Y20711999D01*
X41533127Y20761035D01*
X41639669Y20832224D01*
X41730276Y20922831D01*
X41801465Y21029373D01*
X41850501Y21147756D01*
X41860993Y21200500D01*
X41875500Y21273429D01*
X41875500Y21401572D01*
X41850502Y21527239D01*
X41850501Y21527240D01*
X41850501Y21527244D01*
X41812574Y21618808D01*
X41801466Y21645625D01*
X41801461Y21645634D01*
X41730276Y21752169D01*
X41730273Y21752173D01*
X41639672Y21842774D01*
X41639668Y21842777D01*
X41533133Y21913962D01*
X41533124Y21913967D01*
X41414744Y21963001D01*
X41414738Y21963003D01*
X41289071Y21988000D01*
X41289069Y21988000D01*
X41160931Y21988000D01*
X41160929Y21988000D01*
X41035261Y21963003D01*
X41035255Y21963001D01*
X40916875Y21913967D01*
X40916866Y21913962D01*
X40810331Y21842777D01*
X40810327Y21842774D01*
X40719726Y21752173D01*
X40719723Y21752169D01*
X40648538Y21645634D01*
X40648533Y21645625D01*
X40599499Y21527245D01*
X40599497Y21527239D01*
X40574500Y21401572D01*
X40574500Y21401569D01*
X40574500Y21273431D01*
X40574500Y21273429D01*
X40574499Y21273429D01*
X37350244Y21273429D01*
X37312984Y21412485D01*
X37312982Y21412489D01*
X37312982Y21412490D01*
X37240511Y21538012D01*
X37240506Y21538018D01*
X37138017Y21640507D01*
X37138011Y21640512D01*
X37012488Y21712983D01*
X37012489Y21712983D01*
X37001006Y21716060D01*
X36872475Y21750500D01*
X36727525Y21750500D01*
X36598993Y21716060D01*
X36587511Y21712983D01*
X36461988Y21640512D01*
X36461982Y21640507D01*
X36359493Y21538018D01*
X36359488Y21538012D01*
X36287017Y21412489D01*
X36287016Y21412485D01*
X36249500Y21272475D01*
X31770484Y21272475D01*
X31729539Y21283446D01*
X31665892Y21300500D01*
X31534108Y21300500D01*
X31406812Y21266392D01*
X31292686Y21200500D01*
X31292683Y21200498D01*
X31199502Y21107317D01*
X31199500Y21107314D01*
X31133608Y20993188D01*
X31114756Y20922828D01*
X31099500Y20865892D01*
X27000000Y20865892D01*
X27000000Y22522114D01*
X27019685Y22589153D01*
X27072489Y22634908D01*
X27141647Y22644852D01*
X27205203Y22615827D01*
X27211681Y22609795D01*
X27261985Y22559491D01*
X27261986Y22559490D01*
X27261988Y22559489D01*
X27387511Y22487018D01*
X27387512Y22487018D01*
X27387515Y22487016D01*
X27527525Y22449500D01*
X27527528Y22449500D01*
X27672472Y22449500D01*
X27672475Y22449500D01*
X27812485Y22487016D01*
X27938015Y22559491D01*
X28040509Y22661985D01*
X28112984Y22787515D01*
X28150500Y22927525D01*
X28150500Y22935929D01*
X40574499Y22935929D01*
X40599497Y22810262D01*
X40599499Y22810256D01*
X40648533Y22691876D01*
X40648538Y22691867D01*
X40719723Y22585332D01*
X40719726Y22585328D01*
X40810327Y22494727D01*
X40810331Y22494724D01*
X40916866Y22423539D01*
X40916872Y22423536D01*
X40916873Y22423535D01*
X41035256Y22374499D01*
X41035260Y22374499D01*
X41035261Y22374498D01*
X41160928Y22349500D01*
X41160931Y22349500D01*
X41289071Y22349500D01*
X41373615Y22366318D01*
X41414744Y22374499D01*
X41533127Y22423535D01*
X41639669Y22494724D01*
X41730276Y22585331D01*
X41801465Y22691873D01*
X41850501Y22810256D01*
X41873828Y22927525D01*
X41875500Y22935929D01*
X41875500Y23064072D01*
X41850502Y23189739D01*
X41850501Y23189740D01*
X41850501Y23189744D01*
X41801465Y23308127D01*
X41801464Y23308128D01*
X41801461Y23308134D01*
X41730276Y23414669D01*
X41730273Y23414673D01*
X41639672Y23505274D01*
X41639668Y23505277D01*
X41533133Y23576462D01*
X41533124Y23576467D01*
X41414744Y23625501D01*
X41414738Y23625503D01*
X41289071Y23650500D01*
X41289069Y23650500D01*
X41160931Y23650500D01*
X41160929Y23650500D01*
X41035261Y23625503D01*
X41035255Y23625501D01*
X40916875Y23576467D01*
X40916866Y23576462D01*
X40810331Y23505277D01*
X40810327Y23505274D01*
X40719726Y23414673D01*
X40719723Y23414669D01*
X40648538Y23308134D01*
X40648533Y23308125D01*
X40599499Y23189745D01*
X40599497Y23189739D01*
X40574500Y23064072D01*
X40574500Y23064069D01*
X40574500Y22935931D01*
X40574500Y22935929D01*
X40574499Y22935929D01*
X28150500Y22935929D01*
X28150500Y23072475D01*
X28112984Y23212485D01*
X28054334Y23314069D01*
X28040511Y23338012D01*
X28040506Y23338018D01*
X27938017Y23440507D01*
X27938011Y23440512D01*
X27812488Y23512983D01*
X27812489Y23512983D01*
X27801006Y23516060D01*
X27672475Y23550500D01*
X27527525Y23550500D01*
X27398993Y23516060D01*
X27387511Y23512983D01*
X27261988Y23440512D01*
X27261982Y23440507D01*
X27211681Y23390205D01*
X27150358Y23356720D01*
X27080666Y23361704D01*
X27024733Y23403576D01*
X27000316Y23469040D01*
X27000000Y23477886D01*
X27000000Y24008217D01*
X27019685Y24075256D01*
X27061998Y24115603D01*
X27138015Y24159491D01*
X27240509Y24261985D01*
X27312984Y24387515D01*
X27350500Y24527525D01*
X27350500Y24598429D01*
X40574499Y24598429D01*
X40599497Y24472762D01*
X40599499Y24472756D01*
X40648533Y24354376D01*
X40648538Y24354367D01*
X40719723Y24247832D01*
X40719726Y24247828D01*
X40810327Y24157227D01*
X40810331Y24157224D01*
X40916866Y24086039D01*
X40916872Y24086036D01*
X40916873Y24086035D01*
X41035256Y24036999D01*
X41035260Y24036999D01*
X41035261Y24036998D01*
X41160928Y24012000D01*
X41160931Y24012000D01*
X41289071Y24012000D01*
X41391880Y24032451D01*
X41414744Y24036999D01*
X41533127Y24086035D01*
X41639669Y24157224D01*
X41730276Y24247831D01*
X41801465Y24354373D01*
X41850501Y24472756D01*
X41875500Y24598431D01*
X41875500Y24726569D01*
X41875500Y24726572D01*
X41850502Y24852239D01*
X41850501Y24852240D01*
X41850501Y24852244D01*
X41801465Y24970627D01*
X41801464Y24970628D01*
X41801461Y24970634D01*
X41730276Y25077169D01*
X41730273Y25077173D01*
X41639672Y25167774D01*
X41639668Y25167777D01*
X41533133Y25238962D01*
X41533124Y25238967D01*
X41414744Y25288001D01*
X41414738Y25288003D01*
X41289071Y25313000D01*
X41289069Y25313000D01*
X41160931Y25313000D01*
X41160929Y25313000D01*
X41035261Y25288003D01*
X41035255Y25288001D01*
X40916875Y25238967D01*
X40916866Y25238962D01*
X40810331Y25167777D01*
X40810327Y25167774D01*
X40719726Y25077173D01*
X40719723Y25077169D01*
X40648538Y24970634D01*
X40648533Y24970625D01*
X40599499Y24852245D01*
X40599497Y24852239D01*
X40574500Y24726572D01*
X40574500Y24726569D01*
X40574500Y24598431D01*
X40574500Y24598429D01*
X40574499Y24598429D01*
X27350500Y24598429D01*
X27350500Y24672475D01*
X27312984Y24812485D01*
X27290028Y24852245D01*
X27240511Y24938012D01*
X27240506Y24938018D01*
X27138017Y25040507D01*
X27138011Y25040512D01*
X27012488Y25112983D01*
X27012489Y25112983D01*
X27001006Y25116060D01*
X26872475Y25150500D01*
X26727525Y25150500D01*
X26598993Y25116060D01*
X26587511Y25112983D01*
X26461988Y25040512D01*
X26461982Y25040507D01*
X26359493Y24938018D01*
X26359488Y24938012D01*
X26287017Y24812489D01*
X26287016Y24812485D01*
X26249500Y24672475D01*
X26249500Y24527525D01*
X26287016Y24387515D01*
X26287017Y24387512D01*
X26359488Y24261989D01*
X26359493Y24261983D01*
X26409435Y24212041D01*
X26442920Y24150718D01*
X26437936Y24081026D01*
X26396064Y24025093D01*
X26330600Y24000676D01*
X26321688Y24000360D01*
X2974434Y24012731D01*
X2907405Y24032451D01*
X2861678Y24085279D01*
X2850500Y24136731D01*
X2850500Y24489751D01*
X2850499Y24489753D01*
X2838868Y24548230D01*
X2838867Y24548231D01*
X2794552Y24614553D01*
X2728230Y24658868D01*
X2728229Y24658869D01*
X2669752Y24670500D01*
X2669748Y24670500D01*
X930252Y24670500D01*
X930247Y24670500D01*
X871770Y24658869D01*
X871769Y24658868D01*
X805447Y24614553D01*
X761132Y24548231D01*
X761131Y24548230D01*
X749500Y24489753D01*
X749500Y24137975D01*
X729815Y24070936D01*
X677011Y24025181D01*
X625434Y24013975D01*
X424434Y24014082D01*
X357405Y24033802D01*
X311678Y24086631D01*
X300500Y24138082D01*
X300500Y26435929D01*
X29349499Y26435929D01*
X29374497Y26310262D01*
X29374499Y26310256D01*
X29423533Y26191876D01*
X29423538Y26191867D01*
X29494723Y26085332D01*
X29494726Y26085328D01*
X29585327Y25994727D01*
X29585331Y25994724D01*
X29691866Y25923539D01*
X29691872Y25923536D01*
X29691873Y25923535D01*
X29810256Y25874499D01*
X29810260Y25874499D01*
X29810261Y25874498D01*
X29935928Y25849500D01*
X29935931Y25849500D01*
X30064071Y25849500D01*
X30148615Y25866318D01*
X30189744Y25874499D01*
X30308127Y25923535D01*
X30414669Y25994724D01*
X30505276Y26085331D01*
X30576465Y26191873D01*
X30605069Y26260929D01*
X40574499Y26260929D01*
X40599497Y26135262D01*
X40599499Y26135256D01*
X40648533Y26016876D01*
X40648538Y26016867D01*
X40719723Y25910332D01*
X40719726Y25910328D01*
X40810327Y25819727D01*
X40810331Y25819724D01*
X40916866Y25748539D01*
X40916872Y25748536D01*
X40916873Y25748535D01*
X41035256Y25699499D01*
X41035260Y25699499D01*
X41035261Y25699498D01*
X41160928Y25674500D01*
X41160931Y25674500D01*
X41289071Y25674500D01*
X41373615Y25691318D01*
X41414744Y25699499D01*
X41533127Y25748535D01*
X41639669Y25819724D01*
X41730276Y25910331D01*
X41801465Y26016873D01*
X41850501Y26135256D01*
X41875500Y26260931D01*
X41875500Y26335929D01*
X42549499Y26335929D01*
X42574497Y26210262D01*
X42574499Y26210256D01*
X42623533Y26091876D01*
X42623538Y26091867D01*
X42694723Y25985332D01*
X42694726Y25985328D01*
X42785327Y25894727D01*
X42785331Y25894724D01*
X42891866Y25823539D01*
X42891875Y25823534D01*
X42918692Y25812426D01*
X43010256Y25774499D01*
X43010260Y25774499D01*
X43010261Y25774498D01*
X43135928Y25749500D01*
X43135931Y25749500D01*
X43264071Y25749500D01*
X43348615Y25766318D01*
X43389744Y25774499D01*
X43508127Y25823535D01*
X43614669Y25894724D01*
X43705276Y25985331D01*
X43776465Y26091873D01*
X43825501Y26210256D01*
X43850500Y26335931D01*
X43850500Y26464069D01*
X43850500Y26464072D01*
X43836206Y26535929D01*
X44349499Y26535929D01*
X44374497Y26410262D01*
X44374499Y26410256D01*
X44423533Y26291876D01*
X44423538Y26291867D01*
X44494723Y26185332D01*
X44494726Y26185328D01*
X44585327Y26094727D01*
X44585331Y26094724D01*
X44691866Y26023539D01*
X44691872Y26023536D01*
X44691873Y26023535D01*
X44810256Y25974499D01*
X44810260Y25974499D01*
X44810261Y25974498D01*
X44935928Y25949500D01*
X44935931Y25949500D01*
X45064071Y25949500D01*
X45148615Y25966318D01*
X45189744Y25974499D01*
X45308127Y26023535D01*
X45414669Y26094724D01*
X45505276Y26185331D01*
X45576465Y26291873D01*
X45625501Y26410256D01*
X45650500Y26535931D01*
X45650500Y26664069D01*
X45650500Y26664072D01*
X45625502Y26789739D01*
X45625501Y26789740D01*
X45625501Y26789744D01*
X45579226Y26901462D01*
X45576466Y26908125D01*
X45576461Y26908134D01*
X45505276Y27014669D01*
X45505273Y27014673D01*
X45414672Y27105274D01*
X45414668Y27105277D01*
X45368794Y27135929D01*
X48149499Y27135929D01*
X48174497Y27010262D01*
X48174499Y27010256D01*
X48223533Y26891876D01*
X48223538Y26891867D01*
X48294723Y26785332D01*
X48294726Y26785328D01*
X48385327Y26694727D01*
X48385331Y26694724D01*
X48491866Y26623539D01*
X48491872Y26623536D01*
X48491873Y26623535D01*
X48610256Y26574499D01*
X48610260Y26574499D01*
X48610261Y26574498D01*
X48735928Y26549500D01*
X48735931Y26549500D01*
X48864071Y26549500D01*
X48948615Y26566318D01*
X48989744Y26574499D01*
X49108127Y26623535D01*
X49214669Y26694724D01*
X49305276Y26785331D01*
X49376465Y26891873D01*
X49425501Y27010256D01*
X49444402Y27105276D01*
X49450500Y27135929D01*
X49450500Y27264072D01*
X49425502Y27389739D01*
X49425501Y27389740D01*
X49425501Y27389744D01*
X49376465Y27508127D01*
X49376464Y27508128D01*
X49376461Y27508134D01*
X49305276Y27614669D01*
X49305273Y27614673D01*
X49214672Y27705274D01*
X49214668Y27705277D01*
X49108133Y27776462D01*
X49108124Y27776467D01*
X48989744Y27825501D01*
X48989738Y27825503D01*
X48864071Y27850500D01*
X48864069Y27850500D01*
X48735931Y27850500D01*
X48735929Y27850500D01*
X48610261Y27825503D01*
X48610255Y27825501D01*
X48491875Y27776467D01*
X48491866Y27776462D01*
X48385331Y27705277D01*
X48385327Y27705274D01*
X48294726Y27614673D01*
X48294723Y27614669D01*
X48223538Y27508134D01*
X48223533Y27508125D01*
X48174499Y27389745D01*
X48174497Y27389739D01*
X48149500Y27264072D01*
X48149500Y27264069D01*
X48149500Y27135931D01*
X48149500Y27135929D01*
X48149499Y27135929D01*
X45368794Y27135929D01*
X45322205Y27167059D01*
X45308133Y27176462D01*
X45308124Y27176467D01*
X45189744Y27225501D01*
X45189738Y27225503D01*
X45064071Y27250500D01*
X45064069Y27250500D01*
X44935931Y27250500D01*
X44935929Y27250500D01*
X44810261Y27225503D01*
X44810255Y27225501D01*
X44691875Y27176467D01*
X44691866Y27176462D01*
X44585331Y27105277D01*
X44585327Y27105274D01*
X44494726Y27014673D01*
X44494723Y27014669D01*
X44423538Y26908134D01*
X44423533Y26908125D01*
X44374499Y26789745D01*
X44374497Y26789739D01*
X44349500Y26664072D01*
X44349500Y26664069D01*
X44349500Y26535931D01*
X44349500Y26535929D01*
X44349499Y26535929D01*
X43836206Y26535929D01*
X43825502Y26589739D01*
X43825501Y26589740D01*
X43825501Y26589744D01*
X43825499Y26589749D01*
X43811847Y26622709D01*
X43784082Y26689739D01*
X43776465Y26708127D01*
X43776463Y26708130D01*
X43776461Y26708134D01*
X43705276Y26814669D01*
X43705273Y26814673D01*
X43614672Y26905274D01*
X43614668Y26905277D01*
X43508133Y26976462D01*
X43508124Y26976467D01*
X43389744Y27025501D01*
X43389738Y27025503D01*
X43264071Y27050500D01*
X43264069Y27050500D01*
X43135931Y27050500D01*
X43135929Y27050500D01*
X43010261Y27025503D01*
X43010255Y27025501D01*
X42891875Y26976467D01*
X42891866Y26976462D01*
X42785331Y26905277D01*
X42785327Y26905274D01*
X42694726Y26814673D01*
X42694723Y26814669D01*
X42623538Y26708134D01*
X42623533Y26708125D01*
X42574499Y26589745D01*
X42574497Y26589739D01*
X42549500Y26464072D01*
X42549500Y26464069D01*
X42549500Y26335931D01*
X42549500Y26335929D01*
X42549499Y26335929D01*
X41875500Y26335929D01*
X41875500Y26389069D01*
X41875500Y26389072D01*
X41864182Y26445969D01*
X41850502Y26514739D01*
X41850501Y26514740D01*
X41850501Y26514744D01*
X41805438Y26623535D01*
X41801466Y26633125D01*
X41801461Y26633134D01*
X41730276Y26739669D01*
X41730273Y26739673D01*
X41639672Y26830274D01*
X41639668Y26830277D01*
X41533133Y26901462D01*
X41533124Y26901467D01*
X41414744Y26950501D01*
X41414738Y26950503D01*
X41289071Y26975500D01*
X41289069Y26975500D01*
X41160931Y26975500D01*
X41160929Y26975500D01*
X41035261Y26950503D01*
X41035255Y26950501D01*
X40916875Y26901467D01*
X40916866Y26901462D01*
X40810331Y26830277D01*
X40810327Y26830274D01*
X40719726Y26739673D01*
X40719723Y26739669D01*
X40648538Y26633134D01*
X40648533Y26633125D01*
X40599499Y26514745D01*
X40599497Y26514739D01*
X40574500Y26389072D01*
X40574500Y26389069D01*
X40574500Y26260931D01*
X40574500Y26260929D01*
X40574499Y26260929D01*
X30605069Y26260929D01*
X30625501Y26310256D01*
X30630608Y26335931D01*
X30647203Y26419353D01*
X30647203Y26419354D01*
X30650499Y26435927D01*
X30650500Y26435929D01*
X30650500Y26564072D01*
X30625502Y26689739D01*
X30625501Y26689740D01*
X30625501Y26689744D01*
X30576465Y26808127D01*
X30576464Y26808128D01*
X30576461Y26808134D01*
X30505276Y26914669D01*
X30505273Y26914673D01*
X30414672Y27005274D01*
X30414668Y27005277D01*
X30308133Y27076462D01*
X30308124Y27076467D01*
X30189744Y27125501D01*
X30189738Y27125503D01*
X30064071Y27150500D01*
X30064069Y27150500D01*
X29935931Y27150500D01*
X29935929Y27150500D01*
X29810261Y27125503D01*
X29810255Y27125501D01*
X29691875Y27076467D01*
X29691866Y27076462D01*
X29585331Y27005277D01*
X29585327Y27005274D01*
X29494726Y26914673D01*
X29494723Y26914669D01*
X29423538Y26808134D01*
X29423533Y26808125D01*
X29374499Y26689745D01*
X29374497Y26689739D01*
X29349500Y26564072D01*
X29349500Y26564069D01*
X29349500Y26435931D01*
X29349500Y26435929D01*
X29349499Y26435929D01*
X300500Y26435929D01*
X300500Y28803470D01*
X749500Y28803470D01*
X749500Y28596531D01*
X789868Y28393588D01*
X789870Y28393580D01*
X869058Y28202404D01*
X984024Y28030343D01*
X1130342Y27884025D01*
X1130345Y27884023D01*
X1302402Y27769059D01*
X1493580Y27689870D01*
X1696530Y27649501D01*
X1696534Y27649500D01*
X1696535Y27649500D01*
X1903466Y27649500D01*
X1903467Y27649501D01*
X2106420Y27689870D01*
X2217616Y27735929D01*
X22949499Y27735929D01*
X22974497Y27610262D01*
X22974499Y27610256D01*
X23023533Y27491876D01*
X23023538Y27491867D01*
X23094723Y27385332D01*
X23094726Y27385328D01*
X23185327Y27294727D01*
X23185331Y27294724D01*
X23291866Y27223539D01*
X23291872Y27223536D01*
X23291873Y27223535D01*
X23410256Y27174499D01*
X23410260Y27174499D01*
X23410261Y27174498D01*
X23535928Y27149500D01*
X23535931Y27149500D01*
X23664071Y27149500D01*
X23752342Y27167059D01*
X23789744Y27174499D01*
X23908127Y27223535D01*
X24014669Y27294724D01*
X24105276Y27385331D01*
X24176465Y27491873D01*
X24225501Y27610256D01*
X24233682Y27651385D01*
X24250500Y27735929D01*
X24250500Y27864072D01*
X24225502Y27989739D01*
X24225501Y27989740D01*
X24225501Y27989744D01*
X24176465Y28108127D01*
X24176464Y28108128D01*
X24176461Y28108134D01*
X24105276Y28214669D01*
X24105273Y28214673D01*
X24014672Y28305274D01*
X24014668Y28305277D01*
X23908133Y28376462D01*
X23908124Y28376467D01*
X23789744Y28425501D01*
X23789738Y28425503D01*
X23664071Y28450500D01*
X23664069Y28450500D01*
X23535931Y28450500D01*
X23535929Y28450500D01*
X23410261Y28425503D01*
X23410255Y28425501D01*
X23291875Y28376467D01*
X23291866Y28376462D01*
X23185331Y28305277D01*
X23185327Y28305274D01*
X23094726Y28214673D01*
X23094723Y28214669D01*
X23023538Y28108134D01*
X23023533Y28108125D01*
X22974499Y27989745D01*
X22974497Y27989739D01*
X22949500Y27864072D01*
X22949500Y27864069D01*
X22949500Y27735931D01*
X22949500Y27735929D01*
X22949499Y27735929D01*
X2217616Y27735929D01*
X2297598Y27769059D01*
X2469655Y27884023D01*
X2469658Y27884026D01*
X2543475Y27957842D01*
X2615974Y28030342D01*
X2615975Y28030343D01*
X2615977Y28030345D01*
X2730941Y28202402D01*
X2810130Y28393580D01*
X2850500Y28596535D01*
X2850500Y28803465D01*
X2830449Y28904270D01*
X51974500Y28904270D01*
X51974500Y28095731D01*
X51977353Y28065301D01*
X51977353Y28065299D01*
X52014955Y27957842D01*
X52022207Y27937118D01*
X52102850Y27827850D01*
X52212118Y27747207D01*
X52244343Y27735931D01*
X52340299Y27702354D01*
X52370730Y27699500D01*
X52370734Y27699500D01*
X53729270Y27699500D01*
X53759699Y27702354D01*
X53759701Y27702354D01*
X53823790Y27724781D01*
X53887882Y27747207D01*
X53997150Y27827850D01*
X54077793Y27937118D01*
X54100219Y28001210D01*
X54122646Y28065299D01*
X54122646Y28065301D01*
X54125500Y28095731D01*
X54125500Y28904270D01*
X54122646Y28934700D01*
X54122646Y28934702D01*
X54077793Y29062881D01*
X54077792Y29062883D01*
X53997150Y29172150D01*
X53887882Y29252793D01*
X53887880Y29252794D01*
X53759700Y29297647D01*
X53729270Y29300500D01*
X53729266Y29300500D01*
X52370734Y29300500D01*
X52370730Y29300500D01*
X52340300Y29297647D01*
X52340298Y29297647D01*
X52212119Y29252794D01*
X52212117Y29252793D01*
X52102850Y29172150D01*
X52022207Y29062883D01*
X52022206Y29062881D01*
X51977353Y28934702D01*
X51977353Y28934700D01*
X51974500Y28904270D01*
X2830449Y28904270D01*
X2810130Y29006420D01*
X2730941Y29197598D01*
X2615977Y29369655D01*
X2615975Y29369658D01*
X2469657Y29515976D01*
X2383626Y29573459D01*
X2297598Y29630941D01*
X2106420Y29710130D01*
X2106412Y29710132D01*
X1903469Y29750500D01*
X1903465Y29750500D01*
X1696535Y29750500D01*
X1696530Y29750500D01*
X1493587Y29710132D01*
X1493579Y29710130D01*
X1302403Y29630942D01*
X1130342Y29515976D01*
X984024Y29369658D01*
X869058Y29197597D01*
X789870Y29006421D01*
X789868Y29006413D01*
X749500Y28803470D01*
X300500Y28803470D01*
X300500Y30578847D01*
X51974500Y30578847D01*
X51974500Y30421154D01*
X52005261Y30266511D01*
X52005264Y30266499D01*
X52065602Y30120828D01*
X52065609Y30120815D01*
X52153210Y29989712D01*
X52153213Y29989708D01*
X52264707Y29878214D01*
X52264711Y29878211D01*
X52395814Y29790610D01*
X52395827Y29790603D01*
X52492646Y29750500D01*
X52541503Y29730263D01*
X52642708Y29710132D01*
X52696153Y29699501D01*
X52696156Y29699500D01*
X52696158Y29699500D01*
X53403844Y29699500D01*
X53403845Y29699501D01*
X53558497Y29730263D01*
X53704179Y29790606D01*
X53835289Y29878211D01*
X53946789Y29989711D01*
X54034394Y30120821D01*
X54094737Y30266503D01*
X54125500Y30421158D01*
X54125500Y30578842D01*
X54125500Y30578845D01*
X54125499Y30578847D01*
X54094738Y30733490D01*
X54094737Y30733497D01*
X54094735Y30733502D01*
X54034397Y30879173D01*
X54034390Y30879186D01*
X53946789Y31010289D01*
X53946786Y31010293D01*
X53835292Y31121787D01*
X53835288Y31121790D01*
X53704185Y31209391D01*
X53704172Y31209398D01*
X53558501Y31269736D01*
X53558489Y31269739D01*
X53403845Y31300500D01*
X53403842Y31300500D01*
X52696158Y31300500D01*
X52696155Y31300500D01*
X52541510Y31269739D01*
X52541498Y31269736D01*
X52395827Y31209398D01*
X52395814Y31209391D01*
X52264711Y31121790D01*
X52264707Y31121787D01*
X52153213Y31010293D01*
X52153210Y31010289D01*
X52065609Y30879186D01*
X52065602Y30879173D01*
X52005264Y30733502D01*
X52005261Y30733490D01*
X51974500Y30578847D01*
X300500Y30578847D01*
X300500Y33489753D01*
X749500Y33489753D01*
X749500Y31750248D01*
X761131Y31691771D01*
X761132Y31691770D01*
X805447Y31625448D01*
X871769Y31581133D01*
X871770Y31581132D01*
X930247Y31569501D01*
X930250Y31569500D01*
X930252Y31569500D01*
X2669750Y31569500D01*
X2669751Y31569501D01*
X2684568Y31572448D01*
X2728229Y31581132D01*
X2728229Y31581133D01*
X2728231Y31581133D01*
X2794552Y31625448D01*
X2834965Y31685929D01*
X5849499Y31685929D01*
X5874497Y31560262D01*
X5874499Y31560256D01*
X5923533Y31441876D01*
X5923538Y31441867D01*
X5994723Y31335332D01*
X5994726Y31335328D01*
X6085327Y31244727D01*
X6085331Y31244724D01*
X6191866Y31173539D01*
X6191872Y31173536D01*
X6191873Y31173535D01*
X6310256Y31124499D01*
X6310260Y31124499D01*
X6310261Y31124498D01*
X6435928Y31099500D01*
X6435931Y31099500D01*
X6564071Y31099500D01*
X6676125Y31121790D01*
X6689744Y31124499D01*
X6808127Y31173535D01*
X6914669Y31244724D01*
X7005276Y31335331D01*
X7076465Y31441873D01*
X7125501Y31560256D01*
X7150500Y31685931D01*
X7150500Y31814069D01*
X7150500Y31814072D01*
X7125502Y31939739D01*
X7125501Y31939740D01*
X7125501Y31939744D01*
X7076465Y32058127D01*
X7076464Y32058128D01*
X7076461Y32058134D01*
X7005276Y32164669D01*
X7005273Y32164673D01*
X6914672Y32255274D01*
X6914668Y32255277D01*
X6836134Y32307752D01*
X6808133Y32326462D01*
X6808124Y32326467D01*
X6689744Y32375501D01*
X6689738Y32375503D01*
X6564071Y32400500D01*
X6564069Y32400500D01*
X6435931Y32400500D01*
X6435929Y32400500D01*
X6310261Y32375503D01*
X6310255Y32375501D01*
X6191875Y32326467D01*
X6191866Y32326462D01*
X6085331Y32255277D01*
X6085327Y32255274D01*
X5994726Y32164673D01*
X5994723Y32164669D01*
X5923538Y32058134D01*
X5923533Y32058125D01*
X5874499Y31939745D01*
X5874497Y31939739D01*
X5849500Y31814072D01*
X5849500Y31814069D01*
X5849500Y31685931D01*
X5849500Y31685929D01*
X5849499Y31685929D01*
X2834965Y31685929D01*
X2838867Y31691769D01*
X2838867Y31691771D01*
X2838868Y31691771D01*
X2850499Y31750248D01*
X2850500Y31750250D01*
X2850500Y32402727D01*
X46199500Y32402727D01*
X46199500Y32297273D01*
X46226793Y32195413D01*
X46279520Y32104087D01*
X46354087Y32029520D01*
X46445413Y31976793D01*
X46547273Y31949500D01*
X46547275Y31949500D01*
X46652725Y31949500D01*
X46652727Y31949500D01*
X46754587Y31976793D01*
X46845913Y32029520D01*
X46920480Y32104087D01*
X46973207Y32195413D01*
X47000500Y32297273D01*
X47000500Y32402727D01*
X46973207Y32504587D01*
X46930333Y32578847D01*
X51974500Y32578847D01*
X51974500Y32421154D01*
X52005261Y32266511D01*
X52005264Y32266499D01*
X52065602Y32120828D01*
X52065609Y32120815D01*
X52153210Y31989712D01*
X52153213Y31989708D01*
X52264707Y31878214D01*
X52264711Y31878211D01*
X52395814Y31790610D01*
X52395827Y31790603D01*
X52541498Y31730265D01*
X52541503Y31730263D01*
X52696153Y31699501D01*
X52696156Y31699500D01*
X52696158Y31699500D01*
X53403844Y31699500D01*
X53403845Y31699501D01*
X53558497Y31730263D01*
X53704179Y31790606D01*
X53835289Y31878211D01*
X53946789Y31989711D01*
X54034394Y32120821D01*
X54094737Y32266503D01*
X54125500Y32421158D01*
X54125500Y32578842D01*
X54125500Y32578845D01*
X54125499Y32578847D01*
X54096784Y32723206D01*
X54094737Y32733497D01*
X54087694Y32750500D01*
X54034397Y32879173D01*
X54034390Y32879186D01*
X53946789Y33010289D01*
X53946786Y33010293D01*
X53835292Y33121787D01*
X53835288Y33121790D01*
X53704185Y33209391D01*
X53704172Y33209398D01*
X53558501Y33269736D01*
X53558489Y33269739D01*
X53403845Y33300500D01*
X53403842Y33300500D01*
X52696158Y33300500D01*
X52696155Y33300500D01*
X52541510Y33269739D01*
X52541498Y33269736D01*
X52395827Y33209398D01*
X52395814Y33209391D01*
X52264711Y33121790D01*
X52264707Y33121787D01*
X52153213Y33010293D01*
X52153210Y33010289D01*
X52065609Y32879186D01*
X52065602Y32879173D01*
X52005264Y32733502D01*
X52005261Y32733490D01*
X51974500Y32578847D01*
X46930333Y32578847D01*
X46920480Y32595913D01*
X46845913Y32670480D01*
X46754587Y32723207D01*
X46652727Y32750500D01*
X46547273Y32750500D01*
X46445413Y32723207D01*
X46445410Y32723206D01*
X46354085Y32670479D01*
X46279521Y32595915D01*
X46226794Y32504590D01*
X46226793Y32504587D01*
X46199500Y32402727D01*
X2850500Y32402727D01*
X2850500Y33489745D01*
X2850500Y33489748D01*
X2847918Y33502727D01*
X46199500Y33502727D01*
X46199500Y33397273D01*
X46226793Y33295413D01*
X46279520Y33204087D01*
X46354087Y33129520D01*
X46445413Y33076793D01*
X46547273Y33049500D01*
X46547275Y33049500D01*
X46652725Y33049500D01*
X46652727Y33049500D01*
X46754587Y33076793D01*
X46845913Y33129520D01*
X46920480Y33204087D01*
X46973207Y33295413D01*
X47000500Y33397273D01*
X47000500Y33502727D01*
X46973207Y33604587D01*
X46920480Y33695913D01*
X46845913Y33770480D01*
X46754587Y33823207D01*
X46652727Y33850500D01*
X46547273Y33850500D01*
X46445413Y33823207D01*
X46445410Y33823206D01*
X46354085Y33770479D01*
X46279521Y33695915D01*
X46226794Y33604590D01*
X46226793Y33604587D01*
X46199500Y33502727D01*
X2847918Y33502727D01*
X2838867Y33548231D01*
X2801209Y33604590D01*
X2794552Y33614553D01*
X2728230Y33658868D01*
X2728229Y33658869D01*
X2669752Y33670500D01*
X2669748Y33670500D01*
X930252Y33670500D01*
X930247Y33670500D01*
X871770Y33658869D01*
X871769Y33658868D01*
X805447Y33614553D01*
X761132Y33548231D01*
X761131Y33548230D01*
X749500Y33489753D01*
X300500Y33489753D01*
X300500Y34735929D01*
X19749499Y34735929D01*
X19774497Y34610262D01*
X19774499Y34610256D01*
X19823533Y34491876D01*
X19823538Y34491867D01*
X19894723Y34385332D01*
X19894726Y34385328D01*
X19985327Y34294727D01*
X19985331Y34294724D01*
X20091866Y34223539D01*
X20091872Y34223536D01*
X20091873Y34223535D01*
X20210256Y34174499D01*
X20210260Y34174499D01*
X20210261Y34174498D01*
X20335928Y34149500D01*
X20335931Y34149500D01*
X20464071Y34149500D01*
X20548615Y34166318D01*
X20589744Y34174499D01*
X20708127Y34223535D01*
X20814669Y34294724D01*
X20905276Y34385331D01*
X20976465Y34491873D01*
X21025501Y34610256D01*
X21042304Y34694727D01*
X21050500Y34735929D01*
X21050500Y34864072D01*
X21025502Y34989739D01*
X21025501Y34989740D01*
X21025501Y34989744D01*
X20976465Y35108127D01*
X20976464Y35108128D01*
X20976461Y35108134D01*
X20957889Y35135929D01*
X41349499Y35135929D01*
X41374497Y35010262D01*
X41374499Y35010256D01*
X41423533Y34891876D01*
X41423538Y34891867D01*
X41494723Y34785332D01*
X41494726Y34785328D01*
X41585327Y34694727D01*
X41585331Y34694724D01*
X41691866Y34623539D01*
X41691872Y34623536D01*
X41691873Y34623535D01*
X41810256Y34574499D01*
X41810260Y34574499D01*
X41810261Y34574498D01*
X41935928Y34549500D01*
X41935931Y34549500D01*
X42064071Y34549500D01*
X42148615Y34566318D01*
X42189744Y34574499D01*
X42308127Y34623535D01*
X42414669Y34694724D01*
X42505276Y34785331D01*
X42576465Y34891873D01*
X42585439Y34913537D01*
X42629280Y34967941D01*
X42695574Y34990006D01*
X42763273Y34972727D01*
X42810884Y34921590D01*
X42814561Y34913537D01*
X42823531Y34891880D01*
X42823538Y34891867D01*
X42894723Y34785332D01*
X42894726Y34785328D01*
X42985327Y34694727D01*
X42985331Y34694724D01*
X43091866Y34623539D01*
X43091872Y34623536D01*
X43091873Y34623535D01*
X43210256Y34574499D01*
X43210260Y34574499D01*
X43210261Y34574498D01*
X43335928Y34549500D01*
X43335931Y34549500D01*
X43464071Y34549500D01*
X43548615Y34566318D01*
X43589744Y34574499D01*
X43600241Y34578847D01*
X51974500Y34578847D01*
X51974500Y34421154D01*
X52005261Y34266511D01*
X52005264Y34266499D01*
X52065602Y34120828D01*
X52065609Y34120815D01*
X52153210Y33989712D01*
X52153213Y33989708D01*
X52264707Y33878214D01*
X52264711Y33878211D01*
X52395814Y33790610D01*
X52395827Y33790603D01*
X52541498Y33730265D01*
X52541503Y33730263D01*
X52696153Y33699501D01*
X52696156Y33699500D01*
X52696158Y33699500D01*
X53403844Y33699500D01*
X53403845Y33699501D01*
X53558497Y33730263D01*
X53704179Y33790606D01*
X53835289Y33878211D01*
X53946789Y33989711D01*
X54034394Y34120821D01*
X54094737Y34266503D01*
X54125500Y34421158D01*
X54125500Y34578842D01*
X54125500Y34578845D01*
X54125499Y34578847D01*
X54103780Y34688036D01*
X54094737Y34733497D01*
X54073267Y34785331D01*
X54034397Y34879173D01*
X54034390Y34879186D01*
X53946789Y35010289D01*
X53946786Y35010293D01*
X53835292Y35121787D01*
X53835288Y35121790D01*
X53704185Y35209391D01*
X53704172Y35209398D01*
X53558501Y35269736D01*
X53558489Y35269739D01*
X53403845Y35300500D01*
X53403842Y35300500D01*
X52696158Y35300500D01*
X52696155Y35300500D01*
X52541510Y35269739D01*
X52541498Y35269736D01*
X52395827Y35209398D01*
X52395814Y35209391D01*
X52264711Y35121790D01*
X52264707Y35121787D01*
X52153213Y35010293D01*
X52153210Y35010289D01*
X52065609Y34879186D01*
X52065602Y34879173D01*
X52005264Y34733502D01*
X52005261Y34733490D01*
X51974500Y34578847D01*
X43600241Y34578847D01*
X43708127Y34623535D01*
X43814669Y34694724D01*
X43905276Y34785331D01*
X43976465Y34891873D01*
X44025501Y35010256D01*
X44044969Y35108125D01*
X44050500Y35135929D01*
X44050500Y35264072D01*
X44025502Y35389739D01*
X44025501Y35389740D01*
X44025501Y35389744D01*
X43976465Y35508127D01*
X43976464Y35508128D01*
X43976461Y35508134D01*
X43905276Y35614669D01*
X43905273Y35614673D01*
X43814672Y35705274D01*
X43814668Y35705277D01*
X43708133Y35776462D01*
X43708124Y35776467D01*
X43589744Y35825501D01*
X43589738Y35825503D01*
X43464071Y35850500D01*
X43464069Y35850500D01*
X43335931Y35850500D01*
X43335929Y35850500D01*
X43210261Y35825503D01*
X43210255Y35825501D01*
X43091875Y35776467D01*
X43091866Y35776462D01*
X42985331Y35705277D01*
X42985327Y35705274D01*
X42894726Y35614673D01*
X42894723Y35614669D01*
X42823538Y35508134D01*
X42823535Y35508127D01*
X42814561Y35486462D01*
X42770719Y35432059D01*
X42704425Y35409995D01*
X42636726Y35427275D01*
X42589116Y35478412D01*
X42585439Y35486462D01*
X42585138Y35487188D01*
X42576465Y35508127D01*
X42576462Y35508132D01*
X42576461Y35508134D01*
X42505276Y35614669D01*
X42505273Y35614673D01*
X42414672Y35705274D01*
X42414668Y35705277D01*
X42308133Y35776462D01*
X42308124Y35776467D01*
X42189744Y35825501D01*
X42189738Y35825503D01*
X42064071Y35850500D01*
X42064069Y35850500D01*
X41935931Y35850500D01*
X41935929Y35850500D01*
X41810261Y35825503D01*
X41810255Y35825501D01*
X41691875Y35776467D01*
X41691866Y35776462D01*
X41585331Y35705277D01*
X41585327Y35705274D01*
X41494726Y35614673D01*
X41494723Y35614669D01*
X41423538Y35508134D01*
X41423533Y35508125D01*
X41374499Y35389745D01*
X41374497Y35389739D01*
X41349500Y35264072D01*
X41349500Y35264069D01*
X41349500Y35135931D01*
X41349500Y35135929D01*
X41349499Y35135929D01*
X20957889Y35135929D01*
X20914229Y35201270D01*
X20914228Y35201271D01*
X20905274Y35214672D01*
X20814672Y35305274D01*
X20814668Y35305277D01*
X20708133Y35376462D01*
X20708124Y35376467D01*
X20589744Y35425501D01*
X20589738Y35425503D01*
X20464071Y35450500D01*
X20464069Y35450500D01*
X20335931Y35450500D01*
X20335929Y35450500D01*
X20210261Y35425503D01*
X20210255Y35425501D01*
X20091875Y35376467D01*
X20091866Y35376462D01*
X19985331Y35305277D01*
X19985327Y35305274D01*
X19894726Y35214673D01*
X19894723Y35214669D01*
X19823538Y35108134D01*
X19823533Y35108125D01*
X19774499Y34989745D01*
X19774497Y34989739D01*
X19749500Y34864072D01*
X19749500Y34864069D01*
X19749500Y34735931D01*
X19749500Y34735929D01*
X19749499Y34735929D01*
X300500Y34735929D01*
X300500Y36535929D01*
X19749499Y36535929D01*
X19774497Y36410262D01*
X19774499Y36410256D01*
X19823533Y36291876D01*
X19823538Y36291867D01*
X19894723Y36185332D01*
X19894726Y36185328D01*
X19985327Y36094727D01*
X19985331Y36094724D01*
X20091866Y36023539D01*
X20091872Y36023536D01*
X20091873Y36023535D01*
X20210256Y35974499D01*
X20210260Y35974499D01*
X20210261Y35974498D01*
X20335928Y35949500D01*
X20335931Y35949500D01*
X20464071Y35949500D01*
X20548615Y35966318D01*
X20589744Y35974499D01*
X20708127Y36023535D01*
X20814669Y36094724D01*
X20905276Y36185331D01*
X20976465Y36291873D01*
X21025501Y36410256D01*
X21050500Y36535931D01*
X21050500Y36664069D01*
X21050500Y36664072D01*
X21025502Y36789739D01*
X21025501Y36789740D01*
X21025501Y36789744D01*
X20976465Y36908127D01*
X20976464Y36908128D01*
X20976461Y36908134D01*
X20905276Y37014669D01*
X20905273Y37014673D01*
X20814672Y37105274D01*
X20814668Y37105277D01*
X20708133Y37176462D01*
X20708124Y37176467D01*
X20589744Y37225501D01*
X20589738Y37225503D01*
X20464071Y37250500D01*
X20464069Y37250500D01*
X20335931Y37250500D01*
X20335929Y37250500D01*
X20210261Y37225503D01*
X20210255Y37225501D01*
X20091875Y37176467D01*
X20091866Y37176462D01*
X19985331Y37105277D01*
X19985327Y37105274D01*
X19894726Y37014673D01*
X19894723Y37014669D01*
X19823538Y36908134D01*
X19823533Y36908125D01*
X19774499Y36789745D01*
X19774497Y36789739D01*
X19749500Y36664072D01*
X19749500Y36664069D01*
X19749500Y36535931D01*
X19749500Y36535929D01*
X19749499Y36535929D01*
X300500Y36535929D01*
X300500Y37803470D01*
X749500Y37803470D01*
X749500Y37596531D01*
X789868Y37393588D01*
X789870Y37393580D01*
X869059Y37202402D01*
X926541Y37116374D01*
X984024Y37030343D01*
X1130342Y36884025D01*
X1130345Y36884023D01*
X1302402Y36769059D01*
X1493580Y36689870D01*
X1696530Y36649501D01*
X1696534Y36649500D01*
X1696535Y36649500D01*
X1903466Y36649500D01*
X1903467Y36649501D01*
X2106420Y36689870D01*
X2297598Y36769059D01*
X2469655Y36884023D01*
X2615977Y37030345D01*
X2730941Y37202402D01*
X2810130Y37393580D01*
X2850500Y37596535D01*
X2850500Y37803465D01*
X2810130Y38006420D01*
X2730941Y38197598D01*
X2615977Y38369655D01*
X2615975Y38369658D01*
X2469657Y38515976D01*
X2383626Y38573459D01*
X2297598Y38630941D01*
X2106420Y38710130D01*
X2106412Y38710132D01*
X1976721Y38735929D01*
X45349499Y38735929D01*
X45374497Y38610262D01*
X45374499Y38610256D01*
X45423533Y38491876D01*
X45423538Y38491867D01*
X45494723Y38385332D01*
X45494726Y38385328D01*
X45585327Y38294727D01*
X45585331Y38294724D01*
X45691866Y38223539D01*
X45691872Y38223536D01*
X45691873Y38223535D01*
X45810256Y38174499D01*
X45810260Y38174499D01*
X45810261Y38174498D01*
X45935928Y38149500D01*
X45935931Y38149500D01*
X46064071Y38149500D01*
X46148615Y38166318D01*
X46189744Y38174499D01*
X46308127Y38223535D01*
X46414669Y38294724D01*
X46505276Y38385331D01*
X46576465Y38491873D01*
X46625501Y38610256D01*
X46650500Y38735929D01*
X46949499Y38735929D01*
X46974497Y38610262D01*
X46974499Y38610256D01*
X47023533Y38491876D01*
X47023538Y38491867D01*
X47094723Y38385332D01*
X47094726Y38385328D01*
X47185327Y38294727D01*
X47185331Y38294724D01*
X47291866Y38223539D01*
X47291872Y38223536D01*
X47291873Y38223535D01*
X47410256Y38174499D01*
X47410260Y38174499D01*
X47410261Y38174498D01*
X47535928Y38149500D01*
X47535931Y38149500D01*
X47664071Y38149500D01*
X47748615Y38166318D01*
X47789744Y38174499D01*
X47908127Y38223535D01*
X48014669Y38294724D01*
X48105276Y38385331D01*
X48176465Y38491873D01*
X48225501Y38610256D01*
X48250500Y38735929D01*
X48549499Y38735929D01*
X48574497Y38610262D01*
X48574499Y38610256D01*
X48623533Y38491876D01*
X48623538Y38491867D01*
X48694723Y38385332D01*
X48694726Y38385328D01*
X48785327Y38294727D01*
X48785331Y38294724D01*
X48891866Y38223539D01*
X48891872Y38223536D01*
X48891873Y38223535D01*
X49010256Y38174499D01*
X49010260Y38174499D01*
X49010261Y38174498D01*
X49135928Y38149500D01*
X49135931Y38149500D01*
X49264071Y38149500D01*
X49348615Y38166318D01*
X49389744Y38174499D01*
X49508127Y38223535D01*
X49614669Y38294724D01*
X49705276Y38385331D01*
X49776465Y38491873D01*
X49825501Y38610256D01*
X49850500Y38735931D01*
X49850500Y38864069D01*
X49850500Y38864072D01*
X49825502Y38989739D01*
X49825501Y38989740D01*
X49825501Y38989744D01*
X49787574Y39081308D01*
X49776466Y39108125D01*
X49776461Y39108134D01*
X49705276Y39214669D01*
X49705273Y39214673D01*
X49614672Y39305274D01*
X49614668Y39305277D01*
X49508133Y39376462D01*
X49508124Y39376467D01*
X49389744Y39425501D01*
X49389738Y39425503D01*
X49264071Y39450500D01*
X49264069Y39450500D01*
X49135931Y39450500D01*
X49135929Y39450500D01*
X49010261Y39425503D01*
X49010255Y39425501D01*
X48891875Y39376467D01*
X48891866Y39376462D01*
X48785331Y39305277D01*
X48785327Y39305274D01*
X48694726Y39214673D01*
X48694723Y39214669D01*
X48623538Y39108134D01*
X48623533Y39108125D01*
X48574499Y38989745D01*
X48574497Y38989739D01*
X48549500Y38864072D01*
X48549500Y38864069D01*
X48549500Y38735931D01*
X48549500Y38735929D01*
X48549499Y38735929D01*
X48250500Y38735929D01*
X48250500Y38735931D01*
X48250500Y38864069D01*
X48250500Y38864072D01*
X48225502Y38989739D01*
X48225501Y38989740D01*
X48225501Y38989744D01*
X48187574Y39081308D01*
X48176466Y39108125D01*
X48176461Y39108134D01*
X48105276Y39214669D01*
X48105273Y39214673D01*
X48014672Y39305274D01*
X48014668Y39305277D01*
X47908133Y39376462D01*
X47908124Y39376467D01*
X47789744Y39425501D01*
X47789738Y39425503D01*
X47664071Y39450500D01*
X47664069Y39450500D01*
X47535931Y39450500D01*
X47535929Y39450500D01*
X47410261Y39425503D01*
X47410255Y39425501D01*
X47291875Y39376467D01*
X47291866Y39376462D01*
X47185331Y39305277D01*
X47185327Y39305274D01*
X47094726Y39214673D01*
X47094723Y39214669D01*
X47023538Y39108134D01*
X47023533Y39108125D01*
X46974499Y38989745D01*
X46974497Y38989739D01*
X46949500Y38864072D01*
X46949500Y38864069D01*
X46949500Y38735931D01*
X46949500Y38735929D01*
X46949499Y38735929D01*
X46650500Y38735929D01*
X46650500Y38735931D01*
X46650500Y38864069D01*
X46650500Y38864072D01*
X46625502Y38989739D01*
X46625501Y38989740D01*
X46625501Y38989744D01*
X46587574Y39081308D01*
X46576466Y39108125D01*
X46576461Y39108134D01*
X46505276Y39214669D01*
X46505273Y39214673D01*
X46414672Y39305274D01*
X46414668Y39305277D01*
X46308133Y39376462D01*
X46308124Y39376467D01*
X46189744Y39425501D01*
X46189738Y39425503D01*
X46064071Y39450500D01*
X46064069Y39450500D01*
X45935931Y39450500D01*
X45935929Y39450500D01*
X45810261Y39425503D01*
X45810255Y39425501D01*
X45691875Y39376467D01*
X45691866Y39376462D01*
X45585331Y39305277D01*
X45585327Y39305274D01*
X45494726Y39214673D01*
X45494723Y39214669D01*
X45423538Y39108134D01*
X45423533Y39108125D01*
X45374499Y38989745D01*
X45374497Y38989739D01*
X45349500Y38864072D01*
X45349500Y38864069D01*
X45349500Y38735931D01*
X45349500Y38735929D01*
X45349499Y38735929D01*
X1976721Y38735929D01*
X1913301Y38748544D01*
X1903468Y38750500D01*
X1903465Y38750500D01*
X1696535Y38750500D01*
X1696530Y38750500D01*
X1493587Y38710132D01*
X1493579Y38710130D01*
X1302403Y38630942D01*
X1130342Y38515976D01*
X984024Y38369658D01*
X869058Y38197597D01*
X789870Y38006421D01*
X789868Y38006413D01*
X749500Y37803470D01*
X300500Y37803470D01*
X300500Y40135929D01*
X42549499Y40135929D01*
X42574497Y40010262D01*
X42574499Y40010256D01*
X42623533Y39891876D01*
X42623538Y39891867D01*
X42694723Y39785332D01*
X42694726Y39785328D01*
X42785327Y39694727D01*
X42785331Y39694724D01*
X42891866Y39623539D01*
X42891872Y39623536D01*
X42891873Y39623535D01*
X43010256Y39574499D01*
X43010260Y39574499D01*
X43010261Y39574498D01*
X43135928Y39549500D01*
X43135931Y39549500D01*
X43264071Y39549500D01*
X43348615Y39566318D01*
X43389744Y39574499D01*
X43508127Y39623535D01*
X43614669Y39694724D01*
X43705276Y39785331D01*
X43776465Y39891873D01*
X43825501Y40010256D01*
X43850500Y40135931D01*
X43850500Y40264069D01*
X43850500Y40264072D01*
X43846740Y40282973D01*
X43842504Y40304270D01*
X51974500Y40304270D01*
X51974500Y39495731D01*
X51977353Y39465301D01*
X51977353Y39465299D01*
X52022206Y39337120D01*
X52022207Y39337118D01*
X52102850Y39227850D01*
X52212118Y39147207D01*
X52254845Y39132256D01*
X52340299Y39102354D01*
X52370730Y39099500D01*
X52370734Y39099500D01*
X53729270Y39099500D01*
X53759699Y39102354D01*
X53759701Y39102354D01*
X53823790Y39124781D01*
X53887882Y39147207D01*
X53997150Y39227850D01*
X54077793Y39337118D01*
X54100219Y39401210D01*
X54122646Y39465299D01*
X54122646Y39465301D01*
X54125500Y39495731D01*
X54125500Y40304270D01*
X54122646Y40334700D01*
X54122646Y40334702D01*
X54077793Y40462881D01*
X54077792Y40462883D01*
X54044402Y40508125D01*
X53997150Y40572150D01*
X53887882Y40652793D01*
X53887880Y40652794D01*
X53759700Y40697647D01*
X53729270Y40700500D01*
X53729266Y40700500D01*
X52370734Y40700500D01*
X52370730Y40700500D01*
X52340300Y40697647D01*
X52340298Y40697647D01*
X52212119Y40652794D01*
X52212117Y40652793D01*
X52102850Y40572150D01*
X52022207Y40462883D01*
X52022206Y40462881D01*
X51977353Y40334702D01*
X51977353Y40334700D01*
X51974500Y40304270D01*
X43842504Y40304270D01*
X43825502Y40389739D01*
X43825501Y40389740D01*
X43825501Y40389744D01*
X43776465Y40508127D01*
X43776464Y40508128D01*
X43776461Y40508134D01*
X43705276Y40614669D01*
X43705273Y40614673D01*
X43614672Y40705274D01*
X43614668Y40705277D01*
X43508133Y40776462D01*
X43508124Y40776467D01*
X43389744Y40825501D01*
X43389738Y40825503D01*
X43264071Y40850500D01*
X43264069Y40850500D01*
X43135931Y40850500D01*
X43135929Y40850500D01*
X43010261Y40825503D01*
X43010255Y40825501D01*
X42891875Y40776467D01*
X42891866Y40776462D01*
X42785331Y40705277D01*
X42785327Y40705274D01*
X42694726Y40614673D01*
X42694723Y40614669D01*
X42623538Y40508134D01*
X42623533Y40508125D01*
X42574499Y40389745D01*
X42574497Y40389739D01*
X42549500Y40264072D01*
X42549500Y40264069D01*
X42549500Y40135931D01*
X42549500Y40135929D01*
X42549499Y40135929D01*
X300500Y40135929D01*
X300500Y42569753D01*
X749500Y42569753D01*
X749500Y40830248D01*
X761131Y40771771D01*
X761132Y40771770D01*
X805447Y40705448D01*
X871769Y40661133D01*
X871770Y40661132D01*
X930247Y40649501D01*
X930250Y40649500D01*
X930252Y40649500D01*
X2669750Y40649500D01*
X2669751Y40649501D01*
X2686308Y40652794D01*
X2728229Y40661132D01*
X2728229Y40661133D01*
X2728231Y40661133D01*
X2794552Y40705448D01*
X2838867Y40771769D01*
X2838867Y40771771D01*
X2838868Y40771771D01*
X2850499Y40830248D01*
X2850500Y40830250D01*
X2850500Y41185929D01*
X5349499Y41185929D01*
X5374497Y41060262D01*
X5374499Y41060256D01*
X5423533Y40941876D01*
X5423538Y40941867D01*
X5494723Y40835332D01*
X5494726Y40835328D01*
X5585327Y40744727D01*
X5585331Y40744724D01*
X5691866Y40673539D01*
X5691872Y40673536D01*
X5691873Y40673535D01*
X5810256Y40624499D01*
X5810260Y40624499D01*
X5810261Y40624498D01*
X5935928Y40599500D01*
X5935931Y40599500D01*
X6064071Y40599500D01*
X6148615Y40616318D01*
X6189744Y40624499D01*
X6308127Y40673535D01*
X6414669Y40744724D01*
X6505276Y40835331D01*
X6576465Y40941873D01*
X6625501Y41060256D01*
X6633682Y41101385D01*
X6650500Y41185929D01*
X6650500Y41314072D01*
X6625502Y41439739D01*
X6625501Y41439740D01*
X6625501Y41439744D01*
X6576465Y41558127D01*
X6576464Y41558128D01*
X6576461Y41558134D01*
X6505276Y41664669D01*
X6505273Y41664673D01*
X6414672Y41755274D01*
X6414668Y41755277D01*
X6308133Y41826462D01*
X6308124Y41826467D01*
X6202124Y41870373D01*
X6202122Y41870374D01*
X6189748Y41875500D01*
X6189738Y41875503D01*
X6064071Y41900500D01*
X6064069Y41900500D01*
X5935931Y41900500D01*
X5935929Y41900500D01*
X5810261Y41875503D01*
X5810255Y41875501D01*
X5691875Y41826467D01*
X5691866Y41826462D01*
X5585331Y41755277D01*
X5585327Y41755274D01*
X5494726Y41664673D01*
X5494723Y41664669D01*
X5423538Y41558134D01*
X5423533Y41558125D01*
X5374499Y41439745D01*
X5374497Y41439739D01*
X5349500Y41314072D01*
X5349500Y41314069D01*
X5349500Y41185931D01*
X5349500Y41185929D01*
X5349499Y41185929D01*
X2850500Y41185929D01*
X2850500Y41978847D01*
X51974500Y41978847D01*
X51974500Y41821154D01*
X52005261Y41666511D01*
X52005264Y41666499D01*
X52065602Y41520828D01*
X52065609Y41520815D01*
X52153210Y41389712D01*
X52153213Y41389708D01*
X52264707Y41278214D01*
X52264711Y41278211D01*
X52395814Y41190610D01*
X52395827Y41190603D01*
X52541498Y41130265D01*
X52541503Y41130263D01*
X52696153Y41099501D01*
X52696156Y41099500D01*
X52696158Y41099500D01*
X53403844Y41099500D01*
X53403845Y41099501D01*
X53558497Y41130263D01*
X53692888Y41185929D01*
X53704172Y41190603D01*
X53704172Y41190604D01*
X53704179Y41190606D01*
X53835289Y41278211D01*
X53946789Y41389711D01*
X54034394Y41520821D01*
X54094737Y41666503D01*
X54125500Y41821158D01*
X54125500Y41978842D01*
X54125500Y41978845D01*
X54125499Y41978847D01*
X54094738Y42133490D01*
X54094737Y42133497D01*
X54094735Y42133502D01*
X54034397Y42279173D01*
X54034390Y42279186D01*
X53946789Y42410289D01*
X53946786Y42410293D01*
X53835292Y42521787D01*
X53835288Y42521790D01*
X53704185Y42609391D01*
X53704172Y42609398D01*
X53558501Y42669736D01*
X53558489Y42669739D01*
X53403845Y42700500D01*
X53403842Y42700500D01*
X52696158Y42700500D01*
X52696155Y42700500D01*
X52541510Y42669739D01*
X52541498Y42669736D01*
X52395827Y42609398D01*
X52395814Y42609391D01*
X52264711Y42521790D01*
X52264707Y42521787D01*
X52153213Y42410293D01*
X52153210Y42410289D01*
X52065609Y42279186D01*
X52065602Y42279173D01*
X52005264Y42133502D01*
X52005261Y42133490D01*
X51974500Y41978847D01*
X2850500Y41978847D01*
X2850500Y42569751D01*
X2850499Y42569753D01*
X2838868Y42628230D01*
X2838867Y42628231D01*
X2794552Y42694553D01*
X2728230Y42738868D01*
X2728229Y42738869D01*
X2669752Y42750500D01*
X2669748Y42750500D01*
X930252Y42750500D01*
X930247Y42750500D01*
X871770Y42738869D01*
X871769Y42738868D01*
X805447Y42694553D01*
X761132Y42628231D01*
X761131Y42628230D01*
X749500Y42569753D01*
X300500Y42569753D01*
X300500Y43978847D01*
X51974500Y43978847D01*
X51974500Y43821154D01*
X52005261Y43666511D01*
X52005264Y43666499D01*
X52065602Y43520828D01*
X52065609Y43520815D01*
X52153210Y43389712D01*
X52153213Y43389708D01*
X52264707Y43278214D01*
X52264711Y43278211D01*
X52395814Y43190610D01*
X52395827Y43190603D01*
X52541498Y43130265D01*
X52541503Y43130263D01*
X52696153Y43099501D01*
X52696156Y43099500D01*
X52696158Y43099500D01*
X53403844Y43099500D01*
X53403845Y43099501D01*
X53558497Y43130263D01*
X53704179Y43190606D01*
X53835289Y43278211D01*
X53946789Y43389711D01*
X54034394Y43520821D01*
X54094737Y43666503D01*
X54125500Y43821158D01*
X54125500Y43978842D01*
X54125500Y43978845D01*
X54125499Y43978847D01*
X54094738Y44133490D01*
X54094737Y44133497D01*
X54094735Y44133502D01*
X54034397Y44279173D01*
X54034390Y44279186D01*
X53946789Y44410289D01*
X53946786Y44410293D01*
X53835292Y44521787D01*
X53835288Y44521790D01*
X53704185Y44609391D01*
X53704172Y44609398D01*
X53558501Y44669736D01*
X53558489Y44669739D01*
X53403845Y44700500D01*
X53403842Y44700500D01*
X52696158Y44700500D01*
X52696155Y44700500D01*
X52541510Y44669739D01*
X52541498Y44669736D01*
X52395827Y44609398D01*
X52395814Y44609391D01*
X52264711Y44521790D01*
X52264707Y44521787D01*
X52153213Y44410293D01*
X52153210Y44410289D01*
X52065609Y44279186D01*
X52065602Y44279173D01*
X52005264Y44133502D01*
X52005261Y44133490D01*
X51974500Y43978847D01*
X300500Y43978847D01*
X300500Y45376000D01*
X320185Y45443039D01*
X372989Y45488794D01*
X424500Y45500000D01*
X59575500Y45500000D01*
X59642539Y45480315D01*
G37*
%TD.AperFunction*%
%TD*%
M02*
