%TF.GenerationSoftware,KiCad,Pcbnew,10.0.0*%
%TF.CreationDate,2026-08-22T21:27:56-05:00*%
%TF.ProjectId,2027Payload,32303237-5061-4796-9c6f-61642e6b6963,rev?*%
%TF.SameCoordinates,PXac9d740PY90f5600*%
%TF.FileFunction,Copper,L1,Top*%
%TF.FilePolarity,Positive*%
%FSLAX46Y46*%
G04 Gerber Fmt 4.6, Leading zero omitted, Abs format (unit mm)*
G04 Created by KiCad (PCBNEW 10.0.0) date 2026-08-22 21:27:56*
%MOMM*%
%LPD*%
G01*
G04 APERTURE LIST*
G04 Aperture macros list*
%AMRoundRect*
0 Rectangle with rounded corners*
0 $1 Rounding radius*
0 $2 $3 $4 $5 $6 $7 $8 $9 X,Y pos of 4 corners*
0 Add a 4 corners polygon primitive as box body*
4,1,4,$2,$3,$4,$5,$6,$7,$8,$9,$2,$3,0*
0 Add four circle primitives for the rounded corners*
1,1,$1+$1,$2,$3*
1,1,$1+$1,$4,$5*
1,1,$1+$1,$6,$7*
1,1,$1+$1,$8,$9*
0 Add four rect primitives between the rounded corners*
20,1,$1+$1,$2,$3,$4,$5,0*
20,1,$1+$1,$4,$5,$6,$7,0*
20,1,$1+$1,$6,$7,$8,$9,0*
20,1,$1+$1,$8,$9,$2,$3,0*%
%AMFreePoly0*
4,1,153,0.781581,1.204743,0.783810,1.204000,0.785000,1.204000,0.786581,1.203743,0.788810,1.203000,0.790000,1.203000,0.791581,1.202743,0.794581,1.201743,0.795236,1.201472,0.796920,1.200630,0.799581,1.199743,0.801536,1.198536,0.802964,1.197108,0.804236,1.196472,0.805536,1.195536,0.806964,1.194108,0.808236,1.193472,0.809536,1.192536,0.817536,1.184536,0.818472,1.183236,
0.819108,1.181964,0.820536,1.180536,0.821472,1.179236,0.822108,1.177964,0.823536,1.176536,0.824743,1.174581,0.825630,1.171920,0.826472,1.170236,0.826743,1.169581,0.827743,1.166581,0.828000,1.165000,0.828000,1.163810,0.828743,1.161581,0.829000,1.160000,0.829000,1.158810,0.829743,1.156581,0.830000,1.155000,0.830000,-1.155000,0.829743,-1.156581,0.829000,-1.158810,
0.829000,-1.160000,0.828743,-1.161581,0.828000,-1.163810,0.828000,-1.165000,0.827743,-1.166581,0.826743,-1.169581,0.826472,-1.170236,0.825630,-1.171920,0.824743,-1.174581,0.823536,-1.176536,0.822108,-1.177964,0.821472,-1.179236,0.820536,-1.180536,0.819108,-1.181964,0.818472,-1.183236,0.817536,-1.184536,0.809536,-1.192536,0.808236,-1.193472,0.806964,-1.194108,0.805536,-1.195536,
0.804236,-1.196472,0.802964,-1.197108,0.801536,-1.198536,0.799581,-1.199743,0.796920,-1.200630,0.795236,-1.201472,0.794581,-1.201743,0.791581,-1.202743,0.790000,-1.203000,0.788810,-1.203000,0.786581,-1.203743,0.785000,-1.204000,0.783810,-1.204000,0.781581,-1.204743,0.780000,-1.205000,-0.780000,-1.205000,-0.781581,-1.204743,-0.783810,-1.204000,-0.785000,-1.204000,-0.786581,-1.203743,
-0.788810,-1.203000,-0.790000,-1.203000,-0.791581,-1.202743,-0.794581,-1.201743,-0.795236,-1.201472,-0.796920,-1.200630,-0.799581,-1.199743,-0.801536,-1.198536,-0.802964,-1.197108,-0.804236,-1.196472,-0.805536,-1.195536,-0.806964,-1.194108,-0.808236,-1.193472,-0.809536,-1.192536,-0.817536,-1.184536,-0.818472,-1.183236,-0.819108,-1.181964,-0.820536,-1.180536,-0.821472,-1.179236,-0.822108,-1.177964,
-0.823536,-1.176536,-0.824743,-1.174581,-0.825630,-1.171920,-0.826472,-1.170236,-0.826743,-1.169581,-0.827743,-1.166581,-0.828000,-1.165000,-0.828000,-1.163810,-0.828743,-1.161581,-0.829000,-1.160000,-0.829000,-1.158810,-0.829743,-1.156581,-0.830000,-1.155000,-0.830000,1.155000,-0.829743,1.156581,-0.829000,1.158810,-0.829000,1.160000,-0.828743,1.161581,-0.828000,1.163810,-0.828000,1.165000,
-0.827743,1.166581,-0.826743,1.169581,-0.826472,1.170236,-0.825630,1.171920,-0.824743,1.174581,-0.823536,1.176536,-0.822108,1.177964,-0.821472,1.179236,-0.820536,1.180536,-0.819108,1.181964,-0.818472,1.183236,-0.817536,1.184536,-0.809536,1.192536,-0.808236,1.193472,-0.806964,1.194108,-0.805536,1.195536,-0.804236,1.196472,-0.802964,1.197108,-0.801536,1.198536,-0.799581,1.199743,
-0.796920,1.200630,-0.795236,1.201472,-0.794581,1.201743,-0.791581,1.202743,-0.790000,1.203000,-0.788810,1.203000,-0.786581,1.203743,-0.785000,1.204000,-0.783810,1.204000,-0.781581,1.204743,-0.780000,1.205000,0.780000,1.205000,0.781581,1.204743,0.781581,1.204743,$1*%
%AMFreePoly1*
4,1,17,0.528536,0.453536,0.530000,0.450000,0.530000,-0.125000,0.528536,-0.128536,0.525000,-0.130000,-0.100000,-0.130000,-0.103536,-0.128536,-0.105000,-0.125000,-0.105000,0.100000,-0.103536,0.103536,-0.100000,0.105000,0.245000,0.105000,0.245000,0.450000,0.246464,0.453536,0.250000,0.455000,0.525000,0.455000,0.528536,0.453536,0.528536,0.453536,$1*%
%AMFreePoly2*
4,1,17,0.528536,0.128536,0.530000,0.125000,0.530000,-0.450000,0.528536,-0.453536,0.525000,-0.455000,0.250000,-0.455000,0.246464,-0.453536,0.245000,-0.450000,0.245000,-0.105000,-0.100000,-0.105000,-0.103536,-0.103536,-0.105000,-0.100000,-0.105000,0.125000,-0.103536,0.128536,-0.100000,0.130000,0.525000,0.130000,0.528536,0.128536,0.528536,0.128536,$1*%
%AMFreePoly3*
4,1,17,0.103536,0.203536,0.105000,0.200000,0.105000,-0.200000,0.103536,-0.203536,0.100000,-0.205000,-0.420000,-0.205000,-0.420000,-0.650000,-0.421464,-0.653536,-0.425000,-0.655000,-0.825000,-0.655000,-0.828536,-0.653536,-0.830000,-0.650000,-0.830000,0.200000,-0.828536,0.203536,-0.825000,0.205000,0.100000,0.205000,0.103536,0.203536,0.103536,0.203536,$1*%
%AMFreePoly4*
4,1,17,-0.421464,0.653536,-0.420000,0.650000,-0.420000,0.205000,0.100000,0.205000,0.103536,0.203536,0.105000,0.200000,0.105000,-0.200000,0.103536,-0.203536,0.100000,-0.205000,-0.825000,-0.205000,-0.828536,-0.203536,-0.830000,-0.200000,-0.830000,0.650000,-0.828536,0.653536,-0.825000,0.655000,-0.425000,0.655000,-0.421464,0.653536,-0.421464,0.653536,$1*%
G04 Aperture macros list end*
%TA.AperFunction,SMDPad,CuDef*%
%ADD10RoundRect,0.052500X0.247500X0.097500X-0.247500X0.097500X-0.247500X-0.097500X0.247500X-0.097500X0*%
%TD*%
%TA.AperFunction,ComponentPad*%
%ADD11C,0.450000*%
%TD*%
%TA.AperFunction,SMDPad,CuDef*%
%ADD12FreePoly0,180.000000*%
%TD*%
%TA.AperFunction,SMDPad,CuDef*%
%ADD13R,0.250000X0.675000*%
%TD*%
%TA.AperFunction,SMDPad,CuDef*%
%ADD14R,0.575000X0.250000*%
%TD*%
%TA.AperFunction,SMDPad,CuDef*%
%ADD15RoundRect,0.225000X-0.225000X-0.250000X0.225000X-0.250000X0.225000X0.250000X-0.225000X0.250000X0*%
%TD*%
%TA.AperFunction,SMDPad,CuDef*%
%ADD16RoundRect,0.250000X-0.525000X-0.400000X0.525000X-0.400000X0.525000X0.400000X-0.525000X0.400000X0*%
%TD*%
%TA.AperFunction,SMDPad,CuDef*%
%ADD17RoundRect,0.225000X0.250000X-0.225000X0.250000X0.225000X-0.250000X0.225000X-0.250000X-0.225000X0*%
%TD*%
%TA.AperFunction,SMDPad,CuDef*%
%ADD18RoundRect,0.250000X0.312500X1.450000X-0.312500X1.450000X-0.312500X-1.450000X0.312500X-1.450000X0*%
%TD*%
%TA.AperFunction,SMDPad,CuDef*%
%ADD19RoundRect,0.225000X0.225000X0.250000X-0.225000X0.250000X-0.225000X-0.250000X0.225000X-0.250000X0*%
%TD*%
%TA.AperFunction,SMDPad,CuDef*%
%ADD20FreePoly1,0.000000*%
%TD*%
%TA.AperFunction,SMDPad,CuDef*%
%ADD21FreePoly2,0.000000*%
%TD*%
%TA.AperFunction,SMDPad,CuDef*%
%ADD22R,0.250000X0.575000*%
%TD*%
%TA.AperFunction,SMDPad,CuDef*%
%ADD23R,0.350000X0.850000*%
%TD*%
%TA.AperFunction,SMDPad,CuDef*%
%ADD24FreePoly3,0.000000*%
%TD*%
%TA.AperFunction,SMDPad,CuDef*%
%ADD25R,1.675000X0.800000*%
%TD*%
%TA.AperFunction,SMDPad,CuDef*%
%ADD26FreePoly4,0.000000*%
%TD*%
%TA.AperFunction,SMDPad,CuDef*%
%ADD27RoundRect,0.225000X-0.250000X0.225000X-0.250000X-0.225000X0.250000X-0.225000X0.250000X0.225000X0*%
%TD*%
%TA.AperFunction,ComponentPad*%
%ADD28R,1.700000X1.700000*%
%TD*%
%TA.AperFunction,ComponentPad*%
%ADD29C,1.700000*%
%TD*%
%TA.AperFunction,SMDPad,CuDef*%
%ADD30RoundRect,0.150000X-0.625000X0.150000X-0.625000X-0.150000X0.625000X-0.150000X0.625000X0.150000X0*%
%TD*%
%TA.AperFunction,SMDPad,CuDef*%
%ADD31RoundRect,0.250000X-0.650000X0.350000X-0.650000X-0.350000X0.650000X-0.350000X0.650000X0.350000X0*%
%TD*%
%TA.AperFunction,SMDPad,CuDef*%
%ADD32RoundRect,0.147500X0.457500X0.147500X-0.457500X0.147500X-0.457500X-0.147500X0.457500X-0.147500X0*%
%TD*%
%TA.AperFunction,SMDPad,CuDef*%
%ADD33RoundRect,0.225000X0.375000X-0.225000X0.375000X0.225000X-0.375000X0.225000X-0.375000X-0.225000X0*%
%TD*%
%TA.AperFunction,SMDPad,CuDef*%
%ADD34R,1.500000X0.900000*%
%TD*%
%TA.AperFunction,ComponentPad*%
%ADD35C,0.400000*%
%TD*%
%TA.AperFunction,SMDPad,CuDef*%
%ADD36R,0.900000X1.500000*%
%TD*%
%TA.AperFunction,SMDPad,CuDef*%
%ADD37R,0.900000X0.900000*%
%TD*%
%TA.AperFunction,SMDPad,CuDef*%
%ADD38R,1.500000X1.800000*%
%TD*%
%TA.AperFunction,SMDPad,CuDef*%
%ADD39R,1.800000X1.500000*%
%TD*%
%TA.AperFunction,SMDPad,CuDef*%
%ADD40R,0.250000X0.275000*%
%TD*%
%TA.AperFunction,SMDPad,CuDef*%
%ADD41R,0.275000X0.250000*%
%TD*%
%TA.AperFunction,SMDPad,CuDef*%
%ADD42R,3.000000X3.000000*%
%TD*%
%TA.AperFunction,SMDPad,CuDef*%
%ADD43RoundRect,0.150000X0.512500X0.150000X-0.512500X0.150000X-0.512500X-0.150000X0.512500X-0.150000X0*%
%TD*%
%TA.AperFunction,SMDPad,CuDef*%
%ADD44RoundRect,0.075000X-0.910000X-0.225000X0.910000X-0.225000X0.910000X0.225000X-0.910000X0.225000X0*%
%TD*%
%TA.AperFunction,SMDPad,CuDef*%
%ADD45R,3.850000X4.000000*%
%TD*%
%TA.AperFunction,SMDPad,CuDef*%
%ADD46RoundRect,0.150000X-0.425000X0.150000X-0.425000X-0.150000X0.425000X-0.150000X0.425000X0.150000X0*%
%TD*%
%TA.AperFunction,SMDPad,CuDef*%
%ADD47RoundRect,0.075000X-0.500000X0.075000X-0.500000X-0.075000X0.500000X-0.075000X0.500000X0.075000X0*%
%TD*%
%TA.AperFunction,SMDPad,CuDef*%
%ADD48RoundRect,0.250000X-0.750000X0.840000X-0.750000X-0.840000X0.750000X-0.840000X0.750000X0.840000X0*%
%TD*%
%TA.AperFunction,SMDPad,CuDef*%
%ADD49R,1.000000X1.000000*%
%TD*%
%TA.AperFunction,ComponentPad*%
%ADD50RoundRect,0.250000X0.625000X-0.350000X0.625000X0.350000X-0.625000X0.350000X-0.625000X-0.350000X0*%
%TD*%
%TA.AperFunction,ComponentPad*%
%ADD51O,1.750000X1.200000*%
%TD*%
%TA.AperFunction,SMDPad,CuDef*%
%ADD52RoundRect,0.243750X-0.243750X-0.456250X0.243750X-0.456250X0.243750X0.456250X-0.243750X0.456250X0*%
%TD*%
%TA.AperFunction,SMDPad,CuDef*%
%ADD53RoundRect,0.250000X-1.750000X-1.000000X1.750000X-1.000000X1.750000X1.000000X-1.750000X1.000000X0*%
%TD*%
%TA.AperFunction,SMDPad,CuDef*%
%ADD54RoundRect,0.035000X-0.345000X-0.105000X0.345000X-0.105000X0.345000X0.105000X-0.345000X0.105000X0*%
%TD*%
%TA.AperFunction,SMDPad,CuDef*%
%ADD55R,0.900000X1.600000*%
%TD*%
%TA.AperFunction,ViaPad*%
%ADD56C,0.900000*%
%TD*%
%TA.AperFunction,ViaPad*%
%ADD57C,0.700000*%
%TD*%
%TA.AperFunction,ViaPad*%
%ADD58C,0.600000*%
%TD*%
%TA.AperFunction,Conductor*%
%ADD59C,0.500000*%
%TD*%
%TA.AperFunction,Conductor*%
%ADD60C,0.300000*%
%TD*%
%TA.AperFunction,Conductor*%
%ADD61C,0.200000*%
%TD*%
%TA.AperFunction,Conductor*%
%ADD62C,1.000000*%
%TD*%
G04 APERTURE END LIST*
D10*
%TO.P,U9,1,STAT_1*%
%TO.N,unconnected-(U9-STAT-Pad1)*%
X14800000Y78910000D03*
%TO.P,U9,2,~{EN}_2*%
%TO.N,GND*%
X14800000Y79560000D03*
%TO.P,U9,3,VSNS_3*%
%TO.N,VSNS*%
X14800000Y80210000D03*
%TO.P,U9,4,ILIM_4*%
%TO.N,Net-(U9-ILIM)*%
X14800000Y80860000D03*
%TO.P,U9,5,GND_5*%
%TO.N,GND*%
X12000000Y80860000D03*
%TO.P,U9,6,IN2_6*%
%TO.N,+5V*%
X12000000Y80210000D03*
%TO.P,U9,7,OUT_7*%
%TO.N,5V_LOGIC*%
X12000000Y79560000D03*
%TO.P,U9,8,IN1_8*%
%TO.N,VBUS*%
X12000000Y78910000D03*
D11*
%TO.P,U9,9,GND_9*%
%TO.N,GND*%
X13975000Y79885000D03*
X13400000Y78935000D03*
D12*
X13400000Y79885000D03*
D11*
X13400000Y80835000D03*
X12825000Y79885000D03*
%TD*%
D13*
%TO.P,U4,1,RESV_NC_1*%
%TO.N,unconnected-(U4-RESV_NC-Pad1)*%
X24700000Y60475000D03*
D14*
%TO.P,U4,2,GND_2*%
%TO.N,GND*%
X24762500Y61287500D03*
%TO.P,U4,3,VDD_3*%
%TO.N,+3.3V*%
X24762500Y61787500D03*
%TO.P,U4,4,~{BOOT}_4*%
%TO.N,Net-(U4-~{BOOT})*%
X24762500Y62287500D03*
%TO.P,U4,5,PS1_5*%
%TO.N,GND*%
X24762500Y62787500D03*
D13*
%TO.P,U4,6,PS0/WAKE_6*%
X24700000Y63600000D03*
%TO.P,U4,7,RESV_NC_7*%
%TO.N,unconnected-(U4-RESV_NC-Pad7)*%
X24200000Y63600000D03*
%TO.P,U4,8,RESV_NC_8*%
%TO.N,unconnected-(U4-RESV_NC-Pad8)*%
X23700000Y63600000D03*
%TO.P,U4,9,CAP_9*%
%TO.N,Net-(U4-CAP)*%
X23200000Y63600000D03*
%TO.P,U4,10,CLKSEL0_10*%
%TO.N,GND*%
X22700000Y63600000D03*
%TO.P,U4,11,~{RST}_11*%
%TO.N,IO5*%
X22200000Y63600000D03*
%TO.P,U4,12,RESV_NC_12*%
%TO.N,unconnected-(U4-RESV_NC-Pad12)*%
X21700000Y63600000D03*
%TO.P,U4,13,RESV_NC_13*%
%TO.N,unconnected-(U4-RESV_NC-Pad13)*%
X21200000Y63600000D03*
%TO.P,U4,14,~{H_INT}_14*%
%TO.N,IO4*%
X20700000Y63600000D03*
%TO.P,U4,15,ENV_SCL_15*%
%TO.N,unconnected-(U4-ENV_SCL-Pad15)*%
X20200000Y63600000D03*
D14*
%TO.P,U4,16,ENV_SDA_16*%
%TO.N,unconnected-(U4-ENV_SDA-Pad16)*%
X20137500Y62787500D03*
%TO.P,U4,17,SA0/H_MOSI_17*%
%TO.N,GND*%
X20137500Y62287500D03*
%TO.P,U4,18,~{H_CS}_18*%
%TO.N,Net-(U4-~{H_CS})*%
X20137500Y61787500D03*
%TO.P,U4,19,H_SCL/SCK/RX_19*%
%TO.N,IO9*%
X20137500Y61287500D03*
D13*
%TO.P,U4,20,H_SDA/H_MISO/TX_20*%
%TO.N,IO8*%
X20200000Y60475000D03*
%TO.P,U4,21,RESV_NC_21*%
%TO.N,unconnected-(U4-RESV_NC-Pad21)*%
X20700000Y60475000D03*
%TO.P,U4,22,RESV_NC_22*%
%TO.N,unconnected-(U4-RESV_NC-Pad22)*%
X21200000Y60475000D03*
%TO.P,U4,23,RESV_NC_23*%
%TO.N,unconnected-(U4-RESV_NC-Pad23)*%
X21700000Y60475000D03*
%TO.P,U4,24,RESV_NC_24*%
%TO.N,unconnected-(U4-RESV_NC-Pad24)*%
X22200000Y60475000D03*
%TO.P,U4,25,GNDIO_25*%
%TO.N,GND*%
X22700000Y60475000D03*
%TO.P,U4,26,XOUT32/CLKSEL1_26*%
X23200000Y60475000D03*
%TO.P,U4,27,XIN32_27*%
%TO.N,unconnected-(U4-XIN32-Pad27)*%
X23700000Y60475000D03*
%TO.P,U4,28,VDDIO_28*%
%TO.N,+3.3V*%
X24200000Y60475000D03*
%TD*%
D15*
%TO.P,C34,1*%
%TO.N,Net-(U2-BOOT)*%
X33250000Y23800000D03*
%TO.P,C34,2*%
%TO.N,Net-(U2-SW1)*%
X34800000Y23800000D03*
%TD*%
%TO.P,C26,1*%
%TO.N,VBAT*%
X38208333Y24750000D03*
%TO.P,C26,2*%
%TO.N,GND*%
X39758333Y24750000D03*
%TD*%
D16*
%TO.P,SW1,1,1_1*%
%TO.N,EN*%
X50700000Y67500000D03*
X58660000Y67500000D03*
%TO.P,SW1,2,2_2*%
%TO.N,GND*%
X50700000Y63000000D03*
X58660000Y63000000D03*
%TD*%
D17*
%TO.P,C39,1*%
%TO.N,GND*%
X26600000Y19825000D03*
%TO.P,C39,2*%
%TO.N,+5V*%
X26600000Y21375000D03*
%TD*%
%TO.P,R10,1*%
%TO.N,Net-(R10-Pad1)*%
X48500000Y59725000D03*
%TO.P,R10,2*%
%TO.N,IO0*%
X48500000Y61275000D03*
%TD*%
D18*
%TO.P,F1,1*%
%TO.N,VBAT_RAW*%
X52237500Y14900000D03*
%TO.P,F1,2*%
%TO.N,VBAT_FUSED*%
X47962500Y14900000D03*
%TD*%
D19*
%TO.P,C27,1*%
%TO.N,+3.3V*%
X16000000Y1740000D03*
%TO.P,C27,2*%
%TO.N,GND*%
X14450000Y1740000D03*
%TD*%
D15*
%TO.P,C25,1*%
%TO.N,+3.3V*%
X30030000Y51950000D03*
%TO.P,C25,2*%
%TO.N,GND*%
X31580000Y51950000D03*
%TD*%
D19*
%TO.P,R16,1*%
%TO.N,VSNS*%
X13775000Y77200000D03*
%TO.P,R16,2*%
%TO.N,VBUS*%
X12225000Y77200000D03*
%TD*%
D20*
%TO.P,U2,1,SYNC/FSEL_1*%
%TO.N,Net-(U2-SYNC{slash}FSEL)*%
X32500000Y21300000D03*
D14*
%TO.P,U2,2,MODE_2*%
%TO.N,Net-(U2-MODE)*%
X32687400Y20799300D03*
%TO.P,U2,3,PGOOD_3*%
%TO.N,Net-(U2-PGOOD)*%
X32687400Y20300000D03*
%TO.P,U2,4,FB_4*%
%TO.N,Net-(U2-FB)*%
X32687400Y19800700D03*
D21*
%TO.P,U2,5,AGND_5*%
%TO.N,GND*%
X32500000Y19300000D03*
D22*
%TO.P,U2,6,BP5_6*%
%TO.N,Net-(U2-BP5)*%
X33399400Y19137400D03*
%TO.P,U2,7,EN_7*%
%TO.N,unconnected-(U2-EN-Pad7)*%
X33900100Y19137400D03*
D23*
%TO.P,U2,8,VIN_8*%
%TO.N,VBAT*%
X34449900Y19275000D03*
D24*
%TO.P,U2,9,PGND_9*%
%TO.N,GND*%
X35700000Y19500000D03*
D25*
%TO.P,U2,10,SW1_10*%
%TO.N,Net-(U2-SW1)*%
X35012500Y20300000D03*
D26*
%TO.P,U2,11,PGND__1_11*%
%TO.N,GND*%
X35700000Y21100000D03*
D23*
%TO.P,U2,12,VIN__1_12*%
%TO.N,VBAT*%
X34449900Y21325000D03*
D22*
%TO.P,U2,13,SW2_13*%
%TO.N,Net-(U2-SW1)*%
X33900100Y21462600D03*
%TO.P,U2,14,BOOT_14*%
%TO.N,Net-(U2-BOOT)*%
X33399400Y21462600D03*
%TD*%
D19*
%TO.P,R28,1*%
%TO.N,+3.3V*%
X25075000Y12200000D03*
%TO.P,R28,2*%
%TO.N,Net-(U11-~{SAFEBOOT})*%
X23525000Y12200000D03*
%TD*%
D27*
%TO.P,R21,1*%
%TO.N,Net-(D2-K)*%
X35250000Y10250000D03*
%TO.P,R21,2*%
%TO.N,GND*%
X35250000Y8700000D03*
%TD*%
%TO.P,R33,1*%
%TO.N,Net-(J5-Pin_1)*%
X4700000Y24075000D03*
%TO.P,R33,2*%
%TO.N,IO15*%
X4700000Y22525000D03*
%TD*%
D28*
%TO.P,J5,1,Pin_1_1*%
%TO.N,Net-(J5-Pin_1)*%
X1800000Y23620000D03*
D29*
%TO.P,J5,2,Pin_2_2*%
%TO.N,+5V*%
X1800000Y26160000D03*
%TO.P,J5,3,Pin_3_3*%
%TO.N,GND*%
X1800000Y28700000D03*
%TD*%
D27*
%TO.P,R20,1*%
%TO.N,+3.3V*%
X22980000Y66980000D03*
%TO.P,R20,2*%
%TO.N,IO5*%
X22980000Y65430000D03*
%TD*%
%TO.P,R27,1*%
%TO.N,+3.3V*%
X5500000Y14450000D03*
%TO.P,R27,2*%
%TO.N,Net-(U11-~{RESET})*%
X5500000Y12900000D03*
%TD*%
D15*
%TO.P,C24,1*%
%TO.N,+3.3V*%
X30000000Y50300000D03*
%TO.P,C24,2*%
%TO.N,GND*%
X31550000Y50300000D03*
%TD*%
D30*
%TO.P,J6,1,Pin_1_1*%
%TO.N,GND*%
X5175000Y62800000D03*
%TO.P,J6,2,Pin_2_2*%
%TO.N,+3.3V*%
X5175000Y61800000D03*
%TO.P,J6,3,Pin_3_3*%
%TO.N,IO8*%
X5175000Y60800000D03*
%TO.P,J6,4,Pin_4_4*%
%TO.N,IO9*%
X5175000Y59800000D03*
D31*
%TO.P,J6,MP*%
%TO.N,N/C*%
X1300000Y64100000D03*
X1300000Y58500000D03*
%TD*%
D17*
%TO.P,C17,1*%
%TO.N,GND*%
X45350000Y66275000D03*
%TO.P,C17,2*%
%TO.N,EN*%
X45350000Y67825000D03*
%TD*%
D27*
%TO.P,R23,1*%
%TO.N,GND*%
X43150000Y87625000D03*
%TO.P,R23,2*%
%TO.N,IO1*%
X43150000Y86075000D03*
%TD*%
D17*
%TO.P,R26,1*%
%TO.N,Net-(U2-SYNC{slash}FSEL)*%
X27200000Y26225000D03*
%TO.P,R26,2*%
%TO.N,GND*%
X27200000Y27775000D03*
%TD*%
%TO.P,R18,1*%
%TO.N,+3.3V*%
X18820000Y58110000D03*
%TO.P,R18,2*%
%TO.N,IO8*%
X18820000Y59660000D03*
%TD*%
D19*
%TO.P,R24,1*%
%TO.N,Net-(U2-PGOOD)*%
X31175000Y23400000D03*
%TO.P,R24,2*%
%TO.N,Net-(U2-BP5)*%
X29625000Y23400000D03*
%TD*%
D15*
%TO.P,C37,1*%
%TO.N,VBAT*%
X38216667Y23100000D03*
%TO.P,C37,2*%
%TO.N,GND*%
X39766667Y23100000D03*
%TD*%
%TO.P,C31,1*%
%TO.N,VBAT*%
X38220833Y18150000D03*
%TO.P,C31,2*%
%TO.N,GND*%
X39770833Y18150000D03*
%TD*%
D19*
%TO.P,C19,1*%
%TO.N,+3.3V*%
X24825000Y59075000D03*
%TO.P,C19,2*%
%TO.N,GND*%
X23275000Y59075000D03*
%TD*%
D17*
%TO.P,C41,1*%
%TO.N,5V_SW*%
X46000000Y36000000D03*
%TO.P,C41,2*%
%TO.N,GND*%
X46000000Y37550000D03*
%TD*%
D15*
%TO.P,C40,1*%
%TO.N,+5V*%
X43450000Y28400000D03*
%TO.P,C40,2*%
%TO.N,GND*%
X45000000Y28400000D03*
%TD*%
D27*
%TO.P,R30,1*%
%TO.N,Net-(J3-Pin_1)*%
X4550000Y42200000D03*
%TO.P,R30,2*%
%TO.N,IO6*%
X4550000Y40650000D03*
%TD*%
D15*
%TO.P,C38,1*%
%TO.N,VBAT*%
X38225000Y19800000D03*
%TO.P,C38,2*%
%TO.N,GND*%
X39775000Y19800000D03*
%TD*%
D17*
%TO.P,R9,1*%
%TO.N,+3.3V*%
X47000000Y66275000D03*
%TO.P,R9,2*%
%TO.N,EN*%
X47000000Y67825000D03*
%TD*%
%TO.P,C23,1*%
%TO.N,IO1*%
X41550000Y86075000D03*
%TO.P,C23,2*%
%TO.N,GND*%
X41550000Y87625000D03*
%TD*%
D27*
%TO.P,R15,1*%
%TO.N,Net-(U9-ILIM)*%
X16200000Y81375000D03*
%TO.P,R15,2*%
%TO.N,GND*%
X16200000Y79825000D03*
%TD*%
D17*
%TO.P,C45,1*%
%TO.N,5V_SW*%
X49166667Y36000000D03*
%TO.P,C45,2*%
%TO.N,GND*%
X49166667Y37550000D03*
%TD*%
D19*
%TO.P,C21,1*%
%TO.N,+3.3V*%
X24825000Y57525000D03*
%TO.P,C21,2*%
%TO.N,GND*%
X23275000Y57525000D03*
%TD*%
D32*
%TO.P,U7,1,IN_1*%
%TO.N,5V_LOGIC*%
X10340000Y86500000D03*
%TO.P,U7,2,GND_2*%
%TO.N,GND*%
X10340000Y87450000D03*
%TO.P,U7,3,EN_3*%
%TO.N,5V_LOGIC*%
X10340000Y88400000D03*
%TO.P,U7,4*%
%TO.N,N/C*%
X7830000Y88400000D03*
%TO.P,U7,5,OUT_5*%
%TO.N,+3.3V*%
X7830000Y86500000D03*
%TD*%
D27*
%TO.P,R36,1*%
%TO.N,GND*%
X43200000Y38375000D03*
%TO.P,R36,2*%
%TO.N,IO13*%
X43200000Y36825000D03*
%TD*%
D17*
%TO.P,C5,1*%
%TO.N,+3.3V*%
X17900000Y85900000D03*
%TO.P,C5,2*%
%TO.N,GND*%
X17900000Y87450000D03*
%TD*%
D33*
%TO.P,D2,1,K_1*%
%TO.N,Net-(D2-K)*%
X45500000Y10650000D03*
%TO.P,D2,2,A_2*%
%TO.N,VBAT_FUSED*%
X45500000Y13950000D03*
%TD*%
D17*
%TO.P,R25,1*%
%TO.N,Net-(U2-MODE)*%
X25600000Y26225000D03*
%TO.P,R25,2*%
%TO.N,GND*%
X25600000Y27775000D03*
%TD*%
%TO.P,R7,1*%
%TO.N,/CC1*%
X9500000Y75725000D03*
%TO.P,R7,2*%
%TO.N,GND*%
X9500000Y77275000D03*
%TD*%
D34*
%TO.P,U1,1,GND_1*%
%TO.N,GND*%
X21500000Y89000000D03*
D35*
X27350000Y81980000D03*
X27350000Y80580000D03*
X28050000Y82680000D03*
X28050000Y81280000D03*
X28050000Y79880000D03*
X28750000Y81980000D03*
X28750000Y80580000D03*
X29450000Y82680000D03*
X29450000Y81280000D03*
X29450000Y79880000D03*
X30150000Y81980000D03*
X30150000Y80580000D03*
D34*
%TO.P,U1,2,3V3_2*%
%TO.N,+3.3V*%
X21500000Y87730000D03*
%TO.P,U1,3,EN_3*%
%TO.N,EN*%
X21500000Y86460000D03*
%TO.P,U1,4,IO4_4*%
%TO.N,IO4*%
X21500000Y85190000D03*
%TO.P,U1,5,IO5_5*%
%TO.N,IO5*%
X21500000Y83920000D03*
%TO.P,U1,6,IO6_6*%
%TO.N,IO6*%
X21500000Y82650000D03*
%TO.P,U1,7,IO7_7*%
%TO.N,IO7*%
X21500000Y81380000D03*
%TO.P,U1,8,IO15_8*%
%TO.N,IO15*%
X21500000Y80110000D03*
%TO.P,U1,9,IO16_9*%
%TO.N,IO16*%
X21500000Y78840000D03*
%TO.P,U1,10,IO17_10*%
%TO.N,IO17*%
X21500000Y77570000D03*
%TO.P,U1,11,IO18_11*%
%TO.N,IO18*%
X21500000Y76300000D03*
%TO.P,U1,12,IO8_12*%
%TO.N,IO8*%
X21500000Y75030000D03*
%TO.P,U1,13,IO19_13*%
%TO.N,D-*%
X21500000Y73760000D03*
%TO.P,U1,14,IO20_14*%
%TO.N,D+*%
X21500000Y72490000D03*
D36*
%TO.P,U1,15,IO3_15*%
%TO.N,IO3*%
X23265000Y71240000D03*
%TO.P,U1,16,IO46_16*%
%TO.N,IO46*%
X24535000Y71240000D03*
%TO.P,U1,17,IO9_17*%
%TO.N,IO9*%
X25805000Y71240000D03*
%TO.P,U1,18,IO10_18*%
%TO.N,IO10*%
X27075000Y71240000D03*
%TO.P,U1,19,IO11_19*%
%TO.N,IO11*%
X28345000Y71240000D03*
%TO.P,U1,20,IO12_20*%
%TO.N,IO12*%
X29615000Y71240000D03*
%TO.P,U1,21,IO13_21*%
%TO.N,IO13*%
X30885000Y71240000D03*
%TO.P,U1,22,IO14_22*%
%TO.N,IO14*%
X32155000Y71240000D03*
%TO.P,U1,23,IO21_23*%
%TO.N,IO21*%
X33425000Y71240000D03*
%TO.P,U1,24,IO47_24*%
%TO.N,IO47*%
X34695000Y71240000D03*
%TO.P,U1,25,IO48_25*%
%TO.N,IO48*%
X35965000Y71240000D03*
%TO.P,U1,26,IO45_26*%
%TO.N,IO45*%
X37235000Y71240000D03*
D34*
%TO.P,U1,27,IO0_27*%
%TO.N,IO0*%
X39000000Y72490000D03*
%TO.P,U1,28,IO35_28*%
%TO.N,unconnected-(U1-IO35-Pad28)*%
X39000000Y73760000D03*
%TO.P,U1,29,IO36_29*%
%TO.N,unconnected-(U1-IO36-Pad29)*%
X39000000Y75030000D03*
%TO.P,U1,30,IO37_30*%
%TO.N,unconnected-(U1-IO37-Pad30)*%
X39000000Y76300000D03*
%TO.P,U1,31,IO38_31*%
%TO.N,IO38*%
X39000000Y77570000D03*
%TO.P,U1,32,IO39_32*%
%TO.N,IO39*%
X39000000Y78840000D03*
%TO.P,U1,33,IO40_33*%
%TO.N,IO40*%
X39000000Y80110000D03*
%TO.P,U1,34,IO41_34*%
%TO.N,IO41*%
X39000000Y81380000D03*
%TO.P,U1,35,IO42_35*%
%TO.N,IO42*%
X39000000Y82650000D03*
%TO.P,U1,36,RXD0_36*%
%TO.N,RXD0*%
X39000000Y83920000D03*
%TO.P,U1,37,TXD0_37*%
%TO.N,TXD0*%
X39000000Y85190000D03*
%TO.P,U1,38,IO2_38*%
%TO.N,IO2*%
X39000000Y86460000D03*
%TO.P,U1,39,IO1_39*%
%TO.N,IO1*%
X39000000Y87730000D03*
%TO.P,U1,40,GND_40*%
%TO.N,GND*%
X39000000Y89000000D03*
D37*
%TO.P,U1,41_1,GND_41_1*%
X28750000Y81280000D03*
%TO.P,U1,41_2,GND_41_2*%
X27350000Y81280000D03*
%TO.P,U1,41_3,GND_41_3*%
X30150000Y81280000D03*
%TO.P,U1,41_4,GND_41_4*%
X27350000Y79880000D03*
%TO.P,U1,41_5,GND_41_5*%
X28750000Y79880000D03*
%TO.P,U1,41_6,GND_41_6*%
X30150000Y79880000D03*
%TO.P,U1,41_7,GND_41_7*%
X27350000Y82680000D03*
%TO.P,U1,41_8,GND_41_8*%
X28750000Y82680000D03*
%TO.P,U1,41_9,GND_41_9*%
X30150000Y82680000D03*
%TD*%
D17*
%TO.P,C22,1*%
%TO.N,+3.3V*%
X19600000Y85900000D03*
%TO.P,C22,2*%
%TO.N,GND*%
X19600000Y87450000D03*
%TD*%
D15*
%TO.P,R35,1*%
%TO.N,GND*%
X29312500Y16500000D03*
%TO.P,R35,2*%
%TO.N,Net-(U2-FB)*%
X30862500Y16500000D03*
%TD*%
D17*
%TO.P,C13,1*%
%TO.N,+5V*%
X10600000Y80725000D03*
%TO.P,C13,2*%
%TO.N,GND*%
X10600000Y82275000D03*
%TD*%
D19*
%TO.P,C28,1*%
%TO.N,+3.3V*%
X16025000Y3540000D03*
%TO.P,C28,2*%
%TO.N,GND*%
X14475000Y3540000D03*
%TD*%
D15*
%TO.P,C30,1*%
%TO.N,VBAT*%
X38204167Y21450000D03*
%TO.P,C30,2*%
%TO.N,GND*%
X39754167Y21450000D03*
%TD*%
D38*
%TO.P,U11,1,GND_1*%
%TO.N,GND*%
X10700000Y5900000D03*
%TO.P,U11,2,V_IO_2*%
%TO.N,+3.3V*%
X12600000Y5900000D03*
%TO.P,U11,3,V_BCKP_3*%
X14500000Y5900000D03*
%TO.P,U11,4,GND_4*%
%TO.N,GND*%
X16400000Y5900000D03*
%TO.P,U11,5,GND_5*%
X18300000Y5900000D03*
D39*
%TO.P,U11,6,GND_6*%
X21100000Y8700000D03*
%TO.P,U11,7,TIMEPULSE_7*%
%TO.N,unconnected-(U11-TIMEPULSE-Pad7)*%
X21100000Y10600000D03*
%TO.P,U11,8,~{SAFEBOOT}_8*%
%TO.N,Net-(U11-~{SAFEBOOT})*%
X21100000Y12500000D03*
%TO.P,U11,9,SDA_9*%
%TO.N,IO8*%
X21100000Y14400000D03*
%TO.P,U11,10,GND_10*%
%TO.N,GND*%
X21100000Y16300000D03*
D38*
%TO.P,U11,11,GND_11*%
X18300000Y19100000D03*
%TO.P,U11,12,SCL_12*%
%TO.N,IO9*%
X16400000Y19100000D03*
%TO.P,U11,13,TXD_13*%
%TO.N,unconnected-(U11-TXD-Pad13)*%
X14500000Y19100000D03*
%TO.P,U11,14,RXD_14*%
%TO.N,unconnected-(U11-RXD-Pad14)*%
X12600000Y19100000D03*
%TO.P,U11,15,GND_15*%
%TO.N,GND*%
X10700000Y19100000D03*
D39*
%TO.P,U11,16,GND_16*%
X7900000Y16300000D03*
%TO.P,U11,17,VCC_17*%
%TO.N,+3.3V*%
X7900000Y14400000D03*
%TO.P,U11,18,~{RESET}_18*%
%TO.N,Net-(U11-~{RESET})*%
X7900000Y12500000D03*
%TO.P,U11,19,EXTINT_19*%
%TO.N,unconnected-(U11-EXTINT-Pad19)*%
X7900000Y10600000D03*
%TO.P,U11,20,GND_20*%
%TO.N,GND*%
X7900000Y8700000D03*
%TD*%
D27*
%TO.P,C18,1*%
%TO.N,EN*%
X48600000Y67825000D03*
%TO.P,C18,2*%
%TO.N,GND*%
X48600000Y66275000D03*
%TD*%
D17*
%TO.P,C44,1*%
%TO.N,5V_SW*%
X47583333Y36000000D03*
%TO.P,C44,2*%
%TO.N,GND*%
X47583333Y37550000D03*
%TD*%
D40*
%TO.P,U12,1,VDDIO_1*%
%TO.N,+3.3V*%
X31087500Y54862500D03*
%TO.P,U12,2,SCK/SCL_2*%
%TO.N,IO9*%
X30587500Y54862500D03*
D41*
%TO.P,U12,3,GND_3*%
%TO.N,GND*%
X30075000Y54600000D03*
%TO.P,U12,4,SDI/SDA_4*%
%TO.N,IO8*%
X30075000Y54100000D03*
%TO.P,U12,5,SDO/ADR_5*%
%TO.N,GND*%
X30075000Y53600000D03*
D40*
%TO.P,U12,6,CSB_6*%
%TO.N,+3.3V*%
X30587500Y53337500D03*
%TO.P,U12,7,INT_7*%
%TO.N,unconnected-(U12-INT-Pad7)*%
X31087500Y53337500D03*
D41*
%TO.P,U12,8,GND_8*%
%TO.N,GND*%
X31600000Y53600000D03*
%TO.P,U12,9,GND_9*%
X31600000Y54100000D03*
%TO.P,U12,10,VDD_10*%
%TO.N,+3.3V*%
X31600000Y54600000D03*
%TD*%
D17*
%TO.P,C36,1*%
%TO.N,GND*%
X28193750Y19825000D03*
%TO.P,C36,2*%
%TO.N,+5V*%
X28193750Y21375000D03*
%TD*%
D42*
%TO.P,J2,1,Pin_1_1*%
%TO.N,VBAT_RAW*%
X55710000Y14890000D03*
%TD*%
D27*
%TO.P,C29,1*%
%TO.N,VBUS*%
X9810000Y70965000D03*
%TO.P,C29,2*%
%TO.N,GND*%
X9810000Y69415000D03*
%TD*%
%TO.P,R32,1*%
%TO.N,Net-(J4-Pin_1)*%
X4600000Y33075000D03*
%TO.P,R32,2*%
%TO.N,IO7*%
X4600000Y31525000D03*
%TD*%
D17*
%TO.P,R14,1*%
%TO.N,+3.3V*%
X26810000Y60910000D03*
%TO.P,R14,2*%
%TO.N,Net-(U4-~{BOOT})*%
X26810000Y62460000D03*
%TD*%
D19*
%TO.P,R29,1*%
%TO.N,+3.3V*%
X24800000Y55975000D03*
%TO.P,R29,2*%
%TO.N,Net-(U4-~{H_CS})*%
X23250000Y55975000D03*
%TD*%
D43*
%TO.P,U6,1,I/O1_1*%
%TO.N,D+*%
X13925000Y72900000D03*
%TO.P,U6,2,GND_2*%
%TO.N,GND*%
X13925000Y73850000D03*
%TO.P,U6,3,I/O2_3*%
%TO.N,D-*%
X13925000Y74800000D03*
%TO.P,U6,4,I/O2_4*%
X11650000Y74800000D03*
%TO.P,U6,5,VBUS_5*%
%TO.N,VBUS*%
X11650000Y73850000D03*
%TO.P,U6,6,I/O1_6*%
%TO.N,D+*%
X11650000Y72900000D03*
%TD*%
D17*
%TO.P,C43,1*%
%TO.N,+5V*%
X43500000Y32525000D03*
%TO.P,C43,2*%
%TO.N,GND*%
X43500000Y34075000D03*
%TD*%
D15*
%TO.P,C12,1*%
%TO.N,GND*%
X9150000Y78820000D03*
%TO.P,C12,2*%
%TO.N,VBUS*%
X10700000Y78820000D03*
%TD*%
%TO.P,R19,1*%
%TO.N,+3.3V*%
X19925000Y65250000D03*
%TO.P,R19,2*%
%TO.N,IO4*%
X21475000Y65250000D03*
%TD*%
D17*
%TO.P,C35,1*%
%TO.N,Net-(U2-FB)*%
X29787500Y19825000D03*
%TO.P,C35,2*%
%TO.N,+5V*%
X29787500Y21375000D03*
%TD*%
D30*
%TO.P,J7,1,Pin_1_1*%
%TO.N,GND*%
X5175000Y54500000D03*
%TO.P,J7,2,Pin_2_2*%
%TO.N,+3.3V*%
X5175000Y53500000D03*
%TO.P,J7,3,Pin_3_3*%
%TO.N,IO8*%
X5175000Y52500000D03*
%TO.P,J7,4,Pin_4_4*%
%TO.N,IO9*%
X5175000Y51500000D03*
D31*
%TO.P,J7,MP*%
%TO.N,N/C*%
X1300000Y55800000D03*
X1300000Y50200000D03*
%TD*%
D28*
%TO.P,J3,1,Pin_1_1*%
%TO.N,Net-(J3-Pin_1)*%
X1800000Y41700000D03*
D29*
%TO.P,J3,2,Pin_2_2*%
%TO.N,+5V*%
X1800000Y44240000D03*
%TO.P,J3,3,Pin_3_3*%
%TO.N,GND*%
X1800000Y46780000D03*
%TD*%
D19*
%TO.P,R34,1*%
%TO.N,Net-(U2-FB)*%
X30837500Y18100000D03*
%TO.P,R34,2*%
%TO.N,+5V*%
X29287500Y18100000D03*
%TD*%
D17*
%TO.P,C14,1*%
%TO.N,5V_LOGIC*%
X12600000Y86625000D03*
%TO.P,C14,2*%
%TO.N,GND*%
X12600000Y88175000D03*
%TD*%
D27*
%TO.P,C46,1*%
%TO.N,Net-(U3-CT)*%
X48850000Y30375000D03*
%TO.P,C46,2*%
%TO.N,GND*%
X48850000Y28825000D03*
%TD*%
D44*
%TO.P,Q2,1*%
%TO.N,VBAT*%
X37457500Y14305000D03*
%TO.P,Q2,2*%
X37457500Y13035000D03*
%TO.P,Q2,3*%
X37457500Y11765000D03*
%TO.P,Q2,4*%
%TO.N,Net-(D2-K)*%
X37457500Y10495000D03*
%TO.P,Q2,5*%
%TO.N,VBAT_FUSED*%
X42407500Y10495000D03*
%TO.P,Q2,6*%
X42407500Y11765000D03*
%TO.P,Q2,7*%
X42407500Y13035000D03*
%TO.P,Q2,8*%
X42407500Y14305000D03*
%TD*%
D28*
%TO.P,J4,1,Pin_1_1*%
%TO.N,Net-(J4-Pin_1)*%
X1800000Y32620000D03*
D29*
%TO.P,J4,2,Pin_2_2*%
%TO.N,+5V*%
X1800000Y35160000D03*
%TO.P,J4,3,Pin_3_3*%
%TO.N,GND*%
X1800000Y37700000D03*
%TD*%
D16*
%TO.P,SW2,1,1_1*%
%TO.N,Net-(R10-Pad1)*%
X50710000Y60250000D03*
X58670000Y60250000D03*
%TO.P,SW2,2,2_2*%
%TO.N,GND*%
X50710000Y55750000D03*
X58670000Y55750000D03*
%TD*%
D45*
%TO.P,L1,1,1_1*%
%TO.N,Net-(U2-SW1)*%
X31275000Y33100000D03*
%TO.P,L1,2,2_2*%
%TO.N,+5V*%
X38925000Y33100000D03*
%TD*%
D15*
%TO.P,C33,1*%
%TO.N,Net-(U2-BP5)*%
X29625000Y25000000D03*
%TO.P,C33,2*%
%TO.N,GND*%
X31175000Y25000000D03*
%TD*%
%TO.P,C32,1*%
%TO.N,VBAT*%
X38212500Y16500000D03*
%TO.P,C32,2*%
%TO.N,GND*%
X39762500Y16500000D03*
%TD*%
%TO.P,C16,1*%
%TO.N,GND*%
X6330000Y84800000D03*
%TO.P,C16,2*%
%TO.N,+3.3V*%
X7880000Y84800000D03*
%TD*%
D17*
%TO.P,C42,1*%
%TO.N,+5V*%
X41900000Y32525000D03*
%TO.P,C42,2*%
%TO.N,GND*%
X41900000Y34075000D03*
%TD*%
D46*
%TO.P,J1,A1,GND_A1*%
%TO.N,GND*%
X7505000Y76560000D03*
%TO.P,J1,A4,VBUS_A4*%
%TO.N,VBUS*%
X7505000Y75760000D03*
D47*
%TO.P,J1,A5,CC1_A5*%
%TO.N,/CC1*%
X7505000Y74610000D03*
%TO.P,J1,A6,D+_A6*%
%TO.N,D+*%
X7505000Y73610000D03*
%TO.P,J1,A7,D-_A7*%
%TO.N,D-*%
X7505000Y73110000D03*
%TO.P,J1,A8,SBU1_A8*%
%TO.N,unconnected-(J1-SBU1-PadA8)*%
X7505000Y72110000D03*
D46*
%TO.P,J1,A9,VBUS_A9*%
%TO.N,VBUS*%
X7505000Y70960000D03*
%TO.P,J1,A12,GND_A12*%
%TO.N,GND*%
X7505000Y70160000D03*
%TO.P,J1,B1,GND_B1*%
X7505000Y70160000D03*
%TO.P,J1,B4,VBUS_B4*%
%TO.N,VBUS*%
X7505000Y70960000D03*
D47*
%TO.P,J1,B5,CC2_B5*%
%TO.N,/CC2*%
X7505000Y71610000D03*
%TO.P,J1,B6,D+_B6*%
%TO.N,D+*%
X7505000Y72610000D03*
%TO.P,J1,B7,D-_B7*%
%TO.N,D-*%
X7505000Y74110000D03*
%TO.P,J1,B8,SBU2_B8*%
%TO.N,unconnected-(J1-SBU2-PadB8)*%
X7505000Y75110000D03*
D46*
%TO.P,J1,B9,VBUS_B9*%
%TO.N,VBUS*%
X7505000Y75760000D03*
%TO.P,J1,B12,GND_B12*%
%TO.N,GND*%
X7505000Y76560000D03*
D48*
%TO.P,J1,SH,SHIELD_SH*%
X6930000Y78470000D03*
X3000000Y78470000D03*
X6930000Y68250000D03*
X3000000Y68250000D03*
%TD*%
D19*
%TO.P,C15,1*%
%TO.N,GND*%
X11220000Y84790000D03*
%TO.P,C15,2*%
%TO.N,5V_LOGIC*%
X9670000Y84790000D03*
%TD*%
D49*
%TO.P,TP1,1,1_1*%
%TO.N,5V_SW*%
X58300000Y24000000D03*
%TD*%
D50*
%TO.P,J11,1,Pin_1_1*%
%TO.N,IO17*%
X53050000Y39900000D03*
D51*
%TO.P,J11,2,Pin_2_2*%
%TO.N,IO18*%
X53050000Y41900000D03*
%TO.P,J11,3,Pin_3_3*%
%TO.N,GND*%
X53050000Y43900000D03*
%TD*%
D42*
%TO.P,J9,1,Pin_1_1*%
%TO.N,GND*%
X55710000Y10240000D03*
%TD*%
D27*
%TO.P,R8,1*%
%TO.N,/CC2*%
X11540000Y70965000D03*
%TO.P,R8,2*%
%TO.N,GND*%
X11540000Y69415000D03*
%TD*%
%TO.P,R17,1*%
%TO.N,+3.3V*%
X18840000Y62715000D03*
%TO.P,R17,2*%
%TO.N,IO9*%
X18840000Y61165000D03*
%TD*%
D28*
%TO.P,J10,1,Pin_1_1*%
%TO.N,GND*%
X54260000Y77140000D03*
D29*
%TO.P,J10,2,Pin_2_2*%
%TO.N,IO38*%
X56800000Y77140000D03*
%TO.P,J10,3,Pin_3_3*%
%TO.N,IO39*%
X54260000Y74600000D03*
%TO.P,J10,4,Pin_4_4*%
%TO.N,IO40*%
X56800000Y74600000D03*
%TO.P,J10,5,Pin_5_5*%
%TO.N,IO41*%
X54260000Y72060000D03*
%TO.P,J10,6,Pin_6_6*%
%TO.N,+3.3V*%
X56800000Y72060000D03*
%TD*%
D52*
%TO.P,D1,1,K_1*%
%TO.N,Net-(D1-K)*%
X45175000Y82150000D03*
%TO.P,D1,2,A_2*%
%TO.N,GND*%
X47050000Y82150000D03*
%TD*%
D17*
%TO.P,R31,1*%
%TO.N,Net-(D1-K)*%
X41700000Y82525000D03*
%TO.P,R31,2*%
%TO.N,IO42*%
X41700000Y84075000D03*
%TD*%
D53*
%TO.P,C2,1*%
%TO.N,+5V*%
X9400000Y35600000D03*
%TO.P,C2,2*%
%TO.N,GND*%
X17400000Y35600000D03*
%TD*%
D15*
%TO.P,C20,1*%
%TO.N,Net-(U4-CAP)*%
X24520000Y65180000D03*
%TO.P,C20,2*%
%TO.N,GND*%
X26070000Y65180000D03*
%TD*%
%TO.P,R22,1*%
%TO.N,VBAT*%
X38200000Y26350000D03*
%TO.P,R22,2*%
%TO.N,IO1*%
X39750000Y26350000D03*
%TD*%
D54*
%TO.P,U3,1,VIN_1_1*%
%TO.N,+5V*%
X45615000Y33650000D03*
%TO.P,U3,2,VIN_2_2*%
X45615000Y33150000D03*
%TO.P,U3,3,ON_3*%
%TO.N,IO13*%
X45615000Y32650000D03*
%TO.P,U3,4,VBIAS_4*%
%TO.N,+5V*%
X45615000Y32150000D03*
%TO.P,U3,5,GND_5*%
%TO.N,GND*%
X47585000Y32150000D03*
%TO.P,U3,6,CT_6*%
%TO.N,Net-(U3-CT)*%
X47585000Y32650000D03*
%TO.P,U3,7,VOUT_7_7*%
%TO.N,5V_SW*%
X47585000Y33150000D03*
%TO.P,U3,8,VOUT_8_8*%
X47585000Y33650000D03*
D35*
%TO.P,U3,9,EXP_9*%
%TO.N,GND*%
X46600000Y33450000D03*
D55*
X46600000Y32900000D03*
D35*
X46600000Y32350000D03*
%TD*%
D50*
%TO.P,J8,1,Pin_1_1*%
%TO.N,5V_SW*%
X53050000Y28500000D03*
D51*
%TO.P,J8,2,Pin_2_2*%
X53050000Y30500000D03*
%TO.P,J8,3,Pin_3_3*%
%TO.N,GND*%
X53050000Y32500000D03*
%TO.P,J8,4,Pin_4_4*%
X53050000Y34500000D03*
%TD*%
D56*
%TO.N,GND*%
X24000000Y21000000D03*
%TO.N,+5V*%
X24250000Y25000000D03*
%TO.N,GND*%
X30000000Y26500000D03*
X33750000Y53250000D03*
X41225000Y26325000D03*
D57*
X37250000Y89000000D03*
D56*
X53000000Y11570000D03*
X45000000Y26600000D03*
X41225000Y18012500D03*
X7250000Y63500000D03*
X55755000Y7480000D03*
D57*
X32400000Y18000000D03*
D56*
X29250000Y14750000D03*
D57*
X6500000Y66200000D03*
D56*
X27500000Y53500000D03*
X41225000Y16350000D03*
X9840000Y67780000D03*
D57*
X3490000Y80570000D03*
X2480000Y80570000D03*
D56*
X33280000Y50280000D03*
X45750000Y64500000D03*
D57*
X7500000Y66200000D03*
X9090000Y79710000D03*
D56*
X43200000Y40200000D03*
X53000000Y8860000D03*
D57*
X23250000Y89000000D03*
D56*
X35200000Y7000000D03*
X49200000Y38800000D03*
X53000000Y10215000D03*
X4600000Y84000000D03*
X12200000Y82300000D03*
X20400000Y34800000D03*
X14300000Y88200000D03*
X23600000Y27800000D03*
X29500000Y56500000D03*
X41225000Y24662500D03*
D57*
X35400000Y17800000D03*
D56*
X41225000Y19675000D03*
X43150000Y89000000D03*
D57*
X48350000Y81550000D03*
D56*
X48500000Y56000000D03*
X46000000Y38800000D03*
X20400000Y36600000D03*
X10750000Y21780000D03*
D57*
X2470000Y66200000D03*
D56*
X41500000Y89050000D03*
D57*
X48350000Y82750000D03*
D56*
X54400000Y7480000D03*
X19600000Y88900000D03*
X17900000Y88900000D03*
X11540000Y67700000D03*
X48500000Y63500000D03*
D57*
X3480000Y66200000D03*
X26400000Y63600000D03*
D56*
X33440000Y51880000D03*
D57*
X15250000Y73750000D03*
D56*
X12800000Y3500000D03*
X41225000Y21337500D03*
X42000000Y35200000D03*
D57*
X36800000Y21200000D03*
D56*
X7250000Y55000000D03*
X47600000Y38800000D03*
X9410000Y3320000D03*
X21050000Y59125000D03*
X27600000Y65190000D03*
X43400000Y35200000D03*
X41225000Y23000000D03*
D57*
X6510000Y80570000D03*
D56*
X57110000Y7480000D03*
X48800000Y27200000D03*
X12510000Y83430000D03*
D57*
X7510000Y80570000D03*
D56*
X12800000Y1800000D03*
%TO.N,+3.3V*%
X28000000Y50500000D03*
X26500000Y55975000D03*
X33000000Y55000000D03*
D57*
X6200000Y87600000D03*
D56*
X21140000Y68710000D03*
X47250000Y64200000D03*
X25570000Y13950000D03*
D57*
X21560000Y66520000D03*
D56*
X7250000Y62000000D03*
X28320000Y60770000D03*
X18850000Y56630000D03*
D57*
X16000000Y88600000D03*
X22800000Y87700000D03*
D56*
X7500000Y53500000D03*
D58*
%TO.N,IO5*%
X26000000Y78400000D03*
X25200000Y66600000D03*
D57*
%TO.N,IO4*%
X25150000Y84230000D03*
X24174975Y67935025D03*
%TO.N,Net-(U4-~{H_CS})*%
X21870000Y57780000D03*
X21450000Y61587500D03*
D56*
%TO.N,IO9*%
X16200000Y59800000D03*
D57*
X17700000Y61100000D03*
X2500000Y53000000D03*
D56*
X7250000Y59750000D03*
%TO.N,IO8*%
X24000000Y74250000D03*
D57*
X17025000Y63775000D03*
D56*
%TO.N,EN*%
X41400000Y74600000D03*
X36900000Y78900000D03*
D57*
%TO.N,+5V*%
X7270000Y82380000D03*
X4695000Y44775000D03*
D56*
X42000000Y28600000D03*
D57*
X45600000Y34800000D03*
D56*
X27750000Y18100000D03*
X43600000Y29800000D03*
X42000000Y29800000D03*
X6500000Y36250000D03*
X6500000Y34750000D03*
X42000000Y31000000D03*
X43600000Y31000000D03*
D57*
%TO.N,VBUS*%
X10200000Y73900000D03*
X10700000Y76400000D03*
X4900000Y73900000D03*
D58*
%TO.N,Net-(U2-MODE)*%
X26800000Y24600000D03*
X31600000Y20800000D03*
D57*
%TO.N,Net-(U2-BP5)*%
X27600000Y23000000D03*
X32600000Y16800000D03*
%TO.N,5V_LOGIC*%
X9600000Y83040000D03*
X9100000Y80700000D03*
D56*
%TO.N,IO15*%
X6250000Y23250000D03*
X19500000Y78250000D03*
D57*
%TO.N,IO1*%
X45650000Y86870000D03*
D56*
X43200000Y26400000D03*
%TO.N,IO6*%
X18480000Y81350000D03*
X6000000Y41250000D03*
%TO.N,IO7*%
X19000000Y79500000D03*
X6500000Y31750000D03*
D57*
%TO.N,IO17*%
X40770000Y56200000D03*
X32840000Y75070000D03*
%TO.N,IO18*%
X27330000Y76270000D03*
X42050000Y57000000D03*
%TO.N,IO39*%
X48300000Y78400000D03*
X49100000Y76400000D03*
%TO.N,IO41*%
X41900000Y80810000D03*
X43400000Y76800000D03*
%TD*%
%TO.N,GND*%
D59*
X25175000Y19825000D02*
X24000000Y21000000D01*
X26600000Y19825000D02*
X25175000Y19825000D01*
%TO.N,+5V*%
X24200000Y24950000D02*
X24250000Y25000000D01*
X24200000Y22400000D02*
X24200000Y24950000D01*
X25225000Y21375000D02*
X24200000Y22400000D01*
X26600000Y21375000D02*
X25225000Y21375000D01*
%TO.N,GND*%
X30100000Y26400000D02*
X30000000Y26500000D01*
X30200000Y26400000D02*
X30100000Y26400000D01*
D60*
X33550000Y53250000D02*
X33750000Y53250000D01*
X32700000Y54100000D02*
X33550000Y53250000D01*
X31600000Y54100000D02*
X32700000Y54100000D01*
%TO.N,IO15*%
X19800000Y78550000D02*
X19800000Y79300000D01*
X19500000Y78250000D02*
X19800000Y78550000D01*
%TO.N,IO4*%
D61*
X21760000Y68010000D02*
X20750000Y67000000D01*
X20750000Y67000000D02*
X20750000Y65975000D01*
X24100000Y68010000D02*
X21760000Y68010000D01*
X24174975Y67935025D02*
X24100000Y68010000D01*
X20750000Y65975000D02*
X21475000Y65250000D01*
%TO.N,GND*%
D60*
X27590000Y65180000D02*
X27600000Y65190000D01*
X20137500Y62287500D02*
X22487500Y62287500D01*
X23275000Y59075000D02*
X21100000Y59075000D01*
D59*
X43150000Y87625000D02*
X43150000Y89000000D01*
D61*
X14800000Y79560000D02*
X13725000Y79560000D01*
D59*
X9810000Y69415000D02*
X9810000Y67810000D01*
X45000000Y28400000D02*
X45000000Y26600000D01*
D60*
X17570000Y10840000D02*
X19710000Y8700000D01*
D59*
X33260000Y50300000D02*
X33280000Y50280000D01*
D61*
X13725000Y79560000D02*
X13400000Y79885000D01*
D59*
X35700000Y21100000D02*
X36700000Y21100000D01*
X50700000Y63000000D02*
X49000000Y63000000D01*
D60*
X31600000Y54100000D02*
X31600000Y53600000D01*
D59*
X21500000Y89000000D02*
X23250000Y89000000D01*
X12510000Y83430000D02*
X11760000Y83430000D01*
D60*
X5175000Y54500000D02*
X6750000Y54500000D01*
D59*
X17900000Y87450000D02*
X17900000Y88900000D01*
X11875000Y87450000D02*
X12600000Y88175000D01*
D60*
X12840000Y16610000D02*
X17010000Y16610000D01*
X9400000Y8700000D02*
X10700000Y7400000D01*
D59*
X35250000Y8700000D02*
X35250000Y7050000D01*
X14475000Y3540000D02*
X12840000Y3540000D01*
X31550000Y50300000D02*
X33260000Y50300000D01*
D60*
X22487500Y62287500D02*
X22700000Y62500000D01*
D59*
X31580000Y51950000D02*
X33370000Y51950000D01*
D60*
X10700000Y19100000D02*
X10700000Y21730000D01*
D59*
X29312500Y16500000D02*
X29312500Y14812500D01*
D60*
X32500000Y19300000D02*
X32500000Y18100000D01*
X9545000Y78820000D02*
X9545000Y79255000D01*
X17010000Y16610000D02*
X18300000Y17900000D01*
D59*
X48850000Y27250000D02*
X48800000Y27200000D01*
D60*
X17570000Y13220000D02*
X17570000Y10840000D01*
X21100000Y16300000D02*
X19490000Y16300000D01*
D59*
X48600000Y63600000D02*
X48500000Y63500000D01*
D60*
X21100000Y7000000D02*
X21100000Y8700000D01*
X18300000Y5900000D02*
X20000000Y5900000D01*
X15150000Y73850000D02*
X15250000Y73750000D01*
D59*
X45350000Y64900000D02*
X45750000Y64500000D01*
D60*
X46800000Y32150000D02*
X47585000Y32150000D01*
D61*
X12000000Y80860000D02*
X12425000Y80860000D01*
D60*
X23275000Y57525000D02*
X23275000Y59075000D01*
D59*
X12600000Y88175000D02*
X14275000Y88175000D01*
D60*
X9545000Y79255000D02*
X9090000Y79710000D01*
D61*
X15525000Y79825000D02*
X16200000Y79825000D01*
D59*
X41550000Y89000000D02*
X41500000Y89050000D01*
D60*
X6550000Y62800000D02*
X7250000Y63500000D01*
D59*
X31175000Y25000000D02*
X31175000Y25425000D01*
D60*
X30075000Y55925000D02*
X29500000Y56500000D01*
D59*
X58670000Y55750000D02*
X50710000Y55750000D01*
X36700000Y21100000D02*
X36800000Y21200000D01*
X48750000Y55750000D02*
X48500000Y56000000D01*
D60*
X10700000Y17210000D02*
X9790000Y16300000D01*
X10700000Y19100000D02*
X10700000Y18750000D01*
D59*
X31175000Y25425000D02*
X30200000Y26400000D01*
D60*
X27600000Y53600000D02*
X27500000Y53500000D01*
D61*
X15260000Y79560000D02*
X15525000Y79825000D01*
D59*
X9810000Y67810000D02*
X9840000Y67780000D01*
D61*
X14800000Y79560000D02*
X15260000Y79560000D01*
D60*
X21100000Y59075000D02*
X21050000Y59125000D01*
X20650000Y16300000D02*
X17570000Y13220000D01*
X7900000Y8700000D02*
X9400000Y8700000D01*
X8975000Y77275000D02*
X9500000Y77275000D01*
X19490000Y16300000D02*
X18300000Y17490000D01*
D59*
X12840000Y3540000D02*
X12800000Y3500000D01*
X39000000Y89000000D02*
X37250000Y89000000D01*
X19600000Y87450000D02*
X19600000Y88900000D01*
D60*
X23200000Y60475000D02*
X23200000Y59150000D01*
X24762500Y61287500D02*
X23487500Y61287500D01*
D59*
X23625000Y27775000D02*
X23600000Y27800000D01*
X45350000Y66275000D02*
X45350000Y64900000D01*
D60*
X21100000Y16300000D02*
X20650000Y16300000D01*
X26070000Y65180000D02*
X27590000Y65180000D01*
X10700000Y18750000D02*
X12840000Y16610000D01*
D59*
X35700000Y18100000D02*
X35400000Y17800000D01*
X14275000Y88175000D02*
X14300000Y88200000D01*
X27200000Y27775000D02*
X25600000Y27775000D01*
X12860000Y1740000D02*
X12800000Y1800000D01*
D60*
X16400000Y5900000D02*
X18300000Y5900000D01*
X8260000Y76560000D02*
X8975000Y77275000D01*
X22987500Y62787500D02*
X22700000Y62500000D01*
D59*
X41550000Y87625000D02*
X41550000Y89000000D01*
X28193750Y19825000D02*
X26600000Y19825000D01*
X10340000Y87450000D02*
X11875000Y87450000D01*
D60*
X22700000Y62500000D02*
X22700000Y63600000D01*
X13925000Y73850000D02*
X15150000Y73850000D01*
X24762500Y62787500D02*
X22987500Y62787500D01*
X6750000Y54500000D02*
X7250000Y55000000D01*
X20000000Y5900000D02*
X21100000Y7000000D01*
D59*
X50710000Y55750000D02*
X48750000Y55750000D01*
D60*
X23200000Y60475000D02*
X23200000Y61000000D01*
X24700000Y62850000D02*
X24762500Y62787500D01*
X10700000Y4610000D02*
X9410000Y3320000D01*
X18300000Y17490000D02*
X18300000Y19100000D01*
X10700000Y7400000D02*
X10700000Y5900000D01*
X24700000Y63600000D02*
X26400000Y63600000D01*
X23487500Y61287500D02*
X22487500Y62287500D01*
D59*
X49000000Y63000000D02*
X48500000Y63500000D01*
X33370000Y51950000D02*
X33440000Y51880000D01*
D60*
X10700000Y21730000D02*
X10750000Y21780000D01*
X46600000Y32350000D02*
X46800000Y32150000D01*
X10700000Y5900000D02*
X10700000Y4610000D01*
X7505000Y68825000D02*
X6930000Y68250000D01*
D59*
X11540000Y69415000D02*
X11540000Y67700000D01*
D60*
X19710000Y8700000D02*
X21100000Y8700000D01*
D59*
X29312500Y14812500D02*
X29250000Y14750000D01*
X6330000Y84800000D02*
X5400000Y84800000D01*
D60*
X32500000Y18100000D02*
X32400000Y18000000D01*
X18300000Y17900000D02*
X18300000Y19100000D01*
D61*
X10600000Y82275000D02*
X12175000Y82275000D01*
D60*
X23200000Y59150000D02*
X23275000Y59075000D01*
D59*
X48600000Y66275000D02*
X48600000Y63600000D01*
D60*
X7505000Y70160000D02*
X7505000Y68825000D01*
D59*
X14450000Y1740000D02*
X12860000Y1740000D01*
D60*
X7505000Y76560000D02*
X7505000Y77895000D01*
X22700000Y60475000D02*
X22960000Y60475000D01*
X30075000Y54600000D02*
X30075000Y55925000D01*
X23200000Y61000000D02*
X23487500Y61287500D01*
X9790000Y16300000D02*
X7900000Y16300000D01*
X7505000Y77895000D02*
X6930000Y78470000D01*
X5175000Y62800000D02*
X6550000Y62800000D01*
D59*
X50700000Y63000000D02*
X58660000Y63000000D01*
D60*
X30075000Y53600000D02*
X27600000Y53600000D01*
X24700000Y63600000D02*
X24700000Y62850000D01*
X7505000Y76560000D02*
X8260000Y76560000D01*
D59*
X35250000Y7050000D02*
X35200000Y7000000D01*
D60*
X10700000Y19100000D02*
X10700000Y17210000D01*
D59*
X35700000Y19500000D02*
X35700000Y18100000D01*
X25600000Y27775000D02*
X23625000Y27775000D01*
D61*
X12175000Y82275000D02*
X12200000Y82300000D01*
D59*
X11760000Y83430000D02*
X11220000Y83970000D01*
D60*
X22960000Y60475000D02*
X23200000Y60475000D01*
D59*
X43200000Y38375000D02*
X43200000Y40200000D01*
X48850000Y28825000D02*
X48850000Y27250000D01*
D61*
X12425000Y80860000D02*
X13400000Y79885000D01*
D59*
X11220000Y83970000D02*
X11220000Y84790000D01*
X5400000Y84800000D02*
X4600000Y84000000D01*
%TO.N,+3.3V*%
D61*
X7900000Y14400000D02*
X9000000Y14400000D01*
X5550000Y14400000D02*
X5500000Y14450000D01*
D60*
X18840000Y62715000D02*
X18840000Y63370000D01*
D59*
X16600000Y85900000D02*
X17900000Y85900000D01*
D60*
X24825000Y59075000D02*
X24825000Y56000000D01*
X31337500Y54862500D02*
X31600000Y54600000D01*
X26110000Y60910000D02*
X26810000Y60910000D01*
D61*
X30030000Y51950000D02*
X30030000Y50330000D01*
D60*
X19925000Y64900000D02*
X19925000Y67495000D01*
X14500000Y5100000D02*
X14500000Y5900000D01*
X18820000Y58110000D02*
X18820000Y56660000D01*
X24200000Y59700000D02*
X24200000Y60475000D01*
D61*
X30030000Y52780000D02*
X30030000Y51950000D01*
D59*
X7300000Y86500000D02*
X6200000Y87600000D01*
X7830000Y86500000D02*
X7300000Y86500000D01*
D60*
X16000000Y3515000D02*
X16025000Y3540000D01*
X19600000Y86226304D02*
X19600000Y85900000D01*
X21495000Y87735000D02*
X21500000Y87730000D01*
X25570000Y13670000D02*
X25075000Y13175000D01*
D59*
X47000000Y64450000D02*
X47250000Y64200000D01*
D60*
X25570000Y13950000D02*
X25570000Y13670000D01*
X18840000Y63370000D02*
X19925000Y64455000D01*
X5175000Y53500000D02*
X7500000Y53500000D01*
X22980000Y66980000D02*
X22020000Y66980000D01*
D59*
X7880000Y84800000D02*
X7880000Y86450000D01*
D60*
X18820000Y56660000D02*
X18850000Y56630000D01*
D61*
X14500000Y5065000D02*
X14500000Y5900000D01*
D60*
X25075000Y12200000D02*
X25075000Y6275000D01*
X24825000Y56000000D02*
X24800000Y55975000D01*
X16025000Y3575000D02*
X14500000Y5100000D01*
X5175000Y61800000D02*
X7050000Y61800000D01*
D59*
X7880000Y86450000D02*
X7830000Y86500000D01*
D60*
X21103696Y87730000D02*
X19600000Y86226304D01*
X31087500Y54862500D02*
X31337500Y54862500D01*
D61*
X7900000Y14400000D02*
X7475000Y14825000D01*
D60*
X31600000Y54600000D02*
X32600000Y54600000D01*
D61*
X7900000Y14400000D02*
X5550000Y14400000D01*
X30000000Y50300000D02*
X28200000Y50300000D01*
D60*
X16000000Y1740000D02*
X16000000Y3515000D01*
D61*
X9000000Y14400000D02*
X12600000Y10800000D01*
D60*
X7050000Y61800000D02*
X7250000Y62000000D01*
D61*
X30587500Y53337500D02*
X30030000Y52780000D01*
D60*
X19925000Y67495000D02*
X21140000Y68710000D01*
D61*
X28200000Y50300000D02*
X28000000Y50500000D01*
D59*
X17900000Y85900000D02*
X19600000Y85900000D01*
D60*
X20540000Y1740000D02*
X16000000Y1740000D01*
X21500000Y87730000D02*
X21103696Y87730000D01*
X26810000Y60910000D02*
X28180000Y60910000D01*
X24762500Y61787500D02*
X25232500Y61787500D01*
D61*
X30030000Y50330000D02*
X30000000Y50300000D01*
D60*
X25232500Y61787500D02*
X26110000Y60910000D01*
X25075000Y6275000D02*
X20540000Y1740000D01*
X14830000Y5570000D02*
X14500000Y5900000D01*
X32600000Y54600000D02*
X33000000Y55000000D01*
X24800000Y55975000D02*
X26500000Y55975000D01*
X25075000Y13175000D02*
X25075000Y12200000D01*
X14500000Y5900000D02*
X12600000Y5900000D01*
X22020000Y66980000D02*
X21560000Y66520000D01*
D59*
X16000000Y88600000D02*
X16000000Y86500000D01*
D60*
X19925000Y64455000D02*
X19925000Y64900000D01*
D59*
X47000000Y66275000D02*
X47000000Y64450000D01*
D60*
X16025000Y3540000D02*
X16025000Y3575000D01*
X24825000Y59075000D02*
X24200000Y59700000D01*
D59*
X16000000Y86500000D02*
X16600000Y85900000D01*
D60*
X28180000Y60910000D02*
X28320000Y60770000D01*
D61*
X12600000Y10800000D02*
X12600000Y5900000D01*
%TO.N,Net-(U4-~{BOOT})*%
D60*
X24762500Y62287500D02*
X25547500Y62287500D01*
X25720000Y62460000D02*
X26810000Y62460000D01*
X25547500Y62287500D02*
X25720000Y62460000D01*
%TO.N,Net-(U4-CAP)*%
X23200000Y63600000D02*
X23200000Y64100000D01*
X24280000Y65180000D02*
X24520000Y65180000D01*
X23200000Y64100000D02*
X24280000Y65180000D01*
%TO.N,IO5*%
X22980000Y65430000D02*
X23070000Y65430000D01*
X26000000Y80000000D02*
X22080000Y83920000D01*
X22980000Y64700000D02*
X22980000Y65430000D01*
X22477500Y64440000D02*
X22720000Y64440000D01*
X22080000Y83920000D02*
X21500000Y83920000D01*
X22200000Y64162500D02*
X22477500Y64440000D01*
X23070000Y65430000D02*
X24070000Y66430000D01*
X22200000Y63600000D02*
X22200000Y64162500D01*
X25030000Y66430000D02*
X25200000Y66600000D01*
X26000000Y78400000D02*
X26000000Y80000000D01*
X22720000Y64440000D02*
X22980000Y64700000D01*
X24070000Y66430000D02*
X25030000Y66430000D01*
%TO.N,IO4*%
X20700000Y64125000D02*
X20700000Y63600000D01*
D61*
X24190000Y85190000D02*
X21500000Y85190000D01*
D60*
X21475000Y64900000D02*
X20700000Y64125000D01*
D61*
X20700000Y63600000D02*
X20700000Y64010000D01*
X25150000Y84230000D02*
X24190000Y85190000D01*
%TO.N,Net-(U4-~{H_CS})*%
D60*
X22300000Y55975000D02*
X21850000Y56425000D01*
X21850000Y56425000D02*
X21850000Y57760000D01*
D61*
X21250000Y61787500D02*
X21450000Y61587500D01*
D60*
X23250000Y55975000D02*
X22300000Y55975000D01*
D61*
X20137500Y61787500D02*
X21250000Y61787500D01*
D60*
X21850000Y57760000D02*
X21870000Y57780000D01*
%TO.N,IO9*%
X25415000Y69810000D02*
X25805000Y70200000D01*
X7200000Y59800000D02*
X7250000Y59750000D01*
D61*
X24480000Y38890000D02*
X20920000Y42450000D01*
D60*
X7250000Y59750000D02*
X16250000Y59750000D01*
X20112500Y61312500D02*
X20137500Y61287500D01*
D61*
X24480000Y35510000D02*
X24480000Y38890000D01*
D60*
X30587500Y56812500D02*
X29200000Y58200000D01*
X25805000Y69595000D02*
X25805000Y70200000D01*
X29200000Y66200000D02*
X25805000Y69595000D01*
X18962500Y61287500D02*
X20137500Y61287500D01*
X25805000Y70200000D02*
X25805000Y71240000D01*
X18840000Y61165000D02*
X18962500Y61287500D01*
X5175000Y59800000D02*
X7200000Y59800000D01*
X18800000Y67750000D02*
X20860000Y69810000D01*
X17700000Y61100000D02*
X18775000Y61100000D01*
D61*
X16400000Y19100000D02*
X16400000Y27430000D01*
D60*
X16250000Y59750000D02*
X16200000Y59800000D01*
D61*
X14225000Y42450000D02*
X5175000Y51500000D01*
X16400000Y27430000D02*
X24480000Y35510000D01*
D60*
X30587500Y54862500D02*
X30587500Y56812500D01*
X17800000Y63200000D02*
X18800000Y64200000D01*
X20860000Y69810000D02*
X25415000Y69810000D01*
X29200000Y58200000D02*
X29200000Y66200000D01*
D61*
X20920000Y42450000D02*
X14225000Y42450000D01*
D60*
X17800000Y61200000D02*
X17800000Y63200000D01*
X4000000Y51500000D02*
X2500000Y53000000D01*
X18775000Y61100000D02*
X18840000Y61165000D01*
X18800000Y64200000D02*
X18800000Y67750000D01*
X5175000Y51500000D02*
X4000000Y51500000D01*
%TO.N,IO8*%
X21000000Y55000000D02*
X20200000Y55800000D01*
X3500000Y53400001D02*
X3500000Y59899999D01*
X24250000Y15250000D02*
X23400000Y14400000D01*
X13750000Y45500000D02*
X20000000Y45500000D01*
X17750000Y26250000D02*
X17750000Y23750000D01*
X21500000Y75030000D02*
X23220000Y75030000D01*
X26250000Y39250000D02*
X26250000Y34750000D01*
X17800000Y59770000D02*
X19495000Y59770000D01*
X23400000Y14400000D02*
X21100000Y14400000D01*
X20250000Y21250000D02*
X22250000Y21250000D01*
X4400001Y52500000D02*
X3500000Y53400001D01*
X24250000Y19250000D02*
X24250000Y15250000D01*
X5175000Y52500000D02*
X4400001Y52500000D01*
X29612500Y54100000D02*
X28712500Y55000000D01*
X28712500Y55000000D02*
X21000000Y55000000D01*
X22250000Y21250000D02*
X24250000Y19250000D01*
X5175000Y60800000D02*
X16250000Y60800000D01*
X23220000Y75030000D02*
X24000000Y74250000D01*
X17480000Y59770000D02*
X17740000Y59770000D01*
X16450000Y60800000D02*
X17480000Y59770000D01*
X17000000Y61550000D02*
X16250000Y60800000D01*
X20000000Y45500000D02*
X26250000Y39250000D01*
X26250000Y34750000D02*
X17750000Y26250000D01*
X20200000Y55800000D02*
X20200000Y60475000D01*
X5175000Y52500000D02*
X6750000Y52500000D01*
X4400001Y60800000D02*
X5175000Y60800000D01*
X19495000Y59770000D02*
X20200000Y60475000D01*
X17750000Y23750000D02*
X20250000Y21250000D01*
X6750000Y52500000D02*
X13750000Y45500000D01*
X3500000Y59899999D02*
X4400001Y60800000D01*
X17000000Y63750000D02*
X17000000Y61550000D01*
X16250000Y60800000D02*
X16450000Y60800000D01*
X30075000Y54100000D02*
X29612500Y54100000D01*
%TO.N,Net-(U2-BOOT)*%
D61*
X33200000Y22425000D02*
X33200000Y23750000D01*
X33399400Y22225600D02*
X33200000Y22425000D01*
X33399400Y21462600D02*
X33399400Y22225600D01*
X33200000Y23750000D02*
X33250000Y23800000D01*
%TO.N,Net-(U2-SW1)*%
X34500000Y23100000D02*
X34500000Y23250000D01*
X33900100Y21462600D02*
X33900100Y22500100D01*
X33900100Y22500100D02*
X34500000Y23100000D01*
D62*
X31275000Y33100000D02*
X31275000Y28925000D01*
D61*
X33900100Y20699900D02*
X34300000Y20300000D01*
X33900100Y21462600D02*
X33900100Y20699900D01*
X34300000Y20300000D02*
X35012500Y20300000D01*
D62*
X31275000Y28925000D02*
X34500000Y25700000D01*
X34500000Y25700000D02*
X34500000Y23250000D01*
%TO.N,VBAT*%
X37457500Y15745000D02*
X38212500Y16500000D01*
D60*
X34675000Y22325000D02*
X37329167Y22325000D01*
D62*
X38212500Y16500000D02*
X38212500Y26337500D01*
X38212500Y26337500D02*
X38200000Y26350000D01*
D60*
X37329167Y22325000D02*
X38204167Y21450000D01*
X34449900Y19275000D02*
X34449900Y16950100D01*
X34449900Y21325000D02*
X34449900Y22099900D01*
D62*
X37457500Y11765000D02*
X37457500Y14305000D01*
D60*
X35655000Y15745000D02*
X37457500Y15745000D01*
D62*
X37457500Y14305000D02*
X37457500Y15745000D01*
D60*
X34449900Y16950100D02*
X35655000Y15745000D01*
X34449900Y22099900D02*
X34675000Y22325000D01*
%TO.N,EN*%
X50520000Y67320000D02*
X50700000Y67500000D01*
X58660000Y67500000D02*
X50700000Y67500000D01*
X48600000Y67825000D02*
X45350000Y67825000D01*
X29340000Y86460000D02*
X36900000Y78900000D01*
X50375000Y67825000D02*
X48600000Y67825000D01*
X47000000Y71200000D02*
X47000000Y67825000D01*
X50700000Y67500000D02*
X50375000Y67825000D01*
X43600000Y74600000D02*
X47000000Y71200000D01*
X41400000Y74600000D02*
X43600000Y74600000D01*
X21500000Y86460000D02*
X29340000Y86460000D01*
%TO.N,+5V*%
X8945000Y82380000D02*
X10600000Y80725000D01*
X11410000Y80210000D02*
X12000000Y80210000D01*
D59*
X4695000Y44775000D02*
X4160000Y44240000D01*
D60*
X11400000Y80200000D02*
X11410000Y80210000D01*
X7270000Y82380000D02*
X8945000Y82380000D01*
D59*
X29787500Y21375000D02*
X26600000Y21375000D01*
D60*
X29287500Y18100000D02*
X27750000Y18100000D01*
D59*
X4160000Y44240000D02*
X1800000Y44240000D01*
D60*
X10875000Y80725000D02*
X11400000Y80200000D01*
D61*
X45615000Y33150000D02*
X45615000Y33650000D01*
X45615000Y34785000D02*
X45600000Y34800000D01*
D59*
X43500000Y32525000D02*
X43915000Y32110000D01*
D61*
X45615000Y33650000D02*
X45615000Y34785000D01*
D59*
X43915000Y32110000D02*
X45615000Y32110000D01*
D60*
X10600000Y80725000D02*
X10875000Y80725000D01*
%TO.N,Net-(R10-Pad1)*%
X50640000Y60180000D02*
X50710000Y60250000D01*
X50710000Y60250000D02*
X49700000Y60250000D01*
X49175000Y59725000D02*
X48500000Y59725000D01*
X50710000Y60250000D02*
X58670000Y60250000D01*
X49700000Y60250000D02*
X49175000Y59725000D01*
%TO.N,IO0*%
X43800000Y64700000D02*
X47225000Y61275000D01*
X47225000Y61275000D02*
X48500000Y61275000D01*
X39000000Y72490000D02*
X42810000Y72490000D01*
X42810000Y72490000D02*
X43800000Y71500000D01*
X43800000Y71500000D02*
X43800000Y64700000D01*
%TO.N,VBAT_RAW*%
D62*
X55710000Y14890000D02*
X52247500Y14890000D01*
X52247500Y14890000D02*
X52237500Y14900000D01*
%TO.N,VBAT_FUSED*%
X45145000Y14305000D02*
X45500000Y13950000D01*
X42407500Y14305000D02*
X45145000Y14305000D01*
X47962500Y14900000D02*
X46450000Y14900000D01*
X46450000Y14900000D02*
X45500000Y13950000D01*
X42407500Y14305000D02*
X42407500Y10495000D01*
%TO.N,VSNS*%
D61*
X16800000Y80600000D02*
X17100000Y80300000D01*
X15600000Y80600000D02*
X16800000Y80600000D01*
X15210000Y80210000D02*
X15600000Y80600000D01*
X14800000Y80210000D02*
X15210000Y80210000D01*
X17100000Y78300000D02*
X16000000Y77200000D01*
X16000000Y77200000D02*
X13775000Y77200000D01*
X17100000Y80300000D02*
X17100000Y78300000D01*
%TO.N,VBUS*%
X7047590Y70960000D02*
X7505000Y70960000D01*
D59*
X10250000Y73850000D02*
X10200000Y73900000D01*
D61*
X4900000Y71900000D02*
X5600000Y71200000D01*
X7505000Y70960000D02*
X8060000Y70960000D01*
X6807590Y71200000D02*
X7047590Y70960000D01*
X4900000Y73900000D02*
X4900000Y74300000D01*
D59*
X11910000Y78820000D02*
X12000000Y78910000D01*
D61*
X8065000Y70965000D02*
X9810000Y70965000D01*
D59*
X11425000Y76400000D02*
X12225000Y77200000D01*
D61*
X4900000Y73900000D02*
X4900000Y71900000D01*
X4900000Y74300000D02*
X5700000Y75100000D01*
X5700000Y75100000D02*
X6270001Y75100000D01*
X6270001Y75100000D02*
X6930001Y75760000D01*
X5600000Y71200000D02*
X6807590Y71200000D01*
D59*
X10700000Y76400000D02*
X11425000Y76400000D01*
X11650000Y73850000D02*
X10250000Y73850000D01*
X10700000Y78820000D02*
X11910000Y78820000D01*
D61*
X6930001Y75760000D02*
X7505000Y75760000D01*
X8060000Y70960000D02*
X8065000Y70965000D01*
D59*
X10700000Y76400000D02*
X10700000Y78820000D01*
%TO.N,Net-(U2-SYNC{slash}FSEL)*%
D61*
X32500000Y21300000D02*
X32200000Y21600000D01*
X28175000Y27200000D02*
X27200000Y26225000D01*
X32200000Y26000000D02*
X31000000Y27200000D01*
X32200000Y21600000D02*
X32200000Y26000000D01*
X31000000Y27200000D02*
X28175000Y27200000D01*
%TO.N,Net-(U2-MODE)*%
X25600000Y26225000D02*
X25600000Y25800000D01*
X31600000Y20800000D02*
X32686700Y20800000D01*
X32686700Y20800000D02*
X32687400Y20799300D01*
X25600000Y25800000D02*
X26800000Y24600000D01*
%TO.N,Net-(U2-PGOOD)*%
X32587400Y20200000D02*
X31200000Y20200000D01*
X30800000Y20600000D02*
X30800000Y23025000D01*
X32687400Y20300000D02*
X32587400Y20200000D01*
X31200000Y20200000D02*
X30800000Y20600000D01*
X30800000Y23025000D02*
X31175000Y23400000D01*
%TO.N,Net-(U2-FB)*%
X29787500Y19825000D02*
X32663100Y19825000D01*
X30837500Y18962500D02*
X30837500Y18100000D01*
X29975000Y19825000D02*
X30837500Y18962500D01*
X30862500Y16500000D02*
X30862500Y18075000D01*
X32663100Y19825000D02*
X32687400Y19800700D01*
X30862500Y18075000D02*
X30837500Y18100000D01*
X29787500Y19825000D02*
X29975000Y19825000D01*
%TO.N,Net-(U2-BP5)*%
X33399400Y19137400D02*
X33399400Y17400600D01*
X33400000Y17400000D02*
X32800000Y16800000D01*
X32800000Y16800000D02*
X32600000Y16800000D01*
X27600000Y23000000D02*
X28000000Y23400000D01*
X29625000Y23400000D02*
X29625000Y25000000D01*
X28000000Y23400000D02*
X29625000Y23400000D01*
X33399400Y17400600D02*
X33400000Y17400000D01*
%TO.N,Net-(U9-ILIM)*%
X15315000Y81375000D02*
X16200000Y81375000D01*
X14800000Y80860000D02*
X15315000Y81375000D01*
%TO.N,5V_LOGIC*%
X10327808Y79560000D02*
X12000000Y79560000D01*
D59*
X10340000Y86500000D02*
X12475000Y86500000D01*
D61*
X9100000Y80700000D02*
X9187808Y80700000D01*
D59*
X12475000Y86500000D02*
X12600000Y86625000D01*
D61*
X9670000Y85830000D02*
X10340000Y86500000D01*
X9735001Y88400000D02*
X9000000Y87664999D01*
X9000000Y87664999D02*
X9000000Y87200000D01*
X9670000Y84790000D02*
X9670000Y85830000D01*
X9600000Y83040000D02*
X9600000Y84720000D01*
X10340000Y88400000D02*
X9735001Y88400000D01*
X9187808Y80700000D02*
X10327808Y79560000D01*
X9600000Y84720000D02*
X9670000Y84790000D01*
X9700000Y86500000D02*
X10340000Y86500000D01*
X9000000Y87200000D02*
X9700000Y86500000D01*
%TO.N,Net-(U11-~{SAFEBOOT})*%
D59*
X23525000Y12200000D02*
X22900000Y12200000D01*
X22600000Y12500000D02*
X21100000Y12500000D01*
D61*
X21100000Y12500000D02*
X21625000Y13025000D01*
D59*
X22900000Y12200000D02*
X22600000Y12500000D01*
%TO.N,Net-(D2-K)*%
D60*
X35495000Y10495000D02*
X35250000Y10250000D01*
D59*
X37457500Y9942500D02*
X37457500Y10495000D01*
X45000000Y8600000D02*
X38800000Y8600000D01*
X45500000Y10650000D02*
X45500000Y9100000D01*
D60*
X37457500Y10495000D02*
X35495000Y10495000D01*
D59*
X38800000Y8600000D02*
X37457500Y9942500D01*
X45500000Y9100000D02*
X45000000Y8600000D01*
%TO.N,Net-(J5-Pin_1)*%
D60*
X1800000Y23620000D02*
X2000000Y23820000D01*
X3270000Y23620000D02*
X3725000Y24075000D01*
X1800000Y23620000D02*
X3270000Y23620000D01*
X3725000Y24075000D02*
X4700000Y24075000D01*
%TO.N,IO15*%
X20610000Y80110000D02*
X21500000Y80110000D01*
D59*
X4700000Y22525000D02*
X5525000Y22525000D01*
X5525000Y22525000D02*
X6250000Y23250000D01*
D60*
X19800000Y79300000D02*
X20610000Y80110000D01*
%TO.N,Net-(U11-~{RESET})*%
D59*
X5900000Y12500000D02*
X5500000Y12900000D01*
X7900000Y12500000D02*
X5900000Y12500000D01*
%TO.N,IO1*%
D61*
X39820000Y87730000D02*
X41475000Y86075000D01*
X43150000Y86075000D02*
X43725000Y86075000D01*
X39750000Y26350000D02*
X39750000Y27150000D01*
X43725000Y86075000D02*
X44520000Y86870000D01*
X42200000Y27400000D02*
X43200000Y26400000D01*
X39295000Y88025000D02*
X39000000Y87730000D01*
X45650000Y86870000D02*
X45495000Y87025000D01*
X39750000Y27150000D02*
X40000000Y27400000D01*
X40000000Y27400000D02*
X42200000Y27400000D01*
X39000000Y87730000D02*
X39820000Y87730000D01*
X44520000Y86870000D02*
X45650000Y86870000D01*
X41475000Y86075000D02*
X41550000Y86075000D01*
X41550000Y86075000D02*
X43150000Y86075000D01*
%TO.N,5V_SW*%
D60*
X47585000Y33150000D02*
X47585000Y33650000D01*
X51300000Y30500000D02*
X53050000Y30500000D01*
X47583333Y34216667D02*
X47583333Y36000000D01*
X53050000Y28500000D02*
X53050000Y30500000D01*
X48650000Y33150000D02*
X51300000Y30500000D01*
X47585000Y33650000D02*
X47585000Y34185000D01*
X53700000Y24000000D02*
X58300000Y24000000D01*
X48650000Y33150000D02*
X47585000Y33150000D01*
X53050000Y28500000D02*
X53050000Y24650000D01*
D59*
X46000000Y36000000D02*
X49166667Y36000000D01*
D60*
X53050000Y24650000D02*
X53700000Y24000000D01*
X47585000Y34185000D02*
X47600000Y34200000D01*
X47600000Y34200000D02*
X47583333Y34216667D01*
%TO.N,Net-(J3-Pin_1)*%
X1800000Y41700000D02*
X1965000Y41865000D01*
X3200000Y41700000D02*
X3700000Y42200000D01*
X1800000Y41700000D02*
X3200000Y41700000D01*
X3700000Y42200000D02*
X4550000Y42200000D01*
%TO.N,IO6*%
D59*
X5400000Y40650000D02*
X6000000Y41250000D01*
D60*
X19920000Y82650000D02*
X21500000Y82650000D01*
D59*
X4550000Y40650000D02*
X5400000Y40650000D01*
D60*
X18620000Y81350000D02*
X19920000Y82650000D01*
X5975000Y41225000D02*
X6000000Y41250000D01*
X18480000Y81350000D02*
X18620000Y81350000D01*
%TO.N,IO13*%
D61*
X44950000Y32650000D02*
X45615000Y32650000D01*
X38800000Y57321471D02*
X38800000Y41200000D01*
X44600000Y35400000D02*
X44600000Y33000000D01*
X44600000Y33000000D02*
X44950000Y32650000D01*
X30885000Y71240000D02*
X30885000Y65236471D01*
X38800000Y41200000D02*
X44600000Y35400000D01*
X30885000Y65236471D02*
X38800000Y57321471D01*
%TO.N,/CC1*%
X9500000Y75325000D02*
X9500000Y75725000D01*
X7505000Y74610000D02*
X8785000Y74610000D01*
X8785000Y74610000D02*
X9500000Y75325000D01*
%TO.N,IO7*%
D59*
X4600000Y31525000D02*
X6275000Y31525000D01*
D60*
X20880000Y81380000D02*
X21500000Y81380000D01*
X6475000Y31725000D02*
X6500000Y31750000D01*
D59*
X6275000Y31525000D02*
X6500000Y31750000D01*
D60*
X19000000Y79500000D02*
X20880000Y81380000D01*
%TO.N,IO17*%
D61*
X47500000Y39900000D02*
X53050000Y39900000D01*
X30040000Y77570000D02*
X21500000Y77570000D01*
X32540000Y75070000D02*
X30040000Y77570000D01*
X40770000Y46630000D02*
X47500000Y39900000D01*
X32840000Y75070000D02*
X32540000Y75070000D01*
X40770000Y56200000D02*
X40770000Y46630000D01*
%TO.N,IO18*%
X42050000Y48450000D02*
X48600000Y41900000D01*
X42050000Y57000000D02*
X42050000Y48450000D01*
X27330000Y76270000D02*
X26940000Y76270000D01*
X26910000Y76300000D02*
X21500000Y76300000D01*
X48600000Y41900000D02*
X53050000Y41900000D01*
X26940000Y76270000D02*
X26910000Y76300000D01*
%TO.N,D-*%
X6000000Y73300000D02*
X6190000Y73110000D01*
X15318751Y74400000D02*
X14918751Y74800000D01*
X9950000Y74800000D02*
X9225000Y74075000D01*
X8367501Y74110000D02*
X7505000Y74110000D01*
X9050000Y74075000D02*
X9040000Y74085000D01*
X16743198Y74243198D02*
X16750000Y74250000D01*
X7505000Y74110000D02*
X6410000Y74110000D01*
X6000000Y73700000D02*
X6000000Y73300000D01*
X21240000Y73500000D02*
X17750000Y73500000D01*
X11650000Y74800000D02*
X9950000Y74800000D01*
X8392501Y74085000D02*
X8367501Y74110000D01*
X17750000Y73500000D02*
X17006802Y74243198D01*
X11650000Y74800000D02*
X13925000Y74800000D01*
X21500000Y73760000D02*
X21240000Y73500000D01*
X6190000Y73110000D02*
X7505000Y73110000D01*
X16250000Y74250000D02*
X16100000Y74400000D01*
X16750000Y74250000D02*
X16250000Y74250000D01*
X16100000Y74400000D02*
X15318751Y74400000D01*
X9040000Y74085000D02*
X8392501Y74085000D01*
X17006802Y74243198D02*
X16743198Y74243198D01*
X6410000Y74110000D02*
X6000000Y73700000D01*
X14918751Y74800000D02*
X13925000Y74800000D01*
X9225000Y74075000D02*
X9050000Y74075000D01*
%TO.N,D+*%
X17760000Y72490000D02*
X16750000Y73500000D01*
X7505000Y72610000D02*
X9110000Y72610000D01*
X8392501Y73635000D02*
X8867794Y73635000D01*
X16250000Y73500000D02*
X15850000Y73100000D01*
X14918751Y72900000D02*
X13925000Y72900000D01*
X21500000Y72490000D02*
X17760000Y72490000D01*
X9675000Y73175000D02*
X9950000Y72900000D01*
X8877794Y73625000D02*
X9225000Y73625000D01*
X15850000Y73100000D02*
X15118751Y73100000D01*
X8867794Y73635000D02*
X8877794Y73625000D01*
X11650000Y72900000D02*
X13925000Y72900000D01*
X15118751Y73100000D02*
X14918751Y72900000D01*
X9225000Y73625000D02*
X9675000Y73175000D01*
X9110000Y72610000D02*
X9675000Y73175000D01*
X8367501Y73610000D02*
X8392501Y73635000D01*
X9950000Y72900000D02*
X11650000Y72900000D01*
X7505000Y73610000D02*
X8367501Y73610000D01*
X16750000Y73500000D02*
X16250000Y73500000D01*
%TO.N,IO10*%
D60*
X27120000Y71195000D02*
X27075000Y71240000D01*
%TO.N,IO38*%
X39000000Y77570000D02*
X49470000Y77570000D01*
X55000000Y80100000D02*
X56800000Y78300000D01*
X49470000Y77570000D02*
X52000000Y80100000D01*
X56800000Y78300000D02*
X56800000Y77140000D01*
X52000000Y80100000D02*
X55000000Y80100000D01*
%TO.N,IO39*%
X50900000Y74600000D02*
X54260000Y74600000D01*
X49100000Y76400000D02*
X50900000Y74600000D01*
X47860000Y78840000D02*
X48300000Y78400000D01*
X39000000Y78840000D02*
X47860000Y78840000D01*
%TO.N,IO40*%
X50310000Y80110000D02*
X51400000Y81200000D01*
X58900000Y76700000D02*
X56800000Y74600000D01*
X58900000Y78600000D02*
X58900000Y76700000D01*
X39000000Y80110000D02*
X50310000Y80110000D01*
X56300000Y81200000D02*
X58900000Y78600000D01*
X51400000Y81200000D02*
X56300000Y81200000D01*
%TO.N,IO41*%
X43400000Y76800000D02*
X48140000Y72060000D01*
X39000000Y81380000D02*
X41330000Y81380000D01*
X41330000Y81380000D02*
X41900000Y80810000D01*
X48140000Y72060000D02*
X54260000Y72060000D01*
%TO.N,IO42*%
D61*
X39170000Y82820000D02*
X39000000Y82650000D01*
X41175000Y84075000D02*
X41700000Y84075000D01*
X39000000Y82650000D02*
X39750000Y82650000D01*
X39750000Y82650000D02*
X41175000Y84075000D01*
%TO.N,Net-(J4-Pin_1)*%
D59*
X3675000Y33075000D02*
X4600000Y33075000D01*
X3220000Y32620000D02*
X3675000Y33075000D01*
X1800000Y32620000D02*
X3220000Y32620000D01*
%TO.N,Net-(U3-CT)*%
D61*
X47585000Y32650000D02*
X48150000Y32650000D01*
X48150000Y32650000D02*
X48850000Y31950000D01*
X48850000Y31950000D02*
X48850000Y30375000D01*
%TO.N,/CC2*%
X7505000Y71610000D02*
X9100000Y71610000D01*
X9420000Y71930000D02*
X11090000Y71930000D01*
X9100000Y71610000D02*
X9420000Y71930000D01*
X11090000Y71930000D02*
X11540000Y71480000D01*
X11540000Y71480000D02*
X11540000Y70965000D01*
%TO.N,Net-(D1-K)*%
D59*
X44925000Y81900000D02*
X45175000Y82150000D01*
X43450000Y81900000D02*
X44925000Y81900000D01*
X41700000Y82525000D02*
X42825000Y82525000D01*
X42825000Y82525000D02*
X43450000Y81900000D01*
%TD*%
%TA.AperFunction,Conductor*%
%TO.N,GND*%
G36*
X49943039Y39180315D02*
G01*
X49988794Y39127511D01*
X50000000Y39076000D01*
X50000000Y37499000D01*
X49980315Y37431961D01*
X49927511Y37386206D01*
X49876000Y37375000D01*
X45124000Y37375000D01*
X45056961Y37394685D01*
X45011206Y37447489D01*
X45000000Y37499000D01*
X45000000Y39076000D01*
X45019685Y39143039D01*
X45072489Y39188794D01*
X45124000Y39200000D01*
X49876000Y39200000D01*
X49943039Y39180315D01*
G37*
%TD.AperFunction*%
%TD*%
%TA.AperFunction,Conductor*%
%TO.N,+5V*%
G36*
X10943039Y37230315D02*
G01*
X10988794Y37177511D01*
X11000000Y37126000D01*
X11000000Y33874000D01*
X10980315Y33806961D01*
X10927511Y33761206D01*
X10876000Y33750000D01*
X6124000Y33750000D01*
X6056961Y33769685D01*
X6011206Y33822489D01*
X6000000Y33874000D01*
X6000000Y37126000D01*
X6019685Y37193039D01*
X6072489Y37238794D01*
X6124000Y37250000D01*
X10876000Y37250000D01*
X10943039Y37230315D01*
G37*
%TD.AperFunction*%
%TD*%
%TA.AperFunction,Conductor*%
%TO.N,GND*%
G36*
X41693106Y26994977D02*
G01*
X41708104Y26990573D01*
X41766855Y26952828D01*
X41768042Y26951459D01*
X41787907Y26907996D01*
X41791363Y26909092D01*
X41794195Y26900165D01*
X41795582Y26891206D01*
X41797087Y26887913D01*
X41796608Y26884577D01*
X41800000Y26862669D01*
X41800000Y15941830D01*
X41794975Y15906886D01*
X41790570Y15891888D01*
X41752827Y15833145D01*
X41751458Y15831958D01*
X41696597Y15804482D01*
X41689039Y15802837D01*
X41662668Y15800000D01*
X39541830Y15800000D01*
X39506889Y15805025D01*
X39491890Y15809430D01*
X39433144Y15847173D01*
X39431957Y15848542D01*
X39404477Y15903417D01*
X39402832Y15910979D01*
X39400000Y15937332D01*
X39400000Y25532671D01*
X39405023Y25567607D01*
X39409427Y25582605D01*
X39447172Y25641356D01*
X39448541Y25642543D01*
X39503420Y25670023D01*
X39510979Y25671667D01*
X39537332Y25674500D01*
X40008492Y25674500D01*
X40008493Y25674500D01*
X40044565Y25680214D01*
X40098488Y25688754D01*
X40102979Y25689466D01*
X40108121Y25690280D01*
X40108121Y25690281D01*
X40112916Y25691040D01*
X40112938Y25691044D01*
X40117850Y25691822D01*
X40130093Y25701474D01*
X40228220Y25751472D01*
X40323528Y25846780D01*
X40384719Y25966874D01*
X40384720Y25966879D01*
X40400500Y26066507D01*
X40400500Y26633494D01*
X40386246Y26723491D01*
X40386246Y26723492D01*
X40384720Y26733123D01*
X40384719Y26733125D01*
X40384719Y26733126D01*
X40348697Y26803823D01*
X40337312Y26837231D01*
X40334751Y26850868D01*
X40341724Y26920389D01*
X40385175Y26975103D01*
X40387906Y26977029D01*
X40439094Y26998013D01*
X40441041Y26998336D01*
X40461294Y27000000D01*
X41658170Y27000000D01*
X41693106Y26994977D01*
G37*
%TD.AperFunction*%
%TD*%
%TA.AperFunction,Conductor*%
%TO.N,+5V*%
G36*
X44143039Y32980315D02*
G01*
X44188794Y32927511D01*
X44200000Y32876000D01*
X44200000Y27924000D01*
X44180315Y27856961D01*
X44127511Y27811206D01*
X44076000Y27800000D01*
X37724000Y27800000D01*
X37656961Y27819685D01*
X37611206Y27872489D01*
X37600000Y27924000D01*
X37600000Y32876000D01*
X37619685Y32943039D01*
X37672489Y32988794D01*
X37724000Y33000000D01*
X44076000Y33000000D01*
X44143039Y32980315D01*
G37*
%TD.AperFunction*%
%TD*%
%TA.AperFunction,Conductor*%
%TO.N,GND*%
G36*
X48993039Y83180315D02*
G01*
X49038794Y83127511D01*
X49050000Y83076000D01*
X49050000Y81324000D01*
X49030315Y81256961D01*
X48977511Y81211206D01*
X48926000Y81200000D01*
X46674000Y81200000D01*
X46606961Y81219685D01*
X46561206Y81272489D01*
X46550000Y81324000D01*
X46550000Y83076000D01*
X46569685Y83143039D01*
X46622489Y83188794D01*
X46674000Y83200000D01*
X48926000Y83200000D01*
X48993039Y83180315D01*
G37*
%TD.AperFunction*%
%TD*%
%TA.AperFunction,Conductor*%
%TO.N,GND*%
G36*
X8193039Y81230315D02*
G01*
X8238794Y81177511D01*
X8250000Y81126000D01*
X8250000Y78124000D01*
X8230315Y78056961D01*
X8177511Y78011206D01*
X8126000Y78000000D01*
X2124000Y78000000D01*
X2056961Y78019685D01*
X2011206Y78072489D01*
X2000000Y78124000D01*
X2000000Y81126000D01*
X2019685Y81193039D01*
X2072489Y81238794D01*
X2124000Y81250000D01*
X8126000Y81250000D01*
X8193039Y81230315D01*
G37*
%TD.AperFunction*%
%TD*%
%TA.AperFunction,Conductor*%
%TO.N,GND*%
G36*
X58193039Y12230315D02*
G01*
X58238794Y12177511D01*
X58250000Y12126000D01*
X58250000Y6874000D01*
X58230315Y6806961D01*
X58177511Y6761206D01*
X58126000Y6750000D01*
X52124000Y6750000D01*
X52056961Y6769685D01*
X52011206Y6822489D01*
X52000000Y6874000D01*
X52000000Y12126000D01*
X52019685Y12193039D01*
X52072489Y12238794D01*
X52124000Y12250000D01*
X58126000Y12250000D01*
X58193039Y12230315D01*
G37*
%TD.AperFunction*%
%TD*%
%TA.AperFunction,Conductor*%
%TO.N,+3.3V*%
G36*
X23343039Y87980315D02*
G01*
X23388794Y87927511D01*
X23400000Y87876000D01*
X23400000Y87324000D01*
X23380315Y87256961D01*
X23327511Y87211206D01*
X23276000Y87200000D01*
X21624000Y87200000D01*
X21556961Y87219685D01*
X21511206Y87272489D01*
X21500000Y87324000D01*
X21500000Y87876000D01*
X21519685Y87943039D01*
X21572489Y87988794D01*
X21624000Y88000000D01*
X23276000Y88000000D01*
X23343039Y87980315D01*
G37*
%TD.AperFunction*%
%TD*%
%TA.AperFunction,Conductor*%
%TO.N,GND*%
G36*
X43997690Y35394977D02*
G01*
X44012688Y35390573D01*
X44071439Y35352828D01*
X44072626Y35351459D01*
X44092491Y35307996D01*
X44095947Y35309092D01*
X44098779Y35300165D01*
X44100166Y35291206D01*
X44101671Y35287913D01*
X44101192Y35284577D01*
X44104584Y35262669D01*
X44104584Y33716830D01*
X44099559Y33681886D01*
X44095154Y33666888D01*
X44057411Y33608145D01*
X44056042Y33606958D01*
X44001181Y33579482D01*
X43993623Y33577837D01*
X43967252Y33575000D01*
X41446414Y33575000D01*
X41411473Y33580025D01*
X41396474Y33584430D01*
X41337728Y33622173D01*
X41336541Y33623542D01*
X41309061Y33678417D01*
X41307416Y33685979D01*
X41304584Y33712332D01*
X41304584Y35258171D01*
X41309607Y35293107D01*
X41314011Y35308105D01*
X41351756Y35366856D01*
X41353125Y35368043D01*
X41408004Y35395523D01*
X41415563Y35397167D01*
X41441916Y35400000D01*
X43962754Y35400000D01*
X43997690Y35394977D01*
G37*
%TD.AperFunction*%
%TD*%
%TA.AperFunction,Conductor*%
%TO.N,GND*%
G36*
X20976057Y37700057D02*
G01*
X21043087Y37680342D01*
X21088818Y37627517D01*
X21100000Y37576057D01*
X21100000Y34124000D01*
X21080315Y34056961D01*
X21027511Y34011206D01*
X20976000Y34000000D01*
X20900000Y34000000D01*
X16624057Y34000000D01*
X16557018Y34019685D01*
X16511263Y34072489D01*
X16500057Y34124057D01*
X16501638Y37578106D01*
X16521353Y37645136D01*
X16574178Y37690867D01*
X16625691Y37702049D01*
X20976057Y37700057D01*
G37*
%TD.AperFunction*%
%TD*%
%TA.AperFunction,Conductor*%
%TO.N,GND*%
G36*
X8043039Y68180315D02*
G01*
X8088794Y68127511D01*
X8100000Y68076000D01*
X8100000Y65924000D01*
X8080315Y65856961D01*
X8027511Y65811206D01*
X7976000Y65800000D01*
X1724000Y65800000D01*
X1656961Y65819685D01*
X1611206Y65872489D01*
X1600000Y65924000D01*
X1600000Y68076000D01*
X1619685Y68143039D01*
X1672489Y68188794D01*
X1724000Y68200000D01*
X7976000Y68200000D01*
X8043039Y68180315D01*
G37*
%TD.AperFunction*%
%TD*%
%TA.AperFunction,Conductor*%
%TO.N,GND*%
G36*
X30943039Y83380315D02*
G01*
X30988794Y83327511D01*
X31000000Y83276000D01*
X31000000Y79324000D01*
X30980315Y79256961D01*
X30927511Y79211206D01*
X30876000Y79200000D01*
X26724000Y79200000D01*
X26656961Y79219685D01*
X26611206Y79272489D01*
X26600000Y79324000D01*
X26600000Y83276000D01*
X26619685Y83343039D01*
X26672489Y83388794D01*
X26724000Y83400000D01*
X30876000Y83400000D01*
X30943039Y83380315D01*
G37*
%TD.AperFunction*%
%TD*%
M02*
