%TF.GenerationSoftware,KiCad,Pcbnew,10.0.0*%
%TF.CreationDate,2026-08-22T21:27:56-05:00*%
%TF.ProjectId,2027Payload,32303237-5061-4796-9c6f-61642e6b6963,rev?*%
%TF.SameCoordinates,PXac9d740PY90f5600*%
%TF.FileFunction,Soldermask,Bot*%
%TF.FilePolarity,Negative*%
%FSLAX46Y46*%
G04 Gerber Fmt 4.6, Leading zero omitted, Abs format (unit mm)*
G04 Created by KiCad (PCBNEW 10.0.0) date 2026-08-22 21:27:56*
%MOMM*%
%LPD*%
G01*
G04 APERTURE LIST*
G04 APERTURE END LIST*
G36*
X3092885Y4044944D02*
G01*
X3102918Y4044944D01*
X3142117Y4037147D01*
X3245078Y4020840D01*
X3278200Y4010078D01*
X3304799Y4004787D01*
X3342335Y3989240D01*
X3401762Y3969930D01*
X3457433Y3941565D01*
X3494967Y3926017D01*
X3517517Y3910950D01*
X3548539Y3895143D01*
X3632866Y3833876D01*
X3666113Y3811661D01*
X3673208Y3804566D01*
X3681817Y3798311D01*
X3798310Y3681818D01*
X3804564Y3673210D01*
X3811661Y3666113D01*
X3833878Y3632862D01*
X3895142Y3548540D01*
X3910947Y3517521D01*
X3926017Y3494967D01*
X3941566Y3457428D01*
X3969929Y3401763D01*
X3989235Y3342343D01*
X4004787Y3304799D01*
X4010078Y3278195D01*
X4020839Y3245079D01*
X4037145Y3142124D01*
X4044944Y3102918D01*
X4044944Y3092886D01*
X4046609Y3082373D01*
X4046609Y2917628D01*
X4044944Y2907116D01*
X4044944Y2897082D01*
X4037144Y2857874D01*
X4020839Y2754922D01*
X4010079Y2721808D01*
X4004787Y2695201D01*
X3989234Y2657654D01*
X3969929Y2598238D01*
X3941568Y2542578D01*
X3926017Y2505033D01*
X3910945Y2482477D01*
X3895142Y2451461D01*
X3833887Y2367151D01*
X3811661Y2333887D01*
X3804561Y2326788D01*
X3798310Y2318183D01*
X3681817Y2201690D01*
X3673212Y2195439D01*
X3666113Y2188339D01*
X3632849Y2166113D01*
X3548539Y2104858D01*
X3517523Y2089055D01*
X3494967Y2073983D01*
X3457422Y2058432D01*
X3401762Y2030071D01*
X3342346Y2010766D01*
X3304799Y1995213D01*
X3278192Y1989921D01*
X3245078Y1979161D01*
X3142126Y1962856D01*
X3102918Y1955056D01*
X3092884Y1955056D01*
X3082372Y1953391D01*
X2917628Y1953391D01*
X2907115Y1955056D01*
X2897082Y1955056D01*
X2857874Y1962855D01*
X2754921Y1979161D01*
X2721805Y1989922D01*
X2695201Y1995213D01*
X2657657Y2010765D01*
X2598237Y2030071D01*
X2542572Y2058434D01*
X2505033Y2073983D01*
X2482479Y2089053D01*
X2451460Y2104858D01*
X2367138Y2166122D01*
X2333887Y2188339D01*
X2326790Y2195436D01*
X2318182Y2201690D01*
X2201689Y2318183D01*
X2195434Y2326792D01*
X2188339Y2333887D01*
X2166124Y2367134D01*
X2104857Y2451461D01*
X2089050Y2482483D01*
X2073983Y2505033D01*
X2058435Y2542567D01*
X2030070Y2598238D01*
X2010760Y2657665D01*
X1995213Y2695201D01*
X1989922Y2721800D01*
X1979160Y2754922D01*
X1962853Y2857883D01*
X1955056Y2897082D01*
X1955056Y2907116D01*
X1953391Y2917628D01*
X1953391Y3082373D01*
X1955056Y3092886D01*
X1955056Y3102918D01*
X1962852Y3142114D01*
X1979160Y3245079D01*
X1989922Y3278203D01*
X1995213Y3304799D01*
X2010759Y3342332D01*
X2030070Y3401763D01*
X2058438Y3457439D01*
X2073983Y3494967D01*
X2089048Y3517514D01*
X2104857Y3548540D01*
X2166132Y3632879D01*
X2188339Y3666113D01*
X2195432Y3673207D01*
X2201689Y3681818D01*
X2318182Y3798311D01*
X2326793Y3804568D01*
X2333887Y3811661D01*
X2367121Y3833868D01*
X2451460Y3895143D01*
X2482486Y3910952D01*
X2505033Y3926017D01*
X2542561Y3941562D01*
X2598237Y3969930D01*
X2657668Y3989241D01*
X2695201Y4004787D01*
X2721797Y4010078D01*
X2754921Y4020840D01*
X2857883Y4037147D01*
X2897082Y4044944D01*
X2907115Y4044944D01*
X2917628Y4046609D01*
X3082372Y4046609D01*
X3092885Y4044944D01*
G37*
G36*
X57092885Y4044944D02*
G01*
X57102918Y4044944D01*
X57142117Y4037147D01*
X57245078Y4020840D01*
X57278200Y4010078D01*
X57304799Y4004787D01*
X57342335Y3989240D01*
X57401762Y3969930D01*
X57457433Y3941565D01*
X57494967Y3926017D01*
X57517517Y3910950D01*
X57548539Y3895143D01*
X57632866Y3833876D01*
X57666113Y3811661D01*
X57673208Y3804566D01*
X57681817Y3798311D01*
X57798310Y3681818D01*
X57804564Y3673210D01*
X57811661Y3666113D01*
X57833878Y3632862D01*
X57895142Y3548540D01*
X57910947Y3517521D01*
X57926017Y3494967D01*
X57941566Y3457428D01*
X57969929Y3401763D01*
X57989235Y3342343D01*
X58004787Y3304799D01*
X58010078Y3278195D01*
X58020839Y3245079D01*
X58037145Y3142124D01*
X58044944Y3102918D01*
X58044944Y3092886D01*
X58046609Y3082373D01*
X58046609Y2917628D01*
X58044944Y2907116D01*
X58044944Y2897082D01*
X58037144Y2857874D01*
X58020839Y2754922D01*
X58010079Y2721808D01*
X58004787Y2695201D01*
X57989234Y2657654D01*
X57969929Y2598238D01*
X57941568Y2542578D01*
X57926017Y2505033D01*
X57910945Y2482477D01*
X57895142Y2451461D01*
X57833887Y2367151D01*
X57811661Y2333887D01*
X57804561Y2326788D01*
X57798310Y2318183D01*
X57681817Y2201690D01*
X57673212Y2195439D01*
X57666113Y2188339D01*
X57632849Y2166113D01*
X57548539Y2104858D01*
X57517523Y2089055D01*
X57494967Y2073983D01*
X57457422Y2058432D01*
X57401762Y2030071D01*
X57342346Y2010766D01*
X57304799Y1995213D01*
X57278192Y1989921D01*
X57245078Y1979161D01*
X57142126Y1962856D01*
X57102918Y1955056D01*
X57092884Y1955056D01*
X57082372Y1953391D01*
X56917628Y1953391D01*
X56907115Y1955056D01*
X56897082Y1955056D01*
X56857874Y1962855D01*
X56754921Y1979161D01*
X56721805Y1989922D01*
X56695201Y1995213D01*
X56657657Y2010765D01*
X56598237Y2030071D01*
X56542572Y2058434D01*
X56505033Y2073983D01*
X56482479Y2089053D01*
X56451460Y2104858D01*
X56367138Y2166122D01*
X56333887Y2188339D01*
X56326790Y2195436D01*
X56318182Y2201690D01*
X56201689Y2318183D01*
X56195434Y2326792D01*
X56188339Y2333887D01*
X56166124Y2367134D01*
X56104857Y2451461D01*
X56089050Y2482483D01*
X56073983Y2505033D01*
X56058435Y2542567D01*
X56030070Y2598238D01*
X56010760Y2657665D01*
X55995213Y2695201D01*
X55989922Y2721800D01*
X55979160Y2754922D01*
X55962853Y2857883D01*
X55955056Y2897082D01*
X55955056Y2907116D01*
X55953391Y2917628D01*
X55953391Y3082373D01*
X55955056Y3092886D01*
X55955056Y3102918D01*
X55962852Y3142114D01*
X55979160Y3245079D01*
X55989922Y3278203D01*
X55995213Y3304799D01*
X56010759Y3342332D01*
X56030070Y3401763D01*
X56058438Y3457439D01*
X56073983Y3494967D01*
X56089048Y3517514D01*
X56104857Y3548540D01*
X56166132Y3632879D01*
X56188339Y3666113D01*
X56195432Y3673207D01*
X56201689Y3681818D01*
X56318182Y3798311D01*
X56326793Y3804568D01*
X56333887Y3811661D01*
X56367121Y3833868D01*
X56451460Y3895143D01*
X56482486Y3910952D01*
X56505033Y3926017D01*
X56542561Y3941562D01*
X56598237Y3969930D01*
X56657668Y3989241D01*
X56695201Y4004787D01*
X56721797Y4010078D01*
X56754921Y4020840D01*
X56857883Y4037147D01*
X56897082Y4044944D01*
X56907115Y4044944D01*
X56917628Y4046609D01*
X57082372Y4046609D01*
X57092885Y4044944D01*
G37*
G36*
X2650000Y22770000D02*
G01*
X950000Y22770000D01*
X950000Y24470000D01*
X2650000Y24470000D01*
X2650000Y22770000D01*
G37*
G36*
X2046742Y26973399D02*
G01*
X2200687Y26909633D01*
X2339234Y26817059D01*
X2457059Y26699234D01*
X2549633Y26560687D01*
X2613399Y26406742D01*
X2645907Y26243315D01*
X2645907Y26076685D01*
X2613399Y25913258D01*
X2549633Y25759313D01*
X2457059Y25620766D01*
X2339234Y25502941D01*
X2200687Y25410367D01*
X2046742Y25346601D01*
X1883315Y25314093D01*
X1716685Y25314093D01*
X1553258Y25346601D01*
X1399313Y25410367D01*
X1260766Y25502941D01*
X1142941Y25620766D01*
X1050367Y25759313D01*
X986601Y25913258D01*
X954093Y26076685D01*
X954093Y26243315D01*
X986601Y26406742D01*
X1050367Y26560687D01*
X1142941Y26699234D01*
X1260766Y26817059D01*
X1399313Y26909633D01*
X1553258Y26973399D01*
X1716685Y27005907D01*
X1883315Y27005907D01*
X2046742Y26973399D01*
G37*
G36*
X2046742Y29513399D02*
G01*
X2200687Y29449633D01*
X2339234Y29357059D01*
X2457059Y29239234D01*
X2549633Y29100687D01*
X2613399Y28946742D01*
X2645907Y28783315D01*
X2645907Y28616685D01*
X2613399Y28453258D01*
X2549633Y28299313D01*
X2457059Y28160766D01*
X2339234Y28042941D01*
X2200687Y27950367D01*
X2046742Y27886601D01*
X1883315Y27854093D01*
X1716685Y27854093D01*
X1553258Y27886601D01*
X1399313Y27950367D01*
X1260766Y28042941D01*
X1142941Y28160766D01*
X1050367Y28299313D01*
X986601Y28453258D01*
X954093Y28616685D01*
X954093Y28783315D01*
X986601Y28946742D01*
X1050367Y29100687D01*
X1142941Y29239234D01*
X1260766Y29357059D01*
X1399313Y29449633D01*
X1553258Y29513399D01*
X1716685Y29545907D01*
X1883315Y29545907D01*
X2046742Y29513399D01*
G37*
G36*
X53679047Y29099195D02*
G01*
X53730408Y29093236D01*
X53747954Y29085489D01*
X53770671Y29080970D01*
X53794991Y29064720D01*
X53815793Y29055535D01*
X53830000Y29041328D01*
X53851777Y29026777D01*
X53866327Y29005001D01*
X53880534Y28990794D01*
X53889718Y28969994D01*
X53905970Y28945671D01*
X53910489Y28922952D01*
X53918235Y28905409D01*
X53924192Y28854060D01*
X53925000Y28850000D01*
X53925000Y28150000D01*
X53924192Y28145941D01*
X53918235Y28094592D01*
X53910489Y28077050D01*
X53905970Y28054329D01*
X53889716Y28030005D01*
X53880534Y28009207D01*
X53866329Y27995003D01*
X53851777Y27973223D01*
X53829997Y27958671D01*
X53815793Y27944466D01*
X53794995Y27935284D01*
X53770671Y27919030D01*
X53747950Y27914511D01*
X53730408Y27906765D01*
X53679061Y27900808D01*
X53675000Y27900000D01*
X52425000Y27900000D01*
X52420941Y27900808D01*
X52369591Y27906765D01*
X52352048Y27914511D01*
X52329329Y27919030D01*
X52305006Y27935282D01*
X52284206Y27944466D01*
X52269999Y27958673D01*
X52248223Y27973223D01*
X52233672Y27995000D01*
X52219465Y28009207D01*
X52210280Y28030009D01*
X52194030Y28054329D01*
X52189511Y28077046D01*
X52181764Y28094592D01*
X52175805Y28145951D01*
X52175000Y28150000D01*
X52175000Y28850000D01*
X52175804Y28854047D01*
X52181764Y28905409D01*
X52189511Y28922957D01*
X52194030Y28945671D01*
X52210278Y28969990D01*
X52219465Y28990794D01*
X52233674Y29005004D01*
X52248223Y29026777D01*
X52269996Y29041326D01*
X52284206Y29055535D01*
X52305010Y29064722D01*
X52329329Y29080970D01*
X52352043Y29085489D01*
X52369591Y29093236D01*
X52420952Y29099195D01*
X52425000Y29100000D01*
X53675000Y29100000D01*
X53679047Y29099195D01*
G37*
G36*
X53328686Y31099759D02*
G01*
X53382577Y31097111D01*
X53389210Y31095792D01*
X53403316Y31094867D01*
X53430562Y31087567D01*
X53499099Y31073934D01*
X53531448Y31060535D01*
X53554610Y31054328D01*
X53575377Y31042338D01*
X53607722Y31028940D01*
X53665816Y30990123D01*
X53690257Y30976012D01*
X53696946Y30969323D01*
X53705481Y30963620D01*
X53788619Y30880482D01*
X53794321Y30871948D01*
X53801012Y30865257D01*
X53815124Y30840814D01*
X53853939Y30782723D01*
X53867335Y30750382D01*
X53879328Y30729610D01*
X53885535Y30706445D01*
X53898933Y30674100D01*
X53912565Y30605567D01*
X53919867Y30578316D01*
X53919867Y30568859D01*
X53921870Y30558789D01*
X53921870Y30441212D01*
X53919867Y30431143D01*
X53919867Y30421684D01*
X53912564Y30394431D01*
X53898933Y30325901D01*
X53885535Y30293559D01*
X53879328Y30270390D01*
X53867334Y30249617D01*
X53853939Y30217278D01*
X53815128Y30159195D01*
X53801012Y30134743D01*
X53794319Y30128051D01*
X53788619Y30119519D01*
X53705481Y30036381D01*
X53696949Y30030681D01*
X53690257Y30023988D01*
X53665805Y30009872D01*
X53607722Y29971061D01*
X53575383Y29957666D01*
X53554610Y29945672D01*
X53531441Y29939465D01*
X53499099Y29926067D01*
X53430576Y29912438D01*
X53403316Y29905133D01*
X53389203Y29904209D01*
X53382577Y29902890D01*
X53328691Y29900242D01*
X53325000Y29900000D01*
X53323768Y29900000D01*
X52776232Y29900000D01*
X52775000Y29900000D01*
X52771308Y29900242D01*
X52717422Y29902890D01*
X52710795Y29904209D01*
X52696684Y29905133D01*
X52669426Y29912437D01*
X52600900Y29926067D01*
X52568555Y29939465D01*
X52545390Y29945672D01*
X52524618Y29957665D01*
X52492277Y29971061D01*
X52434186Y30009876D01*
X52409743Y30023988D01*
X52403052Y30030679D01*
X52394518Y30036381D01*
X52311380Y30119519D01*
X52305677Y30128054D01*
X52298988Y30134743D01*
X52284877Y30159184D01*
X52246060Y30217278D01*
X52232662Y30249623D01*
X52220672Y30270390D01*
X52214465Y30293552D01*
X52201066Y30325901D01*
X52187433Y30394437D01*
X52180133Y30421684D01*
X52180133Y30431142D01*
X52178130Y30441212D01*
X52178130Y30558789D01*
X52180133Y30568860D01*
X52180133Y30578316D01*
X52187433Y30605561D01*
X52201066Y30674100D01*
X52214466Y30706452D01*
X52220672Y30729610D01*
X52232660Y30750376D01*
X52246060Y30782723D01*
X52284881Y30840825D01*
X52298988Y30865257D01*
X52305675Y30871945D01*
X52311380Y30880482D01*
X52394518Y30963620D01*
X52403055Y30969325D01*
X52409743Y30976012D01*
X52434175Y30990119D01*
X52492277Y31028940D01*
X52524624Y31042340D01*
X52545390Y31054328D01*
X52568548Y31060534D01*
X52600900Y31073934D01*
X52669440Y31087568D01*
X52696684Y31094867D01*
X52710787Y31095792D01*
X52717422Y31097111D01*
X52771313Y31099759D01*
X52775000Y31100000D01*
X53325000Y31100000D01*
X53328686Y31099759D01*
G37*
G36*
X2650000Y31770000D02*
G01*
X950000Y31770000D01*
X950000Y33470000D01*
X2650000Y33470000D01*
X2650000Y31770000D01*
G37*
G36*
X53328686Y33099759D02*
G01*
X53382577Y33097111D01*
X53389210Y33095792D01*
X53403316Y33094867D01*
X53430562Y33087567D01*
X53499099Y33073934D01*
X53531448Y33060535D01*
X53554610Y33054328D01*
X53575377Y33042338D01*
X53607722Y33028940D01*
X53665816Y32990123D01*
X53690257Y32976012D01*
X53696946Y32969323D01*
X53705481Y32963620D01*
X53788619Y32880482D01*
X53794321Y32871948D01*
X53801012Y32865257D01*
X53815124Y32840814D01*
X53853939Y32782723D01*
X53867335Y32750382D01*
X53879328Y32729610D01*
X53885535Y32706445D01*
X53898933Y32674100D01*
X53912565Y32605567D01*
X53919867Y32578316D01*
X53919867Y32568859D01*
X53921870Y32558789D01*
X53921870Y32441212D01*
X53919867Y32431143D01*
X53919867Y32421684D01*
X53912564Y32394431D01*
X53898933Y32325901D01*
X53885535Y32293559D01*
X53879328Y32270390D01*
X53867334Y32249617D01*
X53853939Y32217278D01*
X53815128Y32159195D01*
X53801012Y32134743D01*
X53794319Y32128051D01*
X53788619Y32119519D01*
X53705481Y32036381D01*
X53696949Y32030681D01*
X53690257Y32023988D01*
X53665805Y32009872D01*
X53607722Y31971061D01*
X53575383Y31957666D01*
X53554610Y31945672D01*
X53531441Y31939465D01*
X53499099Y31926067D01*
X53430576Y31912438D01*
X53403316Y31905133D01*
X53389203Y31904209D01*
X53382577Y31902890D01*
X53328691Y31900242D01*
X53325000Y31900000D01*
X53323768Y31900000D01*
X52776232Y31900000D01*
X52775000Y31900000D01*
X52771308Y31900242D01*
X52717422Y31902890D01*
X52710795Y31904209D01*
X52696684Y31905133D01*
X52669426Y31912437D01*
X52600900Y31926067D01*
X52568555Y31939465D01*
X52545390Y31945672D01*
X52524618Y31957665D01*
X52492277Y31971061D01*
X52434186Y32009876D01*
X52409743Y32023988D01*
X52403052Y32030679D01*
X52394518Y32036381D01*
X52311380Y32119519D01*
X52305677Y32128054D01*
X52298988Y32134743D01*
X52284877Y32159184D01*
X52246060Y32217278D01*
X52232662Y32249623D01*
X52220672Y32270390D01*
X52214465Y32293552D01*
X52201066Y32325901D01*
X52187433Y32394437D01*
X52180133Y32421684D01*
X52180133Y32431142D01*
X52178130Y32441212D01*
X52178130Y32558789D01*
X52180133Y32568860D01*
X52180133Y32578316D01*
X52187433Y32605561D01*
X52201066Y32674100D01*
X52214466Y32706452D01*
X52220672Y32729610D01*
X52232660Y32750376D01*
X52246060Y32782723D01*
X52284881Y32840825D01*
X52298988Y32865257D01*
X52305675Y32871945D01*
X52311380Y32880482D01*
X52394518Y32963620D01*
X52403055Y32969325D01*
X52409743Y32976012D01*
X52434175Y32990119D01*
X52492277Y33028940D01*
X52524624Y33042340D01*
X52545390Y33054328D01*
X52568548Y33060534D01*
X52600900Y33073934D01*
X52669440Y33087568D01*
X52696684Y33094867D01*
X52710787Y33095792D01*
X52717422Y33097111D01*
X52771313Y33099759D01*
X52775000Y33100000D01*
X53325000Y33100000D01*
X53328686Y33099759D01*
G37*
G36*
X53328686Y35099759D02*
G01*
X53382577Y35097111D01*
X53389210Y35095792D01*
X53403316Y35094867D01*
X53430562Y35087567D01*
X53499099Y35073934D01*
X53531448Y35060535D01*
X53554610Y35054328D01*
X53575377Y35042338D01*
X53607722Y35028940D01*
X53665816Y34990123D01*
X53690257Y34976012D01*
X53696946Y34969323D01*
X53705481Y34963620D01*
X53788619Y34880482D01*
X53794321Y34871948D01*
X53801012Y34865257D01*
X53815124Y34840814D01*
X53853939Y34782723D01*
X53867335Y34750382D01*
X53879328Y34729610D01*
X53885535Y34706445D01*
X53898933Y34674100D01*
X53912565Y34605567D01*
X53919867Y34578316D01*
X53919867Y34568859D01*
X53921870Y34558789D01*
X53921870Y34441212D01*
X53919867Y34431143D01*
X53919867Y34421684D01*
X53912564Y34394431D01*
X53898933Y34325901D01*
X53885535Y34293559D01*
X53879328Y34270390D01*
X53867334Y34249617D01*
X53853939Y34217278D01*
X53815128Y34159195D01*
X53801012Y34134743D01*
X53794319Y34128051D01*
X53788619Y34119519D01*
X53705481Y34036381D01*
X53696949Y34030681D01*
X53690257Y34023988D01*
X53665805Y34009872D01*
X53607722Y33971061D01*
X53575383Y33957666D01*
X53554610Y33945672D01*
X53531441Y33939465D01*
X53499099Y33926067D01*
X53430576Y33912438D01*
X53403316Y33905133D01*
X53389203Y33904209D01*
X53382577Y33902890D01*
X53328691Y33900242D01*
X53325000Y33900000D01*
X53323768Y33900000D01*
X52776232Y33900000D01*
X52775000Y33900000D01*
X52771308Y33900242D01*
X52717422Y33902890D01*
X52710795Y33904209D01*
X52696684Y33905133D01*
X52669426Y33912437D01*
X52600900Y33926067D01*
X52568555Y33939465D01*
X52545390Y33945672D01*
X52524618Y33957665D01*
X52492277Y33971061D01*
X52434186Y34009876D01*
X52409743Y34023988D01*
X52403052Y34030679D01*
X52394518Y34036381D01*
X52311380Y34119519D01*
X52305677Y34128054D01*
X52298988Y34134743D01*
X52284877Y34159184D01*
X52246060Y34217278D01*
X52232662Y34249623D01*
X52220672Y34270390D01*
X52214465Y34293552D01*
X52201066Y34325901D01*
X52187433Y34394437D01*
X52180133Y34421684D01*
X52180133Y34431142D01*
X52178130Y34441212D01*
X52178130Y34558789D01*
X52180133Y34568860D01*
X52180133Y34578316D01*
X52187433Y34605561D01*
X52201066Y34674100D01*
X52214466Y34706452D01*
X52220672Y34729610D01*
X52232660Y34750376D01*
X52246060Y34782723D01*
X52284881Y34840825D01*
X52298988Y34865257D01*
X52305675Y34871945D01*
X52311380Y34880482D01*
X52394518Y34963620D01*
X52403055Y34969325D01*
X52409743Y34976012D01*
X52434175Y34990119D01*
X52492277Y35028940D01*
X52524624Y35042340D01*
X52545390Y35054328D01*
X52568548Y35060534D01*
X52600900Y35073934D01*
X52669440Y35087568D01*
X52696684Y35094867D01*
X52710787Y35095792D01*
X52717422Y35097111D01*
X52771313Y35099759D01*
X52775000Y35100000D01*
X53325000Y35100000D01*
X53328686Y35099759D01*
G37*
G36*
X2046742Y35973399D02*
G01*
X2200687Y35909633D01*
X2339234Y35817059D01*
X2457059Y35699234D01*
X2549633Y35560687D01*
X2613399Y35406742D01*
X2645907Y35243315D01*
X2645907Y35076685D01*
X2613399Y34913258D01*
X2549633Y34759313D01*
X2457059Y34620766D01*
X2339234Y34502941D01*
X2200687Y34410367D01*
X2046742Y34346601D01*
X1883315Y34314093D01*
X1716685Y34314093D01*
X1553258Y34346601D01*
X1399313Y34410367D01*
X1260766Y34502941D01*
X1142941Y34620766D01*
X1050367Y34759313D01*
X986601Y34913258D01*
X954093Y35076685D01*
X954093Y35243315D01*
X986601Y35406742D01*
X1050367Y35560687D01*
X1142941Y35699234D01*
X1260766Y35817059D01*
X1399313Y35909633D01*
X1553258Y35973399D01*
X1716685Y36005907D01*
X1883315Y36005907D01*
X2046742Y35973399D01*
G37*
G36*
X2046742Y38513399D02*
G01*
X2200687Y38449633D01*
X2339234Y38357059D01*
X2457059Y38239234D01*
X2549633Y38100687D01*
X2613399Y37946742D01*
X2645907Y37783315D01*
X2645907Y37616685D01*
X2613399Y37453258D01*
X2549633Y37299313D01*
X2457059Y37160766D01*
X2339234Y37042941D01*
X2200687Y36950367D01*
X2046742Y36886601D01*
X1883315Y36854093D01*
X1716685Y36854093D01*
X1553258Y36886601D01*
X1399313Y36950367D01*
X1260766Y37042941D01*
X1142941Y37160766D01*
X1050367Y37299313D01*
X986601Y37453258D01*
X954093Y37616685D01*
X954093Y37783315D01*
X986601Y37946742D01*
X1050367Y38100687D01*
X1142941Y38239234D01*
X1260766Y38357059D01*
X1399313Y38449633D01*
X1553258Y38513399D01*
X1716685Y38545907D01*
X1883315Y38545907D01*
X2046742Y38513399D01*
G37*
G36*
X53679047Y40499195D02*
G01*
X53730408Y40493236D01*
X53747954Y40485489D01*
X53770671Y40480970D01*
X53794991Y40464720D01*
X53815793Y40455535D01*
X53830000Y40441328D01*
X53851777Y40426777D01*
X53866327Y40405001D01*
X53880534Y40390794D01*
X53889718Y40369994D01*
X53905970Y40345671D01*
X53910489Y40322952D01*
X53918235Y40305409D01*
X53924192Y40254060D01*
X53925000Y40250000D01*
X53925000Y39550000D01*
X53924192Y39545941D01*
X53918235Y39494592D01*
X53910489Y39477050D01*
X53905970Y39454329D01*
X53889716Y39430005D01*
X53880534Y39409207D01*
X53866329Y39395003D01*
X53851777Y39373223D01*
X53829997Y39358671D01*
X53815793Y39344466D01*
X53794995Y39335284D01*
X53770671Y39319030D01*
X53747950Y39314511D01*
X53730408Y39306765D01*
X53679061Y39300808D01*
X53675000Y39300000D01*
X52425000Y39300000D01*
X52420941Y39300808D01*
X52369591Y39306765D01*
X52352048Y39314511D01*
X52329329Y39319030D01*
X52305006Y39335282D01*
X52284206Y39344466D01*
X52269999Y39358673D01*
X52248223Y39373223D01*
X52233672Y39395000D01*
X52219465Y39409207D01*
X52210280Y39430009D01*
X52194030Y39454329D01*
X52189511Y39477046D01*
X52181764Y39494592D01*
X52175805Y39545951D01*
X52175000Y39550000D01*
X52175000Y40250000D01*
X52175804Y40254047D01*
X52181764Y40305409D01*
X52189511Y40322957D01*
X52194030Y40345671D01*
X52210278Y40369990D01*
X52219465Y40390794D01*
X52233674Y40405004D01*
X52248223Y40426777D01*
X52269996Y40441326D01*
X52284206Y40455535D01*
X52305010Y40464722D01*
X52329329Y40480970D01*
X52352043Y40485489D01*
X52369591Y40493236D01*
X52420952Y40499195D01*
X52425000Y40500000D01*
X53675000Y40500000D01*
X53679047Y40499195D01*
G37*
G36*
X2650000Y40850000D02*
G01*
X950000Y40850000D01*
X950000Y42550000D01*
X2650000Y42550000D01*
X2650000Y40850000D01*
G37*
G36*
X53328686Y42499759D02*
G01*
X53382577Y42497111D01*
X53389210Y42495792D01*
X53403316Y42494867D01*
X53430562Y42487567D01*
X53499099Y42473934D01*
X53531448Y42460535D01*
X53554610Y42454328D01*
X53575377Y42442338D01*
X53607722Y42428940D01*
X53665816Y42390123D01*
X53690257Y42376012D01*
X53696946Y42369323D01*
X53705481Y42363620D01*
X53788619Y42280482D01*
X53794321Y42271948D01*
X53801012Y42265257D01*
X53815124Y42240814D01*
X53853939Y42182723D01*
X53867335Y42150382D01*
X53879328Y42129610D01*
X53885535Y42106445D01*
X53898933Y42074100D01*
X53912565Y42005567D01*
X53919867Y41978316D01*
X53919867Y41968859D01*
X53921870Y41958789D01*
X53921870Y41841212D01*
X53919867Y41831143D01*
X53919867Y41821684D01*
X53912564Y41794431D01*
X53898933Y41725901D01*
X53885535Y41693559D01*
X53879328Y41670390D01*
X53867334Y41649617D01*
X53853939Y41617278D01*
X53815128Y41559195D01*
X53801012Y41534743D01*
X53794319Y41528051D01*
X53788619Y41519519D01*
X53705481Y41436381D01*
X53696949Y41430681D01*
X53690257Y41423988D01*
X53665805Y41409872D01*
X53607722Y41371061D01*
X53575383Y41357666D01*
X53554610Y41345672D01*
X53531441Y41339465D01*
X53499099Y41326067D01*
X53430576Y41312438D01*
X53403316Y41305133D01*
X53389203Y41304209D01*
X53382577Y41302890D01*
X53328691Y41300242D01*
X53325000Y41300000D01*
X53323768Y41300000D01*
X52776232Y41300000D01*
X52775000Y41300000D01*
X52771308Y41300242D01*
X52717422Y41302890D01*
X52710795Y41304209D01*
X52696684Y41305133D01*
X52669426Y41312437D01*
X52600900Y41326067D01*
X52568555Y41339465D01*
X52545390Y41345672D01*
X52524618Y41357665D01*
X52492277Y41371061D01*
X52434186Y41409876D01*
X52409743Y41423988D01*
X52403052Y41430679D01*
X52394518Y41436381D01*
X52311380Y41519519D01*
X52305677Y41528054D01*
X52298988Y41534743D01*
X52284877Y41559184D01*
X52246060Y41617278D01*
X52232662Y41649623D01*
X52220672Y41670390D01*
X52214465Y41693552D01*
X52201066Y41725901D01*
X52187433Y41794437D01*
X52180133Y41821684D01*
X52180133Y41831142D01*
X52178130Y41841212D01*
X52178130Y41958789D01*
X52180133Y41968860D01*
X52180133Y41978316D01*
X52187433Y42005561D01*
X52201066Y42074100D01*
X52214466Y42106452D01*
X52220672Y42129610D01*
X52232660Y42150376D01*
X52246060Y42182723D01*
X52284881Y42240825D01*
X52298988Y42265257D01*
X52305675Y42271945D01*
X52311380Y42280482D01*
X52394518Y42363620D01*
X52403055Y42369325D01*
X52409743Y42376012D01*
X52434175Y42390119D01*
X52492277Y42428940D01*
X52524624Y42442340D01*
X52545390Y42454328D01*
X52568548Y42460534D01*
X52600900Y42473934D01*
X52669440Y42487568D01*
X52696684Y42494867D01*
X52710787Y42495792D01*
X52717422Y42497111D01*
X52771313Y42499759D01*
X52775000Y42500000D01*
X53325000Y42500000D01*
X53328686Y42499759D01*
G37*
G36*
X53328686Y44499759D02*
G01*
X53382577Y44497111D01*
X53389210Y44495792D01*
X53403316Y44494867D01*
X53430562Y44487567D01*
X53499099Y44473934D01*
X53531448Y44460535D01*
X53554610Y44454328D01*
X53575377Y44442338D01*
X53607722Y44428940D01*
X53665816Y44390123D01*
X53690257Y44376012D01*
X53696946Y44369323D01*
X53705481Y44363620D01*
X53788619Y44280482D01*
X53794321Y44271948D01*
X53801012Y44265257D01*
X53815124Y44240814D01*
X53853939Y44182723D01*
X53867335Y44150382D01*
X53879328Y44129610D01*
X53885535Y44106445D01*
X53898933Y44074100D01*
X53912565Y44005567D01*
X53919867Y43978316D01*
X53919867Y43968859D01*
X53921870Y43958789D01*
X53921870Y43841212D01*
X53919867Y43831143D01*
X53919867Y43821684D01*
X53912564Y43794431D01*
X53898933Y43725901D01*
X53885535Y43693559D01*
X53879328Y43670390D01*
X53867334Y43649617D01*
X53853939Y43617278D01*
X53815128Y43559195D01*
X53801012Y43534743D01*
X53794319Y43528051D01*
X53788619Y43519519D01*
X53705481Y43436381D01*
X53696949Y43430681D01*
X53690257Y43423988D01*
X53665805Y43409872D01*
X53607722Y43371061D01*
X53575383Y43357666D01*
X53554610Y43345672D01*
X53531441Y43339465D01*
X53499099Y43326067D01*
X53430576Y43312438D01*
X53403316Y43305133D01*
X53389203Y43304209D01*
X53382577Y43302890D01*
X53328691Y43300242D01*
X53325000Y43300000D01*
X53323768Y43300000D01*
X52776232Y43300000D01*
X52775000Y43300000D01*
X52771308Y43300242D01*
X52717422Y43302890D01*
X52710795Y43304209D01*
X52696684Y43305133D01*
X52669426Y43312437D01*
X52600900Y43326067D01*
X52568555Y43339465D01*
X52545390Y43345672D01*
X52524618Y43357665D01*
X52492277Y43371061D01*
X52434186Y43409876D01*
X52409743Y43423988D01*
X52403052Y43430679D01*
X52394518Y43436381D01*
X52311380Y43519519D01*
X52305677Y43528054D01*
X52298988Y43534743D01*
X52284877Y43559184D01*
X52246060Y43617278D01*
X52232662Y43649623D01*
X52220672Y43670390D01*
X52214465Y43693552D01*
X52201066Y43725901D01*
X52187433Y43794437D01*
X52180133Y43821684D01*
X52180133Y43831142D01*
X52178130Y43841212D01*
X52178130Y43958789D01*
X52180133Y43968860D01*
X52180133Y43978316D01*
X52187433Y44005561D01*
X52201066Y44074100D01*
X52214466Y44106452D01*
X52220672Y44129610D01*
X52232660Y44150376D01*
X52246060Y44182723D01*
X52284881Y44240825D01*
X52298988Y44265257D01*
X52305675Y44271945D01*
X52311380Y44280482D01*
X52394518Y44363620D01*
X52403055Y44369325D01*
X52409743Y44376012D01*
X52434175Y44390119D01*
X52492277Y44428940D01*
X52524624Y44442340D01*
X52545390Y44454328D01*
X52568548Y44460534D01*
X52600900Y44473934D01*
X52669440Y44487568D01*
X52696684Y44494867D01*
X52710787Y44495792D01*
X52717422Y44497111D01*
X52771313Y44499759D01*
X52775000Y44500000D01*
X53325000Y44500000D01*
X53328686Y44499759D01*
G37*
G36*
X2046742Y45053399D02*
G01*
X2200687Y44989633D01*
X2339234Y44897059D01*
X2457059Y44779234D01*
X2549633Y44640687D01*
X2613399Y44486742D01*
X2645907Y44323315D01*
X2645907Y44156685D01*
X2613399Y43993258D01*
X2549633Y43839313D01*
X2457059Y43700766D01*
X2339234Y43582941D01*
X2200687Y43490367D01*
X2046742Y43426601D01*
X1883315Y43394093D01*
X1716685Y43394093D01*
X1553258Y43426601D01*
X1399313Y43490367D01*
X1260766Y43582941D01*
X1142941Y43700766D01*
X1050367Y43839313D01*
X986601Y43993258D01*
X954093Y44156685D01*
X954093Y44323315D01*
X986601Y44486742D01*
X1050367Y44640687D01*
X1142941Y44779234D01*
X1260766Y44897059D01*
X1399313Y44989633D01*
X1553258Y45053399D01*
X1716685Y45085907D01*
X1883315Y45085907D01*
X2046742Y45053399D01*
G37*
G36*
X2046742Y47593399D02*
G01*
X2200687Y47529633D01*
X2339234Y47437059D01*
X2457059Y47319234D01*
X2549633Y47180687D01*
X2613399Y47026742D01*
X2645907Y46863315D01*
X2645907Y46696685D01*
X2613399Y46533258D01*
X2549633Y46379313D01*
X2457059Y46240766D01*
X2339234Y46122941D01*
X2200687Y46030367D01*
X2046742Y45966601D01*
X1883315Y45934093D01*
X1716685Y45934093D01*
X1553258Y45966601D01*
X1399313Y46030367D01*
X1260766Y46122941D01*
X1142941Y46240766D01*
X1050367Y46379313D01*
X986601Y46533258D01*
X954093Y46696685D01*
X954093Y46863315D01*
X986601Y47026742D01*
X1050367Y47180687D01*
X1142941Y47319234D01*
X1260766Y47437059D01*
X1399313Y47529633D01*
X1553258Y47593399D01*
X1716685Y47625907D01*
X1883315Y47625907D01*
X2046742Y47593399D01*
G37*
G36*
X6554372Y70770261D02*
G01*
X6627847Y70727840D01*
X6687840Y70667847D01*
X6730261Y70594372D01*
X6752220Y70512421D01*
X6752220Y70427579D01*
X6730261Y70345628D01*
X6687840Y70272153D01*
X6627847Y70212160D01*
X6554372Y70169739D01*
X6472421Y70147780D01*
X6387579Y70147780D01*
X6305628Y70169739D01*
X6232153Y70212160D01*
X6172160Y70272153D01*
X6129739Y70345628D01*
X6107780Y70427579D01*
X6107780Y70512421D01*
X6129739Y70594372D01*
X6172160Y70667847D01*
X6232153Y70727840D01*
X6305628Y70770261D01*
X6387579Y70792220D01*
X6472421Y70792220D01*
X6554372Y70770261D01*
G37*
G36*
X54506742Y72873399D02*
G01*
X54660687Y72809633D01*
X54799234Y72717059D01*
X54917059Y72599234D01*
X55009633Y72460687D01*
X55073399Y72306742D01*
X55105907Y72143315D01*
X55105907Y71976685D01*
X55073399Y71813258D01*
X55009633Y71659313D01*
X54917059Y71520766D01*
X54799234Y71402941D01*
X54660687Y71310367D01*
X54506742Y71246601D01*
X54343315Y71214093D01*
X54176685Y71214093D01*
X54013258Y71246601D01*
X53859313Y71310367D01*
X53720766Y71402941D01*
X53602941Y71520766D01*
X53510367Y71659313D01*
X53446601Y71813258D01*
X53414093Y71976685D01*
X53414093Y72143315D01*
X53446601Y72306742D01*
X53510367Y72460687D01*
X53602941Y72599234D01*
X53720766Y72717059D01*
X53859313Y72809633D01*
X54013258Y72873399D01*
X54176685Y72905907D01*
X54343315Y72905907D01*
X54506742Y72873399D01*
G37*
G36*
X57046742Y72873399D02*
G01*
X57200687Y72809633D01*
X57339234Y72717059D01*
X57457059Y72599234D01*
X57549633Y72460687D01*
X57613399Y72306742D01*
X57645907Y72143315D01*
X57645907Y71976685D01*
X57613399Y71813258D01*
X57549633Y71659313D01*
X57457059Y71520766D01*
X57339234Y71402941D01*
X57200687Y71310367D01*
X57046742Y71246601D01*
X56883315Y71214093D01*
X56716685Y71214093D01*
X56553258Y71246601D01*
X56399313Y71310367D01*
X56260766Y71402941D01*
X56142941Y71520766D01*
X56050367Y71659313D01*
X55986601Y71813258D01*
X55954093Y71976685D01*
X55954093Y72143315D01*
X55986601Y72306742D01*
X56050367Y72460687D01*
X56142941Y72599234D01*
X56260766Y72717059D01*
X56399313Y72809633D01*
X56553258Y72873399D01*
X56716685Y72905907D01*
X56883315Y72905907D01*
X57046742Y72873399D01*
G37*
G36*
X54506742Y75413399D02*
G01*
X54660687Y75349633D01*
X54799234Y75257059D01*
X54917059Y75139234D01*
X55009633Y75000687D01*
X55073399Y74846742D01*
X55105907Y74683315D01*
X55105907Y74516685D01*
X55073399Y74353258D01*
X55009633Y74199313D01*
X54917059Y74060766D01*
X54799234Y73942941D01*
X54660687Y73850367D01*
X54506742Y73786601D01*
X54343315Y73754093D01*
X54176685Y73754093D01*
X54013258Y73786601D01*
X53859313Y73850367D01*
X53720766Y73942941D01*
X53602941Y74060766D01*
X53510367Y74199313D01*
X53446601Y74353258D01*
X53414093Y74516685D01*
X53414093Y74683315D01*
X53446601Y74846742D01*
X53510367Y75000687D01*
X53602941Y75139234D01*
X53720766Y75257059D01*
X53859313Y75349633D01*
X54013258Y75413399D01*
X54176685Y75445907D01*
X54343315Y75445907D01*
X54506742Y75413399D01*
G37*
G36*
X57046742Y75413399D02*
G01*
X57200687Y75349633D01*
X57339234Y75257059D01*
X57457059Y75139234D01*
X57549633Y75000687D01*
X57613399Y74846742D01*
X57645907Y74683315D01*
X57645907Y74516685D01*
X57613399Y74353258D01*
X57549633Y74199313D01*
X57457059Y74060766D01*
X57339234Y73942941D01*
X57200687Y73850367D01*
X57046742Y73786601D01*
X56883315Y73754093D01*
X56716685Y73754093D01*
X56553258Y73786601D01*
X56399313Y73850367D01*
X56260766Y73942941D01*
X56142941Y74060766D01*
X56050367Y74199313D01*
X55986601Y74353258D01*
X55954093Y74516685D01*
X55954093Y74683315D01*
X55986601Y74846742D01*
X56050367Y75000687D01*
X56142941Y75139234D01*
X56260766Y75257059D01*
X56399313Y75349633D01*
X56553258Y75413399D01*
X56716685Y75445907D01*
X56883315Y75445907D01*
X57046742Y75413399D01*
G37*
G36*
X6554372Y76550261D02*
G01*
X6627847Y76507840D01*
X6687840Y76447847D01*
X6730261Y76374372D01*
X6752220Y76292421D01*
X6752220Y76207579D01*
X6730261Y76125628D01*
X6687840Y76052153D01*
X6627847Y75992160D01*
X6554372Y75949739D01*
X6472421Y75927780D01*
X6387579Y75927780D01*
X6305628Y75949739D01*
X6232153Y75992160D01*
X6172160Y76052153D01*
X6129739Y76125628D01*
X6107780Y76207579D01*
X6107780Y76292421D01*
X6129739Y76374372D01*
X6172160Y76447847D01*
X6232153Y76507840D01*
X6305628Y76550261D01*
X6387579Y76572220D01*
X6472421Y76572220D01*
X6554372Y76550261D01*
G37*
G36*
X55110000Y76290000D02*
G01*
X53410000Y76290000D01*
X53410000Y77990000D01*
X55110000Y77990000D01*
X55110000Y76290000D01*
G37*
G36*
X57046742Y77953399D02*
G01*
X57200687Y77889633D01*
X57339234Y77797059D01*
X57457059Y77679234D01*
X57549633Y77540687D01*
X57613399Y77386742D01*
X57645907Y77223315D01*
X57645907Y77056685D01*
X57613399Y76893258D01*
X57549633Y76739313D01*
X57457059Y76600766D01*
X57339234Y76482941D01*
X57200687Y76390367D01*
X57046742Y76326601D01*
X56883315Y76294093D01*
X56716685Y76294093D01*
X56553258Y76326601D01*
X56399313Y76390367D01*
X56260766Y76482941D01*
X56142941Y76600766D01*
X56050367Y76739313D01*
X55986601Y76893258D01*
X55954093Y77056685D01*
X55954093Y77223315D01*
X55986601Y77386742D01*
X56050367Y77540687D01*
X56142941Y77679234D01*
X56260766Y77797059D01*
X56399313Y77889633D01*
X56553258Y77953399D01*
X56716685Y77985907D01*
X56883315Y77985907D01*
X57046742Y77953399D01*
G37*
G36*
X3092885Y88044944D02*
G01*
X3102918Y88044944D01*
X3142117Y88037147D01*
X3245078Y88020840D01*
X3278200Y88010078D01*
X3304799Y88004787D01*
X3342335Y87989240D01*
X3401762Y87969930D01*
X3457433Y87941565D01*
X3494967Y87926017D01*
X3517517Y87910950D01*
X3548539Y87895143D01*
X3632866Y87833876D01*
X3666113Y87811661D01*
X3673208Y87804566D01*
X3681817Y87798311D01*
X3798310Y87681818D01*
X3804564Y87673210D01*
X3811661Y87666113D01*
X3833878Y87632862D01*
X3895142Y87548540D01*
X3910947Y87517521D01*
X3926017Y87494967D01*
X3941566Y87457428D01*
X3969929Y87401763D01*
X3989235Y87342343D01*
X4004787Y87304799D01*
X4010078Y87278195D01*
X4020839Y87245079D01*
X4037145Y87142124D01*
X4044944Y87102918D01*
X4044944Y87092886D01*
X4046609Y87082373D01*
X4046609Y86917628D01*
X4044944Y86907116D01*
X4044944Y86897082D01*
X4037144Y86857874D01*
X4020839Y86754922D01*
X4010079Y86721808D01*
X4004787Y86695201D01*
X3989234Y86657654D01*
X3969929Y86598238D01*
X3941568Y86542578D01*
X3926017Y86505033D01*
X3910945Y86482477D01*
X3895142Y86451461D01*
X3833887Y86367151D01*
X3811661Y86333887D01*
X3804561Y86326788D01*
X3798310Y86318183D01*
X3681817Y86201690D01*
X3673212Y86195439D01*
X3666113Y86188339D01*
X3632849Y86166113D01*
X3548539Y86104858D01*
X3517523Y86089055D01*
X3494967Y86073983D01*
X3457422Y86058432D01*
X3401762Y86030071D01*
X3342346Y86010766D01*
X3304799Y85995213D01*
X3278192Y85989921D01*
X3245078Y85979161D01*
X3142126Y85962856D01*
X3102918Y85955056D01*
X3092884Y85955056D01*
X3082372Y85953391D01*
X2917628Y85953391D01*
X2907115Y85955056D01*
X2897082Y85955056D01*
X2857874Y85962855D01*
X2754921Y85979161D01*
X2721805Y85989922D01*
X2695201Y85995213D01*
X2657657Y86010765D01*
X2598237Y86030071D01*
X2542572Y86058434D01*
X2505033Y86073983D01*
X2482479Y86089053D01*
X2451460Y86104858D01*
X2367138Y86166122D01*
X2333887Y86188339D01*
X2326790Y86195436D01*
X2318182Y86201690D01*
X2201689Y86318183D01*
X2195434Y86326792D01*
X2188339Y86333887D01*
X2166124Y86367134D01*
X2104857Y86451461D01*
X2089050Y86482483D01*
X2073983Y86505033D01*
X2058435Y86542567D01*
X2030070Y86598238D01*
X2010760Y86657665D01*
X1995213Y86695201D01*
X1989922Y86721800D01*
X1979160Y86754922D01*
X1962853Y86857883D01*
X1955056Y86897082D01*
X1955056Y86907116D01*
X1953391Y86917628D01*
X1953391Y87082373D01*
X1955056Y87092886D01*
X1955056Y87102918D01*
X1962852Y87142114D01*
X1979160Y87245079D01*
X1989922Y87278203D01*
X1995213Y87304799D01*
X2010759Y87342332D01*
X2030070Y87401763D01*
X2058438Y87457439D01*
X2073983Y87494967D01*
X2089048Y87517514D01*
X2104857Y87548540D01*
X2166132Y87632879D01*
X2188339Y87666113D01*
X2195432Y87673207D01*
X2201689Y87681818D01*
X2318182Y87798311D01*
X2326793Y87804568D01*
X2333887Y87811661D01*
X2367121Y87833868D01*
X2451460Y87895143D01*
X2482486Y87910952D01*
X2505033Y87926017D01*
X2542561Y87941562D01*
X2598237Y87969930D01*
X2657668Y87989241D01*
X2695201Y88004787D01*
X2721797Y88010078D01*
X2754921Y88020840D01*
X2857883Y88037147D01*
X2897082Y88044944D01*
X2907115Y88044944D01*
X2917628Y88046609D01*
X3082372Y88046609D01*
X3092885Y88044944D01*
G37*
G36*
X57092885Y88044944D02*
G01*
X57102918Y88044944D01*
X57142117Y88037147D01*
X57245078Y88020840D01*
X57278200Y88010078D01*
X57304799Y88004787D01*
X57342335Y87989240D01*
X57401762Y87969930D01*
X57457433Y87941565D01*
X57494967Y87926017D01*
X57517517Y87910950D01*
X57548539Y87895143D01*
X57632866Y87833876D01*
X57666113Y87811661D01*
X57673208Y87804566D01*
X57681817Y87798311D01*
X57798310Y87681818D01*
X57804564Y87673210D01*
X57811661Y87666113D01*
X57833878Y87632862D01*
X57895142Y87548540D01*
X57910947Y87517521D01*
X57926017Y87494967D01*
X57941566Y87457428D01*
X57969929Y87401763D01*
X57989235Y87342343D01*
X58004787Y87304799D01*
X58010078Y87278195D01*
X58020839Y87245079D01*
X58037145Y87142124D01*
X58044944Y87102918D01*
X58044944Y87092886D01*
X58046609Y87082373D01*
X58046609Y86917628D01*
X58044944Y86907116D01*
X58044944Y86897082D01*
X58037144Y86857874D01*
X58020839Y86754922D01*
X58010079Y86721808D01*
X58004787Y86695201D01*
X57989234Y86657654D01*
X57969929Y86598238D01*
X57941568Y86542578D01*
X57926017Y86505033D01*
X57910945Y86482477D01*
X57895142Y86451461D01*
X57833887Y86367151D01*
X57811661Y86333887D01*
X57804561Y86326788D01*
X57798310Y86318183D01*
X57681817Y86201690D01*
X57673212Y86195439D01*
X57666113Y86188339D01*
X57632849Y86166113D01*
X57548539Y86104858D01*
X57517523Y86089055D01*
X57494967Y86073983D01*
X57457422Y86058432D01*
X57401762Y86030071D01*
X57342346Y86010766D01*
X57304799Y85995213D01*
X57278192Y85989921D01*
X57245078Y85979161D01*
X57142126Y85962856D01*
X57102918Y85955056D01*
X57092884Y85955056D01*
X57082372Y85953391D01*
X56917628Y85953391D01*
X56907115Y85955056D01*
X56897082Y85955056D01*
X56857874Y85962855D01*
X56754921Y85979161D01*
X56721805Y85989922D01*
X56695201Y85995213D01*
X56657657Y86010765D01*
X56598237Y86030071D01*
X56542572Y86058434D01*
X56505033Y86073983D01*
X56482479Y86089053D01*
X56451460Y86104858D01*
X56367138Y86166122D01*
X56333887Y86188339D01*
X56326790Y86195436D01*
X56318182Y86201690D01*
X56201689Y86318183D01*
X56195434Y86326792D01*
X56188339Y86333887D01*
X56166124Y86367134D01*
X56104857Y86451461D01*
X56089050Y86482483D01*
X56073983Y86505033D01*
X56058435Y86542567D01*
X56030070Y86598238D01*
X56010760Y86657665D01*
X55995213Y86695201D01*
X55989922Y86721800D01*
X55979160Y86754922D01*
X55962853Y86857883D01*
X55955056Y86897082D01*
X55955056Y86907116D01*
X55953391Y86917628D01*
X55953391Y87082373D01*
X55955056Y87092886D01*
X55955056Y87102918D01*
X55962852Y87142114D01*
X55979160Y87245079D01*
X55989922Y87278203D01*
X55995213Y87304799D01*
X56010759Y87342332D01*
X56030070Y87401763D01*
X56058438Y87457439D01*
X56073983Y87494967D01*
X56089048Y87517514D01*
X56104857Y87548540D01*
X56166132Y87632879D01*
X56188339Y87666113D01*
X56195432Y87673207D01*
X56201689Y87681818D01*
X56318182Y87798311D01*
X56326793Y87804568D01*
X56333887Y87811661D01*
X56367121Y87833868D01*
X56451460Y87895143D01*
X56482486Y87910952D01*
X56505033Y87926017D01*
X56542561Y87941562D01*
X56598237Y87969930D01*
X56657668Y87989241D01*
X56695201Y88004787D01*
X56721797Y88010078D01*
X56754921Y88020840D01*
X56857883Y88037147D01*
X56897082Y88044944D01*
X56907115Y88044944D01*
X56917628Y88046609D01*
X57082372Y88046609D01*
X57092885Y88044944D01*
G37*
M02*
