%TF.GenerationSoftware,KiCad,Pcbnew,10.0.0*%
%TF.CreationDate,2026-08-23T11:31:46-05:00*%
%TF.ProjectId,2027Payload,32303237-5061-4796-9c6f-61642e6b6963,rev?*%
%TF.SameCoordinates,PXac9d740PY90f5600*%
%TF.FileFunction,Copper,L2,Inr*%
%TF.FilePolarity,Positive*%
%FSLAX46Y46*%
G04 Gerber Fmt 4.6, Leading zero omitted, Abs format (unit mm)*
G04 Created by KiCad (PCBNEW 10.0.0) date 2026-08-23 11:31:46*
%MOMM*%
%LPD*%
G01*
G04 APERTURE LIST*
G04 Aperture macros list*
%AMRoundRect*
0 Rectangle with rounded corners*
0 $1 Rounding radius*
0 $2 $3 $4 $5 $6 $7 $8 $9 X,Y pos of 4 corners*
0 Add a 4 corners polygon primitive as box body*
4,1,4,$2,$3,$4,$5,$6,$7,$8,$9,$2,$3,0*
0 Add four circle primitives for the rounded corners*
1,1,$1+$1,$2,$3*
1,1,$1+$1,$4,$5*
1,1,$1+$1,$6,$7*
1,1,$1+$1,$8,$9*
0 Add four rect primitives between the rounded corners*
20,1,$1+$1,$2,$3,$4,$5,0*
20,1,$1+$1,$4,$5,$6,$7,0*
20,1,$1+$1,$6,$7,$8,$9,0*
20,1,$1+$1,$8,$9,$2,$3,0*%
G04 Aperture macros list end*
%TA.AperFunction,ComponentPad*%
%ADD10R,1.700000X1.700000*%
%TD*%
%TA.AperFunction,ComponentPad*%
%ADD11C,1.700000*%
%TD*%
%TA.AperFunction,ComponentPad*%
%ADD12C,0.450000*%
%TD*%
%TA.AperFunction,ComponentPad*%
%ADD13C,0.400000*%
%TD*%
%TA.AperFunction,ComponentPad*%
%ADD14RoundRect,0.250000X0.625000X-0.350000X0.625000X0.350000X-0.625000X0.350000X-0.625000X-0.350000X0*%
%TD*%
%TA.AperFunction,ComponentPad*%
%ADD15O,1.750000X1.200000*%
%TD*%
%TA.AperFunction,ViaPad*%
%ADD16C,0.900000*%
%TD*%
%TA.AperFunction,ViaPad*%
%ADD17C,0.700000*%
%TD*%
%TA.AperFunction,ViaPad*%
%ADD18C,0.600000*%
%TD*%
G04 APERTURE END LIST*
D10*
%TO.N,Net-(J12-Pin_1)*%
%TO.C,J12*%
X42045000Y2045000D03*
D11*
%TO.N,+5V*%
X44585000Y2045000D03*
%TO.N,GND*%
X47125000Y2045000D03*
%TD*%
D12*
%TO.N,GND*%
%TO.C,U9*%
X13975000Y79885000D03*
X13400000Y78935000D03*
X13400000Y80835000D03*
X12825000Y79885000D03*
%TD*%
D10*
%TO.N,Net-(J5-Pin_1)*%
%TO.C,J5*%
X1800000Y23620000D03*
D11*
%TO.N,+5V*%
X1800000Y26160000D03*
%TO.N,GND*%
X1800000Y28700000D03*
%TD*%
D13*
%TO.N,GND*%
%TO.C,U1*%
X27350000Y81980000D03*
X27350000Y80580000D03*
X28050000Y82680000D03*
X28050000Y81280000D03*
X28050000Y79880000D03*
X28750000Y81980000D03*
X28750000Y80580000D03*
X29450000Y82680000D03*
X29450000Y81280000D03*
X29450000Y79880000D03*
X30150000Y81980000D03*
X30150000Y80580000D03*
%TD*%
D10*
%TO.N,Net-(J3-Pin_1)*%
%TO.C,J3*%
X1800000Y41700000D03*
D11*
%TO.N,+5V*%
X1800000Y44240000D03*
%TO.N,GND*%
X1800000Y46780000D03*
%TD*%
D10*
%TO.N,Net-(J4-Pin_1)*%
%TO.C,J4*%
X1800000Y32620000D03*
D11*
%TO.N,+5V*%
X1800000Y35160000D03*
%TO.N,GND*%
X1800000Y37700000D03*
%TD*%
D14*
%TO.N,IO17*%
%TO.C,J11*%
X53050000Y39900000D03*
D15*
%TO.N,IO18*%
X53050000Y41900000D03*
%TO.N,GND*%
X53050000Y43900000D03*
%TD*%
D10*
%TO.N,GND*%
%TO.C,J10*%
X54260000Y77140000D03*
D11*
%TO.N,IO38*%
X56800000Y77140000D03*
%TO.N,IO39*%
X54260000Y74600000D03*
%TO.N,IO40*%
X56800000Y74600000D03*
%TO.N,IO41*%
X54260000Y72060000D03*
%TO.N,+3.3V*%
X56800000Y72060000D03*
%TD*%
D13*
%TO.N,GND*%
%TO.C,U3*%
X46600000Y33450000D03*
X46600000Y32350000D03*
%TD*%
D14*
%TO.N,5V_SW*%
%TO.C,J8*%
X53050000Y28500000D03*
D15*
X53050000Y30500000D03*
%TO.N,GND*%
X53050000Y32500000D03*
X53050000Y34500000D03*
%TD*%
D16*
%TO.N,IO14*%
X32750000Y68750000D03*
X40250000Y6500000D03*
%TO.N,GND*%
X24000000Y21000000D03*
%TO.N,+5V*%
X24250000Y25000000D03*
%TO.N,GND*%
X30000000Y26500000D03*
X33750000Y53250000D03*
X41225000Y26325000D03*
D17*
X37250000Y89000000D03*
D16*
X53000000Y11570000D03*
X45000000Y26600000D03*
X41225000Y18012500D03*
X7250000Y63500000D03*
X55755000Y7480000D03*
D17*
X32400000Y18000000D03*
D16*
X29250000Y14750000D03*
D17*
X6500000Y66200000D03*
D16*
X27500000Y53500000D03*
X41225000Y16350000D03*
X9840000Y67780000D03*
D17*
X3490000Y80570000D03*
X2480000Y80570000D03*
D16*
X33280000Y50280000D03*
X45750000Y64500000D03*
D17*
X7500000Y66200000D03*
X9090000Y79710000D03*
D16*
X43200000Y40200000D03*
X53000000Y8860000D03*
D17*
X23250000Y89000000D03*
D16*
X35200000Y7000000D03*
X49200000Y38800000D03*
X53000000Y10215000D03*
X4600000Y84000000D03*
X12200000Y82300000D03*
X20400000Y34800000D03*
X14300000Y88200000D03*
X23600000Y27800000D03*
X29500000Y56500000D03*
X41225000Y24662500D03*
D17*
X35400000Y17800000D03*
D16*
X41225000Y19675000D03*
X43150000Y89000000D03*
D17*
X48350000Y81550000D03*
D16*
X48500000Y56000000D03*
X46000000Y38800000D03*
X20400000Y36600000D03*
X10750000Y21780000D03*
D17*
X2470000Y66200000D03*
D16*
X41500000Y89050000D03*
D17*
X48350000Y82750000D03*
D16*
X54400000Y7480000D03*
X19600000Y88900000D03*
X17900000Y88900000D03*
X11540000Y67700000D03*
X48500000Y63500000D03*
D17*
X3480000Y66200000D03*
X26400000Y63600000D03*
D16*
X33440000Y51880000D03*
D17*
X15250000Y73750000D03*
D16*
X12800000Y3500000D03*
X41225000Y21337500D03*
X42000000Y35200000D03*
D17*
X36800000Y21200000D03*
D16*
X7250000Y55000000D03*
X47600000Y38800000D03*
X9410000Y3320000D03*
X21050000Y59125000D03*
X27600000Y65190000D03*
X43400000Y35200000D03*
X41225000Y23000000D03*
D17*
X6510000Y80570000D03*
D16*
X57110000Y7480000D03*
X48800000Y27200000D03*
X12510000Y83430000D03*
D17*
X7510000Y80570000D03*
D16*
X12800000Y1800000D03*
%TO.N,+3.3V*%
X28000000Y50500000D03*
X26500000Y55975000D03*
X33000000Y55000000D03*
D17*
X6200000Y87600000D03*
D16*
X21140000Y68710000D03*
X47250000Y64200000D03*
X25570000Y13950000D03*
D17*
X21560000Y66520000D03*
D16*
X7250000Y62000000D03*
X28320000Y60770000D03*
X18850000Y56630000D03*
D17*
X16000000Y88600000D03*
X22800000Y87700000D03*
D16*
X7500000Y53500000D03*
D18*
%TO.N,IO5*%
X26000000Y78400000D03*
X25200000Y66600000D03*
D17*
%TO.N,IO4*%
X25150000Y84230000D03*
X24174975Y67935025D03*
%TO.N,Net-(U4-~{H_CS})*%
X21870000Y57780000D03*
X21450000Y61587500D03*
D16*
%TO.N,IO9*%
X16200000Y59800000D03*
D17*
X17700000Y61100000D03*
X2500000Y53000000D03*
D16*
X7250000Y59750000D03*
%TO.N,IO8*%
X24000000Y74250000D03*
D17*
X17025000Y63775000D03*
D16*
%TO.N,EN*%
X41400000Y74600000D03*
X36900000Y78900000D03*
D17*
%TO.N,+5V*%
X7270000Y82380000D03*
X4695000Y44775000D03*
D16*
X42000000Y28600000D03*
D17*
X45600000Y34800000D03*
D16*
X27750000Y18100000D03*
X43600000Y29800000D03*
X42000000Y29800000D03*
X6500000Y36250000D03*
X6500000Y34750000D03*
X42000000Y31000000D03*
X43600000Y31000000D03*
D17*
%TO.N,VBUS*%
X10200000Y73900000D03*
X10700000Y76400000D03*
X4900000Y73900000D03*
D18*
%TO.N,Net-(U2-MODE)*%
X26800000Y24600000D03*
X31600000Y20800000D03*
D17*
%TO.N,Net-(U2-BP5)*%
X27600000Y23000000D03*
X32600000Y16800000D03*
%TO.N,5V_LOGIC*%
X9600000Y83040000D03*
X9100000Y80700000D03*
D16*
%TO.N,IO15*%
X6250000Y23250000D03*
X19500000Y78250000D03*
D17*
%TO.N,IO1*%
X45650000Y86870000D03*
D16*
X43200000Y26400000D03*
%TO.N,IO6*%
X18480000Y81350000D03*
X6000000Y41250000D03*
%TO.N,IO7*%
X19000000Y79500000D03*
X6500000Y31750000D03*
D17*
%TO.N,IO17*%
X40770000Y56200000D03*
X32840000Y75070000D03*
%TO.N,IO18*%
X27330000Y76270000D03*
X42050000Y57000000D03*
%TO.N,IO39*%
X48300000Y78400000D03*
X49100000Y76400000D03*
%TO.N,IO41*%
X41900000Y80810000D03*
X43400000Y76800000D03*
%TD*%
%TA.AperFunction,Conductor*%
%TO.N,GND*%
G36*
X59642539Y89679815D02*
G01*
X59688294Y89627011D01*
X59699500Y89575500D01*
X59699500Y424500D01*
X59679815Y357461D01*
X59627011Y311706D01*
X59575500Y300500D01*
X424500Y300500D01*
X357461Y320185D01*
X311706Y372989D01*
X300500Y424500D01*
X300500Y3103139D01*
X1689500Y3103139D01*
X1689500Y2896862D01*
X1721769Y2693123D01*
X1721769Y2693120D01*
X1785510Y2496946D01*
X1785512Y2496943D01*
X1879160Y2313148D01*
X2000407Y2146267D01*
X2146267Y2000407D01*
X2313148Y1879160D01*
X2496943Y1785512D01*
X2496945Y1785511D01*
X2693120Y1721770D01*
X2693121Y1721770D01*
X2693124Y1721769D01*
X2896861Y1689500D01*
X2896862Y1689500D01*
X3103138Y1689500D01*
X3103139Y1689500D01*
X3306876Y1721769D01*
X3306879Y1721770D01*
X3306880Y1721770D01*
X3503054Y1785511D01*
X3503054Y1785512D01*
X3503057Y1785512D01*
X3686852Y1879160D01*
X3853733Y2000407D01*
X3999593Y2146267D01*
X4120840Y2313148D01*
X4214488Y2496943D01*
X4278231Y2693124D01*
X4310500Y2896861D01*
X4310500Y2914753D01*
X40994500Y2914753D01*
X40994500Y1175248D01*
X41006131Y1116771D01*
X41006132Y1116770D01*
X41050447Y1050448D01*
X41116769Y1006133D01*
X41116770Y1006132D01*
X41175247Y994501D01*
X41175250Y994500D01*
X41175252Y994500D01*
X42914750Y994500D01*
X42914751Y994501D01*
X42929568Y997448D01*
X42973229Y1006132D01*
X42973229Y1006133D01*
X42973231Y1006133D01*
X43039552Y1050448D01*
X43083867Y1116769D01*
X43083867Y1116771D01*
X43083868Y1116771D01*
X43095499Y1175248D01*
X43095500Y1175250D01*
X43095500Y2148470D01*
X43534500Y2148470D01*
X43534500Y1941531D01*
X43574868Y1738588D01*
X43574870Y1738580D01*
X43654058Y1547404D01*
X43769024Y1375343D01*
X43915342Y1229025D01*
X43915345Y1229023D01*
X44087402Y1114059D01*
X44278580Y1034870D01*
X44423052Y1006133D01*
X44481530Y994501D01*
X44481534Y994500D01*
X44481535Y994500D01*
X44688466Y994500D01*
X44688467Y994501D01*
X44891420Y1034870D01*
X45082598Y1114059D01*
X45254655Y1229023D01*
X45400977Y1375345D01*
X45515941Y1547402D01*
X45595130Y1738580D01*
X45635500Y1941535D01*
X45635500Y2148465D01*
X45595130Y2351420D01*
X45515941Y2542598D01*
X45400977Y2714655D01*
X45400975Y2714658D01*
X45254657Y2860976D01*
X45086655Y2973230D01*
X45082598Y2975941D01*
X44891420Y3055130D01*
X44891412Y3055132D01*
X44688469Y3095500D01*
X44688465Y3095500D01*
X44481535Y3095500D01*
X44481530Y3095500D01*
X44278587Y3055132D01*
X44278579Y3055130D01*
X44087403Y2975942D01*
X43915342Y2860976D01*
X43769024Y2714658D01*
X43654058Y2542597D01*
X43574870Y2351421D01*
X43574868Y2351413D01*
X43534500Y2148470D01*
X43095500Y2148470D01*
X43095500Y2914751D01*
X43095499Y2914753D01*
X43083868Y2973230D01*
X43083867Y2973231D01*
X43039552Y3039553D01*
X42973230Y3083868D01*
X42973229Y3083869D01*
X42914752Y3095500D01*
X42914748Y3095500D01*
X41175252Y3095500D01*
X41175247Y3095500D01*
X41116770Y3083869D01*
X41116769Y3083868D01*
X41050447Y3039553D01*
X41006132Y2973231D01*
X41006131Y2973230D01*
X40994500Y2914753D01*
X4310500Y2914753D01*
X4310500Y3103139D01*
X55689500Y3103139D01*
X55689500Y2896862D01*
X55721769Y2693123D01*
X55721769Y2693120D01*
X55785510Y2496946D01*
X55785512Y2496943D01*
X55879160Y2313148D01*
X56000407Y2146267D01*
X56146267Y2000407D01*
X56313148Y1879160D01*
X56496943Y1785512D01*
X56496945Y1785511D01*
X56693120Y1721770D01*
X56693121Y1721770D01*
X56693124Y1721769D01*
X56896861Y1689500D01*
X56896862Y1689500D01*
X57103138Y1689500D01*
X57103139Y1689500D01*
X57306876Y1721769D01*
X57306879Y1721770D01*
X57306880Y1721770D01*
X57503054Y1785511D01*
X57503054Y1785512D01*
X57503057Y1785512D01*
X57686852Y1879160D01*
X57853733Y2000407D01*
X57999593Y2146267D01*
X58120840Y2313148D01*
X58214488Y2496943D01*
X58278231Y2693124D01*
X58310500Y2896861D01*
X58310500Y3103139D01*
X58278231Y3306876D01*
X58278230Y3306880D01*
X58278230Y3306881D01*
X58214489Y3503055D01*
X58120839Y3686853D01*
X57999593Y3853733D01*
X57853733Y3999593D01*
X57686852Y4120840D01*
X57503054Y4214490D01*
X57306879Y4278231D01*
X57154073Y4302433D01*
X57103139Y4310500D01*
X56896861Y4310500D01*
X56828948Y4299744D01*
X56693122Y4278231D01*
X56693119Y4278231D01*
X56496945Y4214490D01*
X56313147Y4120840D01*
X56146265Y3999592D01*
X56000408Y3853735D01*
X55879160Y3686853D01*
X55785510Y3503055D01*
X55721769Y3306881D01*
X55721769Y3306878D01*
X55689500Y3103139D01*
X4310500Y3103139D01*
X4278231Y3306876D01*
X4278230Y3306880D01*
X4278230Y3306881D01*
X4214489Y3503055D01*
X4120839Y3686853D01*
X3999593Y3853733D01*
X3853733Y3999593D01*
X3686852Y4120840D01*
X3503054Y4214490D01*
X3306879Y4278231D01*
X3154073Y4302433D01*
X3103139Y4310500D01*
X2896861Y4310500D01*
X2828948Y4299744D01*
X2693122Y4278231D01*
X2693119Y4278231D01*
X2496945Y4214490D01*
X2313147Y4120840D01*
X2146265Y3999592D01*
X2000408Y3853735D01*
X1879160Y3686853D01*
X1785510Y3503055D01*
X1721769Y3306881D01*
X1721769Y3306878D01*
X1689500Y3103139D01*
X300500Y3103139D01*
X300500Y6435929D01*
X39599499Y6435929D01*
X39624497Y6310262D01*
X39624499Y6310256D01*
X39673533Y6191876D01*
X39673538Y6191867D01*
X39744723Y6085332D01*
X39744726Y6085328D01*
X39835327Y5994727D01*
X39835331Y5994724D01*
X39941866Y5923539D01*
X39941872Y5923536D01*
X39941873Y5923535D01*
X40060256Y5874499D01*
X40060260Y5874499D01*
X40060261Y5874498D01*
X40185928Y5849500D01*
X40185931Y5849500D01*
X40314071Y5849500D01*
X40398615Y5866318D01*
X40439744Y5874499D01*
X40558127Y5923535D01*
X40664669Y5994724D01*
X40755276Y6085331D01*
X40826465Y6191873D01*
X40875501Y6310256D01*
X40900500Y6435931D01*
X40900500Y6564069D01*
X40900500Y6564072D01*
X40875502Y6689739D01*
X40875501Y6689740D01*
X40875501Y6689744D01*
X40826465Y6808127D01*
X40826464Y6808128D01*
X40826461Y6808134D01*
X40755276Y6914669D01*
X40755273Y6914673D01*
X40664672Y7005274D01*
X40664668Y7005277D01*
X40558133Y7076462D01*
X40558124Y7076467D01*
X40439744Y7125501D01*
X40439738Y7125503D01*
X40314071Y7150500D01*
X40314069Y7150500D01*
X40185931Y7150500D01*
X40185929Y7150500D01*
X40060261Y7125503D01*
X40060255Y7125501D01*
X39941875Y7076467D01*
X39941866Y7076462D01*
X39835331Y7005277D01*
X39835327Y7005274D01*
X39744726Y6914673D01*
X39744723Y6914669D01*
X39673538Y6808134D01*
X39673533Y6808125D01*
X39624499Y6689745D01*
X39624497Y6689739D01*
X39599500Y6564072D01*
X39599500Y6564069D01*
X39599500Y6435931D01*
X39599500Y6435929D01*
X39599499Y6435929D01*
X300500Y6435929D01*
X300500Y13885929D01*
X24919499Y13885929D01*
X24944497Y13760262D01*
X24944499Y13760256D01*
X24993533Y13641876D01*
X24993538Y13641867D01*
X25064723Y13535332D01*
X25064726Y13535328D01*
X25155327Y13444727D01*
X25155331Y13444724D01*
X25261866Y13373539D01*
X25261872Y13373536D01*
X25261873Y13373535D01*
X25380256Y13324499D01*
X25380260Y13324499D01*
X25380261Y13324498D01*
X25505928Y13299500D01*
X25505931Y13299500D01*
X25634071Y13299500D01*
X25718615Y13316318D01*
X25759744Y13324499D01*
X25878127Y13373535D01*
X25984669Y13444724D01*
X26075276Y13535331D01*
X26146465Y13641873D01*
X26195501Y13760256D01*
X26220500Y13885931D01*
X26220500Y14014069D01*
X26220500Y14014072D01*
X26195502Y14139739D01*
X26195501Y14139740D01*
X26195501Y14139744D01*
X26146465Y14258127D01*
X26146464Y14258128D01*
X26146461Y14258134D01*
X26075276Y14364669D01*
X26075273Y14364673D01*
X25984672Y14455274D01*
X25984668Y14455277D01*
X25878133Y14526462D01*
X25878124Y14526467D01*
X25759744Y14575501D01*
X25759738Y14575503D01*
X25634071Y14600500D01*
X25634069Y14600500D01*
X25505931Y14600500D01*
X25505929Y14600500D01*
X25380261Y14575503D01*
X25380255Y14575501D01*
X25261875Y14526467D01*
X25261866Y14526462D01*
X25155331Y14455277D01*
X25155327Y14455274D01*
X25064726Y14364673D01*
X25064723Y14364669D01*
X24993538Y14258134D01*
X24993533Y14258125D01*
X24944499Y14139745D01*
X24944497Y14139739D01*
X24919500Y14014072D01*
X24919500Y14014069D01*
X24919500Y13885931D01*
X24919500Y13885929D01*
X24919499Y13885929D01*
X300500Y13885929D01*
X300500Y16872475D01*
X32049500Y16872475D01*
X32049500Y16727525D01*
X32087016Y16587515D01*
X32087017Y16587512D01*
X32159488Y16461989D01*
X32159490Y16461987D01*
X32159491Y16461985D01*
X32261985Y16359491D01*
X32261986Y16359490D01*
X32261988Y16359489D01*
X32387511Y16287018D01*
X32387512Y16287018D01*
X32387515Y16287016D01*
X32527525Y16249500D01*
X32527528Y16249500D01*
X32672472Y16249500D01*
X32672475Y16249500D01*
X32812485Y16287016D01*
X32938015Y16359491D01*
X33040509Y16461985D01*
X33112984Y16587515D01*
X33150500Y16727525D01*
X33150500Y16872475D01*
X33112984Y17012485D01*
X33040509Y17138015D01*
X32938015Y17240509D01*
X32938013Y17240510D01*
X32938011Y17240512D01*
X32812488Y17312983D01*
X32812489Y17312983D01*
X32801006Y17316060D01*
X32672475Y17350500D01*
X32527525Y17350500D01*
X32398993Y17316060D01*
X32387511Y17312983D01*
X32261988Y17240512D01*
X32261982Y17240507D01*
X32159493Y17138018D01*
X32159488Y17138012D01*
X32087017Y17012489D01*
X32087016Y17012485D01*
X32049500Y16872475D01*
X300500Y16872475D01*
X300500Y18035929D01*
X27099499Y18035929D01*
X27124497Y17910262D01*
X27124499Y17910256D01*
X27173533Y17791876D01*
X27173538Y17791867D01*
X27244723Y17685332D01*
X27244726Y17685328D01*
X27335327Y17594727D01*
X27335331Y17594724D01*
X27441866Y17523539D01*
X27441872Y17523536D01*
X27441873Y17523535D01*
X27560256Y17474499D01*
X27560260Y17474499D01*
X27560261Y17474498D01*
X27685928Y17449500D01*
X27685931Y17449500D01*
X27814071Y17449500D01*
X27898615Y17466318D01*
X27939744Y17474499D01*
X28058127Y17523535D01*
X28164669Y17594724D01*
X28255276Y17685331D01*
X28326465Y17791873D01*
X28375501Y17910256D01*
X28400500Y18035931D01*
X28400500Y18164069D01*
X28400500Y18164072D01*
X28375502Y18289739D01*
X28375501Y18289740D01*
X28375501Y18289744D01*
X28326465Y18408127D01*
X28326464Y18408128D01*
X28326461Y18408134D01*
X28255276Y18514669D01*
X28255273Y18514673D01*
X28164672Y18605274D01*
X28164668Y18605277D01*
X28058133Y18676462D01*
X28058124Y18676467D01*
X27939744Y18725501D01*
X27939738Y18725503D01*
X27814071Y18750500D01*
X27814069Y18750500D01*
X27685931Y18750500D01*
X27685929Y18750500D01*
X27560261Y18725503D01*
X27560255Y18725501D01*
X27441875Y18676467D01*
X27441866Y18676462D01*
X27335331Y18605277D01*
X27335327Y18605274D01*
X27244726Y18514673D01*
X27244723Y18514669D01*
X27173538Y18408134D01*
X27173533Y18408125D01*
X27124499Y18289745D01*
X27124497Y18289739D01*
X27099500Y18164072D01*
X27099500Y18164069D01*
X27099500Y18035931D01*
X27099500Y18035929D01*
X27099499Y18035929D01*
X300500Y18035929D01*
X300500Y20865892D01*
X31099500Y20865892D01*
X31099500Y20734109D01*
X31133608Y20606813D01*
X31166554Y20549750D01*
X31199500Y20492686D01*
X31292686Y20399500D01*
X31406814Y20333608D01*
X31534108Y20299500D01*
X31534110Y20299500D01*
X31665890Y20299500D01*
X31665892Y20299500D01*
X31793186Y20333608D01*
X31907314Y20399500D01*
X32000500Y20492686D01*
X32066392Y20606814D01*
X32100500Y20734108D01*
X32100500Y20865892D01*
X32066392Y20993186D01*
X32000500Y21107314D01*
X31907314Y21200500D01*
X31850250Y21233446D01*
X31793187Y21266392D01*
X31729539Y21283446D01*
X31665892Y21300500D01*
X31534108Y21300500D01*
X31406812Y21266392D01*
X31292686Y21200500D01*
X31292683Y21200498D01*
X31199502Y21107317D01*
X31199500Y21107314D01*
X31133608Y20993188D01*
X31099500Y20865892D01*
X300500Y20865892D01*
X300500Y24489753D01*
X749500Y24489753D01*
X749500Y22750248D01*
X761131Y22691771D01*
X761132Y22691770D01*
X805447Y22625448D01*
X871769Y22581133D01*
X871770Y22581132D01*
X930247Y22569501D01*
X930250Y22569500D01*
X930252Y22569500D01*
X2669750Y22569500D01*
X2669751Y22569501D01*
X2684568Y22572448D01*
X2728229Y22581132D01*
X2728229Y22581133D01*
X2728231Y22581133D01*
X2794552Y22625448D01*
X2838867Y22691769D01*
X2838867Y22691771D01*
X2838868Y22691771D01*
X2850499Y22750248D01*
X2850500Y22750250D01*
X2850500Y23185929D01*
X5599499Y23185929D01*
X5624497Y23060262D01*
X5624499Y23060256D01*
X5673533Y22941876D01*
X5673538Y22941867D01*
X5744723Y22835332D01*
X5744726Y22835328D01*
X5835327Y22744727D01*
X5835331Y22744724D01*
X5941866Y22673539D01*
X5941872Y22673536D01*
X5941873Y22673535D01*
X6060256Y22624499D01*
X6060260Y22624499D01*
X6060261Y22624498D01*
X6185928Y22599500D01*
X6185931Y22599500D01*
X6314071Y22599500D01*
X6398615Y22616318D01*
X6439744Y22624499D01*
X6558127Y22673535D01*
X6664669Y22744724D01*
X6755276Y22835331D01*
X6826465Y22941873D01*
X6875501Y23060256D01*
X6877932Y23072475D01*
X27049500Y23072475D01*
X27049500Y22927525D01*
X27087016Y22787515D01*
X27087017Y22787512D01*
X27159488Y22661989D01*
X27159490Y22661987D01*
X27159491Y22661985D01*
X27261985Y22559491D01*
X27261986Y22559490D01*
X27261988Y22559489D01*
X27387511Y22487018D01*
X27387512Y22487018D01*
X27387515Y22487016D01*
X27527525Y22449500D01*
X27527528Y22449500D01*
X27672472Y22449500D01*
X27672475Y22449500D01*
X27812485Y22487016D01*
X27938015Y22559491D01*
X28040509Y22661985D01*
X28112984Y22787515D01*
X28150500Y22927525D01*
X28150500Y23072475D01*
X28112984Y23212485D01*
X28054334Y23314069D01*
X28040511Y23338012D01*
X28040506Y23338018D01*
X27938017Y23440507D01*
X27938011Y23440512D01*
X27812488Y23512983D01*
X27812489Y23512983D01*
X27801006Y23516060D01*
X27672475Y23550500D01*
X27527525Y23550500D01*
X27398993Y23516060D01*
X27387511Y23512983D01*
X27261988Y23440512D01*
X27261982Y23440507D01*
X27159493Y23338018D01*
X27159488Y23338012D01*
X27087017Y23212489D01*
X27087016Y23212485D01*
X27049500Y23072475D01*
X6877932Y23072475D01*
X6884361Y23104794D01*
X6900500Y23185929D01*
X6900500Y23314072D01*
X6875502Y23439739D01*
X6875501Y23439740D01*
X6875501Y23439744D01*
X6826465Y23558127D01*
X6826464Y23558128D01*
X6826461Y23558134D01*
X6755276Y23664669D01*
X6755273Y23664673D01*
X6664672Y23755274D01*
X6664668Y23755277D01*
X6558133Y23826462D01*
X6558124Y23826467D01*
X6439744Y23875501D01*
X6439738Y23875503D01*
X6314071Y23900500D01*
X6314069Y23900500D01*
X6185931Y23900500D01*
X6185929Y23900500D01*
X6060261Y23875503D01*
X6060255Y23875501D01*
X5941875Y23826467D01*
X5941866Y23826462D01*
X5835331Y23755277D01*
X5835327Y23755274D01*
X5744726Y23664673D01*
X5744723Y23664669D01*
X5673538Y23558134D01*
X5673533Y23558125D01*
X5624499Y23439745D01*
X5624497Y23439739D01*
X5599500Y23314072D01*
X5599500Y23314069D01*
X5599500Y23185931D01*
X5599500Y23185929D01*
X5599499Y23185929D01*
X2850500Y23185929D01*
X2850500Y24489751D01*
X2850499Y24489753D01*
X2838868Y24548230D01*
X2838867Y24548231D01*
X2794552Y24614553D01*
X2728230Y24658868D01*
X2728229Y24658869D01*
X2669752Y24670500D01*
X2669748Y24670500D01*
X930252Y24670500D01*
X930247Y24670500D01*
X871770Y24658869D01*
X871769Y24658868D01*
X805447Y24614553D01*
X761132Y24548231D01*
X761131Y24548230D01*
X749500Y24489753D01*
X300500Y24489753D01*
X300500Y24935929D01*
X23599499Y24935929D01*
X23624497Y24810262D01*
X23624499Y24810256D01*
X23673533Y24691876D01*
X23673538Y24691867D01*
X23744723Y24585332D01*
X23744726Y24585328D01*
X23835327Y24494727D01*
X23835331Y24494724D01*
X23941866Y24423539D01*
X23941872Y24423536D01*
X23941873Y24423535D01*
X24060256Y24374499D01*
X24060260Y24374499D01*
X24060261Y24374498D01*
X24185928Y24349500D01*
X24185931Y24349500D01*
X24314071Y24349500D01*
X24398615Y24366318D01*
X24439744Y24374499D01*
X24558127Y24423535D01*
X24664669Y24494724D01*
X24755276Y24585331D01*
X24809105Y24665892D01*
X26299500Y24665892D01*
X26299500Y24534109D01*
X26333608Y24406813D01*
X26366554Y24349750D01*
X26399500Y24292686D01*
X26492686Y24199500D01*
X26606814Y24133608D01*
X26734108Y24099500D01*
X26734110Y24099500D01*
X26865890Y24099500D01*
X26865892Y24099500D01*
X26993186Y24133608D01*
X27107314Y24199500D01*
X27200500Y24292686D01*
X27266392Y24406814D01*
X27300500Y24534108D01*
X27300500Y24665892D01*
X27266392Y24793186D01*
X27200500Y24907314D01*
X27107314Y25000500D01*
X26997210Y25064069D01*
X26993187Y25066392D01*
X26929539Y25083446D01*
X26865892Y25100500D01*
X26734108Y25100500D01*
X26606812Y25066392D01*
X26492686Y25000500D01*
X26492683Y25000498D01*
X26399502Y24907317D01*
X26399500Y24907314D01*
X26333608Y24793188D01*
X26299500Y24665892D01*
X24809105Y24665892D01*
X24826465Y24691873D01*
X24875501Y24810256D01*
X24900500Y24935931D01*
X24900500Y25064069D01*
X24900500Y25064072D01*
X24875502Y25189739D01*
X24875501Y25189740D01*
X24875501Y25189744D01*
X24826465Y25308127D01*
X24826464Y25308128D01*
X24826461Y25308134D01*
X24755276Y25414669D01*
X24755273Y25414673D01*
X24664672Y25505274D01*
X24664668Y25505277D01*
X24558133Y25576462D01*
X24558124Y25576467D01*
X24439744Y25625501D01*
X24439738Y25625503D01*
X24314071Y25650500D01*
X24314069Y25650500D01*
X24185931Y25650500D01*
X24185929Y25650500D01*
X24060261Y25625503D01*
X24060255Y25625501D01*
X23941875Y25576467D01*
X23941866Y25576462D01*
X23835331Y25505277D01*
X23835327Y25505274D01*
X23744726Y25414673D01*
X23744723Y25414669D01*
X23673538Y25308134D01*
X23673533Y25308125D01*
X23624499Y25189745D01*
X23624497Y25189739D01*
X23599500Y25064072D01*
X23599500Y25064069D01*
X23599500Y24935931D01*
X23599500Y24935929D01*
X23599499Y24935929D01*
X300500Y24935929D01*
X300500Y26263470D01*
X749500Y26263470D01*
X749500Y26056531D01*
X789868Y25853588D01*
X789870Y25853580D01*
X869058Y25662404D01*
X984024Y25490343D01*
X1130342Y25344025D01*
X1130345Y25344023D01*
X1302402Y25229059D01*
X1493580Y25149870D01*
X1696530Y25109501D01*
X1696534Y25109500D01*
X1696535Y25109500D01*
X1903466Y25109500D01*
X1903467Y25109501D01*
X2106420Y25149870D01*
X2202684Y25189744D01*
X2297596Y25229058D01*
X2297596Y25229059D01*
X2297598Y25229059D01*
X2469655Y25344023D01*
X2615977Y25490345D01*
X2730941Y25662402D01*
X2810130Y25853580D01*
X2850500Y26056535D01*
X2850500Y26263465D01*
X2836086Y26335929D01*
X42549499Y26335929D01*
X42574497Y26210262D01*
X42574499Y26210256D01*
X42623533Y26091876D01*
X42623538Y26091867D01*
X42694723Y25985332D01*
X42694726Y25985328D01*
X42785327Y25894727D01*
X42785331Y25894724D01*
X42891866Y25823539D01*
X42891872Y25823536D01*
X42891873Y25823535D01*
X43010256Y25774499D01*
X43010260Y25774499D01*
X43010261Y25774498D01*
X43135928Y25749500D01*
X43135931Y25749500D01*
X43264071Y25749500D01*
X43348615Y25766318D01*
X43389744Y25774499D01*
X43508127Y25823535D01*
X43614669Y25894724D01*
X43705276Y25985331D01*
X43776465Y26091873D01*
X43825501Y26210256D01*
X43850500Y26335931D01*
X43850500Y26464069D01*
X43850500Y26464072D01*
X43825502Y26589739D01*
X43825501Y26589740D01*
X43825501Y26589744D01*
X43776465Y26708127D01*
X43776464Y26708128D01*
X43776461Y26708134D01*
X43705276Y26814669D01*
X43705273Y26814673D01*
X43614672Y26905274D01*
X43614668Y26905277D01*
X43508133Y26976462D01*
X43508124Y26976467D01*
X43389744Y27025501D01*
X43389738Y27025503D01*
X43264071Y27050500D01*
X43264069Y27050500D01*
X43135931Y27050500D01*
X43135929Y27050500D01*
X43010261Y27025503D01*
X43010255Y27025501D01*
X42891875Y26976467D01*
X42891866Y26976462D01*
X42785331Y26905277D01*
X42785327Y26905274D01*
X42694726Y26814673D01*
X42694723Y26814669D01*
X42623538Y26708134D01*
X42623533Y26708125D01*
X42574499Y26589745D01*
X42574497Y26589739D01*
X42549500Y26464072D01*
X42549500Y26464069D01*
X42549500Y26335931D01*
X42549500Y26335929D01*
X42549499Y26335929D01*
X2836086Y26335929D01*
X2810130Y26466420D01*
X2730941Y26657598D01*
X2615977Y26829655D01*
X2615975Y26829658D01*
X2469657Y26975976D01*
X2358123Y27050500D01*
X2297598Y27090941D01*
X2106420Y27170130D01*
X2106412Y27170132D01*
X1903469Y27210500D01*
X1903465Y27210500D01*
X1696535Y27210500D01*
X1696530Y27210500D01*
X1493587Y27170132D01*
X1493579Y27170130D01*
X1302403Y27090942D01*
X1130342Y26975976D01*
X984024Y26829658D01*
X869058Y26657597D01*
X789870Y26466421D01*
X789868Y26466413D01*
X749500Y26263470D01*
X300500Y26263470D01*
X300500Y30935929D01*
X41349499Y30935929D01*
X41374497Y30810262D01*
X41374499Y30810256D01*
X41423533Y30691876D01*
X41423538Y30691867D01*
X41494723Y30585332D01*
X41494726Y30585328D01*
X41589638Y30490416D01*
X41588461Y30489240D01*
X41623292Y30438097D01*
X41625156Y30368252D01*
X41589631Y30309591D01*
X41589638Y30309584D01*
X41589610Y30309557D01*
X41588963Y30308487D01*
X41585803Y30305750D01*
X41494726Y30214673D01*
X41494723Y30214669D01*
X41423538Y30108134D01*
X41423533Y30108125D01*
X41374499Y29989745D01*
X41374497Y29989739D01*
X41349500Y29864072D01*
X41349500Y29864069D01*
X41349500Y29735931D01*
X41349500Y29735929D01*
X41349499Y29735929D01*
X41374497Y29610262D01*
X41374499Y29610256D01*
X41423533Y29491876D01*
X41423538Y29491867D01*
X41494723Y29385332D01*
X41494726Y29385328D01*
X41589638Y29290416D01*
X41588461Y29289240D01*
X41623292Y29238097D01*
X41625156Y29168252D01*
X41589631Y29109591D01*
X41589638Y29109584D01*
X41589610Y29109557D01*
X41588963Y29108487D01*
X41585803Y29105750D01*
X41494726Y29014673D01*
X41494723Y29014669D01*
X41423538Y28908134D01*
X41423533Y28908125D01*
X41374499Y28789745D01*
X41374497Y28789739D01*
X41349500Y28664072D01*
X41349500Y28664069D01*
X41349500Y28535931D01*
X41349500Y28535929D01*
X41349499Y28535929D01*
X41374497Y28410262D01*
X41374499Y28410256D01*
X41423533Y28291876D01*
X41423538Y28291867D01*
X41494723Y28185332D01*
X41494726Y28185328D01*
X41585327Y28094727D01*
X41585331Y28094724D01*
X41691866Y28023539D01*
X41691872Y28023536D01*
X41691873Y28023535D01*
X41810256Y27974499D01*
X41810260Y27974499D01*
X41810261Y27974498D01*
X41935928Y27949500D01*
X41935931Y27949500D01*
X42064071Y27949500D01*
X42148615Y27966318D01*
X42189744Y27974499D01*
X42308127Y28023535D01*
X42414669Y28094724D01*
X42505276Y28185331D01*
X42576465Y28291873D01*
X42625501Y28410256D01*
X42650500Y28535931D01*
X42650500Y28664069D01*
X42650500Y28664072D01*
X42625502Y28789739D01*
X42625501Y28789740D01*
X42625501Y28789744D01*
X42587939Y28880426D01*
X42578063Y28904270D01*
X51974500Y28904270D01*
X51974500Y28095731D01*
X51977353Y28065301D01*
X51977353Y28065299D01*
X52009127Y27974498D01*
X52022207Y27937118D01*
X52102850Y27827850D01*
X52212118Y27747207D01*
X52254845Y27732256D01*
X52340299Y27702354D01*
X52370730Y27699500D01*
X52370734Y27699500D01*
X53729270Y27699500D01*
X53759699Y27702354D01*
X53759701Y27702354D01*
X53823790Y27724781D01*
X53887882Y27747207D01*
X53997150Y27827850D01*
X54077793Y27937118D01*
X54108033Y28023539D01*
X54122646Y28065299D01*
X54122646Y28065301D01*
X54125500Y28095731D01*
X54125500Y28904270D01*
X54122646Y28934700D01*
X54122646Y28934702D01*
X54077793Y29062881D01*
X54077792Y29062883D01*
X53997150Y29172150D01*
X53887882Y29252793D01*
X53887880Y29252794D01*
X53759700Y29297647D01*
X53729270Y29300500D01*
X53729266Y29300500D01*
X52370734Y29300500D01*
X52370730Y29300500D01*
X52340300Y29297647D01*
X52340298Y29297647D01*
X52212119Y29252794D01*
X52212117Y29252793D01*
X52102850Y29172150D01*
X52022207Y29062883D01*
X52022206Y29062881D01*
X51977353Y28934702D01*
X51977353Y28934700D01*
X51974500Y28904270D01*
X42578063Y28904270D01*
X42576468Y28908121D01*
X42576461Y28908134D01*
X42505276Y29014669D01*
X42505273Y29014673D01*
X42410362Y29109584D01*
X42411540Y29110763D01*
X42376713Y29161886D01*
X42374838Y29231730D01*
X42410363Y29290415D01*
X42410362Y29290416D01*
X42410370Y29290425D01*
X42411022Y29291501D01*
X42414202Y29294257D01*
X42505273Y29385328D01*
X42505276Y29385331D01*
X42576465Y29491873D01*
X42625501Y29610256D01*
X42643253Y29699500D01*
X42650500Y29735929D01*
X42650500Y29864072D01*
X42625502Y29989739D01*
X42625501Y29989740D01*
X42625501Y29989744D01*
X42576465Y30108127D01*
X42576464Y30108128D01*
X42576461Y30108134D01*
X42505276Y30214669D01*
X42505273Y30214673D01*
X42410362Y30309584D01*
X42411540Y30310763D01*
X42376713Y30361886D01*
X42374838Y30431730D01*
X42410363Y30490415D01*
X42410362Y30490416D01*
X42410370Y30490425D01*
X42411022Y30491501D01*
X42414202Y30494257D01*
X42505273Y30585328D01*
X42505276Y30585331D01*
X42576465Y30691873D01*
X42625501Y30810256D01*
X42639211Y30879179D01*
X42650500Y30935929D01*
X42949499Y30935929D01*
X42974497Y30810262D01*
X42974499Y30810256D01*
X43023533Y30691876D01*
X43023538Y30691867D01*
X43094723Y30585332D01*
X43094726Y30585328D01*
X43189638Y30490416D01*
X43188461Y30489240D01*
X43223292Y30438097D01*
X43225156Y30368252D01*
X43189631Y30309591D01*
X43189638Y30309584D01*
X43189610Y30309557D01*
X43188963Y30308487D01*
X43185803Y30305750D01*
X43094726Y30214673D01*
X43094723Y30214669D01*
X43023538Y30108134D01*
X43023533Y30108125D01*
X42974499Y29989745D01*
X42974497Y29989739D01*
X42949500Y29864072D01*
X42949500Y29864069D01*
X42949500Y29735931D01*
X42949500Y29735929D01*
X42949499Y29735929D01*
X42974497Y29610262D01*
X42974499Y29610256D01*
X43023533Y29491876D01*
X43023538Y29491867D01*
X43094723Y29385332D01*
X43094726Y29385328D01*
X43185327Y29294727D01*
X43185331Y29294724D01*
X43291866Y29223539D01*
X43291872Y29223536D01*
X43291873Y29223535D01*
X43410256Y29174499D01*
X43410260Y29174499D01*
X43410261Y29174498D01*
X43535928Y29149500D01*
X43535931Y29149500D01*
X43664071Y29149500D01*
X43758339Y29168252D01*
X43789744Y29174499D01*
X43908127Y29223535D01*
X44014669Y29294724D01*
X44105276Y29385331D01*
X44176465Y29491873D01*
X44225501Y29610256D01*
X44243253Y29699500D01*
X44250500Y29735929D01*
X44250500Y29864072D01*
X44225502Y29989739D01*
X44225501Y29989740D01*
X44225501Y29989744D01*
X44176465Y30108127D01*
X44176464Y30108128D01*
X44176461Y30108134D01*
X44105276Y30214669D01*
X44105273Y30214673D01*
X44010362Y30309584D01*
X44011540Y30310763D01*
X43976713Y30361886D01*
X43976151Y30382793D01*
X43975406Y30384402D01*
X43975994Y30388663D01*
X43974838Y30431730D01*
X43984460Y30449985D01*
X43984962Y30453615D01*
X43990941Y30462279D01*
X44000793Y30480967D01*
X44009913Y30491547D01*
X44014669Y30494724D01*
X44098792Y30578847D01*
X51974500Y30578847D01*
X51974500Y30421154D01*
X52005261Y30266511D01*
X52005264Y30266499D01*
X52065602Y30120828D01*
X52065609Y30120815D01*
X52153210Y29989712D01*
X52153213Y29989708D01*
X52264707Y29878214D01*
X52264711Y29878211D01*
X52395814Y29790610D01*
X52395827Y29790603D01*
X52527819Y29735931D01*
X52541503Y29730263D01*
X52696153Y29699501D01*
X52696156Y29699500D01*
X52696158Y29699500D01*
X53403844Y29699500D01*
X53403845Y29699501D01*
X53558497Y29730263D01*
X53704179Y29790606D01*
X53835289Y29878211D01*
X53946789Y29989711D01*
X54034394Y30120821D01*
X54094737Y30266503D01*
X54125500Y30421158D01*
X54125500Y30578842D01*
X54125500Y30578845D01*
X54125499Y30578847D01*
X54109327Y30660150D01*
X54094737Y30733497D01*
X54062940Y30810262D01*
X54034397Y30879173D01*
X54034390Y30879186D01*
X53946789Y31010289D01*
X53946786Y31010293D01*
X53835292Y31121787D01*
X53835288Y31121790D01*
X53704185Y31209391D01*
X53704172Y31209398D01*
X53558501Y31269736D01*
X53558489Y31269739D01*
X53403845Y31300500D01*
X53403842Y31300500D01*
X52696158Y31300500D01*
X52696155Y31300500D01*
X52541510Y31269739D01*
X52541498Y31269736D01*
X52395827Y31209398D01*
X52395814Y31209391D01*
X52264711Y31121790D01*
X52264707Y31121787D01*
X52153213Y31010293D01*
X52153210Y31010289D01*
X52065609Y30879186D01*
X52065602Y30879173D01*
X52005264Y30733502D01*
X52005261Y30733490D01*
X51974500Y30578847D01*
X44098792Y30578847D01*
X44105276Y30585331D01*
X44155266Y30660147D01*
X44155269Y30660150D01*
X44176458Y30691862D01*
X44176461Y30691867D01*
X44176465Y30691873D01*
X44225501Y30810256D01*
X44239211Y30879179D01*
X44250500Y30935929D01*
X44250500Y31064072D01*
X44225502Y31189739D01*
X44225501Y31189740D01*
X44225501Y31189744D01*
X44176465Y31308127D01*
X44176464Y31308128D01*
X44176461Y31308134D01*
X44105276Y31414669D01*
X44105273Y31414673D01*
X44014672Y31505274D01*
X44014668Y31505277D01*
X43908133Y31576462D01*
X43908124Y31576467D01*
X43789744Y31625501D01*
X43789738Y31625503D01*
X43664071Y31650500D01*
X43664069Y31650500D01*
X43535931Y31650500D01*
X43535929Y31650500D01*
X43410261Y31625503D01*
X43410255Y31625501D01*
X43291875Y31576467D01*
X43291866Y31576462D01*
X43185331Y31505277D01*
X43185327Y31505274D01*
X43094726Y31414673D01*
X43094723Y31414669D01*
X43023538Y31308134D01*
X43023533Y31308125D01*
X42974499Y31189745D01*
X42974497Y31189739D01*
X42949500Y31064072D01*
X42949500Y31064069D01*
X42949500Y30935931D01*
X42949500Y30935929D01*
X42949499Y30935929D01*
X42650500Y30935929D01*
X42650500Y31064072D01*
X42625502Y31189739D01*
X42625501Y31189740D01*
X42625501Y31189744D01*
X42576465Y31308127D01*
X42576464Y31308128D01*
X42576461Y31308134D01*
X42505276Y31414669D01*
X42505273Y31414673D01*
X42414672Y31505274D01*
X42414668Y31505277D01*
X42308133Y31576462D01*
X42308124Y31576467D01*
X42189744Y31625501D01*
X42189738Y31625503D01*
X42064071Y31650500D01*
X42064069Y31650500D01*
X41935931Y31650500D01*
X41935929Y31650500D01*
X41810261Y31625503D01*
X41810255Y31625501D01*
X41691875Y31576467D01*
X41691866Y31576462D01*
X41585331Y31505277D01*
X41585327Y31505274D01*
X41494726Y31414673D01*
X41494723Y31414669D01*
X41423538Y31308134D01*
X41423533Y31308125D01*
X41374499Y31189745D01*
X41374497Y31189739D01*
X41349500Y31064072D01*
X41349500Y31064069D01*
X41349500Y30935931D01*
X41349500Y30935929D01*
X41349499Y30935929D01*
X300500Y30935929D01*
X300500Y33489753D01*
X749500Y33489753D01*
X749500Y31750248D01*
X761131Y31691771D01*
X761132Y31691770D01*
X805447Y31625448D01*
X871769Y31581133D01*
X871770Y31581132D01*
X930247Y31569501D01*
X930250Y31569500D01*
X930252Y31569500D01*
X2669750Y31569500D01*
X2669751Y31569501D01*
X2684568Y31572448D01*
X2728229Y31581132D01*
X2728229Y31581133D01*
X2728231Y31581133D01*
X2794552Y31625448D01*
X2834965Y31685929D01*
X5849499Y31685929D01*
X5874497Y31560262D01*
X5874499Y31560256D01*
X5923533Y31441876D01*
X5923538Y31441867D01*
X5994723Y31335332D01*
X5994726Y31335328D01*
X6085327Y31244727D01*
X6085331Y31244724D01*
X6191866Y31173539D01*
X6191872Y31173536D01*
X6191873Y31173535D01*
X6310256Y31124499D01*
X6310260Y31124499D01*
X6310261Y31124498D01*
X6435928Y31099500D01*
X6435931Y31099500D01*
X6564071Y31099500D01*
X6676125Y31121790D01*
X6689744Y31124499D01*
X6808127Y31173535D01*
X6914669Y31244724D01*
X7005276Y31335331D01*
X7076465Y31441873D01*
X7125501Y31560256D01*
X7138469Y31625448D01*
X7150500Y31685929D01*
X7150500Y31814072D01*
X7125502Y31939739D01*
X7125501Y31939740D01*
X7125501Y31939744D01*
X7076465Y32058127D01*
X7076464Y32058128D01*
X7076461Y32058134D01*
X7005276Y32164669D01*
X7005273Y32164673D01*
X6914672Y32255274D01*
X6914668Y32255277D01*
X6808133Y32326462D01*
X6808124Y32326467D01*
X6689744Y32375501D01*
X6689738Y32375503D01*
X6564071Y32400500D01*
X6564069Y32400500D01*
X6435931Y32400500D01*
X6435929Y32400500D01*
X6310261Y32375503D01*
X6310255Y32375501D01*
X6191875Y32326467D01*
X6191866Y32326462D01*
X6085331Y32255277D01*
X6085327Y32255274D01*
X5994726Y32164673D01*
X5994723Y32164669D01*
X5923538Y32058134D01*
X5923533Y32058125D01*
X5874499Y31939745D01*
X5874497Y31939739D01*
X5849500Y31814072D01*
X5849500Y31814069D01*
X5849500Y31685931D01*
X5849500Y31685929D01*
X5849499Y31685929D01*
X2834965Y31685929D01*
X2838867Y31691769D01*
X2838867Y31691771D01*
X2838868Y31691771D01*
X2850499Y31750248D01*
X2850500Y31750250D01*
X2850500Y33489751D01*
X2850499Y33489753D01*
X2838868Y33548230D01*
X2838867Y33548231D01*
X2794552Y33614553D01*
X2728230Y33658868D01*
X2728229Y33658869D01*
X2669752Y33670500D01*
X2669748Y33670500D01*
X930252Y33670500D01*
X930247Y33670500D01*
X871770Y33658869D01*
X871769Y33658868D01*
X805447Y33614553D01*
X761132Y33548231D01*
X761131Y33548230D01*
X749500Y33489753D01*
X300500Y33489753D01*
X300500Y35263470D01*
X749500Y35263470D01*
X749500Y35056531D01*
X789868Y34853588D01*
X789870Y34853580D01*
X869058Y34662404D01*
X984024Y34490343D01*
X1130342Y34344025D01*
X1130345Y34344023D01*
X1302402Y34229059D01*
X1493580Y34149870D01*
X1696530Y34109501D01*
X1696534Y34109500D01*
X1696535Y34109500D01*
X1903466Y34109500D01*
X1903467Y34109501D01*
X2106420Y34149870D01*
X2297598Y34229059D01*
X2469655Y34344023D01*
X2615977Y34490345D01*
X2730941Y34662402D01*
X2810130Y34853580D01*
X2850500Y35056535D01*
X2850500Y35263465D01*
X2810130Y35466420D01*
X2730941Y35657598D01*
X2615977Y35829655D01*
X2615975Y35829658D01*
X2469657Y35975976D01*
X2383626Y36033459D01*
X2297598Y36090941D01*
X2106420Y36170130D01*
X2106412Y36170132D01*
X2026995Y36185929D01*
X5849499Y36185929D01*
X5874497Y36060262D01*
X5874499Y36060256D01*
X5923533Y35941876D01*
X5923538Y35941867D01*
X5994723Y35835332D01*
X5994726Y35835328D01*
X6085327Y35744727D01*
X6085331Y35744724D01*
X6191866Y35673539D01*
X6191872Y35673536D01*
X6191873Y35673535D01*
X6310256Y35624499D01*
X6310258Y35624499D01*
X6310260Y35624498D01*
X6324743Y35621617D01*
X6386653Y35589231D01*
X6421227Y35528515D01*
X6417486Y35458746D01*
X6376619Y35402074D01*
X6324743Y35378383D01*
X6310260Y35375503D01*
X6310255Y35375501D01*
X6191875Y35326467D01*
X6191866Y35326462D01*
X6085331Y35255277D01*
X6085327Y35255274D01*
X5994726Y35164673D01*
X5994723Y35164669D01*
X5923538Y35058134D01*
X5923533Y35058125D01*
X5874499Y34939745D01*
X5874497Y34939739D01*
X5849500Y34814072D01*
X5849500Y34814069D01*
X5849500Y34685931D01*
X5849500Y34685929D01*
X5849499Y34685929D01*
X5874497Y34560262D01*
X5874499Y34560256D01*
X5923533Y34441876D01*
X5923538Y34441867D01*
X5994723Y34335332D01*
X5994726Y34335328D01*
X6085327Y34244727D01*
X6085331Y34244724D01*
X6191866Y34173539D01*
X6191872Y34173536D01*
X6191873Y34173535D01*
X6310256Y34124499D01*
X6310260Y34124499D01*
X6310261Y34124498D01*
X6435928Y34099500D01*
X6435931Y34099500D01*
X6564071Y34099500D01*
X6648615Y34116318D01*
X6689744Y34124499D01*
X6808127Y34173535D01*
X6914669Y34244724D01*
X7005276Y34335331D01*
X7076465Y34441873D01*
X7125501Y34560256D01*
X7150500Y34685931D01*
X7150500Y34814069D01*
X7150500Y34814072D01*
X7142078Y34856410D01*
X7138882Y34872475D01*
X45049500Y34872475D01*
X45049500Y34727525D01*
X45066950Y34662402D01*
X45087017Y34587512D01*
X45159488Y34461989D01*
X45159490Y34461987D01*
X45159491Y34461985D01*
X45261985Y34359491D01*
X45261986Y34359490D01*
X45261988Y34359489D01*
X45387511Y34287018D01*
X45387512Y34287018D01*
X45387515Y34287016D01*
X45527525Y34249500D01*
X45527528Y34249500D01*
X45672472Y34249500D01*
X45672475Y34249500D01*
X45812485Y34287016D01*
X45938015Y34359491D01*
X46040509Y34461985D01*
X46112984Y34587515D01*
X46150500Y34727525D01*
X46150500Y34872475D01*
X46112984Y35012485D01*
X46087552Y35056534D01*
X46040511Y35138012D01*
X46040506Y35138018D01*
X45938017Y35240507D01*
X45938011Y35240512D01*
X45812488Y35312983D01*
X45812489Y35312983D01*
X45801006Y35316060D01*
X45672475Y35350500D01*
X45527525Y35350500D01*
X45398993Y35316060D01*
X45387511Y35312983D01*
X45261988Y35240512D01*
X45261982Y35240507D01*
X45159493Y35138018D01*
X45159488Y35138012D01*
X45087017Y35012489D01*
X45087016Y35012485D01*
X45049500Y34872475D01*
X7138882Y34872475D01*
X7125502Y34939739D01*
X7125501Y34939740D01*
X7125501Y34939744D01*
X7077125Y35056534D01*
X7076466Y35058125D01*
X7076461Y35058134D01*
X7005276Y35164669D01*
X7005273Y35164673D01*
X6914672Y35255274D01*
X6914668Y35255277D01*
X6808133Y35326462D01*
X6808124Y35326467D01*
X6689744Y35375501D01*
X6689738Y35375503D01*
X6675257Y35378383D01*
X6613347Y35410768D01*
X6578772Y35471484D01*
X6582512Y35541253D01*
X6623379Y35597925D01*
X6675257Y35621617D01*
X6683784Y35623314D01*
X6689744Y35624499D01*
X6808127Y35673535D01*
X6914669Y35744724D01*
X7005276Y35835331D01*
X7076465Y35941873D01*
X7125501Y36060256D01*
X7147357Y36170130D01*
X7150500Y36185929D01*
X7150500Y36314072D01*
X7125502Y36439739D01*
X7125501Y36439740D01*
X7125501Y36439744D01*
X7076465Y36558127D01*
X7076464Y36558128D01*
X7076461Y36558134D01*
X7005276Y36664669D01*
X7005273Y36664673D01*
X6914672Y36755274D01*
X6914668Y36755277D01*
X6808133Y36826462D01*
X6808124Y36826467D01*
X6689744Y36875501D01*
X6689738Y36875503D01*
X6564071Y36900500D01*
X6564069Y36900500D01*
X6435931Y36900500D01*
X6435929Y36900500D01*
X6310261Y36875503D01*
X6310255Y36875501D01*
X6191875Y36826467D01*
X6191866Y36826462D01*
X6085331Y36755277D01*
X6085327Y36755274D01*
X5994726Y36664673D01*
X5994723Y36664669D01*
X5923538Y36558134D01*
X5923533Y36558125D01*
X5874499Y36439745D01*
X5874497Y36439739D01*
X5849500Y36314072D01*
X5849500Y36314069D01*
X5849500Y36185931D01*
X5849500Y36185929D01*
X5849499Y36185929D01*
X2026995Y36185929D01*
X1963575Y36198544D01*
X1903469Y36210500D01*
X1903465Y36210500D01*
X1696535Y36210500D01*
X1696530Y36210500D01*
X1493587Y36170132D01*
X1493579Y36170130D01*
X1302403Y36090942D01*
X1130342Y35975976D01*
X984024Y35829658D01*
X869058Y35657597D01*
X789870Y35466421D01*
X789868Y35466413D01*
X749500Y35263470D01*
X300500Y35263470D01*
X300500Y40304270D01*
X51974500Y40304270D01*
X51974500Y39495731D01*
X51977353Y39465301D01*
X51977353Y39465299D01*
X52022206Y39337120D01*
X52022207Y39337118D01*
X52102850Y39227850D01*
X52212118Y39147207D01*
X52254845Y39132256D01*
X52340299Y39102354D01*
X52370730Y39099500D01*
X52370734Y39099500D01*
X53729270Y39099500D01*
X53759699Y39102354D01*
X53759701Y39102354D01*
X53823790Y39124781D01*
X53887882Y39147207D01*
X53997150Y39227850D01*
X54077793Y39337118D01*
X54100219Y39401210D01*
X54122646Y39465299D01*
X54122646Y39465301D01*
X54125500Y39495731D01*
X54125500Y40304270D01*
X54122646Y40334700D01*
X54122646Y40334702D01*
X54077793Y40462881D01*
X54077792Y40462883D01*
X53997150Y40572150D01*
X53887882Y40652793D01*
X53887880Y40652794D01*
X53759700Y40697647D01*
X53729270Y40700500D01*
X53729266Y40700500D01*
X52370734Y40700500D01*
X52370730Y40700500D01*
X52340300Y40697647D01*
X52340298Y40697647D01*
X52212119Y40652794D01*
X52212117Y40652793D01*
X52102850Y40572150D01*
X52022207Y40462883D01*
X52022206Y40462881D01*
X51977353Y40334702D01*
X51977353Y40334700D01*
X51974500Y40304270D01*
X300500Y40304270D01*
X300500Y42569753D01*
X749500Y42569753D01*
X749500Y40830248D01*
X761131Y40771771D01*
X761132Y40771770D01*
X805447Y40705448D01*
X871769Y40661133D01*
X871770Y40661132D01*
X930247Y40649501D01*
X930250Y40649500D01*
X930252Y40649500D01*
X2669750Y40649500D01*
X2669751Y40649501D01*
X2686308Y40652794D01*
X2728229Y40661132D01*
X2728229Y40661133D01*
X2728231Y40661133D01*
X2794552Y40705448D01*
X2838867Y40771769D01*
X2838867Y40771771D01*
X2838868Y40771771D01*
X2850499Y40830248D01*
X2850500Y40830250D01*
X2850500Y41185929D01*
X5349499Y41185929D01*
X5374497Y41060262D01*
X5374499Y41060256D01*
X5423533Y40941876D01*
X5423538Y40941867D01*
X5494723Y40835332D01*
X5494726Y40835328D01*
X5585327Y40744727D01*
X5585331Y40744724D01*
X5691866Y40673539D01*
X5691872Y40673536D01*
X5691873Y40673535D01*
X5810256Y40624499D01*
X5810260Y40624499D01*
X5810261Y40624498D01*
X5935928Y40599500D01*
X5935931Y40599500D01*
X6064071Y40599500D01*
X6148615Y40616318D01*
X6189744Y40624499D01*
X6308127Y40673535D01*
X6414669Y40744724D01*
X6505276Y40835331D01*
X6576465Y40941873D01*
X6625501Y41060256D01*
X6633682Y41101385D01*
X6650500Y41185929D01*
X6650500Y41314072D01*
X6625502Y41439739D01*
X6625501Y41439740D01*
X6625501Y41439744D01*
X6576465Y41558127D01*
X6576464Y41558128D01*
X6576461Y41558134D01*
X6505276Y41664669D01*
X6505273Y41664673D01*
X6414672Y41755274D01*
X6414668Y41755277D01*
X6308133Y41826462D01*
X6308124Y41826467D01*
X6202124Y41870373D01*
X6202122Y41870374D01*
X6189748Y41875500D01*
X6189738Y41875503D01*
X6064071Y41900500D01*
X6064069Y41900500D01*
X5935931Y41900500D01*
X5935929Y41900500D01*
X5810261Y41875503D01*
X5810255Y41875501D01*
X5691875Y41826467D01*
X5691866Y41826462D01*
X5585331Y41755277D01*
X5585327Y41755274D01*
X5494726Y41664673D01*
X5494723Y41664669D01*
X5423538Y41558134D01*
X5423533Y41558125D01*
X5374499Y41439745D01*
X5374497Y41439739D01*
X5349500Y41314072D01*
X5349500Y41314069D01*
X5349500Y41185931D01*
X5349500Y41185929D01*
X5349499Y41185929D01*
X2850500Y41185929D01*
X2850500Y41978847D01*
X51974500Y41978847D01*
X51974500Y41821154D01*
X52005261Y41666511D01*
X52005264Y41666499D01*
X52065602Y41520828D01*
X52065609Y41520815D01*
X52153210Y41389712D01*
X52153213Y41389708D01*
X52264707Y41278214D01*
X52264711Y41278211D01*
X52395814Y41190610D01*
X52395827Y41190603D01*
X52541498Y41130265D01*
X52541503Y41130263D01*
X52696153Y41099501D01*
X52696156Y41099500D01*
X52696158Y41099500D01*
X53403844Y41099500D01*
X53403845Y41099501D01*
X53558497Y41130263D01*
X53692888Y41185929D01*
X53704172Y41190603D01*
X53704172Y41190604D01*
X53704179Y41190606D01*
X53835289Y41278211D01*
X53946789Y41389711D01*
X54034394Y41520821D01*
X54094737Y41666503D01*
X54125500Y41821158D01*
X54125500Y41978842D01*
X54125500Y41978845D01*
X54125499Y41978847D01*
X54094738Y42133490D01*
X54094737Y42133497D01*
X54094735Y42133502D01*
X54034397Y42279173D01*
X54034390Y42279186D01*
X53946789Y42410289D01*
X53946786Y42410293D01*
X53835292Y42521787D01*
X53835288Y42521790D01*
X53704185Y42609391D01*
X53704172Y42609398D01*
X53558501Y42669736D01*
X53558489Y42669739D01*
X53403845Y42700500D01*
X53403842Y42700500D01*
X52696158Y42700500D01*
X52696155Y42700500D01*
X52541510Y42669739D01*
X52541498Y42669736D01*
X52395827Y42609398D01*
X52395814Y42609391D01*
X52264711Y42521790D01*
X52264707Y42521787D01*
X52153213Y42410293D01*
X52153210Y42410289D01*
X52065609Y42279186D01*
X52065602Y42279173D01*
X52005264Y42133502D01*
X52005261Y42133490D01*
X51974500Y41978847D01*
X2850500Y41978847D01*
X2850500Y42569751D01*
X2850499Y42569753D01*
X2838868Y42628230D01*
X2838867Y42628231D01*
X2794552Y42694553D01*
X2728230Y42738868D01*
X2728229Y42738869D01*
X2669752Y42750500D01*
X2669748Y42750500D01*
X930252Y42750500D01*
X930247Y42750500D01*
X871770Y42738869D01*
X871769Y42738868D01*
X805447Y42694553D01*
X761132Y42628231D01*
X761131Y42628230D01*
X749500Y42569753D01*
X300500Y42569753D01*
X300500Y44343470D01*
X749500Y44343470D01*
X749500Y44136531D01*
X789868Y43933588D01*
X789870Y43933580D01*
X869058Y43742404D01*
X984024Y43570343D01*
X1130342Y43424025D01*
X1130345Y43424023D01*
X1302402Y43309059D01*
X1493580Y43229870D01*
X1696530Y43189501D01*
X1696534Y43189500D01*
X1696535Y43189500D01*
X1903466Y43189500D01*
X1903467Y43189501D01*
X2106420Y43229870D01*
X2297598Y43309059D01*
X2469655Y43424023D01*
X2615977Y43570345D01*
X2730941Y43742402D01*
X2810130Y43933580D01*
X2850500Y44136535D01*
X2850500Y44343465D01*
X2810130Y44546420D01*
X2730941Y44737598D01*
X2730940Y44737600D01*
X2730940Y44737601D01*
X2698126Y44786710D01*
X2698124Y44786712D01*
X2657524Y44847475D01*
X4144500Y44847475D01*
X4144500Y44702525D01*
X4182016Y44562515D01*
X4182017Y44562512D01*
X4254488Y44436989D01*
X4254490Y44436987D01*
X4254491Y44436985D01*
X4356985Y44334491D01*
X4356986Y44334490D01*
X4356988Y44334489D01*
X4482511Y44262018D01*
X4482512Y44262018D01*
X4482515Y44262016D01*
X4622525Y44224500D01*
X4622528Y44224500D01*
X4767472Y44224500D01*
X4767475Y44224500D01*
X4907485Y44262016D01*
X5033015Y44334491D01*
X5135509Y44436985D01*
X5207984Y44562515D01*
X5245500Y44702525D01*
X5245500Y44847475D01*
X5207984Y44987485D01*
X5135509Y45113015D01*
X5033015Y45215509D01*
X5033013Y45215510D01*
X5033011Y45215512D01*
X4907488Y45287983D01*
X4907489Y45287983D01*
X4896006Y45291060D01*
X4767475Y45325500D01*
X4622525Y45325500D01*
X4493993Y45291060D01*
X4482511Y45287983D01*
X4356988Y45215512D01*
X4356982Y45215507D01*
X4254493Y45113018D01*
X4254488Y45113012D01*
X4182017Y44987489D01*
X4182016Y44987485D01*
X4144500Y44847475D01*
X2657524Y44847475D01*
X2615975Y44909658D01*
X2469657Y45055976D01*
X2383626Y45113459D01*
X2297598Y45170941D01*
X2106420Y45250130D01*
X2106412Y45250132D01*
X1903469Y45290500D01*
X1903465Y45290500D01*
X1696535Y45290500D01*
X1696530Y45290500D01*
X1493587Y45250132D01*
X1493579Y45250130D01*
X1302403Y45170942D01*
X1130342Y45055976D01*
X984024Y44909658D01*
X869058Y44737597D01*
X789870Y44546421D01*
X789868Y44546413D01*
X749500Y44343470D01*
X300500Y44343470D01*
X300500Y50435929D01*
X27349499Y50435929D01*
X27374497Y50310262D01*
X27374499Y50310256D01*
X27423533Y50191876D01*
X27423538Y50191867D01*
X27494723Y50085332D01*
X27494726Y50085328D01*
X27585327Y49994727D01*
X27585331Y49994724D01*
X27691866Y49923539D01*
X27691872Y49923536D01*
X27691873Y49923535D01*
X27810256Y49874499D01*
X27810260Y49874499D01*
X27810261Y49874498D01*
X27935928Y49849500D01*
X27935931Y49849500D01*
X28064071Y49849500D01*
X28148615Y49866318D01*
X28189744Y49874499D01*
X28308127Y49923535D01*
X28414669Y49994724D01*
X28505276Y50085331D01*
X28576465Y50191873D01*
X28625501Y50310256D01*
X28650500Y50435931D01*
X28650500Y50564069D01*
X28650500Y50564072D01*
X28625502Y50689739D01*
X28625501Y50689740D01*
X28625501Y50689744D01*
X28576465Y50808127D01*
X28576464Y50808128D01*
X28576461Y50808134D01*
X28505276Y50914669D01*
X28505273Y50914673D01*
X28414672Y51005274D01*
X28414668Y51005277D01*
X28308133Y51076462D01*
X28308124Y51076467D01*
X28189744Y51125501D01*
X28189738Y51125503D01*
X28064071Y51150500D01*
X28064069Y51150500D01*
X27935931Y51150500D01*
X27935929Y51150500D01*
X27810261Y51125503D01*
X27810255Y51125501D01*
X27691875Y51076467D01*
X27691866Y51076462D01*
X27585331Y51005277D01*
X27585327Y51005274D01*
X27494726Y50914673D01*
X27494723Y50914669D01*
X27423538Y50808134D01*
X27423533Y50808125D01*
X27374499Y50689745D01*
X27374497Y50689739D01*
X27349500Y50564072D01*
X27349500Y50564069D01*
X27349500Y50435931D01*
X27349500Y50435929D01*
X27349499Y50435929D01*
X300500Y50435929D01*
X300500Y53072475D01*
X1949500Y53072475D01*
X1949500Y52927525D01*
X1963709Y52874498D01*
X1987017Y52787512D01*
X2059488Y52661989D01*
X2059490Y52661987D01*
X2059491Y52661985D01*
X2161985Y52559491D01*
X2161986Y52559490D01*
X2161988Y52559489D01*
X2287511Y52487018D01*
X2287512Y52487018D01*
X2287515Y52487016D01*
X2427525Y52449500D01*
X2427528Y52449500D01*
X2572472Y52449500D01*
X2572475Y52449500D01*
X2712485Y52487016D01*
X2838015Y52559491D01*
X2940509Y52661985D01*
X3012984Y52787515D01*
X3050500Y52927525D01*
X3050500Y53072475D01*
X3012984Y53212485D01*
X2956532Y53310262D01*
X2940511Y53338012D01*
X2940506Y53338018D01*
X2842595Y53435929D01*
X6849499Y53435929D01*
X6874497Y53310262D01*
X6874499Y53310256D01*
X6923533Y53191876D01*
X6923538Y53191867D01*
X6994723Y53085332D01*
X6994726Y53085328D01*
X7085327Y52994727D01*
X7085331Y52994724D01*
X7191866Y52923539D01*
X7191872Y52923536D01*
X7191873Y52923535D01*
X7310256Y52874499D01*
X7310260Y52874499D01*
X7310261Y52874498D01*
X7435928Y52849500D01*
X7435931Y52849500D01*
X7564071Y52849500D01*
X7648615Y52866318D01*
X7689744Y52874499D01*
X7808127Y52923535D01*
X7914669Y52994724D01*
X8005276Y53085331D01*
X8076465Y53191873D01*
X8125501Y53310256D01*
X8150500Y53435931D01*
X8150500Y53564069D01*
X8150500Y53564072D01*
X8125502Y53689739D01*
X8125501Y53689740D01*
X8125501Y53689744D01*
X8076465Y53808127D01*
X8076464Y53808128D01*
X8076461Y53808134D01*
X8005276Y53914669D01*
X8005273Y53914673D01*
X7914672Y54005274D01*
X7914668Y54005277D01*
X7808133Y54076462D01*
X7808124Y54076467D01*
X7689744Y54125501D01*
X7689738Y54125503D01*
X7564071Y54150500D01*
X7564069Y54150500D01*
X7435931Y54150500D01*
X7435929Y54150500D01*
X7310261Y54125503D01*
X7310255Y54125501D01*
X7191875Y54076467D01*
X7191866Y54076462D01*
X7085331Y54005277D01*
X7085327Y54005274D01*
X6994726Y53914673D01*
X6994723Y53914669D01*
X6923538Y53808134D01*
X6923533Y53808125D01*
X6874499Y53689745D01*
X6874497Y53689739D01*
X6849500Y53564072D01*
X6849500Y53564069D01*
X6849500Y53435931D01*
X6849500Y53435929D01*
X6849499Y53435929D01*
X2842595Y53435929D01*
X2838017Y53440507D01*
X2838015Y53440509D01*
X2712485Y53512984D01*
X2572475Y53550500D01*
X2427525Y53550500D01*
X2298993Y53516060D01*
X2287511Y53512983D01*
X2161988Y53440512D01*
X2161982Y53440507D01*
X2059493Y53338018D01*
X2059488Y53338012D01*
X1987017Y53212489D01*
X1987016Y53212485D01*
X1949500Y53072475D01*
X300500Y53072475D01*
X300500Y54935929D01*
X32349499Y54935929D01*
X32374497Y54810262D01*
X32374499Y54810256D01*
X32423533Y54691876D01*
X32423538Y54691867D01*
X32494723Y54585332D01*
X32494726Y54585328D01*
X32585327Y54494727D01*
X32585331Y54494724D01*
X32691866Y54423539D01*
X32691872Y54423536D01*
X32691873Y54423535D01*
X32810256Y54374499D01*
X32810260Y54374499D01*
X32810261Y54374498D01*
X32935928Y54349500D01*
X32935931Y54349500D01*
X33064071Y54349500D01*
X33148615Y54366318D01*
X33189744Y54374499D01*
X33308127Y54423535D01*
X33414669Y54494724D01*
X33505276Y54585331D01*
X33576465Y54691873D01*
X33625501Y54810256D01*
X33650500Y54935931D01*
X33650500Y55064069D01*
X33650500Y55064072D01*
X33625502Y55189739D01*
X33625501Y55189740D01*
X33625501Y55189744D01*
X33576465Y55308127D01*
X33576464Y55308128D01*
X33576461Y55308134D01*
X33505276Y55414669D01*
X33505273Y55414673D01*
X33414672Y55505274D01*
X33414668Y55505277D01*
X33308133Y55576462D01*
X33308124Y55576467D01*
X33189744Y55625501D01*
X33189738Y55625503D01*
X33064071Y55650500D01*
X33064069Y55650500D01*
X32935931Y55650500D01*
X32935929Y55650500D01*
X32810261Y55625503D01*
X32810255Y55625501D01*
X32691875Y55576467D01*
X32691866Y55576462D01*
X32585331Y55505277D01*
X32585327Y55505274D01*
X32494726Y55414673D01*
X32494723Y55414669D01*
X32423538Y55308134D01*
X32423533Y55308125D01*
X32374499Y55189745D01*
X32374497Y55189739D01*
X32349500Y55064072D01*
X32349500Y55064069D01*
X32349500Y54935931D01*
X32349500Y54935929D01*
X32349499Y54935929D01*
X300500Y54935929D01*
X300500Y55910929D01*
X25849499Y55910929D01*
X25874497Y55785262D01*
X25874499Y55785256D01*
X25923533Y55666876D01*
X25923538Y55666867D01*
X25994723Y55560332D01*
X25994726Y55560328D01*
X26085327Y55469727D01*
X26085331Y55469724D01*
X26191866Y55398539D01*
X26191872Y55398536D01*
X26191873Y55398535D01*
X26310256Y55349499D01*
X26310260Y55349499D01*
X26310261Y55349498D01*
X26435928Y55324500D01*
X26435931Y55324500D01*
X26564071Y55324500D01*
X26648615Y55341318D01*
X26689744Y55349499D01*
X26808127Y55398535D01*
X26914669Y55469724D01*
X27005276Y55560331D01*
X27076465Y55666873D01*
X27125501Y55785256D01*
X27133682Y55826385D01*
X27150500Y55910929D01*
X27150500Y56039072D01*
X27125502Y56164739D01*
X27125501Y56164740D01*
X27125501Y56164744D01*
X27125499Y56164749D01*
X27097167Y56233150D01*
X27080877Y56272475D01*
X40219500Y56272475D01*
X40219500Y56127525D01*
X40257016Y55987515D01*
X40257017Y55987512D01*
X40329488Y55861989D01*
X40329490Y55861987D01*
X40329491Y55861985D01*
X40431985Y55759491D01*
X40431986Y55759490D01*
X40431988Y55759489D01*
X40557511Y55687018D01*
X40557512Y55687018D01*
X40557515Y55687016D01*
X40697525Y55649500D01*
X40697528Y55649500D01*
X40842472Y55649500D01*
X40842475Y55649500D01*
X40982485Y55687016D01*
X41108015Y55759491D01*
X41210509Y55861985D01*
X41282984Y55987515D01*
X41320500Y56127525D01*
X41320500Y56272475D01*
X41282984Y56412485D01*
X41266950Y56440256D01*
X41210511Y56538012D01*
X41210506Y56538018D01*
X41108017Y56640507D01*
X41108011Y56640512D01*
X40982488Y56712983D01*
X40982489Y56712983D01*
X40971006Y56716060D01*
X40842475Y56750500D01*
X40697525Y56750500D01*
X40568993Y56716060D01*
X40557511Y56712983D01*
X40431988Y56640512D01*
X40431982Y56640507D01*
X40329493Y56538018D01*
X40329488Y56538012D01*
X40257017Y56412489D01*
X40257016Y56412485D01*
X40219500Y56272475D01*
X27080877Y56272475D01*
X27076466Y56283124D01*
X27076466Y56283125D01*
X27076465Y56283127D01*
X27076463Y56283130D01*
X27076461Y56283134D01*
X27005276Y56389669D01*
X27005273Y56389673D01*
X26914672Y56480274D01*
X26914668Y56480277D01*
X26808133Y56551462D01*
X26808124Y56551467D01*
X26689744Y56600501D01*
X26689738Y56600503D01*
X26564071Y56625500D01*
X26564069Y56625500D01*
X26435931Y56625500D01*
X26435929Y56625500D01*
X26310261Y56600503D01*
X26310255Y56600501D01*
X26191875Y56551467D01*
X26191866Y56551462D01*
X26085331Y56480277D01*
X26085327Y56480274D01*
X25994726Y56389673D01*
X25994723Y56389669D01*
X25923538Y56283134D01*
X25923533Y56283125D01*
X25874499Y56164745D01*
X25874497Y56164739D01*
X25849500Y56039072D01*
X25849500Y56039069D01*
X25849500Y55910931D01*
X25849500Y55910929D01*
X25849499Y55910929D01*
X300500Y55910929D01*
X300500Y56565929D01*
X18199499Y56565929D01*
X18224497Y56440262D01*
X18224499Y56440256D01*
X18273533Y56321876D01*
X18273538Y56321867D01*
X18344723Y56215332D01*
X18344726Y56215328D01*
X18435327Y56124727D01*
X18435331Y56124724D01*
X18541866Y56053539D01*
X18541872Y56053536D01*
X18541873Y56053535D01*
X18660256Y56004499D01*
X18660260Y56004499D01*
X18660261Y56004498D01*
X18785928Y55979500D01*
X18785931Y55979500D01*
X18914071Y55979500D01*
X18998615Y55996318D01*
X19039744Y56004499D01*
X19158127Y56053535D01*
X19264669Y56124724D01*
X19267473Y56127528D01*
X19272788Y56132842D01*
X19355273Y56215328D01*
X19355276Y56215331D01*
X19426465Y56321873D01*
X19475501Y56440256D01*
X19484803Y56487018D01*
X19500500Y56565929D01*
X19500500Y56694072D01*
X19475502Y56819739D01*
X19475501Y56819740D01*
X19475501Y56819744D01*
X19426465Y56938127D01*
X19426464Y56938128D01*
X19426461Y56938134D01*
X19377298Y57011711D01*
X19377297Y57011713D01*
X19355279Y57044665D01*
X19355273Y57044673D01*
X19327471Y57072475D01*
X41499500Y57072475D01*
X41499500Y56927525D01*
X41528382Y56819739D01*
X41537017Y56787512D01*
X41609488Y56661989D01*
X41609490Y56661987D01*
X41609491Y56661985D01*
X41711985Y56559491D01*
X41711986Y56559490D01*
X41711988Y56559489D01*
X41837511Y56487018D01*
X41837512Y56487018D01*
X41837515Y56487016D01*
X41977525Y56449500D01*
X41977528Y56449500D01*
X42122472Y56449500D01*
X42122475Y56449500D01*
X42262485Y56487016D01*
X42388015Y56559491D01*
X42490509Y56661985D01*
X42562984Y56787515D01*
X42600500Y56927525D01*
X42600500Y57072475D01*
X42562984Y57212485D01*
X42553160Y57229500D01*
X42490511Y57338012D01*
X42490506Y57338018D01*
X42388017Y57440507D01*
X42388011Y57440512D01*
X42262488Y57512983D01*
X42262489Y57512983D01*
X42251006Y57516060D01*
X42122475Y57550500D01*
X41977525Y57550500D01*
X41848993Y57516060D01*
X41837511Y57512983D01*
X41711988Y57440512D01*
X41711982Y57440507D01*
X41609493Y57338018D01*
X41609488Y57338012D01*
X41537017Y57212489D01*
X41537016Y57212485D01*
X41499500Y57072475D01*
X19327471Y57072475D01*
X19264672Y57135274D01*
X19264668Y57135277D01*
X19158133Y57206462D01*
X19158124Y57206467D01*
X19039744Y57255501D01*
X19039738Y57255503D01*
X18914071Y57280500D01*
X18914069Y57280500D01*
X18785931Y57280500D01*
X18785929Y57280500D01*
X18660261Y57255503D01*
X18660255Y57255501D01*
X18541875Y57206467D01*
X18541866Y57206462D01*
X18435331Y57135277D01*
X18435327Y57135274D01*
X18344726Y57044673D01*
X18344723Y57044669D01*
X18273538Y56938134D01*
X18273533Y56938125D01*
X18224499Y56819745D01*
X18224497Y56819739D01*
X18199500Y56694072D01*
X18199500Y56694069D01*
X18199500Y56565931D01*
X18199500Y56565929D01*
X18199499Y56565929D01*
X300500Y56565929D01*
X300500Y57852475D01*
X21319500Y57852475D01*
X21319500Y57707525D01*
X21357016Y57567515D01*
X21357017Y57567512D01*
X21429488Y57441989D01*
X21429490Y57441987D01*
X21429491Y57441985D01*
X21531985Y57339491D01*
X21531986Y57339490D01*
X21531988Y57339489D01*
X21657511Y57267018D01*
X21657512Y57267018D01*
X21657515Y57267016D01*
X21797525Y57229500D01*
X21797528Y57229500D01*
X21942472Y57229500D01*
X21942475Y57229500D01*
X22082485Y57267016D01*
X22208015Y57339491D01*
X22310509Y57441985D01*
X22382984Y57567515D01*
X22420500Y57707525D01*
X22420500Y57852475D01*
X22382984Y57992485D01*
X22310509Y58118015D01*
X22208015Y58220509D01*
X22208013Y58220510D01*
X22208011Y58220512D01*
X22082488Y58292983D01*
X22082489Y58292983D01*
X22071006Y58296060D01*
X21942475Y58330500D01*
X21797525Y58330500D01*
X21668993Y58296060D01*
X21657511Y58292983D01*
X21531988Y58220512D01*
X21531982Y58220507D01*
X21429493Y58118018D01*
X21429488Y58118012D01*
X21357017Y57992489D01*
X21357016Y57992485D01*
X21319500Y57852475D01*
X300500Y57852475D01*
X300500Y59685929D01*
X6599499Y59685929D01*
X6624497Y59560262D01*
X6624499Y59560256D01*
X6673533Y59441876D01*
X6673538Y59441867D01*
X6744723Y59335332D01*
X6744726Y59335328D01*
X6835327Y59244727D01*
X6835331Y59244724D01*
X6941866Y59173539D01*
X6941872Y59173536D01*
X6941873Y59173535D01*
X7060256Y59124499D01*
X7060260Y59124499D01*
X7060261Y59124498D01*
X7185928Y59099500D01*
X7185931Y59099500D01*
X7314071Y59099500D01*
X7398615Y59116318D01*
X7439744Y59124499D01*
X7558127Y59173535D01*
X7664669Y59244724D01*
X7755276Y59335331D01*
X7826465Y59441873D01*
X7875501Y59560256D01*
X7900500Y59685931D01*
X7900500Y59735929D01*
X15549499Y59735929D01*
X15574497Y59610262D01*
X15574499Y59610256D01*
X15623533Y59491876D01*
X15623538Y59491867D01*
X15694723Y59385332D01*
X15694726Y59385328D01*
X15785327Y59294727D01*
X15785331Y59294724D01*
X15891866Y59223539D01*
X15891872Y59223536D01*
X15891873Y59223535D01*
X16010256Y59174499D01*
X16010260Y59174499D01*
X16010261Y59174498D01*
X16135928Y59149500D01*
X16135931Y59149500D01*
X16264071Y59149500D01*
X16348615Y59166318D01*
X16389744Y59174499D01*
X16508127Y59223535D01*
X16614669Y59294724D01*
X16705276Y59385331D01*
X16776465Y59491873D01*
X16825501Y59610256D01*
X16850500Y59735931D01*
X16850500Y59864069D01*
X16850500Y59864072D01*
X16825502Y59989739D01*
X16825501Y59989740D01*
X16825501Y59989744D01*
X16776465Y60108127D01*
X16776464Y60108128D01*
X16776461Y60108134D01*
X16705276Y60214669D01*
X16705273Y60214673D01*
X16614672Y60305274D01*
X16614668Y60305277D01*
X16508133Y60376462D01*
X16508124Y60376467D01*
X16389744Y60425501D01*
X16389738Y60425503D01*
X16264071Y60450500D01*
X16264069Y60450500D01*
X16135931Y60450500D01*
X16135929Y60450500D01*
X16010261Y60425503D01*
X16010255Y60425501D01*
X15891875Y60376467D01*
X15891866Y60376462D01*
X15785331Y60305277D01*
X15785327Y60305274D01*
X15694726Y60214673D01*
X15694723Y60214669D01*
X15623538Y60108134D01*
X15623533Y60108125D01*
X15574499Y59989745D01*
X15574497Y59989739D01*
X15549500Y59864072D01*
X15549500Y59864069D01*
X15549500Y59735931D01*
X15549500Y59735929D01*
X15549499Y59735929D01*
X7900500Y59735929D01*
X7900500Y59814069D01*
X7900500Y59814072D01*
X7894155Y59845969D01*
X7875502Y59939739D01*
X7875501Y59939740D01*
X7875501Y59939744D01*
X7826465Y60058127D01*
X7826464Y60058128D01*
X7826461Y60058134D01*
X7755276Y60164669D01*
X7755273Y60164673D01*
X7664672Y60255274D01*
X7664668Y60255277D01*
X7558133Y60326462D01*
X7558124Y60326467D01*
X7439744Y60375501D01*
X7439738Y60375503D01*
X7314071Y60400500D01*
X7314069Y60400500D01*
X7185931Y60400500D01*
X7185929Y60400500D01*
X7060261Y60375503D01*
X7060255Y60375501D01*
X6941875Y60326467D01*
X6941866Y60326462D01*
X6835331Y60255277D01*
X6835327Y60255274D01*
X6744726Y60164673D01*
X6744723Y60164669D01*
X6673538Y60058134D01*
X6673533Y60058125D01*
X6624499Y59939745D01*
X6624497Y59939739D01*
X6599500Y59814072D01*
X6599500Y59814069D01*
X6599500Y59685931D01*
X6599500Y59685929D01*
X6599499Y59685929D01*
X300500Y59685929D01*
X300500Y61172475D01*
X17149500Y61172475D01*
X17149500Y61027525D01*
X17187016Y60887515D01*
X17187017Y60887512D01*
X17259488Y60761989D01*
X17259490Y60761987D01*
X17259491Y60761985D01*
X17361985Y60659491D01*
X17361986Y60659490D01*
X17361988Y60659489D01*
X17487511Y60587018D01*
X17487512Y60587018D01*
X17487515Y60587016D01*
X17627525Y60549500D01*
X17627528Y60549500D01*
X17772472Y60549500D01*
X17772475Y60549500D01*
X17912485Y60587016D01*
X18038015Y60659491D01*
X18084453Y60705929D01*
X27669499Y60705929D01*
X27694497Y60580262D01*
X27694499Y60580256D01*
X27743533Y60461876D01*
X27743538Y60461867D01*
X27814723Y60355332D01*
X27814726Y60355328D01*
X27905327Y60264727D01*
X27905331Y60264724D01*
X28011866Y60193539D01*
X28011872Y60193536D01*
X28011873Y60193535D01*
X28130256Y60144499D01*
X28130260Y60144499D01*
X28130261Y60144498D01*
X28255928Y60119500D01*
X28255931Y60119500D01*
X28384071Y60119500D01*
X28468615Y60136318D01*
X28509744Y60144499D01*
X28628127Y60193535D01*
X28734669Y60264724D01*
X28825276Y60355331D01*
X28896465Y60461873D01*
X28945501Y60580256D01*
X28970500Y60705931D01*
X28970500Y60834069D01*
X28970500Y60834072D01*
X28945502Y60959739D01*
X28945501Y60959740D01*
X28945501Y60959744D01*
X28896465Y61078127D01*
X28896464Y61078128D01*
X28896461Y61078134D01*
X28825276Y61184669D01*
X28825273Y61184673D01*
X28734672Y61275274D01*
X28734668Y61275277D01*
X28628133Y61346462D01*
X28628124Y61346467D01*
X28509744Y61395501D01*
X28509738Y61395503D01*
X28384071Y61420500D01*
X28384069Y61420500D01*
X28255931Y61420500D01*
X28255929Y61420500D01*
X28130261Y61395503D01*
X28130255Y61395501D01*
X28011875Y61346467D01*
X28011866Y61346462D01*
X27905331Y61275277D01*
X27905327Y61275274D01*
X27814726Y61184673D01*
X27814723Y61184669D01*
X27743538Y61078134D01*
X27743533Y61078125D01*
X27694499Y60959745D01*
X27694497Y60959739D01*
X27669500Y60834072D01*
X27669500Y60834069D01*
X27669500Y60705931D01*
X27669500Y60705929D01*
X27669499Y60705929D01*
X18084453Y60705929D01*
X18140509Y60761985D01*
X18212984Y60887515D01*
X18250500Y61027525D01*
X18250500Y61172475D01*
X18212984Y61312485D01*
X18193367Y61346462D01*
X18140511Y61438012D01*
X18140506Y61438018D01*
X18038017Y61540507D01*
X18038015Y61540509D01*
X18003016Y61560716D01*
X18003015Y61560717D01*
X17912488Y61612983D01*
X17912489Y61612983D01*
X17901006Y61616060D01*
X17772475Y61650500D01*
X17627525Y61650500D01*
X17498993Y61616060D01*
X17487511Y61612983D01*
X17361988Y61540512D01*
X17361982Y61540507D01*
X17259493Y61438018D01*
X17259488Y61438012D01*
X17187017Y61312489D01*
X17187016Y61312485D01*
X17149500Y61172475D01*
X300500Y61172475D01*
X300500Y61935929D01*
X6599499Y61935929D01*
X6624497Y61810262D01*
X6624499Y61810256D01*
X6673533Y61691876D01*
X6673538Y61691867D01*
X6744723Y61585332D01*
X6744726Y61585328D01*
X6835327Y61494727D01*
X6835331Y61494724D01*
X6941866Y61423539D01*
X6941872Y61423536D01*
X6941873Y61423535D01*
X7060256Y61374499D01*
X7060260Y61374499D01*
X7060261Y61374498D01*
X7185928Y61349500D01*
X7185931Y61349500D01*
X7314071Y61349500D01*
X7398615Y61366318D01*
X7439744Y61374499D01*
X7558127Y61423535D01*
X7664669Y61494724D01*
X7755276Y61585331D01*
X7805151Y61659975D01*
X20899500Y61659975D01*
X20899500Y61515025D01*
X20931526Y61395503D01*
X20937017Y61375012D01*
X21009488Y61249489D01*
X21009490Y61249487D01*
X21009491Y61249485D01*
X21111985Y61146991D01*
X21111986Y61146990D01*
X21111988Y61146989D01*
X21237511Y61074518D01*
X21237512Y61074518D01*
X21237515Y61074516D01*
X21377525Y61037000D01*
X21377528Y61037000D01*
X21522472Y61037000D01*
X21522475Y61037000D01*
X21662485Y61074516D01*
X21788015Y61146991D01*
X21890509Y61249485D01*
X21962984Y61375015D01*
X22000500Y61515025D01*
X22000500Y61659975D01*
X21962984Y61799985D01*
X21890509Y61925515D01*
X21788015Y62028009D01*
X21788013Y62028010D01*
X21788011Y62028012D01*
X21662488Y62100483D01*
X21662489Y62100483D01*
X21651006Y62103560D01*
X21522475Y62138000D01*
X21377525Y62138000D01*
X21248993Y62103560D01*
X21237511Y62100483D01*
X21111988Y62028012D01*
X21111982Y62028007D01*
X21009493Y61925518D01*
X21009488Y61925512D01*
X20937017Y61799989D01*
X20937016Y61799985D01*
X20899500Y61659975D01*
X7805151Y61659975D01*
X7826465Y61691873D01*
X7875501Y61810256D01*
X7883682Y61851385D01*
X7900500Y61935929D01*
X7900500Y62064072D01*
X7875502Y62189739D01*
X7875501Y62189740D01*
X7875501Y62189744D01*
X7826465Y62308127D01*
X7826464Y62308128D01*
X7826461Y62308134D01*
X7755276Y62414669D01*
X7755273Y62414673D01*
X7664672Y62505274D01*
X7664668Y62505277D01*
X7558133Y62576462D01*
X7558124Y62576467D01*
X7439744Y62625501D01*
X7439738Y62625503D01*
X7314071Y62650500D01*
X7314069Y62650500D01*
X7185931Y62650500D01*
X7185929Y62650500D01*
X7060261Y62625503D01*
X7060255Y62625501D01*
X6941875Y62576467D01*
X6941866Y62576462D01*
X6835331Y62505277D01*
X6835327Y62505274D01*
X6744726Y62414673D01*
X6744723Y62414669D01*
X6673538Y62308134D01*
X6673533Y62308125D01*
X6624499Y62189745D01*
X6624497Y62189739D01*
X6599500Y62064072D01*
X6599500Y62064069D01*
X6599500Y61935931D01*
X6599500Y61935929D01*
X6599499Y61935929D01*
X300500Y61935929D01*
X300500Y63847475D01*
X16474500Y63847475D01*
X16474500Y63702525D01*
X16495666Y63623535D01*
X16512017Y63562512D01*
X16584488Y63436989D01*
X16584490Y63436987D01*
X16584491Y63436985D01*
X16686985Y63334491D01*
X16686986Y63334490D01*
X16686988Y63334489D01*
X16812511Y63262018D01*
X16812512Y63262018D01*
X16812515Y63262016D01*
X16952525Y63224500D01*
X16952528Y63224500D01*
X17097472Y63224500D01*
X17097475Y63224500D01*
X17237485Y63262016D01*
X17363015Y63334491D01*
X17465509Y63436985D01*
X17537984Y63562515D01*
X17575500Y63702525D01*
X17575500Y63847475D01*
X17537984Y63987485D01*
X17465509Y64113015D01*
X17442595Y64135929D01*
X46599499Y64135929D01*
X46624497Y64010262D01*
X46624499Y64010256D01*
X46673533Y63891876D01*
X46673538Y63891867D01*
X46744723Y63785332D01*
X46744726Y63785328D01*
X46835327Y63694727D01*
X46835331Y63694724D01*
X46941866Y63623539D01*
X46941872Y63623536D01*
X46941873Y63623535D01*
X47060256Y63574499D01*
X47060260Y63574499D01*
X47060261Y63574498D01*
X47185928Y63549500D01*
X47185931Y63549500D01*
X47314071Y63549500D01*
X47398615Y63566318D01*
X47439744Y63574499D01*
X47558127Y63623535D01*
X47664669Y63694724D01*
X47755276Y63785331D01*
X47826465Y63891873D01*
X47875501Y64010256D01*
X47900500Y64135931D01*
X47900500Y64264069D01*
X47900500Y64264072D01*
X47875502Y64389739D01*
X47875501Y64389740D01*
X47875501Y64389744D01*
X47826465Y64508127D01*
X47826464Y64508128D01*
X47826461Y64508134D01*
X47755276Y64614669D01*
X47755273Y64614673D01*
X47664672Y64705274D01*
X47664668Y64705277D01*
X47558133Y64776462D01*
X47558124Y64776467D01*
X47439744Y64825501D01*
X47439738Y64825503D01*
X47314071Y64850500D01*
X47314069Y64850500D01*
X47185931Y64850500D01*
X47185929Y64850500D01*
X47060261Y64825503D01*
X47060255Y64825501D01*
X46941875Y64776467D01*
X46941866Y64776462D01*
X46835331Y64705277D01*
X46835327Y64705274D01*
X46744726Y64614673D01*
X46744723Y64614669D01*
X46673538Y64508134D01*
X46673533Y64508125D01*
X46624499Y64389745D01*
X46624497Y64389739D01*
X46599500Y64264072D01*
X46599500Y64264069D01*
X46599500Y64135931D01*
X46599500Y64135929D01*
X46599499Y64135929D01*
X17442595Y64135929D01*
X17363015Y64215509D01*
X17363013Y64215510D01*
X17363011Y64215512D01*
X17237488Y64287983D01*
X17237489Y64287983D01*
X17226006Y64291060D01*
X17097475Y64325500D01*
X16952525Y64325500D01*
X16823993Y64291060D01*
X16812511Y64287983D01*
X16686988Y64215512D01*
X16686982Y64215507D01*
X16584493Y64113018D01*
X16584488Y64113012D01*
X16512017Y63987489D01*
X16512016Y63987485D01*
X16474500Y63847475D01*
X300500Y63847475D01*
X300500Y66592475D01*
X21009500Y66592475D01*
X21009500Y66447525D01*
X21047016Y66307515D01*
X21047017Y66307512D01*
X21119488Y66181989D01*
X21119490Y66181987D01*
X21119491Y66181985D01*
X21221985Y66079491D01*
X21221986Y66079490D01*
X21221988Y66079489D01*
X21347511Y66007018D01*
X21347512Y66007018D01*
X21347515Y66007016D01*
X21487525Y65969500D01*
X21487528Y65969500D01*
X21632472Y65969500D01*
X21632475Y65969500D01*
X21772485Y66007016D01*
X21898015Y66079491D01*
X22000509Y66181985D01*
X22072984Y66307515D01*
X22110500Y66447525D01*
X22110500Y66592475D01*
X22090828Y66665892D01*
X24699500Y66665892D01*
X24699500Y66534109D01*
X24733608Y66406813D01*
X24766554Y66349750D01*
X24799500Y66292686D01*
X24892686Y66199500D01*
X25006814Y66133608D01*
X25134108Y66099500D01*
X25134110Y66099500D01*
X25265890Y66099500D01*
X25265892Y66099500D01*
X25393186Y66133608D01*
X25507314Y66199500D01*
X25600500Y66292686D01*
X25666392Y66406814D01*
X25700500Y66534108D01*
X25700500Y66665892D01*
X25666392Y66793186D01*
X25600500Y66907314D01*
X25507314Y67000500D01*
X25450250Y67033446D01*
X25393187Y67066392D01*
X25329539Y67083446D01*
X25265892Y67100500D01*
X25134108Y67100500D01*
X25006812Y67066392D01*
X24892686Y67000500D01*
X24892683Y67000498D01*
X24799502Y66907317D01*
X24799500Y66907314D01*
X24733608Y66793188D01*
X24699500Y66665892D01*
X22090828Y66665892D01*
X22072984Y66732485D01*
X22000509Y66858015D01*
X21898015Y66960509D01*
X21898013Y66960510D01*
X21898011Y66960512D01*
X21772488Y67032983D01*
X21772489Y67032983D01*
X21761006Y67036060D01*
X21632475Y67070500D01*
X21487525Y67070500D01*
X21358993Y67036060D01*
X21347511Y67032983D01*
X21221988Y66960512D01*
X21221982Y66960507D01*
X21119493Y66858018D01*
X21119488Y66858012D01*
X21047017Y66732489D01*
X21047016Y66732485D01*
X21009500Y66592475D01*
X300500Y66592475D01*
X300500Y68007500D01*
X23624475Y68007500D01*
X23624475Y67862550D01*
X23661991Y67722540D01*
X23661992Y67722537D01*
X23734463Y67597014D01*
X23734465Y67597012D01*
X23734466Y67597010D01*
X23836960Y67494516D01*
X23836961Y67494515D01*
X23836963Y67494514D01*
X23962486Y67422043D01*
X23962487Y67422043D01*
X23962490Y67422041D01*
X24102500Y67384525D01*
X24102503Y67384525D01*
X24247447Y67384525D01*
X24247450Y67384525D01*
X24387460Y67422041D01*
X24512990Y67494516D01*
X24615484Y67597010D01*
X24687959Y67722540D01*
X24725475Y67862550D01*
X24725475Y68007500D01*
X24687959Y68147510D01*
X24672933Y68173535D01*
X24615486Y68273037D01*
X24615481Y68273043D01*
X24512992Y68375532D01*
X24512986Y68375537D01*
X24387463Y68448008D01*
X24387464Y68448008D01*
X24375981Y68451085D01*
X24247450Y68485525D01*
X24102500Y68485525D01*
X23973968Y68451085D01*
X23962486Y68448008D01*
X23836963Y68375537D01*
X23836957Y68375532D01*
X23734468Y68273043D01*
X23734463Y68273037D01*
X23661992Y68147514D01*
X23661991Y68147510D01*
X23624475Y68007500D01*
X300500Y68007500D01*
X300500Y68645929D01*
X20489499Y68645929D01*
X20514497Y68520262D01*
X20514499Y68520256D01*
X20563533Y68401876D01*
X20563538Y68401867D01*
X20634723Y68295332D01*
X20634726Y68295328D01*
X20725327Y68204727D01*
X20725331Y68204724D01*
X20831866Y68133539D01*
X20831872Y68133536D01*
X20831873Y68133535D01*
X20950256Y68084499D01*
X20950260Y68084499D01*
X20950261Y68084498D01*
X21075928Y68059500D01*
X21075931Y68059500D01*
X21204071Y68059500D01*
X21288615Y68076318D01*
X21329744Y68084499D01*
X21448127Y68133535D01*
X21554669Y68204724D01*
X21645276Y68295331D01*
X21716465Y68401873D01*
X21765501Y68520256D01*
X21790500Y68645931D01*
X21790500Y68685929D01*
X32099499Y68685929D01*
X32124497Y68560262D01*
X32124499Y68560256D01*
X32173533Y68441876D01*
X32173538Y68441867D01*
X32244723Y68335332D01*
X32244726Y68335328D01*
X32335327Y68244727D01*
X32335331Y68244724D01*
X32441866Y68173539D01*
X32441872Y68173536D01*
X32441873Y68173535D01*
X32560256Y68124499D01*
X32560260Y68124499D01*
X32560261Y68124498D01*
X32685928Y68099500D01*
X32685931Y68099500D01*
X32814071Y68099500D01*
X32898615Y68116318D01*
X32939744Y68124499D01*
X33058127Y68173535D01*
X33164669Y68244724D01*
X33255276Y68335331D01*
X33326465Y68441873D01*
X33375501Y68560256D01*
X33400500Y68685931D01*
X33400500Y68814069D01*
X33400500Y68814072D01*
X33375502Y68939739D01*
X33375501Y68939740D01*
X33375501Y68939744D01*
X33326465Y69058127D01*
X33326464Y69058128D01*
X33326461Y69058134D01*
X33255276Y69164669D01*
X33255273Y69164673D01*
X33164672Y69255274D01*
X33164668Y69255277D01*
X33058133Y69326462D01*
X33058124Y69326467D01*
X32939744Y69375501D01*
X32939738Y69375503D01*
X32814071Y69400500D01*
X32814069Y69400500D01*
X32685931Y69400500D01*
X32685929Y69400500D01*
X32560261Y69375503D01*
X32560255Y69375501D01*
X32441875Y69326467D01*
X32441866Y69326462D01*
X32335331Y69255277D01*
X32335327Y69255274D01*
X32244726Y69164673D01*
X32244723Y69164669D01*
X32173538Y69058134D01*
X32173533Y69058125D01*
X32124499Y68939745D01*
X32124497Y68939739D01*
X32099500Y68814072D01*
X32099500Y68814069D01*
X32099500Y68685931D01*
X32099500Y68685929D01*
X32099499Y68685929D01*
X21790500Y68685929D01*
X21790500Y68774069D01*
X21790499Y68774072D01*
X21786144Y68795968D01*
X21786144Y68795969D01*
X21765502Y68899739D01*
X21765501Y68899740D01*
X21765501Y68899744D01*
X21716465Y69018127D01*
X21716464Y69018128D01*
X21716461Y69018134D01*
X21645276Y69124669D01*
X21645273Y69124673D01*
X21554672Y69215274D01*
X21554668Y69215277D01*
X21448133Y69286462D01*
X21448124Y69286467D01*
X21329744Y69335501D01*
X21329738Y69335503D01*
X21204071Y69360500D01*
X21204069Y69360500D01*
X21075931Y69360500D01*
X21075929Y69360500D01*
X20950261Y69335503D01*
X20950255Y69335501D01*
X20831875Y69286467D01*
X20831866Y69286462D01*
X20725331Y69215277D01*
X20725327Y69215274D01*
X20634726Y69124673D01*
X20634723Y69124669D01*
X20563538Y69018134D01*
X20563533Y69018125D01*
X20514499Y68899745D01*
X20514497Y68899739D01*
X20489500Y68774072D01*
X20489500Y68774071D01*
X20489500Y68774069D01*
X20489500Y68645931D01*
X20489500Y68645929D01*
X20489499Y68645929D01*
X300500Y68645929D01*
X300500Y70547083D01*
X5844500Y70547083D01*
X5844500Y70392917D01*
X5884401Y70244006D01*
X5961484Y70110495D01*
X6070495Y70001484D01*
X6204006Y69924401D01*
X6352917Y69884500D01*
X6352920Y69884500D01*
X6507080Y69884500D01*
X6507083Y69884500D01*
X6655994Y69924401D01*
X6789505Y70001484D01*
X6898516Y70110495D01*
X6975599Y70244006D01*
X7015500Y70392917D01*
X7015500Y70547083D01*
X6975599Y70695994D01*
X6898516Y70829505D01*
X6789505Y70938516D01*
X6655994Y71015599D01*
X6507083Y71055500D01*
X6352917Y71055500D01*
X6204006Y71015599D01*
X6204004Y71015599D01*
X6204004Y71015598D01*
X6070495Y70938516D01*
X6070492Y70938514D01*
X5961486Y70829508D01*
X5961484Y70829505D01*
X5884401Y70695994D01*
X5844500Y70547083D01*
X300500Y70547083D01*
X300500Y72163470D01*
X53209500Y72163470D01*
X53209500Y71956531D01*
X53249868Y71753588D01*
X53249870Y71753580D01*
X53329058Y71562404D01*
X53444024Y71390343D01*
X53590342Y71244025D01*
X53590345Y71244023D01*
X53762402Y71129059D01*
X53953580Y71049870D01*
X54125873Y71015599D01*
X54156530Y71009501D01*
X54156534Y71009500D01*
X54156535Y71009500D01*
X54363466Y71009500D01*
X54363467Y71009501D01*
X54566420Y71049870D01*
X54757598Y71129059D01*
X54929655Y71244023D01*
X55075977Y71390345D01*
X55190941Y71562402D01*
X55270130Y71753580D01*
X55310500Y71956535D01*
X55310500Y72163465D01*
X55310499Y72163470D01*
X55749500Y72163470D01*
X55749500Y71956531D01*
X55789868Y71753588D01*
X55789870Y71753580D01*
X55869058Y71562404D01*
X55984024Y71390343D01*
X56130342Y71244025D01*
X56130345Y71244023D01*
X56302402Y71129059D01*
X56493580Y71049870D01*
X56665873Y71015599D01*
X56696530Y71009501D01*
X56696534Y71009500D01*
X56696535Y71009500D01*
X56903466Y71009500D01*
X56903467Y71009501D01*
X57106420Y71049870D01*
X57297598Y71129059D01*
X57469655Y71244023D01*
X57615977Y71390345D01*
X57730941Y71562402D01*
X57810130Y71753580D01*
X57850500Y71956535D01*
X57850500Y72163465D01*
X57810130Y72366420D01*
X57730941Y72557598D01*
X57615977Y72729655D01*
X57615975Y72729658D01*
X57469657Y72875976D01*
X57383626Y72933459D01*
X57297598Y72990941D01*
X57106420Y73070130D01*
X57106412Y73070132D01*
X56903469Y73110500D01*
X56903465Y73110500D01*
X56696535Y73110500D01*
X56696530Y73110500D01*
X56493587Y73070132D01*
X56493579Y73070130D01*
X56302403Y72990942D01*
X56130342Y72875976D01*
X55984024Y72729658D01*
X55869058Y72557597D01*
X55789870Y72366421D01*
X55789868Y72366413D01*
X55749500Y72163470D01*
X55310499Y72163470D01*
X55270130Y72366420D01*
X55190941Y72557598D01*
X55075977Y72729655D01*
X55075975Y72729658D01*
X54929657Y72875976D01*
X54843626Y72933459D01*
X54757598Y72990941D01*
X54566420Y73070130D01*
X54566412Y73070132D01*
X54363469Y73110500D01*
X54363465Y73110500D01*
X54156535Y73110500D01*
X54156530Y73110500D01*
X53953587Y73070132D01*
X53953579Y73070130D01*
X53762403Y72990942D01*
X53590342Y72875976D01*
X53444024Y72729658D01*
X53329058Y72557597D01*
X53249870Y72366421D01*
X53249868Y72366413D01*
X53209500Y72163470D01*
X300500Y72163470D01*
X300500Y73972475D01*
X4349500Y73972475D01*
X4349500Y73827525D01*
X4371686Y73744727D01*
X4387017Y73687512D01*
X4459488Y73561989D01*
X4459490Y73561987D01*
X4459491Y73561985D01*
X4561985Y73459491D01*
X4561986Y73459490D01*
X4561988Y73459489D01*
X4687511Y73387018D01*
X4687512Y73387018D01*
X4687515Y73387016D01*
X4827525Y73349500D01*
X4827528Y73349500D01*
X4972472Y73349500D01*
X4972475Y73349500D01*
X5112485Y73387016D01*
X5238015Y73459491D01*
X5340509Y73561985D01*
X5412984Y73687515D01*
X5450500Y73827525D01*
X5450500Y73972475D01*
X9649500Y73972475D01*
X9649500Y73827525D01*
X9671686Y73744727D01*
X9687017Y73687512D01*
X9759488Y73561989D01*
X9759490Y73561987D01*
X9759491Y73561985D01*
X9861985Y73459491D01*
X9861986Y73459490D01*
X9861988Y73459489D01*
X9987511Y73387018D01*
X9987512Y73387018D01*
X9987515Y73387016D01*
X10127525Y73349500D01*
X10127528Y73349500D01*
X10272472Y73349500D01*
X10272475Y73349500D01*
X10412485Y73387016D01*
X10538015Y73459491D01*
X10640509Y73561985D01*
X10712984Y73687515D01*
X10750500Y73827525D01*
X10750500Y73972475D01*
X10712984Y74112485D01*
X10670581Y74185929D01*
X23349499Y74185929D01*
X23374497Y74060262D01*
X23374499Y74060256D01*
X23423533Y73941876D01*
X23423538Y73941867D01*
X23494723Y73835332D01*
X23494726Y73835328D01*
X23585327Y73744727D01*
X23585331Y73744724D01*
X23691866Y73673539D01*
X23691872Y73673536D01*
X23691873Y73673535D01*
X23810256Y73624499D01*
X23810260Y73624499D01*
X23810261Y73624498D01*
X23935928Y73599500D01*
X23935931Y73599500D01*
X24064071Y73599500D01*
X24148615Y73616318D01*
X24189744Y73624499D01*
X24308127Y73673535D01*
X24414669Y73744724D01*
X24505276Y73835331D01*
X24576465Y73941873D01*
X24625501Y74060256D01*
X24650500Y74185931D01*
X24650500Y74314069D01*
X24650500Y74314072D01*
X24625502Y74439739D01*
X24625501Y74439740D01*
X24625501Y74439744D01*
X24576925Y74557016D01*
X24576466Y74558125D01*
X24576461Y74558134D01*
X24505276Y74664669D01*
X24505273Y74664673D01*
X24414672Y74755274D01*
X24414668Y74755277D01*
X24308133Y74826462D01*
X24308124Y74826467D01*
X24189744Y74875501D01*
X24189738Y74875503D01*
X24064071Y74900500D01*
X24064069Y74900500D01*
X23935931Y74900500D01*
X23935929Y74900500D01*
X23810261Y74875503D01*
X23810255Y74875501D01*
X23691875Y74826467D01*
X23691866Y74826462D01*
X23585331Y74755277D01*
X23585327Y74755274D01*
X23494726Y74664673D01*
X23494723Y74664669D01*
X23423538Y74558134D01*
X23423533Y74558125D01*
X23374499Y74439745D01*
X23374497Y74439739D01*
X23349500Y74314072D01*
X23349500Y74314069D01*
X23349500Y74185931D01*
X23349500Y74185929D01*
X23349499Y74185929D01*
X10670581Y74185929D01*
X10640509Y74238015D01*
X10538015Y74340509D01*
X10538013Y74340510D01*
X10538011Y74340512D01*
X10412488Y74412983D01*
X10412489Y74412983D01*
X10401006Y74416060D01*
X10272475Y74450500D01*
X10127525Y74450500D01*
X9998993Y74416060D01*
X9987511Y74412983D01*
X9861988Y74340512D01*
X9861982Y74340507D01*
X9759493Y74238018D01*
X9759488Y74238012D01*
X9687017Y74112489D01*
X9687016Y74112485D01*
X9649500Y73972475D01*
X5450500Y73972475D01*
X5412984Y74112485D01*
X5340509Y74238015D01*
X5238015Y74340509D01*
X5238013Y74340510D01*
X5238011Y74340512D01*
X5112488Y74412983D01*
X5112489Y74412983D01*
X5101006Y74416060D01*
X4972475Y74450500D01*
X4827525Y74450500D01*
X4698993Y74416060D01*
X4687511Y74412983D01*
X4561988Y74340512D01*
X4561982Y74340507D01*
X4459493Y74238018D01*
X4459488Y74238012D01*
X4387017Y74112489D01*
X4387016Y74112485D01*
X4349500Y73972475D01*
X300500Y73972475D01*
X300500Y75142475D01*
X32289500Y75142475D01*
X32289500Y74997525D01*
X32313455Y74908125D01*
X32327017Y74857512D01*
X32399488Y74731989D01*
X32399490Y74731987D01*
X32399491Y74731985D01*
X32501985Y74629491D01*
X32501986Y74629490D01*
X32501988Y74629489D01*
X32627511Y74557018D01*
X32627512Y74557018D01*
X32627515Y74557016D01*
X32767525Y74519500D01*
X32767528Y74519500D01*
X32912472Y74519500D01*
X32912475Y74519500D01*
X32973788Y74535929D01*
X40749499Y74535929D01*
X40774497Y74410262D01*
X40774499Y74410256D01*
X40823533Y74291876D01*
X40823538Y74291867D01*
X40894723Y74185332D01*
X40894726Y74185328D01*
X40985327Y74094727D01*
X40985331Y74094724D01*
X41091866Y74023539D01*
X41091872Y74023536D01*
X41091873Y74023535D01*
X41210256Y73974499D01*
X41210260Y73974499D01*
X41210261Y73974498D01*
X41335928Y73949500D01*
X41335931Y73949500D01*
X41464071Y73949500D01*
X41548615Y73966318D01*
X41589744Y73974499D01*
X41708127Y74023535D01*
X41814669Y74094724D01*
X41905276Y74185331D01*
X41976465Y74291873D01*
X42025501Y74410256D01*
X42042663Y74496534D01*
X42050500Y74535929D01*
X42050500Y74664070D01*
X42046264Y74685364D01*
X42046264Y74685365D01*
X42042663Y74703470D01*
X53209500Y74703470D01*
X53209500Y74496531D01*
X53249868Y74293588D01*
X53249870Y74293580D01*
X53329059Y74102402D01*
X53357216Y74060262D01*
X53444024Y73930343D01*
X53590342Y73784025D01*
X53590345Y73784023D01*
X53762402Y73669059D01*
X53953580Y73589870D01*
X54156530Y73549501D01*
X54156534Y73549500D01*
X54156535Y73549500D01*
X54363466Y73549500D01*
X54363467Y73549501D01*
X54566420Y73589870D01*
X54757598Y73669059D01*
X54929655Y73784023D01*
X55075977Y73930345D01*
X55190941Y74102402D01*
X55270130Y74293580D01*
X55310500Y74496535D01*
X55310500Y74703465D01*
X55310499Y74703470D01*
X55749500Y74703470D01*
X55749500Y74496531D01*
X55789868Y74293588D01*
X55789870Y74293580D01*
X55869059Y74102402D01*
X55897216Y74060262D01*
X55984024Y73930343D01*
X56130342Y73784025D01*
X56130345Y73784023D01*
X56302402Y73669059D01*
X56493580Y73589870D01*
X56696530Y73549501D01*
X56696534Y73549500D01*
X56696535Y73549500D01*
X56903466Y73549500D01*
X56903467Y73549501D01*
X57106420Y73589870D01*
X57297598Y73669059D01*
X57469655Y73784023D01*
X57615977Y73930345D01*
X57730941Y74102402D01*
X57810130Y74293580D01*
X57850500Y74496535D01*
X57850500Y74703465D01*
X57810130Y74906420D01*
X57730941Y75097598D01*
X57615977Y75269655D01*
X57615975Y75269658D01*
X57469657Y75415976D01*
X57328172Y75510512D01*
X57297598Y75530941D01*
X57106420Y75610130D01*
X57106412Y75610132D01*
X56903469Y75650500D01*
X56903465Y75650500D01*
X56696535Y75650500D01*
X56696530Y75650500D01*
X56493587Y75610132D01*
X56493579Y75610130D01*
X56302403Y75530942D01*
X56130342Y75415976D01*
X55984024Y75269658D01*
X55869058Y75097597D01*
X55789870Y74906421D01*
X55789868Y74906413D01*
X55749500Y74703470D01*
X55310499Y74703470D01*
X55270130Y74906420D01*
X55190941Y75097598D01*
X55075977Y75269655D01*
X55075975Y75269658D01*
X54929657Y75415976D01*
X54788172Y75510512D01*
X54757598Y75530941D01*
X54566420Y75610130D01*
X54566412Y75610132D01*
X54363469Y75650500D01*
X54363465Y75650500D01*
X54156535Y75650500D01*
X54156530Y75650500D01*
X53953587Y75610132D01*
X53953579Y75610130D01*
X53762403Y75530942D01*
X53590342Y75415976D01*
X53444024Y75269658D01*
X53329058Y75097597D01*
X53249870Y74906421D01*
X53249868Y74906413D01*
X53209500Y74703470D01*
X42042663Y74703470D01*
X42025502Y74789739D01*
X42025501Y74789740D01*
X42025501Y74789744D01*
X41976465Y74908127D01*
X41976464Y74908128D01*
X41976461Y74908134D01*
X41905276Y75014669D01*
X41905273Y75014673D01*
X41814672Y75105274D01*
X41814668Y75105277D01*
X41708133Y75176462D01*
X41708124Y75176467D01*
X41589744Y75225501D01*
X41589738Y75225503D01*
X41464071Y75250500D01*
X41464069Y75250500D01*
X41335931Y75250500D01*
X41335929Y75250500D01*
X41210261Y75225503D01*
X41210255Y75225501D01*
X41091875Y75176467D01*
X41091866Y75176462D01*
X40985331Y75105277D01*
X40985327Y75105274D01*
X40894726Y75014673D01*
X40894723Y75014669D01*
X40823538Y74908134D01*
X40823533Y74908125D01*
X40774499Y74789745D01*
X40774497Y74789739D01*
X40749500Y74664072D01*
X40749500Y74664070D01*
X40749500Y74664069D01*
X40749500Y74535931D01*
X40749500Y74535929D01*
X40749499Y74535929D01*
X32973788Y74535929D01*
X33052485Y74557016D01*
X33178015Y74629491D01*
X33280509Y74731985D01*
X33313854Y74789739D01*
X33352982Y74857512D01*
X33352981Y74857512D01*
X33352984Y74857515D01*
X33390500Y74997525D01*
X33390500Y75142475D01*
X33352984Y75282485D01*
X33280509Y75408015D01*
X33178015Y75510509D01*
X33178013Y75510510D01*
X33178011Y75510512D01*
X33052488Y75582983D01*
X33052489Y75582983D01*
X33041006Y75586060D01*
X32912475Y75620500D01*
X32767525Y75620500D01*
X32638993Y75586060D01*
X32627511Y75582983D01*
X32501988Y75510512D01*
X32501982Y75510507D01*
X32399493Y75408018D01*
X32399488Y75408012D01*
X32327017Y75282489D01*
X32327016Y75282485D01*
X32289500Y75142475D01*
X300500Y75142475D01*
X300500Y76327083D01*
X5844500Y76327083D01*
X5844500Y76172917D01*
X5884401Y76024006D01*
X5961484Y75890495D01*
X6070495Y75781484D01*
X6204006Y75704401D01*
X6352917Y75664500D01*
X6352920Y75664500D01*
X6507080Y75664500D01*
X6507083Y75664500D01*
X6655994Y75704401D01*
X6789505Y75781484D01*
X6898516Y75890495D01*
X6975599Y76024006D01*
X7015500Y76172917D01*
X7015500Y76327083D01*
X6976542Y76472475D01*
X10149500Y76472475D01*
X10149500Y76327525D01*
X10184333Y76197528D01*
X10187017Y76187512D01*
X10259488Y76061989D01*
X10259490Y76061987D01*
X10259491Y76061985D01*
X10361985Y75959491D01*
X10361986Y75959490D01*
X10361988Y75959489D01*
X10487511Y75887018D01*
X10487512Y75887018D01*
X10487515Y75887016D01*
X10627525Y75849500D01*
X10627528Y75849500D01*
X10772472Y75849500D01*
X10772475Y75849500D01*
X10912485Y75887016D01*
X11038015Y75959491D01*
X11140509Y76061985D01*
X11212984Y76187515D01*
X11250500Y76327525D01*
X11250500Y76342475D01*
X26779500Y76342475D01*
X26779500Y76197525D01*
X26808446Y76089500D01*
X26817017Y76057512D01*
X26889488Y75931989D01*
X26889490Y75931987D01*
X26889491Y75931985D01*
X26991985Y75829491D01*
X26991986Y75829490D01*
X26991988Y75829489D01*
X27117511Y75757018D01*
X27117512Y75757018D01*
X27117515Y75757016D01*
X27257525Y75719500D01*
X27257528Y75719500D01*
X27402472Y75719500D01*
X27402475Y75719500D01*
X27542485Y75757016D01*
X27668015Y75829491D01*
X27770509Y75931985D01*
X27842984Y76057515D01*
X27880500Y76197525D01*
X27880500Y76342475D01*
X27842984Y76482485D01*
X27782346Y76587512D01*
X27770511Y76608012D01*
X27770506Y76608018D01*
X27668017Y76710507D01*
X27668015Y76710509D01*
X27618816Y76738915D01*
X27559406Y76773215D01*
X27559405Y76773215D01*
X27542485Y76782984D01*
X27402475Y76820500D01*
X27257525Y76820500D01*
X27164591Y76795598D01*
X27117511Y76782983D01*
X26991988Y76710512D01*
X26991982Y76710507D01*
X26889493Y76608018D01*
X26889488Y76608012D01*
X26817017Y76482489D01*
X26817016Y76482485D01*
X26779500Y76342475D01*
X11250500Y76342475D01*
X11250500Y76472475D01*
X11212984Y76612485D01*
X11195711Y76642402D01*
X11140511Y76738012D01*
X11140506Y76738018D01*
X11038017Y76840507D01*
X11038011Y76840512D01*
X10982650Y76872475D01*
X42849500Y76872475D01*
X42849500Y76727525D01*
X42881123Y76609508D01*
X42887017Y76587512D01*
X42959488Y76461989D01*
X42959490Y76461987D01*
X42959491Y76461985D01*
X43061985Y76359491D01*
X43061986Y76359490D01*
X43061988Y76359489D01*
X43187511Y76287018D01*
X43187512Y76287018D01*
X43187515Y76287016D01*
X43327525Y76249500D01*
X43327528Y76249500D01*
X43472472Y76249500D01*
X43472475Y76249500D01*
X43612485Y76287016D01*
X43738015Y76359491D01*
X43840509Y76461985D01*
X43846565Y76472475D01*
X48549500Y76472475D01*
X48549500Y76327525D01*
X48584333Y76197528D01*
X48587017Y76187512D01*
X48659488Y76061989D01*
X48659490Y76061987D01*
X48659491Y76061985D01*
X48761985Y75959491D01*
X48761986Y75959490D01*
X48761988Y75959489D01*
X48887511Y75887018D01*
X48887512Y75887018D01*
X48887515Y75887016D01*
X49027525Y75849500D01*
X49027528Y75849500D01*
X49172472Y75849500D01*
X49172475Y75849500D01*
X49312485Y75887016D01*
X49438015Y75959491D01*
X49540509Y76061985D01*
X49612984Y76187515D01*
X49650500Y76327525D01*
X49650500Y76472475D01*
X49612984Y76612485D01*
X49595711Y76642402D01*
X49540511Y76738012D01*
X49540506Y76738018D01*
X49438017Y76840507D01*
X49438011Y76840512D01*
X49312488Y76912983D01*
X49312489Y76912983D01*
X49301006Y76916060D01*
X49172475Y76950500D01*
X49027525Y76950500D01*
X48898993Y76916060D01*
X48887511Y76912983D01*
X48761988Y76840512D01*
X48761982Y76840507D01*
X48659493Y76738018D01*
X48659488Y76738012D01*
X48587017Y76612489D01*
X48585819Y76608018D01*
X48549500Y76472475D01*
X43846565Y76472475D01*
X43912984Y76587515D01*
X43950500Y76727525D01*
X43950500Y76872475D01*
X43912984Y77012485D01*
X43899099Y77036534D01*
X43840511Y77138012D01*
X43840506Y77138018D01*
X43738017Y77240507D01*
X43738011Y77240512D01*
X43732888Y77243470D01*
X55749500Y77243470D01*
X55749500Y77036531D01*
X55789868Y76833588D01*
X55789870Y76833580D01*
X55829454Y76738015D01*
X55869059Y76642402D01*
X55892038Y76608012D01*
X55984024Y76470343D01*
X56130342Y76324025D01*
X56130345Y76324023D01*
X56302402Y76209059D01*
X56493580Y76129870D01*
X56696530Y76089501D01*
X56696534Y76089500D01*
X56696535Y76089500D01*
X56903466Y76089500D01*
X56903467Y76089501D01*
X57106420Y76129870D01*
X57297598Y76209059D01*
X57469655Y76324023D01*
X57615977Y76470345D01*
X57730941Y76642402D01*
X57810130Y76833580D01*
X57850500Y77036535D01*
X57850500Y77243465D01*
X57810130Y77446420D01*
X57730941Y77637598D01*
X57615977Y77809655D01*
X57615975Y77809658D01*
X57469657Y77955976D01*
X57313580Y78060262D01*
X57297598Y78070941D01*
X57245101Y78092686D01*
X57106420Y78150130D01*
X57106412Y78150132D01*
X56903469Y78190500D01*
X56903465Y78190500D01*
X56696535Y78190500D01*
X56696530Y78190500D01*
X56493587Y78150132D01*
X56493579Y78150130D01*
X56302403Y78070942D01*
X56130342Y77955976D01*
X55984024Y77809658D01*
X55869058Y77637597D01*
X55789870Y77446421D01*
X55789868Y77446413D01*
X55749500Y77243470D01*
X43732888Y77243470D01*
X43612488Y77312983D01*
X43612489Y77312983D01*
X43601006Y77316060D01*
X43472475Y77350500D01*
X43327525Y77350500D01*
X43198993Y77316060D01*
X43187511Y77312983D01*
X43061988Y77240512D01*
X43061982Y77240507D01*
X42959493Y77138018D01*
X42959488Y77138012D01*
X42887017Y77012489D01*
X42887016Y77012485D01*
X42849500Y76872475D01*
X10982650Y76872475D01*
X10912488Y76912983D01*
X10912489Y76912983D01*
X10901006Y76916060D01*
X10772475Y76950500D01*
X10627525Y76950500D01*
X10498993Y76916060D01*
X10487511Y76912983D01*
X10361988Y76840512D01*
X10361982Y76840507D01*
X10259493Y76738018D01*
X10259488Y76738012D01*
X10187017Y76612489D01*
X10185819Y76608018D01*
X10149500Y76472475D01*
X6976542Y76472475D01*
X6975599Y76475994D01*
X6898516Y76609505D01*
X6789505Y76718516D01*
X6655994Y76795599D01*
X6507083Y76835500D01*
X6352917Y76835500D01*
X6204006Y76795599D01*
X6204004Y76795599D01*
X6204004Y76795598D01*
X6070495Y76718516D01*
X6070492Y76718514D01*
X5961486Y76609508D01*
X5961484Y76609505D01*
X5888149Y76482485D01*
X5884401Y76475994D01*
X5844500Y76327083D01*
X300500Y76327083D01*
X300500Y79435929D01*
X18349499Y79435929D01*
X18374497Y79310262D01*
X18374499Y79310256D01*
X18423533Y79191876D01*
X18423538Y79191867D01*
X18494723Y79085332D01*
X18494726Y79085328D01*
X18585327Y78994727D01*
X18585331Y78994724D01*
X18691866Y78923539D01*
X18691872Y78923536D01*
X18691873Y78923535D01*
X18810256Y78874499D01*
X18810260Y78874499D01*
X18810261Y78874498D01*
X18914825Y78853698D01*
X18976736Y78821313D01*
X19011310Y78760597D01*
X19007569Y78690827D01*
X18993735Y78663190D01*
X18923538Y78558134D01*
X18923533Y78558125D01*
X18874499Y78439745D01*
X18874497Y78439739D01*
X18849500Y78314072D01*
X18849500Y78314069D01*
X18849500Y78185931D01*
X18849500Y78185929D01*
X18849499Y78185929D01*
X18874497Y78060262D01*
X18874499Y78060256D01*
X18923533Y77941876D01*
X18923538Y77941867D01*
X18994723Y77835332D01*
X18994726Y77835328D01*
X19085327Y77744727D01*
X19085331Y77744724D01*
X19191866Y77673539D01*
X19191872Y77673536D01*
X19191873Y77673535D01*
X19310256Y77624499D01*
X19310260Y77624499D01*
X19310261Y77624498D01*
X19435928Y77599500D01*
X19435931Y77599500D01*
X19564071Y77599500D01*
X19648615Y77616318D01*
X19689744Y77624499D01*
X19808127Y77673535D01*
X19914669Y77744724D01*
X20005276Y77835331D01*
X20076465Y77941873D01*
X20125501Y78060256D01*
X20150500Y78185931D01*
X20150500Y78314069D01*
X20150500Y78314072D01*
X20125502Y78439737D01*
X20125501Y78439744D01*
X20114670Y78465892D01*
X25499500Y78465892D01*
X25499500Y78334108D01*
X25515472Y78274500D01*
X25533608Y78206813D01*
X25545666Y78185929D01*
X25599500Y78092686D01*
X25692686Y77999500D01*
X25806814Y77933608D01*
X25934108Y77899500D01*
X25934110Y77899500D01*
X26065890Y77899500D01*
X26065892Y77899500D01*
X26193186Y77933608D01*
X26307314Y77999500D01*
X26400500Y78092686D01*
X26466392Y78206814D01*
X26500500Y78334108D01*
X26500500Y78465892D01*
X26466392Y78593186D01*
X26400500Y78707314D01*
X26307314Y78800500D01*
X26245950Y78835929D01*
X36249499Y78835929D01*
X36274497Y78710262D01*
X36274499Y78710256D01*
X36323533Y78591876D01*
X36323538Y78591867D01*
X36394723Y78485332D01*
X36394726Y78485328D01*
X36485327Y78394727D01*
X36485331Y78394724D01*
X36591866Y78323539D01*
X36591872Y78323536D01*
X36591873Y78323535D01*
X36710256Y78274499D01*
X36710260Y78274499D01*
X36710261Y78274498D01*
X36835928Y78249500D01*
X36835931Y78249500D01*
X36964071Y78249500D01*
X37048615Y78266318D01*
X37089744Y78274499D01*
X37208127Y78323535D01*
X37314669Y78394724D01*
X37392420Y78472475D01*
X47749500Y78472475D01*
X47749500Y78327525D01*
X47763709Y78274498D01*
X47787017Y78187512D01*
X47859488Y78061989D01*
X47859490Y78061987D01*
X47859491Y78061985D01*
X47961985Y77959491D01*
X47961986Y77959490D01*
X47961988Y77959489D01*
X48087511Y77887018D01*
X48087512Y77887018D01*
X48087515Y77887016D01*
X48227525Y77849500D01*
X48227528Y77849500D01*
X48372472Y77849500D01*
X48372475Y77849500D01*
X48512485Y77887016D01*
X48638015Y77959491D01*
X48740509Y78061985D01*
X48812984Y78187515D01*
X48850500Y78327525D01*
X48850500Y78472475D01*
X48812984Y78612485D01*
X48783709Y78663190D01*
X48740511Y78738012D01*
X48740506Y78738018D01*
X48638017Y78840507D01*
X48638011Y78840512D01*
X48512488Y78912983D01*
X48512489Y78912983D01*
X48473112Y78923534D01*
X48372475Y78950500D01*
X48227525Y78950500D01*
X48126888Y78923534D01*
X48087511Y78912983D01*
X47961988Y78840512D01*
X47961982Y78840507D01*
X47859493Y78738018D01*
X47859488Y78738012D01*
X47787017Y78612489D01*
X47787016Y78612485D01*
X47749500Y78472475D01*
X37392420Y78472475D01*
X37405276Y78485331D01*
X37453916Y78558125D01*
X37476461Y78591867D01*
X37476461Y78591868D01*
X37476465Y78591873D01*
X37525501Y78710256D01*
X37543453Y78800502D01*
X37550500Y78835929D01*
X37550500Y78964072D01*
X37525502Y79089739D01*
X37525501Y79089740D01*
X37525501Y79089744D01*
X37476465Y79208127D01*
X37476464Y79208128D01*
X37476461Y79208134D01*
X37405276Y79314669D01*
X37405273Y79314673D01*
X37314672Y79405274D01*
X37314668Y79405277D01*
X37208133Y79476462D01*
X37208124Y79476467D01*
X37089744Y79525501D01*
X37089738Y79525503D01*
X36964071Y79550500D01*
X36964069Y79550500D01*
X36835931Y79550500D01*
X36835929Y79550500D01*
X36710261Y79525503D01*
X36710255Y79525501D01*
X36591875Y79476467D01*
X36591866Y79476462D01*
X36485331Y79405277D01*
X36485327Y79405274D01*
X36394726Y79314673D01*
X36394723Y79314669D01*
X36323538Y79208134D01*
X36323533Y79208125D01*
X36274499Y79089745D01*
X36274497Y79089739D01*
X36249500Y78964072D01*
X36249500Y78964069D01*
X36249500Y78835931D01*
X36249500Y78835929D01*
X36249499Y78835929D01*
X26245950Y78835929D01*
X26199453Y78862774D01*
X26199452Y78862775D01*
X26199451Y78862775D01*
X26193188Y78866392D01*
X26108323Y78889131D01*
X26065892Y78900500D01*
X25934108Y78900500D01*
X25806812Y78866392D01*
X25692686Y78800500D01*
X25692683Y78800498D01*
X25599502Y78707317D01*
X25599500Y78707314D01*
X25533608Y78593188D01*
X25504709Y78485332D01*
X25499500Y78465892D01*
X20114670Y78465892D01*
X20076465Y78558127D01*
X20076464Y78558128D01*
X20076461Y78558134D01*
X20005276Y78664669D01*
X20005273Y78664673D01*
X19914672Y78755274D01*
X19914668Y78755277D01*
X19808133Y78826462D01*
X19808124Y78826467D01*
X19689744Y78875501D01*
X19689739Y78875503D01*
X19585173Y78896303D01*
X19523263Y78928689D01*
X19488689Y78989405D01*
X19492430Y79059174D01*
X19506259Y79086803D01*
X19576465Y79191873D01*
X19625501Y79310256D01*
X19644402Y79405276D01*
X19650500Y79435929D01*
X19650500Y79564072D01*
X19625502Y79689739D01*
X19625501Y79689740D01*
X19625501Y79689744D01*
X19576465Y79808127D01*
X19576464Y79808128D01*
X19576461Y79808134D01*
X19505276Y79914669D01*
X19505273Y79914673D01*
X19414672Y80005274D01*
X19414668Y80005277D01*
X19308133Y80076462D01*
X19308124Y80076467D01*
X19189744Y80125501D01*
X19189738Y80125503D01*
X19064071Y80150500D01*
X19064069Y80150500D01*
X18935931Y80150500D01*
X18935929Y80150500D01*
X18810261Y80125503D01*
X18810255Y80125501D01*
X18691875Y80076467D01*
X18691866Y80076462D01*
X18585331Y80005277D01*
X18585327Y80005274D01*
X18494726Y79914673D01*
X18494723Y79914669D01*
X18423538Y79808134D01*
X18423533Y79808125D01*
X18374499Y79689745D01*
X18374497Y79689739D01*
X18349500Y79564072D01*
X18349500Y79564069D01*
X18349500Y79435931D01*
X18349500Y79435929D01*
X18349499Y79435929D01*
X300500Y79435929D01*
X300500Y80772475D01*
X8549500Y80772475D01*
X8549500Y80627525D01*
X8587016Y80487515D01*
X8587017Y80487512D01*
X8659488Y80361989D01*
X8659490Y80361987D01*
X8659491Y80361985D01*
X8761985Y80259491D01*
X8761986Y80259490D01*
X8761988Y80259489D01*
X8887511Y80187018D01*
X8887512Y80187018D01*
X8887515Y80187016D01*
X9027525Y80149500D01*
X9027528Y80149500D01*
X9172472Y80149500D01*
X9172475Y80149500D01*
X9312485Y80187016D01*
X9438015Y80259491D01*
X9540509Y80361985D01*
X9612984Y80487515D01*
X9650500Y80627525D01*
X9650500Y80772475D01*
X9612984Y80912485D01*
X9599793Y80935332D01*
X9540511Y81038012D01*
X9540506Y81038018D01*
X9438017Y81140507D01*
X9438011Y81140512D01*
X9312488Y81212983D01*
X9312489Y81212983D01*
X9301006Y81216060D01*
X9172475Y81250500D01*
X9027525Y81250500D01*
X8898993Y81216060D01*
X8887511Y81212983D01*
X8761988Y81140512D01*
X8761982Y81140507D01*
X8659493Y81038018D01*
X8659488Y81038012D01*
X8587017Y80912489D01*
X8587016Y80912485D01*
X8549500Y80772475D01*
X300500Y80772475D01*
X300500Y81285929D01*
X17829499Y81285929D01*
X17854497Y81160262D01*
X17854499Y81160256D01*
X17903533Y81041876D01*
X17903538Y81041867D01*
X17974723Y80935332D01*
X17974726Y80935328D01*
X18065327Y80844727D01*
X18065331Y80844724D01*
X18171866Y80773539D01*
X18171872Y80773536D01*
X18171873Y80773535D01*
X18290256Y80724499D01*
X18290260Y80724499D01*
X18290261Y80724498D01*
X18415928Y80699500D01*
X18415931Y80699500D01*
X18544071Y80699500D01*
X18628615Y80716318D01*
X18669744Y80724499D01*
X18788127Y80773535D01*
X18894669Y80844724D01*
X18932420Y80882475D01*
X41349500Y80882475D01*
X41349500Y80737525D01*
X41378974Y80627528D01*
X41387017Y80597512D01*
X41459488Y80471989D01*
X41459490Y80471987D01*
X41459491Y80471985D01*
X41561985Y80369491D01*
X41561986Y80369490D01*
X41561988Y80369489D01*
X41687511Y80297018D01*
X41687512Y80297018D01*
X41687515Y80297016D01*
X41827525Y80259500D01*
X41827528Y80259500D01*
X41972472Y80259500D01*
X41972475Y80259500D01*
X42112485Y80297016D01*
X42238015Y80369491D01*
X42340509Y80471985D01*
X42412984Y80597515D01*
X42450500Y80737525D01*
X42450500Y80882475D01*
X42412984Y81022485D01*
X42404019Y81038012D01*
X42340511Y81148012D01*
X42340506Y81148018D01*
X42238017Y81250507D01*
X42238011Y81250512D01*
X42112488Y81322983D01*
X42112489Y81322983D01*
X42101006Y81326060D01*
X41972475Y81360500D01*
X41827525Y81360500D01*
X41698993Y81326060D01*
X41687511Y81322983D01*
X41561988Y81250512D01*
X41561982Y81250507D01*
X41459493Y81148018D01*
X41459488Y81148012D01*
X41387017Y81022489D01*
X41387016Y81022485D01*
X41349500Y80882475D01*
X18932420Y80882475D01*
X18985276Y80935331D01*
X19056465Y81041873D01*
X19105501Y81160256D01*
X19130500Y81285931D01*
X19130500Y81414069D01*
X19130500Y81414072D01*
X19105502Y81539739D01*
X19105501Y81539740D01*
X19105501Y81539744D01*
X19056465Y81658127D01*
X19056464Y81658128D01*
X19056461Y81658134D01*
X18985276Y81764669D01*
X18985273Y81764673D01*
X18894672Y81855274D01*
X18894668Y81855277D01*
X18788133Y81926462D01*
X18788124Y81926467D01*
X18669744Y81975501D01*
X18669738Y81975503D01*
X18544071Y82000500D01*
X18544069Y82000500D01*
X18415931Y82000500D01*
X18415929Y82000500D01*
X18290261Y81975503D01*
X18290255Y81975501D01*
X18171875Y81926467D01*
X18171866Y81926462D01*
X18065331Y81855277D01*
X18065327Y81855274D01*
X17974726Y81764673D01*
X17974723Y81764669D01*
X17903538Y81658134D01*
X17903533Y81658125D01*
X17854499Y81539745D01*
X17854497Y81539739D01*
X17829500Y81414072D01*
X17829500Y81414069D01*
X17829500Y81285931D01*
X17829500Y81285929D01*
X17829499Y81285929D01*
X300500Y81285929D01*
X300500Y82452475D01*
X6719500Y82452475D01*
X6719500Y82307525D01*
X6757016Y82167515D01*
X6757017Y82167512D01*
X6829488Y82041989D01*
X6829490Y82041987D01*
X6829491Y82041985D01*
X6931985Y81939491D01*
X6931986Y81939490D01*
X6931988Y81939489D01*
X7057511Y81867018D01*
X7057512Y81867018D01*
X7057515Y81867016D01*
X7197525Y81829500D01*
X7197528Y81829500D01*
X7342472Y81829500D01*
X7342475Y81829500D01*
X7482485Y81867016D01*
X7608015Y81939491D01*
X7710509Y82041985D01*
X7782984Y82167515D01*
X7820500Y82307525D01*
X7820500Y82452475D01*
X7782984Y82592485D01*
X7778940Y82599489D01*
X7710511Y82718012D01*
X7710506Y82718018D01*
X7608017Y82820507D01*
X7608011Y82820512D01*
X7482488Y82892983D01*
X7482489Y82892983D01*
X7471006Y82896060D01*
X7342475Y82930500D01*
X7197525Y82930500D01*
X7068993Y82896060D01*
X7057511Y82892983D01*
X6931988Y82820512D01*
X6931982Y82820507D01*
X6829493Y82718018D01*
X6829488Y82718012D01*
X6757017Y82592489D01*
X6757016Y82592485D01*
X6719500Y82452475D01*
X300500Y82452475D01*
X300500Y83112475D01*
X9049500Y83112475D01*
X9049500Y82967525D01*
X9069474Y82892983D01*
X9087017Y82827512D01*
X9159488Y82701989D01*
X9159490Y82701987D01*
X9159491Y82701985D01*
X9261985Y82599491D01*
X9261986Y82599490D01*
X9261988Y82599489D01*
X9387511Y82527018D01*
X9387512Y82527018D01*
X9387515Y82527016D01*
X9527525Y82489500D01*
X9527528Y82489500D01*
X9672472Y82489500D01*
X9672475Y82489500D01*
X9812485Y82527016D01*
X9938015Y82599491D01*
X10040509Y82701985D01*
X10112984Y82827515D01*
X10150500Y82967525D01*
X10150500Y83112475D01*
X10112984Y83252485D01*
X10040509Y83378015D01*
X9938015Y83480509D01*
X9938013Y83480510D01*
X9938011Y83480512D01*
X9812488Y83552983D01*
X9812489Y83552983D01*
X9801006Y83556060D01*
X9672475Y83590500D01*
X9527525Y83590500D01*
X9398993Y83556060D01*
X9387511Y83552983D01*
X9261988Y83480512D01*
X9261982Y83480507D01*
X9159493Y83378018D01*
X9159488Y83378012D01*
X9087017Y83252489D01*
X9087016Y83252485D01*
X9049500Y83112475D01*
X300500Y83112475D01*
X300500Y84302475D01*
X24599500Y84302475D01*
X24599500Y84157525D01*
X24637016Y84017515D01*
X24637017Y84017512D01*
X24709488Y83891989D01*
X24709490Y83891987D01*
X24709491Y83891985D01*
X24811985Y83789491D01*
X24811986Y83789490D01*
X24811988Y83789489D01*
X24937511Y83717018D01*
X24937512Y83717018D01*
X24937515Y83717016D01*
X25077525Y83679500D01*
X25077528Y83679500D01*
X25222472Y83679500D01*
X25222475Y83679500D01*
X25362485Y83717016D01*
X25488015Y83789491D01*
X25590509Y83891985D01*
X25662984Y84017515D01*
X25700500Y84157525D01*
X25700500Y84302475D01*
X25662984Y84442485D01*
X25590509Y84568015D01*
X25488015Y84670509D01*
X25488013Y84670510D01*
X25488011Y84670512D01*
X25362488Y84742983D01*
X25362489Y84742983D01*
X25351006Y84746060D01*
X25222475Y84780500D01*
X25077525Y84780500D01*
X24948993Y84746060D01*
X24937511Y84742983D01*
X24811988Y84670512D01*
X24811982Y84670507D01*
X24709493Y84568018D01*
X24709488Y84568012D01*
X24637017Y84442489D01*
X24637016Y84442485D01*
X24599500Y84302475D01*
X300500Y84302475D01*
X300500Y87103139D01*
X1689500Y87103139D01*
X1689500Y86896862D01*
X1721769Y86693123D01*
X1721769Y86693120D01*
X1785510Y86496946D01*
X1879160Y86313148D01*
X2000407Y86146267D01*
X2146267Y86000407D01*
X2313148Y85879160D01*
X2496943Y85785512D01*
X2496945Y85785511D01*
X2693120Y85721770D01*
X2693121Y85721770D01*
X2693124Y85721769D01*
X2896861Y85689500D01*
X2896862Y85689500D01*
X3103138Y85689500D01*
X3103139Y85689500D01*
X3306876Y85721769D01*
X3306879Y85721770D01*
X3306880Y85721770D01*
X3503054Y85785511D01*
X3503054Y85785512D01*
X3503057Y85785512D01*
X3686852Y85879160D01*
X3853733Y86000407D01*
X3999593Y86146267D01*
X4120840Y86313148D01*
X4214488Y86496943D01*
X4278231Y86693124D01*
X4310500Y86896861D01*
X4310500Y86942475D01*
X45099500Y86942475D01*
X45099500Y86797525D01*
X45127475Y86693123D01*
X45137017Y86657512D01*
X45209488Y86531989D01*
X45209490Y86531987D01*
X45209491Y86531985D01*
X45311985Y86429491D01*
X45311986Y86429490D01*
X45311988Y86429489D01*
X45437511Y86357018D01*
X45437512Y86357018D01*
X45437515Y86357016D01*
X45577525Y86319500D01*
X45577528Y86319500D01*
X45722472Y86319500D01*
X45722475Y86319500D01*
X45862485Y86357016D01*
X45988015Y86429491D01*
X46090509Y86531985D01*
X46162984Y86657515D01*
X46200500Y86797525D01*
X46200500Y86942475D01*
X46162984Y87082485D01*
X46162984Y87082486D01*
X46162982Y87082489D01*
X46151060Y87103139D01*
X55689500Y87103139D01*
X55689500Y86896862D01*
X55721769Y86693123D01*
X55721769Y86693120D01*
X55785510Y86496946D01*
X55879160Y86313148D01*
X56000407Y86146267D01*
X56146267Y86000407D01*
X56313148Y85879160D01*
X56496943Y85785512D01*
X56496945Y85785511D01*
X56693120Y85721770D01*
X56693121Y85721770D01*
X56693124Y85721769D01*
X56896861Y85689500D01*
X56896862Y85689500D01*
X57103138Y85689500D01*
X57103139Y85689500D01*
X57306876Y85721769D01*
X57306879Y85721770D01*
X57306880Y85721770D01*
X57503054Y85785511D01*
X57503054Y85785512D01*
X57503057Y85785512D01*
X57686852Y85879160D01*
X57853733Y86000407D01*
X57999593Y86146267D01*
X58120840Y86313148D01*
X58214488Y86496943D01*
X58278231Y86693124D01*
X58310500Y86896861D01*
X58310500Y87103139D01*
X58278231Y87306876D01*
X58278230Y87306880D01*
X58278230Y87306881D01*
X58214489Y87503055D01*
X58152708Y87624307D01*
X58120840Y87686852D01*
X57999593Y87853733D01*
X57853733Y87999593D01*
X57686852Y88120840D01*
X57648253Y88140507D01*
X57503054Y88214490D01*
X57306879Y88278231D01*
X57154073Y88302433D01*
X57103139Y88310500D01*
X56896861Y88310500D01*
X56828948Y88299744D01*
X56693122Y88278231D01*
X56693119Y88278231D01*
X56496945Y88214490D01*
X56313147Y88120840D01*
X56146265Y87999592D01*
X56000408Y87853735D01*
X55879160Y87686853D01*
X55785510Y87503055D01*
X55721769Y87306881D01*
X55721769Y87306878D01*
X55689500Y87103139D01*
X46151060Y87103139D01*
X46090511Y87208012D01*
X46090506Y87208018D01*
X45988017Y87310507D01*
X45988011Y87310512D01*
X45862488Y87382983D01*
X45862489Y87382983D01*
X45845575Y87387515D01*
X45722475Y87420500D01*
X45577525Y87420500D01*
X45454425Y87387515D01*
X45437511Y87382983D01*
X45311988Y87310512D01*
X45311982Y87310507D01*
X45209493Y87208018D01*
X45209488Y87208012D01*
X45137017Y87082489D01*
X45137016Y87082485D01*
X45099500Y86942475D01*
X4310500Y86942475D01*
X4310500Y87103139D01*
X4278231Y87306876D01*
X4278230Y87306880D01*
X4278230Y87306881D01*
X4214489Y87503055D01*
X4152708Y87624307D01*
X4128165Y87672475D01*
X5649500Y87672475D01*
X5649500Y87527525D01*
X5656057Y87503055D01*
X5687017Y87387512D01*
X5759488Y87261989D01*
X5759490Y87261987D01*
X5759491Y87261985D01*
X5861985Y87159491D01*
X5861986Y87159490D01*
X5861988Y87159489D01*
X5987511Y87087018D01*
X5987512Y87087018D01*
X5987515Y87087016D01*
X6127525Y87049500D01*
X6127528Y87049500D01*
X6272472Y87049500D01*
X6272475Y87049500D01*
X6412485Y87087016D01*
X6538015Y87159491D01*
X6640509Y87261985D01*
X6712984Y87387515D01*
X6750500Y87527525D01*
X6750500Y87672475D01*
X6723705Y87772475D01*
X22249500Y87772475D01*
X22249500Y87627525D01*
X22282852Y87503055D01*
X22287017Y87487512D01*
X22359488Y87361989D01*
X22359490Y87361987D01*
X22359491Y87361985D01*
X22461985Y87259491D01*
X22461986Y87259490D01*
X22461988Y87259489D01*
X22587511Y87187018D01*
X22587512Y87187018D01*
X22587515Y87187016D01*
X22727525Y87149500D01*
X22727528Y87149500D01*
X22872472Y87149500D01*
X22872475Y87149500D01*
X23012485Y87187016D01*
X23138015Y87259491D01*
X23240509Y87361985D01*
X23312984Y87487515D01*
X23350500Y87627525D01*
X23350500Y87772475D01*
X23312984Y87912485D01*
X23298244Y87938015D01*
X23240511Y88038012D01*
X23240506Y88038018D01*
X23138017Y88140507D01*
X23138011Y88140512D01*
X23012488Y88212983D01*
X23012485Y88212984D01*
X22872475Y88250500D01*
X22727525Y88250500D01*
X22598993Y88216060D01*
X22587511Y88212983D01*
X22461988Y88140512D01*
X22461982Y88140507D01*
X22359493Y88038018D01*
X22359488Y88038012D01*
X22287017Y87912489D01*
X22287016Y87912485D01*
X22249500Y87772475D01*
X6723705Y87772475D01*
X6712984Y87812485D01*
X6689169Y87853733D01*
X6640511Y87938012D01*
X6640506Y87938018D01*
X6538017Y88040507D01*
X6538011Y88040512D01*
X6412488Y88112983D01*
X6412489Y88112983D01*
X6383166Y88120840D01*
X6272475Y88150500D01*
X6127525Y88150500D01*
X6016834Y88120840D01*
X5987511Y88112983D01*
X5861988Y88040512D01*
X5861982Y88040507D01*
X5759493Y87938018D01*
X5759488Y87938012D01*
X5687017Y87812489D01*
X5687016Y87812485D01*
X5649500Y87672475D01*
X4128165Y87672475D01*
X4120840Y87686852D01*
X3999593Y87853733D01*
X3853733Y87999593D01*
X3686852Y88120840D01*
X3648253Y88140507D01*
X3503054Y88214490D01*
X3306879Y88278231D01*
X3154073Y88302433D01*
X3103139Y88310500D01*
X2896861Y88310500D01*
X2828948Y88299744D01*
X2693122Y88278231D01*
X2693119Y88278231D01*
X2496945Y88214490D01*
X2313147Y88120840D01*
X2146265Y87999592D01*
X2000408Y87853735D01*
X1879160Y87686853D01*
X1785510Y87503055D01*
X1721769Y87306881D01*
X1721769Y87306878D01*
X1689500Y87103139D01*
X300500Y87103139D01*
X300500Y88672475D01*
X15449500Y88672475D01*
X15449500Y88527525D01*
X15487016Y88387515D01*
X15487017Y88387512D01*
X15559488Y88261989D01*
X15559490Y88261987D01*
X15559491Y88261985D01*
X15661985Y88159491D01*
X15661986Y88159490D01*
X15661988Y88159489D01*
X15787511Y88087018D01*
X15787512Y88087018D01*
X15787515Y88087016D01*
X15927525Y88049500D01*
X15927528Y88049500D01*
X16072472Y88049500D01*
X16072475Y88049500D01*
X16212485Y88087016D01*
X16338015Y88159491D01*
X16440509Y88261985D01*
X16512984Y88387515D01*
X16550500Y88527525D01*
X16550500Y88672475D01*
X16512984Y88812485D01*
X16440509Y88938015D01*
X16338015Y89040509D01*
X16338013Y89040510D01*
X16338011Y89040512D01*
X16212488Y89112983D01*
X16212489Y89112983D01*
X16201006Y89116060D01*
X16072475Y89150500D01*
X15927525Y89150500D01*
X15798993Y89116060D01*
X15787511Y89112983D01*
X15661988Y89040512D01*
X15661982Y89040507D01*
X15559493Y88938018D01*
X15559488Y88938012D01*
X15487017Y88812489D01*
X15487016Y88812485D01*
X15449500Y88672475D01*
X300500Y88672475D01*
X300500Y89575500D01*
X320185Y89642539D01*
X372989Y89688294D01*
X424500Y89699500D01*
X59575500Y89699500D01*
X59642539Y89679815D01*
G37*
%TD.AperFunction*%
%TD*%
M02*
