%TF.GenerationSoftware,KiCad,Pcbnew,10.0.0*%
%TF.CreationDate,2026-08-23T11:31:46-05:00*%
%TF.ProjectId,2027Payload,32303237-5061-4796-9c6f-61642e6b6963,rev?*%
%TF.SameCoordinates,PXac9d740PY90f5600*%
%TF.FileFunction,Copper,L4,Bot*%
%TF.FilePolarity,Positive*%
%FSLAX46Y46*%
G04 Gerber Fmt 4.6, Leading zero omitted, Abs format (unit mm)*
G04 Created by KiCad (PCBNEW 10.0.0) date 2026-08-23 11:31:46*
%MOMM*%
%LPD*%
G01*
G04 APERTURE LIST*
G04 Aperture macros list*
%AMRoundRect*
0 Rectangle with rounded corners*
0 $1 Rounding radius*
0 $2 $3 $4 $5 $6 $7 $8 $9 X,Y pos of 4 corners*
0 Add a 4 corners polygon primitive as box body*
4,1,4,$2,$3,$4,$5,$6,$7,$8,$9,$2,$3,0*
0 Add four circle primitives for the rounded corners*
1,1,$1+$1,$2,$3*
1,1,$1+$1,$4,$5*
1,1,$1+$1,$6,$7*
1,1,$1+$1,$8,$9*
0 Add four rect primitives between the rounded corners*
20,1,$1+$1,$2,$3,$4,$5,0*
20,1,$1+$1,$4,$5,$6,$7,0*
20,1,$1+$1,$6,$7,$8,$9,0*
20,1,$1+$1,$8,$9,$2,$3,0*%
G04 Aperture macros list end*
%TA.AperFunction,ComponentPad*%
%ADD10R,1.700000X1.700000*%
%TD*%
%TA.AperFunction,ComponentPad*%
%ADD11C,1.700000*%
%TD*%
%TA.AperFunction,ComponentPad*%
%ADD12C,0.450000*%
%TD*%
%TA.AperFunction,ComponentPad*%
%ADD13C,0.400000*%
%TD*%
%TA.AperFunction,ComponentPad*%
%ADD14RoundRect,0.250000X0.625000X-0.350000X0.625000X0.350000X-0.625000X0.350000X-0.625000X-0.350000X0*%
%TD*%
%TA.AperFunction,ComponentPad*%
%ADD15O,1.750000X1.200000*%
%TD*%
%TA.AperFunction,ViaPad*%
%ADD16C,0.900000*%
%TD*%
%TA.AperFunction,ViaPad*%
%ADD17C,0.700000*%
%TD*%
%TA.AperFunction,ViaPad*%
%ADD18C,0.600000*%
%TD*%
%TA.AperFunction,Conductor*%
%ADD19C,0.200000*%
%TD*%
%TA.AperFunction,Conductor*%
%ADD20C,0.500000*%
%TD*%
%TA.AperFunction,Conductor*%
%ADD21C,0.300000*%
%TD*%
G04 APERTURE END LIST*
D10*
%TO.P,J12,1,Pin_1_1*%
%TO.N,Net-(J12-Pin_1)*%
X42045000Y2045000D03*
D11*
%TO.P,J12,2,Pin_2_2*%
%TO.N,+5V*%
X44585000Y2045000D03*
%TO.P,J12,3,Pin_3_3*%
%TO.N,GND*%
X47125000Y2045000D03*
%TD*%
D12*
%TO.P,U9,9,GND_9*%
%TO.N,GND*%
X13975000Y79885000D03*
X13400000Y78935000D03*
X13400000Y80835000D03*
X12825000Y79885000D03*
%TD*%
D10*
%TO.P,J5,1,Pin_1_1*%
%TO.N,Net-(J5-Pin_1)*%
X1800000Y23620000D03*
D11*
%TO.P,J5,2,Pin_2_2*%
%TO.N,+5V*%
X1800000Y26160000D03*
%TO.P,J5,3,Pin_3_3*%
%TO.N,GND*%
X1800000Y28700000D03*
%TD*%
D13*
%TO.P,U1,1,GND_1*%
%TO.N,GND*%
X27350000Y81980000D03*
X27350000Y80580000D03*
X28050000Y82680000D03*
X28050000Y81280000D03*
X28050000Y79880000D03*
X28750000Y81980000D03*
X28750000Y80580000D03*
X29450000Y82680000D03*
X29450000Y81280000D03*
X29450000Y79880000D03*
X30150000Y81980000D03*
X30150000Y80580000D03*
%TD*%
D10*
%TO.P,J3,1,Pin_1_1*%
%TO.N,Net-(J3-Pin_1)*%
X1800000Y41700000D03*
D11*
%TO.P,J3,2,Pin_2_2*%
%TO.N,+5V*%
X1800000Y44240000D03*
%TO.P,J3,3,Pin_3_3*%
%TO.N,GND*%
X1800000Y46780000D03*
%TD*%
D10*
%TO.P,J4,1,Pin_1_1*%
%TO.N,Net-(J4-Pin_1)*%
X1800000Y32620000D03*
D11*
%TO.P,J4,2,Pin_2_2*%
%TO.N,+5V*%
X1800000Y35160000D03*
%TO.P,J4,3,Pin_3_3*%
%TO.N,GND*%
X1800000Y37700000D03*
%TD*%
D14*
%TO.P,J11,1,Pin_1_1*%
%TO.N,IO17*%
X53050000Y39900000D03*
D15*
%TO.P,J11,2,Pin_2_2*%
%TO.N,IO18*%
X53050000Y41900000D03*
%TO.P,J11,3,Pin_3_3*%
%TO.N,GND*%
X53050000Y43900000D03*
%TD*%
D10*
%TO.P,J10,1,Pin_1_1*%
%TO.N,GND*%
X54260000Y77140000D03*
D11*
%TO.P,J10,2,Pin_2_2*%
%TO.N,IO38*%
X56800000Y77140000D03*
%TO.P,J10,3,Pin_3_3*%
%TO.N,IO39*%
X54260000Y74600000D03*
%TO.P,J10,4,Pin_4_4*%
%TO.N,IO40*%
X56800000Y74600000D03*
%TO.P,J10,5,Pin_5_5*%
%TO.N,IO41*%
X54260000Y72060000D03*
%TO.P,J10,6,Pin_6_6*%
%TO.N,+3.3V*%
X56800000Y72060000D03*
%TD*%
D13*
%TO.P,U3,9,EXP_9*%
%TO.N,GND*%
X46600000Y33450000D03*
X46600000Y32350000D03*
%TD*%
D14*
%TO.P,J8,1,Pin_1_1*%
%TO.N,5V_SW*%
X53050000Y28500000D03*
D15*
%TO.P,J8,2,Pin_2_2*%
X53050000Y30500000D03*
%TO.P,J8,3,Pin_3_3*%
%TO.N,GND*%
X53050000Y32500000D03*
%TO.P,J8,4,Pin_4_4*%
X53050000Y34500000D03*
%TD*%
D16*
%TO.N,IO14*%
X32750000Y68750000D03*
X40250000Y6500000D03*
%TO.N,GND*%
X24000000Y21000000D03*
%TO.N,+5V*%
X24250000Y25000000D03*
%TO.N,GND*%
X30000000Y26500000D03*
X33750000Y53250000D03*
X41225000Y26325000D03*
D17*
X37250000Y89000000D03*
D16*
X53000000Y11570000D03*
X45000000Y26600000D03*
X41225000Y18012500D03*
X7250000Y63500000D03*
X55755000Y7480000D03*
D17*
X32400000Y18000000D03*
D16*
X29250000Y14750000D03*
D17*
X6500000Y66200000D03*
D16*
X27500000Y53500000D03*
X41225000Y16350000D03*
X9840000Y67780000D03*
D17*
X3490000Y80570000D03*
X2480000Y80570000D03*
D16*
X33280000Y50280000D03*
X45750000Y64500000D03*
D17*
X7500000Y66200000D03*
X9090000Y79710000D03*
D16*
X43200000Y40200000D03*
X53000000Y8860000D03*
D17*
X23250000Y89000000D03*
D16*
X35200000Y7000000D03*
X49200000Y38800000D03*
X53000000Y10215000D03*
X4600000Y84000000D03*
X12200000Y82300000D03*
X20400000Y34800000D03*
X14300000Y88200000D03*
X23600000Y27800000D03*
X29500000Y56500000D03*
X41225000Y24662500D03*
D17*
X35400000Y17800000D03*
D16*
X41225000Y19675000D03*
X43150000Y89000000D03*
D17*
X48350000Y81550000D03*
D16*
X48500000Y56000000D03*
X46000000Y38800000D03*
X20400000Y36600000D03*
X10750000Y21780000D03*
D17*
X2470000Y66200000D03*
D16*
X41500000Y89050000D03*
D17*
X48350000Y82750000D03*
D16*
X54400000Y7480000D03*
X19600000Y88900000D03*
X17900000Y88900000D03*
X11540000Y67700000D03*
X48500000Y63500000D03*
D17*
X3480000Y66200000D03*
X26400000Y63600000D03*
D16*
X33440000Y51880000D03*
D17*
X15250000Y73750000D03*
D16*
X12800000Y3500000D03*
X41225000Y21337500D03*
X42000000Y35200000D03*
D17*
X36800000Y21200000D03*
D16*
X7250000Y55000000D03*
X47600000Y38800000D03*
X9410000Y3320000D03*
X21050000Y59125000D03*
X27600000Y65190000D03*
X43400000Y35200000D03*
X41225000Y23000000D03*
D17*
X6510000Y80570000D03*
D16*
X57110000Y7480000D03*
X48800000Y27200000D03*
X12510000Y83430000D03*
D17*
X7510000Y80570000D03*
D16*
X12800000Y1800000D03*
%TO.N,+3.3V*%
X28000000Y50500000D03*
X26500000Y55975000D03*
X33000000Y55000000D03*
D17*
X6200000Y87600000D03*
D16*
X21140000Y68710000D03*
X47250000Y64200000D03*
X25570000Y13950000D03*
D17*
X21560000Y66520000D03*
D16*
X7250000Y62000000D03*
X28320000Y60770000D03*
X18850000Y56630000D03*
D17*
X16000000Y88600000D03*
X22800000Y87700000D03*
D16*
X7500000Y53500000D03*
D18*
%TO.N,IO5*%
X26000000Y78400000D03*
X25200000Y66600000D03*
D17*
%TO.N,IO4*%
X25150000Y84230000D03*
X24174975Y67935025D03*
%TO.N,Net-(U4-~{H_CS})*%
X21870000Y57780000D03*
X21450000Y61587500D03*
D16*
%TO.N,IO9*%
X16200000Y59800000D03*
D17*
X17700000Y61100000D03*
X2500000Y53000000D03*
D16*
X7250000Y59750000D03*
%TO.N,IO8*%
X24000000Y74250000D03*
D17*
X17025000Y63775000D03*
D16*
%TO.N,EN*%
X41400000Y74600000D03*
X36900000Y78900000D03*
D17*
%TO.N,+5V*%
X7270000Y82380000D03*
X4695000Y44775000D03*
D16*
X42000000Y28600000D03*
D17*
X45600000Y34800000D03*
D16*
X27750000Y18100000D03*
X43600000Y29800000D03*
X42000000Y29800000D03*
X6500000Y36250000D03*
X6500000Y34750000D03*
X42000000Y31000000D03*
X43600000Y31000000D03*
D17*
%TO.N,VBUS*%
X10200000Y73900000D03*
X10700000Y76400000D03*
X4900000Y73900000D03*
D18*
%TO.N,Net-(U2-MODE)*%
X26800000Y24600000D03*
X31600000Y20800000D03*
D17*
%TO.N,Net-(U2-BP5)*%
X27600000Y23000000D03*
X32600000Y16800000D03*
%TO.N,5V_LOGIC*%
X9600000Y83040000D03*
X9100000Y80700000D03*
D16*
%TO.N,IO15*%
X6250000Y23250000D03*
X19500000Y78250000D03*
D17*
%TO.N,IO1*%
X45650000Y86870000D03*
D16*
X43200000Y26400000D03*
%TO.N,IO6*%
X18480000Y81350000D03*
X6000000Y41250000D03*
%TO.N,IO7*%
X19000000Y79500000D03*
X6500000Y31750000D03*
D17*
%TO.N,IO17*%
X40770000Y56200000D03*
X32840000Y75070000D03*
%TO.N,IO18*%
X27330000Y76270000D03*
X42050000Y57000000D03*
%TO.N,IO39*%
X48300000Y78400000D03*
X49100000Y76400000D03*
%TO.N,IO41*%
X41900000Y80810000D03*
X43400000Y76800000D03*
%TD*%
%TO.N,IO14*%
D19*
X35000000Y66500000D02*
X32750000Y68750000D01*
X35000000Y29500000D02*
X35000000Y66500000D01*
X40250000Y14250000D02*
X38250000Y16250000D01*
X38250000Y16250000D02*
X38250000Y26250000D01*
X40250000Y6500000D02*
X40250000Y14250000D01*
X38250000Y26250000D02*
X35000000Y29500000D01*
%TO.N,+3.3V*%
D20*
X6200000Y87600000D02*
X7650000Y89050000D01*
D21*
X28000000Y50500000D02*
X25570000Y48070000D01*
D20*
X15550000Y89050000D02*
X16000000Y88600000D01*
D21*
X25570000Y48070000D02*
X25570000Y13950000D01*
D20*
X7650000Y89050000D02*
X15550000Y89050000D01*
%TO.N,IO5*%
D21*
X26000000Y67400000D02*
X26000000Y78400000D01*
X25200000Y66600000D02*
X26000000Y67400000D01*
%TO.N,IO4*%
D19*
X24174975Y67935025D02*
X25150000Y68910050D01*
X25150000Y68910050D02*
X25150000Y84230000D01*
%TO.N,Net-(U4-~{H_CS})*%
X21450000Y61587500D02*
X21870000Y61167500D01*
X21870000Y61167500D02*
X21870000Y57780000D01*
%TO.N,IO9*%
D21*
X16200000Y59800000D02*
X16400000Y59800000D01*
X2500000Y55000000D02*
X7250000Y59750000D01*
X16400000Y59800000D02*
X17700000Y61100000D01*
X17700000Y61100000D02*
X17800000Y61200000D01*
X2500000Y53000000D02*
X2500000Y55000000D01*
%TO.N,IO8*%
X22750000Y67500000D02*
X20750000Y67500000D01*
X17025000Y63775000D02*
X17000000Y63750000D01*
X20750000Y67500000D02*
X17025000Y63775000D01*
X24000000Y74250000D02*
X24000000Y68750000D01*
X24000000Y68750000D02*
X22750000Y67500000D01*
%TO.N,EN*%
X36900000Y78900000D02*
X41200000Y74600000D01*
X41200000Y74600000D02*
X41400000Y74600000D01*
%TO.N,+5V*%
D20*
X1230000Y52230000D02*
X1230000Y81830000D01*
X7210000Y82320000D02*
X7270000Y82380000D01*
X1230000Y81830000D02*
X1720000Y82320000D01*
X1720000Y82320000D02*
X7210000Y82320000D01*
X5370000Y48090000D02*
X1230000Y52230000D01*
X4695000Y44775000D02*
X5370000Y45450000D01*
X5370000Y45450000D02*
X5370000Y48090000D01*
%TO.N,VBUS*%
X10200000Y73900000D02*
X4900000Y73900000D01*
X10400000Y74100000D02*
X10200000Y73900000D01*
X10700000Y76400000D02*
X10600000Y76400000D01*
X10400000Y76200000D02*
X10400000Y74100000D01*
X10600000Y76400000D02*
X10400000Y76200000D01*
%TO.N,Net-(U2-MODE)*%
D19*
X30200000Y20800000D02*
X31600000Y20800000D01*
X26800000Y24600000D02*
X27400000Y24000000D01*
X27800000Y24000000D02*
X28600000Y23200000D01*
X28600000Y22400000D02*
X30200000Y20800000D01*
X28600000Y23200000D02*
X28600000Y22400000D01*
X27400000Y24000000D02*
X27800000Y24000000D01*
%TO.N,Net-(U2-BP5)*%
X27600000Y20600000D02*
X27600000Y23000000D01*
X31400000Y16800000D02*
X27600000Y20600000D01*
X32600000Y16800000D02*
X31400000Y16800000D01*
%TO.N,5V_LOGIC*%
X9100000Y80700000D02*
X9600000Y81200000D01*
X9600000Y81200000D02*
X9600000Y83040000D01*
%TO.N,IO15*%
D21*
X14250000Y64500000D02*
X19500000Y69750000D01*
X6250000Y23250000D02*
X14250000Y31250000D01*
X14250000Y31250000D02*
X14250000Y64500000D01*
X19500000Y69750000D02*
X19500000Y78250000D01*
%TO.N,IO1*%
D19*
X42230000Y67020000D02*
X44630000Y64620000D01*
X50470000Y80620000D02*
X48010000Y80620000D01*
X44630000Y64620000D02*
X44630000Y27830000D01*
X44630000Y27830000D02*
X43200000Y26400000D01*
X45650000Y86870000D02*
X49130000Y86870000D01*
X51460000Y84540000D02*
X51460000Y81610000D01*
X48010000Y80620000D02*
X46040000Y78650000D01*
X42230000Y71010000D02*
X42230000Y67020000D01*
X46040000Y78650000D02*
X46040000Y74820000D01*
X46040000Y74820000D02*
X42230000Y71010000D01*
X49130000Y86870000D02*
X51460000Y84540000D01*
X51460000Y81610000D02*
X50470000Y80620000D01*
%TO.N,IO6*%
D21*
X17500000Y71250000D02*
X8500000Y62250000D01*
X8500000Y43750000D02*
X6000000Y41250000D01*
X8500000Y62250000D02*
X8500000Y43750000D01*
X18480000Y81350000D02*
X18450000Y81350000D01*
X17500000Y80400000D02*
X17500000Y71250000D01*
X18450000Y81350000D02*
X17500000Y80400000D01*
%TO.N,IO7*%
X18250000Y70500000D02*
X18250000Y78750000D01*
X6500000Y31750000D02*
X11000000Y36250000D01*
X11000000Y63250000D02*
X18250000Y70500000D01*
X11000000Y36250000D02*
X11000000Y63250000D01*
X18250000Y78750000D02*
X19000000Y79500000D01*
%TO.N,IO17*%
D19*
X40770000Y56200000D02*
X38630000Y58340000D01*
X38630000Y58340000D02*
X38630000Y69280000D01*
X38630000Y69280000D02*
X32840000Y75070000D01*
%TO.N,IO18*%
X42050000Y57000000D02*
X41030000Y58020000D01*
X41030000Y68320000D02*
X33080000Y76270000D01*
X41030000Y58020000D02*
X41030000Y68320000D01*
X33080000Y76270000D02*
X27330000Y76270000D01*
%TO.N,IO39*%
D21*
X48300000Y78400000D02*
X48300000Y77200000D01*
X48300000Y77200000D02*
X49100000Y76400000D01*
%TO.N,IO41*%
X41900000Y78300000D02*
X43400000Y76800000D01*
X41900000Y80810000D02*
X41900000Y78300000D01*
%TD*%
M02*
