M48
; DRILL file KiCad 10.0.0 date 2026-09-01T15:40:57
; FORMAT={-:-/ absolute / metric / decimal}
; #@! TF.CreationDate,2026-09-01T15:40:57-05:00
; #@! TF.GenerationSoftware,Kicad,Pcbnew,10.0.0
; #@! TF.FileFunction,MixedPlating,1,4
FMAT,2
METRIC
; #@! TA.AperFunction,Plated,PTH,ComponentDrill
T1C0.200
; #@! TA.AperFunction,Plated,PTH,ViaDrill
T2C0.250
; #@! TA.AperFunction,Plated,PTH,ComponentDrill
T3C0.250
; #@! TA.AperFunction,Plated,PTH,ViaDrill
T4C0.300
; #@! TA.AperFunction,Plated,PTH,ViaDrill
T5C0.400
; #@! TA.AperFunction,Plated,PTH,ComponentDrill
T6C0.750
; #@! TA.AperFunction,Plated,PTH,ComponentDrill
T7C1.000
; #@! TA.AperFunction,NonPlated,NPTH,ComponentDrill
T8C0.650
; #@! TA.AperFunction,NonPlated,NPTH,ComponentDrill
T9C2.100
%
G90
G05
T1
X27.35Y81.98
X27.35Y80.58
X28.05Y82.68
X28.05Y81.28
X28.05Y79.88
X28.75Y81.98
X28.75Y80.58
X29.45Y82.68
X29.45Y81.28
X29.45Y79.88
X30.15Y81.98
X30.15Y80.58
X46.6Y33.45
X46.6Y32.35
T2
X4.9Y73.9
X6.2Y87.6
X16.0Y88.6
X20.25Y57.0
X22.8Y87.7
X24.25Y56.75
X27.33Y76.27
X27.6Y23.0
X32.4Y18.0
X32.6Y16.8
X32.84Y75.07
X35.4Y17.8
X36.8Y21.2
X40.77Y56.2
X42.05Y57.0
T3
X12.825Y79.885
X13.4Y80.835
X13.4Y78.935
X13.975Y79.885
T4
X2.47Y66.2
X2.48Y80.57
X2.5Y53.0
X3.48Y66.2
X3.49Y80.57
X4.695Y44.775
X6.5Y66.2
X6.51Y80.57
X7.27Y82.38
X7.5Y66.2
X7.51Y80.57
X9.09Y79.71
X9.1Y80.7
X9.6Y83.04
X10.2Y73.9
X10.7Y76.4
X15.25Y73.75
X15.25Y63.75
X16.25Y59.75
X23.25Y89.0
X24.0Y68.75
X25.15Y84.23
X26.0Y78.4
X26.8Y24.6
X27.5Y60.0
X31.6Y20.8
X37.25Y89.0
X41.9Y80.81
X43.4Y76.8
X45.6Y34.8
X45.65Y86.87
X48.3Y78.4
X48.35Y82.75
X48.35Y81.55
X49.1Y76.4
T5
X4.6Y84.0
X6.0Y41.25
X6.25Y23.25
X6.5Y36.25
X6.5Y34.75
X6.5Y31.75
X7.25Y63.5
X7.25Y62.0
X7.25Y59.75
X7.25Y55.0
X7.5Y53.5
X9.41Y3.32
X9.84Y67.78
X10.75Y21.78
X11.54Y67.7
X12.2Y82.3
X12.51Y83.43
X12.8Y3.5
X12.8Y1.8
X14.3Y88.2
X16.0Y62.5
X17.75Y64.75
X17.9Y88.9
X18.48Y81.35
X19.0Y79.5
X19.25Y64.75
X19.5Y78.25
X19.6Y88.9
X20.4Y36.6
X20.4Y34.8
X21.5Y65.25
X21.75Y57.0
X23.6Y27.8
X23.75Y66.75
X24.0Y74.25
X24.0Y21.0
X24.25Y25.0
X25.57Y13.95
X25.75Y56.75
X27.5Y53.5
X27.75Y18.1
X28.0Y50.5
X29.25Y14.75
X29.5Y56.5
X30.0Y26.5
X30.25Y63.25
X32.75Y68.75
X33.0Y55.0
X33.28Y50.28
X33.44Y51.88
X33.75Y53.25
X35.2Y7.0
X36.9Y78.9
X40.25Y6.5
X41.225Y26.325
X41.225Y24.662
X41.225Y23.0
X41.225Y21.337
X41.225Y19.675
X41.225Y18.012
X41.225Y16.35
X41.4Y74.6
X41.5Y89.05
X42.0Y35.2
X42.0Y31.0
X42.0Y29.8
X42.0Y28.6
X43.15Y89.0
X43.2Y40.2
X43.2Y26.4
X43.4Y35.2
X43.6Y31.0
X43.6Y29.8
X45.0Y26.6
X45.75Y64.5
X46.0Y38.8
X47.25Y64.2
X47.6Y38.8
X48.5Y63.5
X48.5Y56.0
X48.8Y27.2
X49.2Y38.8
X53.0Y11.57
X53.0Y10.215
X53.0Y8.86
X54.4Y7.48
X55.755Y7.48
X57.11Y7.48
T6
X53.05Y43.9
X53.05Y41.9
X53.05Y39.9
X53.05Y34.5
X53.05Y32.5
X53.05Y30.5
X53.05Y28.5
T7
X1.8Y46.78
X1.8Y44.24
X1.8Y41.7
X1.8Y37.7
X1.8Y35.16
X1.8Y32.62
X1.8Y28.7
X1.8Y26.16
X1.8Y23.62
X42.045Y2.045
X44.585Y2.045
X47.125Y2.045
X54.26Y77.14
X54.26Y74.6
X54.26Y72.06
X56.8Y77.14
X56.8Y74.6
X56.8Y72.06
T8
X6.43Y76.25
X6.43Y70.47
T9
X3.0Y87.0
X3.0Y3.0
X57.0Y87.0
X57.0Y3.0
M30
