M48
; DRILL file KiCad 10.0.0 date 2026-08-08T12:02:35
; FORMAT={-:-/ absolute / metric / decimal}
; #@! TF.CreationDate,2026-08-08T12:02:35-05:00
; #@! TF.GenerationSoftware,Kicad,Pcbnew,10.0.0
; #@! TF.FileFunction,Plated,1,4,PTH
FMAT,2
METRIC
; #@! TA.AperFunction,Plated,PTH,ComponentDrill
T1C0.200
; #@! TA.AperFunction,Plated,PTH,ViaDrill
T2C0.250
; #@! TA.AperFunction,Plated,PTH,ViaDrill
T3C0.300
; #@! TA.AperFunction,Plated,PTH,ViaDrill
T4C0.400
; #@! TA.AperFunction,Plated,PTH,ComponentDrill
T5C0.750
; #@! TA.AperFunction,Plated,PTH,ComponentDrill
T6C1.000
%
G90
G05
T1
X12.035Y79.885
X12.61Y80.835
X12.61Y78.935
X13.185Y79.885
X27.35Y81.98
X27.35Y80.58
X28.05Y82.68
X28.05Y81.28
X28.05Y79.88
X28.75Y81.98
X28.75Y80.58
X29.45Y82.68
X29.45Y81.28
X29.45Y79.88
X30.15Y81.98
X30.15Y80.58
T2
X4.9Y73.9
X9.2Y77.0
X9.3Y69.2
X10.5Y69.2
X13.7Y86.8
X18.7Y89.2
X19.7Y89.2
X22.8Y87.7
X27.12Y69.61
X27.33Y76.27
X28.31Y16.97
X29.62Y26.61
X29.87Y68.82
X30.08Y64.27
X30.3Y24.61
X31.14Y74.28
X31.46Y19.64
X32.05Y57.38
X32.84Y75.07
X33.33Y56.92
X33.9Y13.5
X35.03Y27.99
X37.12Y27.83
X37.89Y26.2
X40.77Y56.2
X42.05Y57.0
T3
X2.47Y66.2
X2.48Y80.57
X2.5Y53.0
X3.48Y66.2
X3.49Y80.57
X5.37Y45.45
X6.5Y84.0
X6.5Y66.2
X6.51Y80.57
X7.27Y82.38
X7.5Y66.2
X7.51Y80.57
X9.09Y79.71
X9.6Y83.04
X9.964Y79.923
X10.2Y76.4
X10.2Y73.9
X10.9Y82.4
X12.25Y83.5
X12.5Y86.0
X15.25Y73.75
X16.75Y80.75
X17.025Y63.775
X17.7Y61.1
X18.91Y63.04
X18.97Y58.14
X20.6Y65.9
X21.45Y61.587
X21.87Y57.78
X22.75Y66.6
X23.25Y89.0
X24.175Y67.935
X24.4Y56.4
X25.15Y84.23
X25.2Y66.6
X25.54Y58.51
X25.78Y65.25
X26.0Y78.4
X26.4Y63.6
X27.4Y61.8
X33.2Y53.6
X33.36Y28.58
X33.95Y68.48
X34.71Y69.17
X34.73Y57.95
X37.25Y89.0
X37.74Y55.06
X41.6Y88.8
X41.72Y26.81
X41.9Y80.81
X42.99Y26.83
X43.0Y88.8
X43.4Y76.8
X43.69Y61.51
X43.72Y60.31
X45.65Y86.87
X46.8Y82.8
X46.8Y81.6
X48.3Y78.4
X49.0Y65.5
X49.1Y76.4
T4
X6.0Y41.25
X6.25Y23.25
X6.5Y36.25
X6.5Y34.75
X6.5Y31.75
X7.25Y63.5
X7.25Y62.0
X7.25Y59.75
X7.25Y55.0
X7.5Y53.5
X9.41Y3.32
X10.75Y21.78
X16.2Y59.8
X16.95Y2.46
X17.18Y3.71
X18.48Y81.35
X19.0Y79.5
X19.5Y78.25
X20.4Y36.6
X20.4Y34.8
X24.0Y74.25
X25.57Y13.95
X27.5Y53.5
X28.0Y50.5
X28.5Y52.5
X29.5Y56.5
X32.25Y18.74
X32.5Y50.5
X33.0Y55.0
X33.0Y52.0
X34.39Y19.72
X36.9Y78.9
X39.76Y65.8
X41.4Y74.6
X44.84Y16.31
X45.6Y66.7
X47.1Y65.5
X48.5Y63.5
X48.5Y56.0
T5
X53.05Y34.5
X53.05Y32.5
X53.05Y30.5
X53.05Y28.5
X53.05Y12.0
X53.05Y10.0
T6
X1.8Y46.78
X1.8Y44.24
X1.8Y41.7
X1.8Y37.7
X1.8Y35.16
X1.8Y32.62
X1.8Y28.7
X1.8Y26.16
X1.8Y23.62
X54.26Y77.14
X54.26Y74.6
X54.26Y72.06
X56.8Y77.14
X56.8Y74.6
X56.8Y72.06
X58.0Y24.04
X58.0Y21.5
X58.0Y18.96
X58.0Y16.42
M30
