%TF.GenerationSoftware,KiCad,Pcbnew,10.0.0*%
%TF.CreationDate,2026-08-22T21:27:56-05:00*%
%TF.ProjectId,2027Payload,32303237-5061-4796-9c6f-61642e6b6963,rev?*%
%TF.SameCoordinates,PXac9d740PY90f5600*%
%TF.FileFunction,Legend,Top*%
%TF.FilePolarity,Positive*%
%FSLAX46Y46*%
G04 Gerber Fmt 4.6, Leading zero omitted, Abs format (unit mm)*
G04 Created by KiCad (PCBNEW 10.0.0) date 2026-08-22 21:27:56*
%MOMM*%
%LPD*%
G01*
G04 APERTURE LIST*
%ADD10C,0.100000*%
%ADD11C,0.127000*%
%ADD12C,0.200000*%
%ADD13C,0.120000*%
%ADD14C,0.175000*%
G04 APERTURE END LIST*
D10*
X3303884Y35008534D02*
X4065789Y35008534D01*
X3684836Y34627581D02*
X3684836Y35389486D01*
X5018169Y35627581D02*
X4541979Y35627581D01*
X4541979Y35627581D02*
X4494360Y35151391D01*
X4494360Y35151391D02*
X4541979Y35199010D01*
X4541979Y35199010D02*
X4637217Y35246629D01*
X4637217Y35246629D02*
X4875312Y35246629D01*
X4875312Y35246629D02*
X4970550Y35199010D01*
X4970550Y35199010D02*
X5018169Y35151391D01*
X5018169Y35151391D02*
X5065788Y35056153D01*
X5065788Y35056153D02*
X5065788Y34818058D01*
X5065788Y34818058D02*
X5018169Y34722820D01*
X5018169Y34722820D02*
X4970550Y34675200D01*
X4970550Y34675200D02*
X4875312Y34627581D01*
X4875312Y34627581D02*
X4637217Y34627581D01*
X4637217Y34627581D02*
X4541979Y34675200D01*
X4541979Y34675200D02*
X4494360Y34722820D01*
X5351503Y35627581D02*
X5684836Y34627581D01*
X5684836Y34627581D02*
X6018169Y35627581D01*
X3803884Y44108534D02*
X4565789Y44108534D01*
X4184836Y43727581D02*
X4184836Y44489486D01*
X5518169Y44727581D02*
X5041979Y44727581D01*
X5041979Y44727581D02*
X4994360Y44251391D01*
X4994360Y44251391D02*
X5041979Y44299010D01*
X5041979Y44299010D02*
X5137217Y44346629D01*
X5137217Y44346629D02*
X5375312Y44346629D01*
X5375312Y44346629D02*
X5470550Y44299010D01*
X5470550Y44299010D02*
X5518169Y44251391D01*
X5518169Y44251391D02*
X5565788Y44156153D01*
X5565788Y44156153D02*
X5565788Y43918058D01*
X5565788Y43918058D02*
X5518169Y43822820D01*
X5518169Y43822820D02*
X5470550Y43775200D01*
X5470550Y43775200D02*
X5375312Y43727581D01*
X5375312Y43727581D02*
X5137217Y43727581D01*
X5137217Y43727581D02*
X5041979Y43775200D01*
X5041979Y43775200D02*
X4994360Y43822820D01*
X5851503Y44727581D02*
X6184836Y43727581D01*
X6184836Y43727581D02*
X6518169Y44727581D01*
X4327693Y38279962D02*
X4232455Y38327581D01*
X4232455Y38327581D02*
X4089598Y38327581D01*
X4089598Y38327581D02*
X3946741Y38279962D01*
X3946741Y38279962D02*
X3851503Y38184724D01*
X3851503Y38184724D02*
X3803884Y38089486D01*
X3803884Y38089486D02*
X3756265Y37899010D01*
X3756265Y37899010D02*
X3756265Y37756153D01*
X3756265Y37756153D02*
X3803884Y37565677D01*
X3803884Y37565677D02*
X3851503Y37470439D01*
X3851503Y37470439D02*
X3946741Y37375200D01*
X3946741Y37375200D02*
X4089598Y37327581D01*
X4089598Y37327581D02*
X4184836Y37327581D01*
X4184836Y37327581D02*
X4327693Y37375200D01*
X4327693Y37375200D02*
X4375312Y37422820D01*
X4375312Y37422820D02*
X4375312Y37756153D01*
X4375312Y37756153D02*
X4184836Y37756153D01*
X4803884Y37327581D02*
X4803884Y38327581D01*
X4803884Y38327581D02*
X5375312Y37327581D01*
X5375312Y37327581D02*
X5375312Y38327581D01*
X5851503Y37327581D02*
X5851503Y38327581D01*
X5851503Y38327581D02*
X6089598Y38327581D01*
X6089598Y38327581D02*
X6232455Y38279962D01*
X6232455Y38279962D02*
X6327693Y38184724D01*
X6327693Y38184724D02*
X6375312Y38089486D01*
X6375312Y38089486D02*
X6422931Y37899010D01*
X6422931Y37899010D02*
X6422931Y37756153D01*
X6422931Y37756153D02*
X6375312Y37565677D01*
X6375312Y37565677D02*
X6327693Y37470439D01*
X6327693Y37470439D02*
X6232455Y37375200D01*
X6232455Y37375200D02*
X6089598Y37327581D01*
X6089598Y37327581D02*
X5851503Y37327581D01*
X3803884Y26108534D02*
X4565789Y26108534D01*
X4184836Y25727581D02*
X4184836Y26489486D01*
X5518169Y26727581D02*
X5041979Y26727581D01*
X5041979Y26727581D02*
X4994360Y26251391D01*
X4994360Y26251391D02*
X5041979Y26299010D01*
X5041979Y26299010D02*
X5137217Y26346629D01*
X5137217Y26346629D02*
X5375312Y26346629D01*
X5375312Y26346629D02*
X5470550Y26299010D01*
X5470550Y26299010D02*
X5518169Y26251391D01*
X5518169Y26251391D02*
X5565788Y26156153D01*
X5565788Y26156153D02*
X5565788Y25918058D01*
X5565788Y25918058D02*
X5518169Y25822820D01*
X5518169Y25822820D02*
X5470550Y25775200D01*
X5470550Y25775200D02*
X5375312Y25727581D01*
X5375312Y25727581D02*
X5137217Y25727581D01*
X5137217Y25727581D02*
X5041979Y25775200D01*
X5041979Y25775200D02*
X4994360Y25822820D01*
X5851503Y26727581D02*
X6184836Y25727581D01*
X6184836Y25727581D02*
X6518169Y26727581D01*
X4427693Y47279962D02*
X4332455Y47327581D01*
X4332455Y47327581D02*
X4189598Y47327581D01*
X4189598Y47327581D02*
X4046741Y47279962D01*
X4046741Y47279962D02*
X3951503Y47184724D01*
X3951503Y47184724D02*
X3903884Y47089486D01*
X3903884Y47089486D02*
X3856265Y46899010D01*
X3856265Y46899010D02*
X3856265Y46756153D01*
X3856265Y46756153D02*
X3903884Y46565677D01*
X3903884Y46565677D02*
X3951503Y46470439D01*
X3951503Y46470439D02*
X4046741Y46375200D01*
X4046741Y46375200D02*
X4189598Y46327581D01*
X4189598Y46327581D02*
X4284836Y46327581D01*
X4284836Y46327581D02*
X4427693Y46375200D01*
X4427693Y46375200D02*
X4475312Y46422820D01*
X4475312Y46422820D02*
X4475312Y46756153D01*
X4475312Y46756153D02*
X4284836Y46756153D01*
X4903884Y46327581D02*
X4903884Y47327581D01*
X4903884Y47327581D02*
X5475312Y46327581D01*
X5475312Y46327581D02*
X5475312Y47327581D01*
X5951503Y46327581D02*
X5951503Y47327581D01*
X5951503Y47327581D02*
X6189598Y47327581D01*
X6189598Y47327581D02*
X6332455Y47279962D01*
X6332455Y47279962D02*
X6427693Y47184724D01*
X6427693Y47184724D02*
X6475312Y47089486D01*
X6475312Y47089486D02*
X6522931Y46899010D01*
X6522931Y46899010D02*
X6522931Y46756153D01*
X6522931Y46756153D02*
X6475312Y46565677D01*
X6475312Y46565677D02*
X6427693Y46470439D01*
X6427693Y46470439D02*
X6332455Y46375200D01*
X6332455Y46375200D02*
X6189598Y46327581D01*
X6189598Y46327581D02*
X5951503Y46327581D01*
X4427693Y29079962D02*
X4332455Y29127581D01*
X4332455Y29127581D02*
X4189598Y29127581D01*
X4189598Y29127581D02*
X4046741Y29079962D01*
X4046741Y29079962D02*
X3951503Y28984724D01*
X3951503Y28984724D02*
X3903884Y28889486D01*
X3903884Y28889486D02*
X3856265Y28699010D01*
X3856265Y28699010D02*
X3856265Y28556153D01*
X3856265Y28556153D02*
X3903884Y28365677D01*
X3903884Y28365677D02*
X3951503Y28270439D01*
X3951503Y28270439D02*
X4046741Y28175200D01*
X4046741Y28175200D02*
X4189598Y28127581D01*
X4189598Y28127581D02*
X4284836Y28127581D01*
X4284836Y28127581D02*
X4427693Y28175200D01*
X4427693Y28175200D02*
X4475312Y28222820D01*
X4475312Y28222820D02*
X4475312Y28556153D01*
X4475312Y28556153D02*
X4284836Y28556153D01*
X4903884Y28127581D02*
X4903884Y29127581D01*
X4903884Y29127581D02*
X5475312Y28127581D01*
X5475312Y28127581D02*
X5475312Y29127581D01*
X5951503Y28127581D02*
X5951503Y29127581D01*
X5951503Y29127581D02*
X6189598Y29127581D01*
X6189598Y29127581D02*
X6332455Y29079962D01*
X6332455Y29079962D02*
X6427693Y28984724D01*
X6427693Y28984724D02*
X6475312Y28889486D01*
X6475312Y28889486D02*
X6522931Y28699010D01*
X6522931Y28699010D02*
X6522931Y28556153D01*
X6522931Y28556153D02*
X6475312Y28365677D01*
X6475312Y28365677D02*
X6427693Y28270439D01*
X6427693Y28270439D02*
X6332455Y28175200D01*
X6332455Y28175200D02*
X6189598Y28127581D01*
X6189598Y28127581D02*
X5951503Y28127581D01*
X53337217Y53851391D02*
X53480074Y53803772D01*
X53480074Y53803772D02*
X53527693Y53756153D01*
X53527693Y53756153D02*
X53575312Y53660915D01*
X53575312Y53660915D02*
X53575312Y53518058D01*
X53575312Y53518058D02*
X53527693Y53422820D01*
X53527693Y53422820D02*
X53480074Y53375200D01*
X53480074Y53375200D02*
X53384836Y53327581D01*
X53384836Y53327581D02*
X53003884Y53327581D01*
X53003884Y53327581D02*
X53003884Y54327581D01*
X53003884Y54327581D02*
X53337217Y54327581D01*
X53337217Y54327581D02*
X53432455Y54279962D01*
X53432455Y54279962D02*
X53480074Y54232343D01*
X53480074Y54232343D02*
X53527693Y54137105D01*
X53527693Y54137105D02*
X53527693Y54041867D01*
X53527693Y54041867D02*
X53480074Y53946629D01*
X53480074Y53946629D02*
X53432455Y53899010D01*
X53432455Y53899010D02*
X53337217Y53851391D01*
X53337217Y53851391D02*
X53003884Y53851391D01*
X54194360Y54327581D02*
X54384836Y54327581D01*
X54384836Y54327581D02*
X54480074Y54279962D01*
X54480074Y54279962D02*
X54575312Y54184724D01*
X54575312Y54184724D02*
X54622931Y53994248D01*
X54622931Y53994248D02*
X54622931Y53660915D01*
X54622931Y53660915D02*
X54575312Y53470439D01*
X54575312Y53470439D02*
X54480074Y53375200D01*
X54480074Y53375200D02*
X54384836Y53327581D01*
X54384836Y53327581D02*
X54194360Y53327581D01*
X54194360Y53327581D02*
X54099122Y53375200D01*
X54099122Y53375200D02*
X54003884Y53470439D01*
X54003884Y53470439D02*
X53956265Y53660915D01*
X53956265Y53660915D02*
X53956265Y53994248D01*
X53956265Y53994248D02*
X54003884Y54184724D01*
X54003884Y54184724D02*
X54099122Y54279962D01*
X54099122Y54279962D02*
X54194360Y54327581D01*
X55241979Y54327581D02*
X55432455Y54327581D01*
X55432455Y54327581D02*
X55527693Y54279962D01*
X55527693Y54279962D02*
X55622931Y54184724D01*
X55622931Y54184724D02*
X55670550Y53994248D01*
X55670550Y53994248D02*
X55670550Y53660915D01*
X55670550Y53660915D02*
X55622931Y53470439D01*
X55622931Y53470439D02*
X55527693Y53375200D01*
X55527693Y53375200D02*
X55432455Y53327581D01*
X55432455Y53327581D02*
X55241979Y53327581D01*
X55241979Y53327581D02*
X55146741Y53375200D01*
X55146741Y53375200D02*
X55051503Y53470439D01*
X55051503Y53470439D02*
X55003884Y53660915D01*
X55003884Y53660915D02*
X55003884Y53994248D01*
X55003884Y53994248D02*
X55051503Y54184724D01*
X55051503Y54184724D02*
X55146741Y54279962D01*
X55146741Y54279962D02*
X55241979Y54327581D01*
X55956265Y54327581D02*
X56527693Y54327581D01*
X56241979Y53327581D02*
X56241979Y54327581D01*
X54003884Y69451391D02*
X54337217Y69451391D01*
X54480074Y68927581D02*
X54003884Y68927581D01*
X54003884Y68927581D02*
X54003884Y69927581D01*
X54003884Y69927581D02*
X54480074Y69927581D01*
X54908646Y68927581D02*
X54908646Y69927581D01*
X54908646Y69927581D02*
X55480074Y68927581D01*
X55480074Y68927581D02*
X55480074Y69927581D01*
X9124800Y58256266D02*
X9172419Y58399123D01*
X9172419Y58399123D02*
X9172419Y58637218D01*
X9172419Y58637218D02*
X9124800Y58732456D01*
X9124800Y58732456D02*
X9077180Y58780075D01*
X9077180Y58780075D02*
X8981942Y58827694D01*
X8981942Y58827694D02*
X8886704Y58827694D01*
X8886704Y58827694D02*
X8791466Y58780075D01*
X8791466Y58780075D02*
X8743847Y58732456D01*
X8743847Y58732456D02*
X8696228Y58637218D01*
X8696228Y58637218D02*
X8648609Y58446742D01*
X8648609Y58446742D02*
X8600990Y58351504D01*
X8600990Y58351504D02*
X8553371Y58303885D01*
X8553371Y58303885D02*
X8458133Y58256266D01*
X8458133Y58256266D02*
X8362895Y58256266D01*
X8362895Y58256266D02*
X8267657Y58303885D01*
X8267657Y58303885D02*
X8220038Y58351504D01*
X8220038Y58351504D02*
X8172419Y58446742D01*
X8172419Y58446742D02*
X8172419Y58684837D01*
X8172419Y58684837D02*
X8220038Y58827694D01*
X8172419Y59113409D02*
X8172419Y59684837D01*
X9172419Y59399123D02*
X8172419Y59399123D01*
X8648609Y60018171D02*
X8648609Y60351504D01*
X9172419Y60494361D02*
X9172419Y60018171D01*
X9172419Y60018171D02*
X8172419Y60018171D01*
X8172419Y60018171D02*
X8172419Y60494361D01*
X9172419Y60922933D02*
X8172419Y60922933D01*
X8172419Y60922933D02*
X8886704Y61256266D01*
X8886704Y61256266D02*
X8172419Y61589599D01*
X8172419Y61589599D02*
X9172419Y61589599D01*
X9172419Y62065790D02*
X8172419Y62065790D01*
X8172419Y62065790D02*
X8886704Y62399123D01*
X8886704Y62399123D02*
X8172419Y62732456D01*
X8172419Y62732456D02*
X9172419Y62732456D01*
X8886704Y63161028D02*
X8886704Y63637218D01*
X9172419Y63065790D02*
X8172419Y63399123D01*
X8172419Y63399123D02*
X9172419Y63732456D01*
X9172419Y64589599D02*
X9172419Y64018171D01*
X9172419Y64303885D02*
X8172419Y64303885D01*
X8172419Y64303885D02*
X8315276Y64208647D01*
X8315276Y64208647D02*
X8410514Y64113409D01*
X8410514Y64113409D02*
X8458133Y64018171D01*
X9124800Y50056266D02*
X9172419Y50199123D01*
X9172419Y50199123D02*
X9172419Y50437218D01*
X9172419Y50437218D02*
X9124800Y50532456D01*
X9124800Y50532456D02*
X9077180Y50580075D01*
X9077180Y50580075D02*
X8981942Y50627694D01*
X8981942Y50627694D02*
X8886704Y50627694D01*
X8886704Y50627694D02*
X8791466Y50580075D01*
X8791466Y50580075D02*
X8743847Y50532456D01*
X8743847Y50532456D02*
X8696228Y50437218D01*
X8696228Y50437218D02*
X8648609Y50246742D01*
X8648609Y50246742D02*
X8600990Y50151504D01*
X8600990Y50151504D02*
X8553371Y50103885D01*
X8553371Y50103885D02*
X8458133Y50056266D01*
X8458133Y50056266D02*
X8362895Y50056266D01*
X8362895Y50056266D02*
X8267657Y50103885D01*
X8267657Y50103885D02*
X8220038Y50151504D01*
X8220038Y50151504D02*
X8172419Y50246742D01*
X8172419Y50246742D02*
X8172419Y50484837D01*
X8172419Y50484837D02*
X8220038Y50627694D01*
X8172419Y50913409D02*
X8172419Y51484837D01*
X9172419Y51199123D02*
X8172419Y51199123D01*
X8648609Y51818171D02*
X8648609Y52151504D01*
X9172419Y52294361D02*
X9172419Y51818171D01*
X9172419Y51818171D02*
X8172419Y51818171D01*
X8172419Y51818171D02*
X8172419Y52294361D01*
X9172419Y52722933D02*
X8172419Y52722933D01*
X8172419Y52722933D02*
X8886704Y53056266D01*
X8886704Y53056266D02*
X8172419Y53389599D01*
X8172419Y53389599D02*
X9172419Y53389599D01*
X9172419Y53865790D02*
X8172419Y53865790D01*
X8172419Y53865790D02*
X8886704Y54199123D01*
X8886704Y54199123D02*
X8172419Y54532456D01*
X8172419Y54532456D02*
X9172419Y54532456D01*
X8886704Y54961028D02*
X8886704Y55437218D01*
X9172419Y54865790D02*
X8172419Y55199123D01*
X8172419Y55199123D02*
X9172419Y55532456D01*
X8267657Y55818171D02*
X8220038Y55865790D01*
X8220038Y55865790D02*
X8172419Y55961028D01*
X8172419Y55961028D02*
X8172419Y56199123D01*
X8172419Y56199123D02*
X8220038Y56294361D01*
X8220038Y56294361D02*
X8267657Y56341980D01*
X8267657Y56341980D02*
X8362895Y56389599D01*
X8362895Y56389599D02*
X8458133Y56389599D01*
X8458133Y56389599D02*
X8600990Y56341980D01*
X8600990Y56341980D02*
X9172419Y55770552D01*
X9172419Y55770552D02*
X9172419Y56389599D01*
X50391466Y43603885D02*
X50391466Y44365789D01*
X50391466Y28203885D02*
X50391466Y28965789D01*
X50772419Y28584837D02*
X50010514Y28584837D01*
X49772419Y29918170D02*
X49772419Y29441980D01*
X49772419Y29441980D02*
X50248609Y29394361D01*
X50248609Y29394361D02*
X50200990Y29441980D01*
X50200990Y29441980D02*
X50153371Y29537218D01*
X50153371Y29537218D02*
X50153371Y29775313D01*
X50153371Y29775313D02*
X50200990Y29870551D01*
X50200990Y29870551D02*
X50248609Y29918170D01*
X50248609Y29918170D02*
X50343847Y29965789D01*
X50343847Y29965789D02*
X50581942Y29965789D01*
X50581942Y29965789D02*
X50677180Y29918170D01*
X50677180Y29918170D02*
X50724800Y29870551D01*
X50724800Y29870551D02*
X50772419Y29775313D01*
X50772419Y29775313D02*
X50772419Y29537218D01*
X50772419Y29537218D02*
X50724800Y29441980D01*
X50724800Y29441980D02*
X50677180Y29394361D01*
X49772419Y30251504D02*
X50772419Y30584837D01*
X50772419Y30584837D02*
X49772419Y30918170D01*
X49772419Y32299123D02*
X50486704Y32299123D01*
X50486704Y32299123D02*
X50629561Y32251504D01*
X50629561Y32251504D02*
X50724800Y32156266D01*
X50724800Y32156266D02*
X50772419Y32013409D01*
X50772419Y32013409D02*
X50772419Y31918171D01*
X50724800Y32727695D02*
X50772419Y32870552D01*
X50772419Y32870552D02*
X50772419Y33108647D01*
X50772419Y33108647D02*
X50724800Y33203885D01*
X50724800Y33203885D02*
X50677180Y33251504D01*
X50677180Y33251504D02*
X50581942Y33299123D01*
X50581942Y33299123D02*
X50486704Y33299123D01*
X50486704Y33299123D02*
X50391466Y33251504D01*
X50391466Y33251504D02*
X50343847Y33203885D01*
X50343847Y33203885D02*
X50296228Y33108647D01*
X50296228Y33108647D02*
X50248609Y32918171D01*
X50248609Y32918171D02*
X50200990Y32822933D01*
X50200990Y32822933D02*
X50153371Y32775314D01*
X50153371Y32775314D02*
X50058133Y32727695D01*
X50058133Y32727695D02*
X49962895Y32727695D01*
X49962895Y32727695D02*
X49867657Y32775314D01*
X49867657Y32775314D02*
X49820038Y32822933D01*
X49820038Y32822933D02*
X49772419Y32918171D01*
X49772419Y32918171D02*
X49772419Y33156266D01*
X49772419Y33156266D02*
X49820038Y33299123D01*
X49772419Y33584838D02*
X49772419Y34156266D01*
X50772419Y33870552D02*
X49772419Y33870552D01*
X49872419Y41261028D02*
X49872419Y41832456D01*
X50872419Y41546742D02*
X49872419Y41546742D01*
X49872419Y42070552D02*
X50872419Y42737218D01*
X49872419Y42737218D02*
X50872419Y42070552D01*
X50872419Y39775313D02*
X50396228Y39441980D01*
X50872419Y39203885D02*
X49872419Y39203885D01*
X49872419Y39203885D02*
X49872419Y39584837D01*
X49872419Y39584837D02*
X49920038Y39680075D01*
X49920038Y39680075D02*
X49967657Y39727694D01*
X49967657Y39727694D02*
X50062895Y39775313D01*
X50062895Y39775313D02*
X50205752Y39775313D01*
X50205752Y39775313D02*
X50300990Y39727694D01*
X50300990Y39727694D02*
X50348609Y39680075D01*
X50348609Y39680075D02*
X50396228Y39584837D01*
X50396228Y39584837D02*
X50396228Y39203885D01*
X49872419Y40108647D02*
X50872419Y40775313D01*
X49872419Y40775313D02*
X50872419Y40108647D01*
X51320038Y76927694D02*
X51272419Y76832456D01*
X51272419Y76832456D02*
X51272419Y76689599D01*
X51272419Y76689599D02*
X51320038Y76546742D01*
X51320038Y76546742D02*
X51415276Y76451504D01*
X51415276Y76451504D02*
X51510514Y76403885D01*
X51510514Y76403885D02*
X51700990Y76356266D01*
X51700990Y76356266D02*
X51843847Y76356266D01*
X51843847Y76356266D02*
X52034323Y76403885D01*
X52034323Y76403885D02*
X52129561Y76451504D01*
X52129561Y76451504D02*
X52224800Y76546742D01*
X52224800Y76546742D02*
X52272419Y76689599D01*
X52272419Y76689599D02*
X52272419Y76784837D01*
X52272419Y76784837D02*
X52224800Y76927694D01*
X52224800Y76927694D02*
X52177180Y76975313D01*
X52177180Y76975313D02*
X51843847Y76975313D01*
X51843847Y76975313D02*
X51843847Y76784837D01*
X52272419Y77403885D02*
X51272419Y77403885D01*
X51272419Y77403885D02*
X52272419Y77975313D01*
X52272419Y77975313D02*
X51272419Y77975313D01*
X52272419Y78451504D02*
X51272419Y78451504D01*
X51272419Y78451504D02*
X51272419Y78689599D01*
X51272419Y78689599D02*
X51320038Y78832456D01*
X51320038Y78832456D02*
X51415276Y78927694D01*
X51415276Y78927694D02*
X51510514Y78975313D01*
X51510514Y78975313D02*
X51700990Y79022932D01*
X51700990Y79022932D02*
X51843847Y79022932D01*
X51843847Y79022932D02*
X52034323Y78975313D01*
X52034323Y78975313D02*
X52129561Y78927694D01*
X52129561Y78927694D02*
X52224800Y78832456D01*
X52224800Y78832456D02*
X52272419Y78689599D01*
X52272419Y78689599D02*
X52272419Y78451504D01*
X58571466Y14433885D02*
X58571466Y15195789D01*
X58952419Y14814837D02*
X58190514Y14814837D01*
X58571466Y9723885D02*
X58571466Y10485789D01*
X59008533Y73696116D02*
X59008533Y72934211D01*
X58627580Y73315164D02*
X59389485Y73315164D01*
X59627580Y72553259D02*
X59627580Y71934212D01*
X59627580Y71934212D02*
X59246628Y72267545D01*
X59246628Y72267545D02*
X59246628Y72124688D01*
X59246628Y72124688D02*
X59199009Y72029450D01*
X59199009Y72029450D02*
X59151390Y71981831D01*
X59151390Y71981831D02*
X59056152Y71934212D01*
X59056152Y71934212D02*
X58818057Y71934212D01*
X58818057Y71934212D02*
X58722819Y71981831D01*
X58722819Y71981831D02*
X58675200Y72029450D01*
X58675200Y72029450D02*
X58627580Y72124688D01*
X58627580Y72124688D02*
X58627580Y72410402D01*
X58627580Y72410402D02*
X58675200Y72505640D01*
X58675200Y72505640D02*
X58722819Y72553259D01*
X58722819Y71505640D02*
X58675200Y71458021D01*
X58675200Y71458021D02*
X58627580Y71505640D01*
X58627580Y71505640D02*
X58675200Y71553259D01*
X58675200Y71553259D02*
X58722819Y71505640D01*
X58722819Y71505640D02*
X58627580Y71505640D01*
X59627580Y71124688D02*
X59627580Y70505641D01*
X59627580Y70505641D02*
X59246628Y70838974D01*
X59246628Y70838974D02*
X59246628Y70696117D01*
X59246628Y70696117D02*
X59199009Y70600879D01*
X59199009Y70600879D02*
X59151390Y70553260D01*
X59151390Y70553260D02*
X59056152Y70505641D01*
X59056152Y70505641D02*
X58818057Y70505641D01*
X58818057Y70505641D02*
X58722819Y70553260D01*
X58722819Y70553260D02*
X58675200Y70600879D01*
X58675200Y70600879D02*
X58627580Y70696117D01*
X58627580Y70696117D02*
X58627580Y70981831D01*
X58627580Y70981831D02*
X58675200Y71077069D01*
X58675200Y71077069D02*
X58722819Y71124688D01*
X59627580Y70219926D02*
X58627580Y69886593D01*
X58627580Y69886593D02*
X59627580Y69553260D01*
%TO.C,U9*%
D11*
X11900000Y81405000D02*
X11900000Y81330000D01*
X11900000Y78365000D02*
X11900000Y78440000D01*
X14900000Y81405000D02*
X11900000Y81405000D01*
X14900000Y81405000D02*
X14900000Y81330000D01*
X14900000Y78365000D02*
X11900000Y78365000D01*
X14900000Y78365000D02*
X14900000Y78440000D01*
D12*
X15900000Y78910000D02*
G75*
G02*
X15700000Y78910000I-100000J0D01*
G01*
X15700000Y78910000D02*
G75*
G02*
X15900000Y78910000I100000J0D01*
G01*
%TO.C,U4*%
D11*
X19761500Y63937500D02*
X19761500Y63226000D01*
X19761500Y60137500D02*
X19761500Y60849000D01*
X25138500Y63937500D02*
X25138500Y63226000D01*
X25138500Y60137500D02*
X25138500Y60849000D01*
D10*
X24750000Y59637500D02*
G75*
G02*
X24650000Y59637500I-50000J0D01*
G01*
X24650000Y59637500D02*
G75*
G02*
X24750000Y59637500I50000J0D01*
G01*
%TO.C,C34*%
D13*
X33884420Y24310000D02*
X34165580Y24310000D01*
X33884420Y23290000D02*
X34165580Y23290000D01*
%TO.C,C26*%
X38842753Y25260000D02*
X39123913Y25260000D01*
X38842753Y24240000D02*
X39123913Y24240000D01*
%TO.C,SW1*%
X51450000Y68480000D02*
X57910000Y68480000D01*
X51450000Y68450000D02*
X51450000Y68480000D01*
X51450000Y66550000D02*
X51450000Y63950000D01*
X51450000Y62020000D02*
X51450000Y62050000D01*
X51450000Y62020000D02*
X57910000Y62020000D01*
X57910000Y68480000D02*
X57910000Y68450000D01*
X57910000Y66550000D02*
X57910000Y63950000D01*
X57910000Y62020000D02*
X57910000Y62050000D01*
%TO.C,C39*%
X26090000Y20459420D02*
X26090000Y20740580D01*
X27110000Y20459420D02*
X27110000Y20740580D01*
%TO.C,R10*%
X47990000Y60359420D02*
X47990000Y60640580D01*
X49010000Y60359420D02*
X49010000Y60640580D01*
%TO.C,F1*%
X51486252Y16610000D02*
X48713748Y16610000D01*
X51486252Y13190000D02*
X48713748Y13190000D01*
%TO.C,C27*%
X15365580Y2250000D02*
X15084420Y2250000D01*
X15365580Y1230000D02*
X15084420Y1230000D01*
%TO.C,C25*%
X30664420Y52460000D02*
X30945580Y52460000D01*
X30664420Y51440000D02*
X30945580Y51440000D01*
%TO.C,R16*%
X13140580Y77710000D02*
X12859420Y77710000D01*
X13140580Y76690000D02*
X12859420Y76690000D01*
%TO.C,U2*%
D12*
X31950000Y21300000D02*
G75*
G02*
X31750000Y21300000I-100000J0D01*
G01*
X31750000Y21300000D02*
G75*
G02*
X31950000Y21300000I100000J0D01*
G01*
%TO.C,R28*%
D13*
X24440580Y12710000D02*
X24159420Y12710000D01*
X24440580Y11690000D02*
X24159420Y11690000D01*
%TO.C,R21*%
X34740000Y9615580D02*
X34740000Y9334420D01*
X35760000Y9615580D02*
X35760000Y9334420D01*
%TO.C,R33*%
X4190000Y23440580D02*
X4190000Y23159420D01*
X5210000Y23440580D02*
X5210000Y23159420D01*
%TO.C,J5*%
X420000Y24890000D02*
X420000Y30080000D01*
X3180000Y30080000D02*
X420000Y30080000D01*
X3180000Y24890000D02*
X420000Y24890000D01*
X3180000Y24890000D02*
X3180000Y30080000D01*
X3180000Y23620000D02*
X3180000Y22240000D01*
X3180000Y22240000D02*
X1800000Y22240000D01*
%TO.C,R20*%
X22470000Y66345580D02*
X22470000Y66064420D01*
X23490000Y66345580D02*
X23490000Y66064420D01*
%TO.C,R27*%
X4990000Y13815580D02*
X4990000Y13534420D01*
X6010000Y13815580D02*
X6010000Y13534420D01*
%TO.C,C24*%
X30634420Y50810000D02*
X30915580Y50810000D01*
X30634420Y49790000D02*
X30915580Y49790000D01*
%TO.C,J6*%
X490000Y63240000D02*
X490000Y59360000D01*
X2460000Y64410000D02*
X4960000Y64410000D01*
X2460000Y58190000D02*
X4960000Y58190000D01*
X4960000Y64410000D02*
X4960000Y63360000D01*
X4960000Y63360000D02*
X5950000Y63360000D01*
X4960000Y58190000D02*
X4960000Y59240000D01*
%TO.C,C17*%
X44840000Y66909420D02*
X44840000Y67190580D01*
X45860000Y66909420D02*
X45860000Y67190580D01*
%TO.C,R23*%
X42640000Y86990580D02*
X42640000Y86709420D01*
X43660000Y86990580D02*
X43660000Y86709420D01*
%TO.C,R26*%
X26690000Y26859420D02*
X26690000Y27140580D01*
X27710000Y26859420D02*
X27710000Y27140580D01*
%TO.C,R18*%
X18310000Y58744420D02*
X18310000Y59025580D01*
X19330000Y58744420D02*
X19330000Y59025580D01*
%TO.C,R24*%
X30540580Y23910000D02*
X30259420Y23910000D01*
X30540580Y22890000D02*
X30259420Y22890000D01*
%TO.C,C37*%
X38851087Y23610000D02*
X39132247Y23610000D01*
X38851087Y22590000D02*
X39132247Y22590000D01*
%TO.C,C31*%
X38855253Y18660000D02*
X39136413Y18660000D01*
X38855253Y17640000D02*
X39136413Y17640000D01*
%TO.C,C19*%
X24190580Y59585000D02*
X23909420Y59585000D01*
X24190580Y58565000D02*
X23909420Y58565000D01*
%TO.C,C41*%
X45490000Y36634420D02*
X45490000Y36915580D01*
X46510000Y36634420D02*
X46510000Y36915580D01*
%TO.C,C40*%
X44084420Y28910000D02*
X44365580Y28910000D01*
X44084420Y27890000D02*
X44365580Y27890000D01*
%TO.C,R30*%
X4040000Y41565580D02*
X4040000Y41284420D01*
X5060000Y41565580D02*
X5060000Y41284420D01*
%TO.C,C38*%
X38859420Y20310000D02*
X39140580Y20310000D01*
X38859420Y19290000D02*
X39140580Y19290000D01*
%TO.C,R9*%
X46490000Y66909420D02*
X46490000Y67190580D01*
X47510000Y66909420D02*
X47510000Y67190580D01*
%TO.C,C23*%
X41040000Y86709420D02*
X41040000Y86990580D01*
X42060000Y86709420D02*
X42060000Y86990580D01*
%TO.C,R15*%
X15690000Y80740580D02*
X15690000Y80459420D01*
X16710000Y80740580D02*
X16710000Y80459420D01*
%TO.C,C45*%
X48656667Y36634420D02*
X48656667Y36915580D01*
X49676667Y36634420D02*
X49676667Y36915580D01*
%TO.C,C21*%
X24190580Y58035000D02*
X23909420Y58035000D01*
X24190580Y57015000D02*
X23909420Y57015000D01*
%TO.C,U7*%
D11*
X8285000Y87115000D02*
X8285000Y87785000D01*
X8755000Y88900000D02*
X9415000Y88900000D01*
X9415000Y86000000D02*
X8755000Y86000000D01*
D12*
X11595000Y86400000D02*
G75*
G02*
X11395000Y86400000I-100000J0D01*
G01*
X11395000Y86400000D02*
G75*
G02*
X11595000Y86400000I100000J0D01*
G01*
%TO.C,R36*%
D13*
X42690000Y37740580D02*
X42690000Y37459420D01*
X43710000Y37740580D02*
X43710000Y37459420D01*
%TO.C,C5*%
X17390000Y86534420D02*
X17390000Y86815580D01*
X18410000Y86534420D02*
X18410000Y86815580D01*
%TO.C,D2*%
X44500000Y9940000D02*
X44500000Y13950000D01*
X44500000Y9940000D02*
X46500000Y9940000D01*
X46500000Y9940000D02*
X46500000Y13950000D01*
%TO.C,R25*%
X25090000Y26859420D02*
X25090000Y27140580D01*
X26110000Y26859420D02*
X26110000Y27140580D01*
%TO.C,R7*%
X8990000Y76359420D02*
X8990000Y76640580D01*
X10010000Y76359420D02*
X10010000Y76640580D01*
%TO.C,U1*%
D11*
X21250000Y96490000D02*
X39250000Y96490000D01*
X21250000Y89770000D02*
X21250000Y96490000D01*
X21250000Y71720000D02*
X21250000Y70990000D01*
X21250000Y70990000D02*
X22495000Y70990000D01*
X39250000Y96490000D02*
X39250000Y89770000D01*
X39250000Y71720000D02*
X39250000Y70990000D01*
X39250000Y70990000D02*
X38005000Y70990000D01*
D12*
X20150000Y89000000D02*
G75*
G02*
X19950000Y89000000I-100000J0D01*
G01*
X19950000Y89000000D02*
G75*
G02*
X20150000Y89000000I100000J0D01*
G01*
%TO.C,C22*%
D13*
X19090000Y86534420D02*
X19090000Y86815580D01*
X20110000Y86534420D02*
X20110000Y86815580D01*
%TO.C,R35*%
X29946920Y17010000D02*
X30228080Y17010000D01*
X29946920Y15990000D02*
X30228080Y15990000D01*
%TO.C,C13*%
X10090000Y81359420D02*
X10090000Y81640580D01*
X11110000Y81359420D02*
X11110000Y81640580D01*
%TO.C,C28*%
X15390580Y4050000D02*
X15109420Y4050000D01*
X15390580Y3030000D02*
X15109420Y3030000D01*
%TO.C,C30*%
X38838587Y21960000D02*
X39119747Y21960000D01*
X38838587Y20940000D02*
X39119747Y20940000D01*
%TO.C,U11*%
D11*
X6750000Y20250000D02*
X6750000Y17500000D01*
X6750000Y20250000D02*
X9500000Y20250000D01*
X6750000Y4750000D02*
X6750000Y7500000D01*
X6750000Y4750000D02*
X9500000Y4750000D01*
X22250000Y20250000D02*
X19500000Y20250000D01*
X22250000Y20250000D02*
X22250000Y17500000D01*
X22250000Y4750000D02*
X19500000Y4750000D01*
X22250000Y4750000D02*
X22250000Y7500000D01*
D12*
X10800000Y4000000D02*
G75*
G02*
X10600000Y4000000I-100000J0D01*
G01*
X10600000Y4000000D02*
G75*
G02*
X10800000Y4000000I100000J0D01*
G01*
%TO.C,C18*%
D13*
X48090000Y67190580D02*
X48090000Y66909420D01*
X49110000Y67190580D02*
X49110000Y66909420D01*
%TO.C,C44*%
X47073333Y36634420D02*
X47073333Y36915580D01*
X48093333Y36634420D02*
X48093333Y36915580D01*
%TO.C,U12*%
D11*
X29737500Y55200000D02*
X31937500Y55200000D01*
X29737500Y53000000D02*
X29737500Y55200000D01*
X31937500Y55200000D02*
X31937500Y53000000D01*
X31937500Y53000000D02*
X29737500Y53000000D01*
D14*
X32164753Y55358000D02*
G75*
G02*
X32074247Y55358000I-45253J0D01*
G01*
X32074247Y55358000D02*
G75*
G02*
X32164753Y55358000I45253J0D01*
G01*
%TO.C,C36*%
D13*
X27683750Y20459420D02*
X27683750Y20740580D01*
X28703750Y20459420D02*
X28703750Y20740580D01*
%TO.C,J2*%
X54010000Y16590000D02*
X57410000Y16590000D01*
X54010000Y13190000D02*
X54010000Y16590000D01*
X57410000Y16590000D02*
X57410000Y13190000D01*
X57410000Y13190000D02*
X54010000Y13190000D01*
%TO.C,C29*%
X9300000Y70330580D02*
X9300000Y70049420D01*
X10320000Y70330580D02*
X10320000Y70049420D01*
%TO.C,R32*%
X4090000Y32440580D02*
X4090000Y32159420D01*
X5110000Y32440580D02*
X5110000Y32159420D01*
%TO.C,R14*%
X26300000Y61544420D02*
X26300000Y61825580D01*
X27320000Y61544420D02*
X27320000Y61825580D01*
%TO.C,R29*%
X24165580Y56485000D02*
X23884420Y56485000D01*
X24165580Y55465000D02*
X23884420Y55465000D01*
%TO.C,U6*%
X11877500Y75410000D02*
X13697500Y75410000D01*
X11877500Y75360000D02*
X11877500Y75410000D01*
X11877500Y72290000D02*
X11877500Y72340000D01*
X13697500Y75410000D02*
X13697500Y75360000D01*
X13697500Y72340000D02*
X13697500Y72290000D01*
X13697500Y72290000D02*
X11877500Y72290000D01*
X14477500Y72010000D02*
X13997500Y72010000D01*
X14237500Y72340000D01*
X14477500Y72010000D01*
G36*
X14477500Y72010000D02*
G01*
X13997500Y72010000D01*
X14237500Y72340000D01*
X14477500Y72010000D01*
G37*
%TO.C,C43*%
X42990000Y33159420D02*
X42990000Y33440580D01*
X44010000Y33159420D02*
X44010000Y33440580D01*
%TO.C,C12*%
X9784420Y79330000D02*
X10065580Y79330000D01*
X9784420Y78310000D02*
X10065580Y78310000D01*
%TO.C,R19*%
X20559420Y65760000D02*
X20840580Y65760000D01*
X20559420Y64740000D02*
X20840580Y64740000D01*
%TO.C,C35*%
X29277500Y20459420D02*
X29277500Y20740580D01*
X30297500Y20459420D02*
X30297500Y20740580D01*
%TO.C,J7*%
X490000Y54940000D02*
X490000Y51060000D01*
X2460000Y56110000D02*
X4960000Y56110000D01*
X2460000Y49890000D02*
X4960000Y49890000D01*
X4960000Y56110000D02*
X4960000Y55060000D01*
X4960000Y55060000D02*
X5950000Y55060000D01*
X4960000Y49890000D02*
X4960000Y50940000D01*
%TO.C,J3*%
X420000Y42970000D02*
X420000Y48160000D01*
X3180000Y48160000D02*
X420000Y48160000D01*
X3180000Y42970000D02*
X420000Y42970000D01*
X3180000Y42970000D02*
X3180000Y48160000D01*
X3180000Y41700000D02*
X3180000Y40320000D01*
X3180000Y40320000D02*
X1800000Y40320000D01*
%TO.C,R34*%
X30203080Y18610000D02*
X29921920Y18610000D01*
X30203080Y17590000D02*
X29921920Y17590000D01*
%TO.C,C14*%
X12090000Y87259420D02*
X12090000Y87540580D01*
X13110000Y87259420D02*
X13110000Y87540580D01*
%TO.C,C46*%
X48340000Y29740580D02*
X48340000Y29459420D01*
X49360000Y29740580D02*
X49360000Y29459420D01*
%TO.C,Q2*%
D11*
X37932500Y14919000D02*
X41932500Y14919000D01*
X37932500Y9881000D02*
X41932500Y9881000D01*
D12*
X36032500Y14305000D02*
G75*
G02*
X35832500Y14305000I-100000J0D01*
G01*
X35832500Y14305000D02*
G75*
G02*
X36032500Y14305000I100000J0D01*
G01*
%TO.C,J4*%
D13*
X420000Y33890000D02*
X420000Y39080000D01*
X3180000Y39080000D02*
X420000Y39080000D01*
X3180000Y33890000D02*
X420000Y33890000D01*
X3180000Y33890000D02*
X3180000Y39080000D01*
X3180000Y32620000D02*
X3180000Y31240000D01*
X3180000Y31240000D02*
X1800000Y31240000D01*
%TO.C,SW2*%
X51460000Y61230000D02*
X57920000Y61230000D01*
X51460000Y61200000D02*
X51460000Y61230000D01*
X51460000Y59300000D02*
X51460000Y56700000D01*
X51460000Y54770000D02*
X51460000Y54800000D01*
X51460000Y54770000D02*
X57920000Y54770000D01*
X57920000Y61230000D02*
X57920000Y61200000D01*
X57920000Y59300000D02*
X57920000Y56700000D01*
X57920000Y54770000D02*
X57920000Y54800000D01*
%TO.C,L1*%
D12*
X29900000Y38300000D02*
X40300000Y38300000D01*
X29900000Y35400000D02*
X29900000Y38300000D01*
X29900000Y30800000D02*
X29900000Y27900000D01*
X29900000Y27900000D02*
X40300000Y27900000D01*
X40300000Y38300000D02*
X40300000Y35400000D01*
X40300000Y27900000D02*
X40300000Y30800000D01*
%TO.C,C33*%
D13*
X30259420Y25510000D02*
X30540580Y25510000D01*
X30259420Y24490000D02*
X30540580Y24490000D01*
%TO.C,C32*%
X38846920Y17010000D02*
X39128080Y17010000D01*
X38846920Y15990000D02*
X39128080Y15990000D01*
%TO.C,C16*%
X6964420Y85310000D02*
X7245580Y85310000D01*
X6964420Y84290000D02*
X7245580Y84290000D01*
%TO.C,C42*%
X41390000Y33159420D02*
X41390000Y33440580D01*
X42410000Y33159420D02*
X42410000Y33440580D01*
%TO.C,J1*%
X4260000Y77940000D02*
X5670000Y77940000D01*
X4260000Y68780000D02*
X5670000Y68780000D01*
X8340000Y77120000D02*
X8190000Y77120000D01*
X8340000Y76320000D02*
X8340000Y77120000D01*
%TO.C,C15*%
X10585580Y85300000D02*
X10304420Y85300000D01*
X10585580Y84280000D02*
X10304420Y84280000D01*
%TO.C,TP1*%
X57600000Y24700000D02*
X59000000Y24700000D01*
X57600000Y23300000D02*
X57600000Y24700000D01*
X59000000Y24700000D02*
X59000000Y23300000D01*
X59000000Y23300000D02*
X57600000Y23300000D01*
%TO.C,J11*%
X51590000Y45960000D02*
X51590000Y45040000D01*
X51590000Y45040000D02*
X53190000Y45040000D01*
X51590000Y38760000D02*
X51590000Y37840000D01*
X51590000Y37840000D02*
X59410000Y37840000D01*
X53190000Y45960000D02*
X53190000Y45040000D01*
X53190000Y45040000D02*
X53190000Y44760000D01*
X53190000Y39040000D02*
X51975000Y39040000D01*
X53190000Y39040000D02*
X53190000Y38760000D01*
X53190000Y38760000D02*
X51590000Y38760000D01*
X53190000Y37840000D02*
X53190000Y38760000D01*
X55050000Y43400000D02*
X59410000Y43400000D01*
X55050000Y40400000D02*
X55050000Y43400000D01*
X57150000Y39600000D02*
X59410000Y39600000D01*
X57150000Y39100000D02*
X59410000Y39100000D01*
X59410000Y45960000D02*
X51590000Y45960000D01*
X59410000Y40400000D02*
X55050000Y40400000D01*
X59410000Y37840000D02*
X59410000Y45960000D01*
X55550000Y45200000D02*
X57150000Y45200000D01*
X57150000Y44200000D01*
X55550000Y44200000D01*
X55550000Y45200000D01*
X55550000Y39600000D02*
X57150000Y39600000D01*
X57150000Y38600000D01*
X55550000Y38600000D01*
X55550000Y39600000D01*
%TO.C,J9*%
X54010000Y11940000D02*
X57410000Y11940000D01*
X54010000Y8540000D02*
X54010000Y11940000D01*
X57410000Y11940000D02*
X57410000Y8540000D01*
X57410000Y8540000D02*
X54010000Y8540000D01*
%TO.C,R8*%
X11030000Y70330580D02*
X11030000Y70049420D01*
X12050000Y70330580D02*
X12050000Y70049420D01*
%TO.C,R17*%
X18330000Y62080580D02*
X18330000Y61799420D01*
X19350000Y62080580D02*
X19350000Y61799420D01*
%TO.C,J10*%
X52880000Y78520000D02*
X54260000Y78520000D01*
X52880000Y77140000D02*
X52880000Y78520000D01*
X52880000Y75870000D02*
X52880000Y70680000D01*
X52880000Y75870000D02*
X55530000Y75870000D01*
X52880000Y70680000D02*
X58180000Y70680000D01*
X55530000Y78520000D02*
X58180000Y78520000D01*
X55530000Y75870000D02*
X55530000Y78520000D01*
X58180000Y78520000D02*
X58180000Y70680000D01*
%TO.C,D1*%
X44427500Y83110000D02*
X44427500Y81190000D01*
X44427500Y81190000D02*
X47112500Y81190000D01*
X47112500Y83110000D02*
X44427500Y83110000D01*
%TO.C,R31*%
X41190000Y83159420D02*
X41190000Y83440580D01*
X42210000Y83159420D02*
X42210000Y83440580D01*
%TO.C,C2*%
X6650000Y38360000D02*
X7900000Y38360000D01*
X7275000Y38985000D02*
X7275000Y37735000D01*
X8140000Y39795563D02*
X8140000Y37110000D01*
X8140000Y39795563D02*
X9204437Y40860000D01*
X8140000Y31404437D02*
X8140000Y34090000D01*
X8140000Y31404437D02*
X9204437Y30340000D01*
X9204437Y40860000D02*
X18660000Y40860000D01*
X9204437Y30340000D02*
X18660000Y30340000D01*
X18660000Y40860000D02*
X18660000Y37110000D01*
X18660000Y30340000D02*
X18660000Y34090000D01*
%TO.C,C20*%
X25154420Y65690000D02*
X25435580Y65690000D01*
X25154420Y64670000D02*
X25435580Y64670000D01*
%TO.C,R22*%
X38834420Y26860000D02*
X39115580Y26860000D01*
X38834420Y25840000D02*
X39115580Y25840000D01*
%TO.C,U3*%
D11*
X45600000Y34110000D02*
X47600000Y34110000D01*
X45600000Y31690000D02*
X47600000Y31690000D01*
D12*
X44775000Y33650000D02*
G75*
G02*
X44575000Y33650000I-100000J0D01*
G01*
X44575000Y33650000D02*
G75*
G02*
X44775000Y33650000I100000J0D01*
G01*
%TO.C,J8*%
D13*
X51590000Y36560000D02*
X51590000Y35640000D01*
X51590000Y35640000D02*
X53190000Y35640000D01*
X51590000Y27360000D02*
X51590000Y26440000D01*
X51590000Y26440000D02*
X59410000Y26440000D01*
X53190000Y36560000D02*
X53190000Y35640000D01*
X53190000Y35640000D02*
X53190000Y35360000D01*
X53190000Y27640000D02*
X51975000Y27640000D01*
X53190000Y27640000D02*
X53190000Y27360000D01*
X53190000Y27360000D02*
X51590000Y27360000D01*
X53190000Y26440000D02*
X53190000Y27360000D01*
X55050000Y34000000D02*
X59410000Y34000000D01*
X55050000Y29000000D02*
X55050000Y34000000D01*
X57150000Y28200000D02*
X59410000Y28200000D01*
X57150000Y27700000D02*
X59410000Y27700000D01*
X59410000Y36560000D02*
X51590000Y36560000D01*
X59410000Y29000000D02*
X55050000Y29000000D01*
X59410000Y26440000D02*
X59410000Y36560000D01*
X55550000Y35800000D02*
X57150000Y35800000D01*
X57150000Y34800000D01*
X55550000Y34800000D01*
X55550000Y35800000D01*
X55550000Y28200000D02*
X57150000Y28200000D01*
X57150000Y27200000D01*
X55550000Y27200000D01*
X55550000Y28200000D01*
%TD*%
M02*
